<svg width="519" height="305" viewBox="0 0 519 305" fill="none" xmlns="http://www.w3.org/2000/svg">
<g clip-path="url(#clip0_172_41028)">
<path d="M126.323 116.763C126.323 34.5753 192.948 -31.9998 275.198 -31.9998C357.448 -31.9998 424.074 34.5753 424.074 116.763C424.074 198.951 357.448 265.526 275.198 265.526C192.948 265.526 126.323 198.951 126.323 116.763Z" fill="#F3B607"/>
<path d="M-4.57764e-05 129.135C-4.57764e-05 78.4677 41.1249 37.521 91.6836 37.521C142.39 37.521 183.367 78.6149 183.367 129.135C183.367 179.803 142.242 220.75 91.6836 220.75C41.1249 220.75 -4.57764e-05 179.803 -4.57764e-05 129.135Z" fill="#F3B607"/>
<path d="M119.248 213.385C119.248 162.718 160.373 121.771 210.931 121.771C261.637 121.771 302.615 162.865 302.615 213.385C302.762 263.906 261.637 305 210.931 305C160.225 305 119.248 263.906 119.248 213.385Z" fill="#F3B607"/>
<path d="M104.508 207.052C104.508 178.773 127.502 155.943 155.656 155.943C183.957 155.943 206.804 178.92 206.804 207.052C206.804 235.332 183.809 258.162 155.656 258.162C127.502 258.162 104.508 235.332 104.508 207.052Z" fill="#F3B607"/>
<path d="M278.736 158.299C278.736 92.0187 332.537 38.2578 398.868 38.2578C465.199 38.2578 519 92.0187 519 158.299C519 224.58 465.199 278.341 398.868 278.341C332.537 278.341 278.736 224.58 278.736 158.299Z" fill="#F3B607"/>
</g>
<defs>
<clipPath id="clip0_172_41028">
<rect width="519" height="337" fill="white" transform="matrix(-1 0 0 -1 519 305)"/>
</clipPath>
</defs>
</svg>
