<?xml version="1.0" encoding="UTF-8"?>
<svg xmlns="http://www.w3.org/2000/svg" viewBox="0 0 132.91 125.03">
  <defs>
    <style>
      .cls-1 {
        fill: #f7c3c8;
      }

      .cls-2 {
        fill: #f8f3f3;
      }

      .cls-3 {
        fill: #001689;
      }

      .cls-4 {
        fill: #e9f9f7;
      }

      .cls-5, .cls-6 {
        fill: #fff;
      }

      .cls-7 {
        fill: #ffb548;
      }

      .cls-8 {
        fill: #efe5e4;
      }

      .cls-9 {
        fill: #a5e7e3;
      }

      .cls-10 {
        fill: #be6583;
      }

      .cls-11 {
        fill: #c9d0d9;
      }

      .cls-12 {
        fill: #afeae6;
      }

      .cls-13 {
        fill: #10cfc9;
      }

      .cls-14 {
        fill: #88e0db;
      }

      .cls-15 {
        fill: #d5f3f1;
      }

      .cls-15, .cls-16, .cls-17, .cls-18 {
        mix-blend-mode: multiply;
      }

      .cls-16 {
        fill: #dcf5f3;
      }

      .cls-17 {
        fill: #f5e3ee;
      }

      .cls-18 {
        fill: #f8f4f4;
      }

      .cls-19 {
        opacity: .4;
      }

      .cls-20 {
        opacity: .48;
      }

      .cls-21 {
        opacity: .91;
      }

      .cls-22 {
        isolation: isolate;
      }

      .cls-6 {
        opacity: .6;
      }
    </style>
  </defs>
  <g class="cls-22">
    <g id="Layer_2" data-name="Layer 2">
      <g id="Layer_1-2" data-name="Layer 1">
        <path class="cls-9" d="m52.57,108.53c-.65-.32-64.97-32.09-50.43-81.15C8.74,5.13,30.05-2.8,47.7.86c.59.12,1.17.26,1.73.4,12.17,3.16,19.64,11.85,22.78,16.29,4.63-2.82,14.94-7.83,27.38-5.89.58.09,1.16.2,1.75.32,17.65,3.66,34.05,19.42,31.26,42.45-6.16,50.8-77.81,54.38-78.54,54.41l-.79.03-.71-.34Z"/>
        <g>
          <g>
            <g>
              <path class="cls-2" d="m98.13,40.9c8.41,15.41,8.47,17.71,12.54,22.39,4.07,4.67,14.48,14.41,8.56,23.8-5.91,9.4-12.56,9.65-17.71,7.62-.31,4.52-19.24,13.27-23.57-9.35,7.6-17.68,20.19-44.47,20.19-44.47Z"/>
              <path class="cls-2" d="m100.82,54.09l-16.67,17.22c-2.19,4.88-4.35,9.74-6.2,14.05,4.33,22.62,23.26,13.87,23.57,9.35,4.47,1.76,9.47,1.24,14.68-3.76,2.47-4.4,4.32-10.61.84-15.09-10.88-14-12.72-11.02-16.21-21.78Z"/>
              <path class="cls-8" d="m99.48,55.47l-1.42,1.46c-.11.12-.2.25-.26.4l-3.81,10.07c-.08.22-.23.41-.43.55l-11.26,7.87c-.18.12-.32.29-.4.49-1.35,3.03-2.64,5.97-3.82,8.71-.1.22-.12.47-.07.71.67,3.34,1.67,5.97,2.88,8.03.05.08.1.15.16.22.67.75,1.35,1.27,2.03,1.44,3.14.77,4.8.49,6.11.37.59-.05,1.05-.54,1.07-1.13,0-.02,0-.05,0-.07.04-1.26,1.76-1.59,2.26-.44.03.07.06.13.09.2.21.48.71.78,1.23.71,1.48-.22,3.15-1.05,4.17-1.76.39-.27.56-.75.45-1.21-.18-.77-.56-1.86-.89-3.01-.31-1.07.9-1.94,1.81-1.3s1.9,1.45,2.8,2.36c.33.34.83.46,1.27.29,1.52-.58,3.02-1.76,4.19-2.79.43-.38.52-1,.22-1.49-.37-.6-.84-1.43-1.3-2.27-.6-1.08.68-2.26,1.69-1.55.47.33.96.71,1.44,1.15.55.5,1.41.39,1.8-.24,1.39-2.24,3.17-6.71,3.29-9.72.01-.29-.1-.57-.28-.79-8.11-9.78-10.23-8.95-13.09-16.85-.3-.82-1.35-1.03-1.95-.41Z"/>
              <path class="cls-3" d="m101.52,94.71c-.05.4-.2.78-.38,1.15-.1.18-.2.36-.32.52-.11.17-.24.33-.37.49-.53.62-1.16,1.15-1.83,1.61-1.35.91-2.9,1.52-4.5,1.84-.8.15-1.62.24-2.44.23-.82-.01-1.63-.1-2.43-.28-.79-.18-1.57-.44-2.3-.8-.73-.36-1.41-.8-2.03-1.31.69.41,1.4.77,2.14,1.06l.56.2c.19.06.38.11.57.17.19.06.38.09.57.14.1.02.19.05.29.07l.29.05c1.55.27,3.14.24,4.68-.07.77-.15,1.53-.37,2.26-.64.74-.27,1.44-.62,2.12-1.02.67-.41,1.31-.87,1.86-1.43.28-.28.53-.58.75-.91.21-.33.4-.68.51-1.07Z"/>
              <path class="cls-3" d="m98.3,39.35c1.4,2.94,2.76,5.9,4.13,8.85.68,1.48,1.36,2.96,2.06,4.43.7,1.47,1.41,2.93,2.19,4.35.78,1.42,1.61,2.81,2.56,4.12.47.65.98,1.28,1.51,1.9.53.61,1.08,1.21,1.63,1.81,2.2,2.4,4.37,4.88,6.09,7.68.85,1.4,1.59,2.89,2.1,4.46.51,1.57.78,3.24.66,4.91-.11,1.66-.62,3.29-1.44,4.74-.41.73-.87,1.4-1.35,2.07-.49.66-1,1.3-1.56,1.91-1.11,1.22-2.35,2.31-3.75,3.19-1.39.88-2.93,1.54-4.55,1.85-1.62.31-3.3.28-4.89-.12-.79-.2-1.57-.49-2.3-.85-.73-.37-1.42-.81-2.06-1.32,1.31.96,2.81,1.67,4.39,2.03,1.58.36,3.23.35,4.8,0,1.58-.34,3.07-1,4.42-1.88,1.35-.88,2.56-1.97,3.62-3.18.53-.6,1.03-1.24,1.5-1.9.47-.66.92-1.33,1.31-2.03.78-1.4,1.25-2.95,1.35-4.54.1-1.59-.16-3.19-.66-4.71-.5-1.52-1.23-2.97-2.07-4.34-1.68-2.76-3.82-5.22-6-7.63-.54-.61-1.1-1.21-1.63-1.83-.53-.63-1.04-1.27-1.52-1.94-.96-1.33-1.79-2.75-2.55-4.2-.76-1.45-1.46-2.92-2.13-4.41-.68-1.48-1.34-2.97-1.99-4.46l-3.89-8.96Z"/>
              <path class="cls-2" d="m40.28,38.96c-9.23,7.49-11.09,13.24-16.11,15.18-5.02,1.94-16.78,5.87-16.08,15.97.77,11.07,8.34,11.28,9.72,11.42-.15,3.24,12.12,22.93,29.28,4.09,4.4-14.57-6.81-46.67-6.81-46.67Z"/>
              <path class="cls-2" d="m47.09,85.63c1.16-3.85,1.23-8.93.71-14.31l-15.41-17.31c-.63,2.71-15.08,5.86-18.19,8.9-1.73,1.69-4.68,2.83-5.83,8.53,1.09,10.21,8.09,9.97,9.44,10.11-.15,3.24,12.12,22.93,29.28,4.09Z"/>
              <path class="cls-3" d="m17.81,81.53c0,.39.1.76.23,1.12.13.36.28.71.46,1.05.35.68.76,1.33,1.21,1.94.9,1.24,1.95,2.35,3.1,3.35,1.16.99,2.42,1.85,3.78,2.52,1.36.67,2.81,1.14,4.3,1.35,1.49.22,3.02.18,4.5-.12.74-.14,1.47-.35,2.19-.6.71-.26,1.41-.57,2.09-.91.68-.34,1.33-.74,1.97-1.15.63-.42,1.26-.86,1.86-1.34,1.21-.94,2.33-1.99,3.41-3.09-.99,1.18-2.08,2.27-3.25,3.29-.58.51-1.2.98-1.83,1.43-.64.44-1.29.86-1.98,1.23-.69.37-1.39.7-2.12.98-.73.27-1.48.49-2.25.66-1.53.32-3.13.37-4.68.15-1.55-.23-3.06-.72-4.45-1.43-1.39-.71-2.68-1.61-3.83-2.66-1.15-1.05-2.18-2.22-3.04-3.51-.43-.65-.81-1.32-1.13-2.03-.16-.35-.3-.72-.4-1.09-.1-.37-.17-.76-.15-1.14Z"/>
              <path class="cls-3" d="m40.28,38.96c-1.05.89-2.08,1.81-3.07,2.76-.99.95-1.95,1.94-2.88,2.95-.93,1.01-1.83,2.05-2.72,3.1-.89,1.05-1.76,2.12-2.7,3.14-.94,1.02-1.96,1.99-3.17,2.72-.3.18-.61.35-.93.5-.32.15-.65.28-.97.4-.64.25-1.28.5-1.92.75-2.54,1.02-5.04,2.2-7.27,3.76-1.12.78-2.17,1.65-3.09,2.65-.92,1-1.7,2.12-2.25,3.35-.56,1.23-.88,2.56-.96,3.91-.04.67-.02,1.35.02,2.03.05.68.12,1.36.25,2.02.25,1.33.67,2.64,1.33,3.83.66,1.18,1.57,2.23,2.67,3.02,1.1.79,2.4,1.32,3.74,1.54.67.11,1.36.15,2.05.1.68-.04,1.37-.17,2.01-.43-1.27.56-2.7.65-4.07.47-1.38-.19-2.71-.69-3.87-1.47-1.16-.78-2.12-1.86-2.82-3.07-.71-1.21-1.16-2.55-1.44-3.92-.14-.68-.23-1.38-.29-2.07-.06-.69-.08-1.39-.04-2.1.08-1.4.41-2.79.98-4.08.57-1.29,1.37-2.46,2.32-3.5.94-1.04,2.02-1.94,3.16-2.74,2.3-1.59,4.83-2.76,7.4-3.78.64-.25,1.29-.5,1.93-.74.33-.12.64-.24.94-.38.3-.14.6-.3.89-.47,1.16-.69,2.17-1.62,3.11-2.6.95-.99,1.84-2.04,2.75-3.07.91-1.04,1.83-2.07,2.79-3.06,1.92-1.98,3.97-3.84,6.14-5.53Z"/>
              <path class="cls-8" d="m14.2,62.9c-.82.8-1.92,1.48-2.97,2.58-.14.14-.23.33-.27.52-.43,2.24-.19,4.74.3,6.67.19.76,1.14,1.01,1.7.46.17-.17.34-.34.51-.51.85-.85,2.2.22,1.58,1.25-.44.73-.81,1.32-1.11,1.76-.33.48-.22,1.13.27,1.44,1.27.81,3.1,1.34,4.17,1.51.32.05.63-.06.86-.29.79-.79,2.43-2.45,4.4-3.53.88-.48,1.82.49,1.37,1.38-1.1,2.16-2.46,3.53-3.08,4.72-.11.22-.14.47-.07.7.25.84,1.31,1.94,3.07,3.11.3.2.68.22,1.01.07.24-.11.48-.24.71-.4.83-.55,1.85.37,1.45,1.28,0,.02-.02.04-.03.06-.22.5-.01,1.09.48,1.33,2.93,1.39,9.67,3.33,12.12,1.09,2.45-2.23,4.35-11.08,4.73-12.95.05-.23.01-.46-.1-.67l-7.62-14.5c-.04-.07-.09-.14-.14-.2l-4.34-4.87c-.38-.42-1.01-.45-1.44-.08-2.88,2.51-14.79,5.32-17.58,8.04Z"/>
              <path class="cls-2" d="m101.54,59.42c-3,18.1-16.52,28.56-34.71,25.97-3.43,2.76-9.39,1.69-14.26.21-13.27-4.03-22.36-16.18-20.48-34.29,1.88-18.11,15.7-31.51,38.2-29.17,23.02,2.39,34.1,20.06,31.24,37.27Z"/>
              <g>
                <path class="cls-8" d="m87,82.05c-5.52,3.02-12.59.72-15.1-.93-2.62-1.72-3.03-9.71-4.48-8.4-1.34,1.22-2.84,9.43-12.22,13.6,4.25,1.02,8.8,1.34,11.63-.93,7.71,1.1,14.58-.15,20.17-3.33Z"/>
                <path class="cls-2" d="m87.61,81.69s-.09.05-.13.08c.04-.03.09-.05.13-.08Z"/>
              </g>
              <path class="cls-3" d="m32.51,48.37c.62-3.72,1.83-7.36,3.63-10.69,1.81-3.33,4.24-6.32,7.17-8.75,2.92-2.44,6.34-4.25,9.94-5.45,3.61-1.21,7.41-1.76,11.2-1.86,1.9-.02,3.79.06,5.68.25,1.89.19,3.76.5,5.61.92,3.69.85,7.3,2.17,10.57,4.1,1.64.96,3.2,2.05,4.65,3.27,1.45,1.23,2.79,2.58,3.99,4.04,1.2,1.47,2.25,3.05,3.17,4.7.91,1.66,1.65,3.41,2.23,5.2-.33-.89-.66-1.77-1.07-2.62-.38-.86-.83-1.69-1.29-2.51-.94-1.63-2.02-3.18-3.24-4.6-1.22-1.43-2.56-2.75-4.01-3.94-1.45-1.19-3.01-2.24-4.64-3.17-3.26-1.85-6.82-3.17-10.48-3.98-1.83-.41-3.69-.7-5.55-.89-1.87-.18-3.74-.25-5.62-.23-3.74.08-7.5.6-11.06,1.78-3.56,1.16-6.92,2.94-9.83,5.3-2.91,2.36-5.35,5.29-7.2,8.56-.93,1.63-1.71,3.35-2.35,5.12-.64,1.77-1.14,3.59-1.51,5.44Z"/>
              <path class="cls-3" d="m66.83,85.39c-.47.38-1,.7-1.56.95-.56.25-1.15.43-1.75.56-1.2.26-2.43.32-3.65.27-2.45-.12-4.85-.64-7.2-1.31-2.35-.67-4.63-1.63-6.75-2.86-2.12-1.23-4.08-2.74-5.81-4.48-1.73-1.75-3.21-3.73-4.42-5.87-1.2-2.14-2.12-4.43-2.76-6.8-.63-2.37-1-4.79-1.13-7.23-.11-2.44-.02-4.88.29-7.29-.19,2.42-.23,4.86-.03,7.28.19,2.42.6,4.81,1.27,7.14.68,2.32,1.59,4.57,2.8,6.66,1.2,2.09,2.66,4.03,4.36,5.74,1.69,1.72,3.61,3.2,5.69,4.43,2.07,1.23,4.31,2.19,6.61,2.91,2.31.71,4.68,1.27,7.1,1.45,1.2.09,2.42.07,3.61-.15,1.18-.22,2.35-.64,3.33-1.37Z"/>
              <path class="cls-3" d="m101.85,56.95c-.07,1.06-.18,2.12-.37,3.17-.09.52-.17,1.05-.29,1.57-.11.52-.21,1.04-.35,1.56-.52,2.07-1.21,4.09-2.09,6.04-.87,1.95-1.96,3.8-3.23,5.53-1.28,1.72-2.74,3.3-4.38,4.68-1.65,1.37-3.46,2.55-5.38,3.5-1.93.94-3.96,1.67-6.04,2.13-2.09.47-4.22.71-6.35.76-2.13.03-4.26-.13-6.36-.47,2.11.23,4.23.32,6.35.21,2.11-.1,4.22-.38,6.26-.9,4.09-1.02,7.95-2.93,11.17-5.64,3.23-2.7,5.77-6.17,7.59-9.97.91-1.9,1.64-3.89,2.21-5.93.16-.51.27-1.02.4-1.54.14-.51.24-1.03.34-1.55.05-.26.11-.52.16-.78.05-.26.09-.52.13-.78.09-.52.16-1.05.22-1.58Z"/>
              <g>
                <path class="cls-8" d="m52.33,58.1c-.67,6.48-5.89,8.99-10.73,8.19-6.4-1.05-8.52-5.77-8.02-10.58.5-4.81,5.27-8.13,10.14-7.63,4.87.51,9.28,3.46,8.6,10.02Z"/>
                <path class="cls-5" d="m35.42,55.14c-1.28,5.05,1.47,9.07,6.12,10.43,4.54,1.33,8.7-1.34,10.15-5.39,1.75-4.91-1.02-10.34-6.58-11.73-5.21-1.3-8.81,3.22-9.69,6.69Z"/>
                <path class="cls-4" d="m42.83,48.24c-3.35.82-5.6,4.07-6.27,6.72-1.28,5.05,1.47,9.07,6.12,10.43,1.03.3,2.04.39,3.01.31-1.29.3-2.7.29-4.14-.14-4.65-1.36-7.4-5.37-6.12-10.43.74-2.94,3.43-6.62,7.4-6.9Z"/>
                <path class="cls-13" d="m48.03,50.87c.88.22,2.16.88,2.76,1.54.4.68,2.33,4.42.85,7.89-1.46,3.41-4.13,5.24-7.11,5.53l-.02.05s-.09-.02-.13-.03c-4.28-1.25-7.23-5.09-6-9.73.95-3.59,4.86-6.45,9.65-5.25Z"/>
                <path class="cls-6" d="m51.7,55.12l-.1-1.4-.66.78.18-1.26c.02-.14-.15-.23-.26-.14l-.64.54-.11-1.06c-.01-.14-.19-.19-.28-.08l-.53.7-.2-.99c-.03-.14-.21-.17-.29-.05l-.43.71-.57-1.21c-.06-.13-.24-.12-.29.01l-.44,1.22-.76-1.45c-.06-.12-.24-.11-.29.02l-.41,1.14-.59-.96c-.07-.12-.26-.09-.29.05l-.25,1.24-.64-1.03c-.08-.13-.29-.07-.29.08v1.15s-1.02-.76-1.02-.76c-.12-.09-.28.02-.25.16l.31,1.34-1.17-.6c-.13-.07-.28.07-.21.21l.51,1.09-1.03-.26c-.15-.04-.25.13-.16.25l.6.73-1.34-.09c-.14,0-.22.17-.12.27l.89.86-1.2.14c-.15.02-.19.22-.06.29l1.09.62-1.22.45c-.14.05-.14.24,0,.29l1.07.38-1.19.56c-.14.06-.11.26.03.29l1.24.27-.96.66c-.13.09-.07.28.09.28h1.21s-.87,1-.87,1c-.1.11,0,.28.14.26l1.28-.19-.68,1.11c-.07.12.04.27.17.23l1.36-.35-.58.93c-.08.13.06.29.2.22l1.07-.51-.46,1.05c-.06.13.08.26.21.21l1.35-.6-.21.99c-.03.15.15.25.26.15l.79-.76.02,1.39c0,.13.15.2.25.12l1.16-.83.44.61,2.36-1.98,2.7-8.27c.02-.08.03-.16.03-.24Z"/>
                <path class="cls-3" d="m44.24,66.01c-.91.04-1.83-.07-2.73-.34-4.94-1.44-7.43-5.69-6.19-10.56l.11.03-.11-.03c.49-1.95,1.71-3.89,3.25-5.19,1.34-1.13,3.57-2.33,6.57-1.58,2.71.68,4.89,2.33,6.14,4.66,1.18,2.21,1.37,4.84.52,7.22-.73,2.05-2.14,3.74-3.97,4.77-1.11.63-2.33.97-3.59,1.03Zm-1.25-17.67c-3.98.18-6.7,3.82-7.46,6.83-1.2,4.75,1.22,8.88,6.04,10.29.88.26,1.76.36,2.62.32,3.25-.14,6.19-2.28,7.39-5.64.83-2.32.64-4.88-.51-7.04-1.22-2.27-3.34-3.88-5.99-4.54-.73-.18-1.43-.25-2.09-.22Z"/>
                <path class="cls-3" d="m47.95,52.79c1.61.43,3.52,1.67,4.15,3.01.22,1.77.21,2.65-.41,4.38-.82,2.3-2.04,3.92-4.19,4.85-.51.16-1.34.04-1.81-.05-3.91-.82-6.21-4.15-5.36-7.74.58-2.46,3.33-5.58,7.61-4.45Z"/>
                <path class="cls-3" d="m36.16,52.96c1.21-2.86,5.2-6.01,9.2-5.18,3.43.72,6.5,3.48,6.67,7.31-.82-4.51-10.59-7.83-15.87-2.13Z"/>
                <path class="cls-3" d="m36.52,52.32l-.33-.2c-.12-.07-.23-.15-.35-.22-.23-.15-.45-.32-.67-.49-.43-.35-.83-.73-1.17-1.18-.33-.44-.6-.94-.71-1.49-.05-.27-.07-.55-.05-.82.03-.27.1-.53.19-.79-.06.26-.1.52-.1.79,0,.26.05.52.13.77.16.49.46.93.81,1.3.36.37.77.69,1.21.97.22.14.44.27.67.39.12.06.23.12.35.17l.38.17-.37.62Z"/>
                <path class="cls-3" d="m37.84,51.11c-.39-.24-.74-.51-1.08-.81-.33-.3-.63-.63-.89-1-.25-.37-.46-.77-.56-1.2-.1-.43-.1-.87-.02-1.29-.02.43.04.85.19,1.24.15.39.39.73.67,1.03.28.3.6.57.94.8.34.23.7.43,1.07.59l-.33.64Z"/>
                <path class="cls-3" d="m43.35,49.75c-.23-.39-.42-.79-.56-1.2-.14-.41-.25-.84-.3-1.27-.05-.43-.05-.87,0-1.29.05-.43.18-.84.33-1.23-.09.41-.15.83-.15,1.24,0,.41.07.82.17,1.21.1.39.26.77.44,1.13.19.36.41.7.66,1l-.59.41Z"/>
                <path class="cls-3" d="m41.52,49.86c-.27-.36-.5-.74-.69-1.13-.19-.4-.34-.81-.44-1.23-.1-.42-.15-.86-.14-1.29,0-.43.08-.85.19-1.26-.05.42-.06.84-.01,1.25.05.41.16.81.3,1.19.15.38.34.74.57,1.07.22.33.48.65.76.92l-.54.48Z"/>
                <path class="cls-3" d="m39.64,50.15c-.06-.01-.13-.03-.18-.05l-.14-.07c-.08-.05-.16-.1-.23-.15-.07-.05-.14-.11-.2-.17-.07-.06-.13-.12-.18-.18-.24-.25-.44-.52-.61-.81-.34-.58-.53-1.26-.42-1.91-.01.66.26,1.26.64,1.76.19.25.41.47.66.66.06.05.12.09.18.14.06.05.13.08.19.12.06.04.13.06.19.09l.09.03s.04,0,.05,0l-.03.54Z"/>
                <path class="cls-3" d="m40.49,49.83s-.09-.05-.14-.08l-.11-.09c-.07-.06-.13-.12-.19-.18-.11-.13-.22-.25-.31-.39-.19-.27-.34-.56-.45-.86-.11-.3-.17-.63-.17-.95,0-.32.09-.64.24-.91-.11.29-.14.6-.11.9.04.3.14.59.28.85.14.26.32.5.52.72.1.11.21.21.32.3.05.04.11.09.17.12l.08.05s.05.02.07.03l-.21.5Z"/>
                <path class="cls-3" d="m37.34,51.68c-.07,0-.14-.02-.2-.03l-.15-.05c-.09-.04-.18-.08-.26-.13-.17-.1-.32-.2-.47-.31-.29-.22-.56-.47-.8-.75-.24-.28-.45-.58-.6-.91-.15-.33-.24-.69-.21-1.05.02.36.15.69.33.98.18.29.42.55.67.78.26.23.54.43.83.6.15.09.3.16.45.23.08.03.15.06.22.08l.1.02s.04,0,.07,0v.54Z"/>
                <path class="cls-3" d="m38.34,50.49c-.06-.02-.13-.05-.18-.08l-.13-.09c-.07-.06-.15-.12-.22-.19-.07-.07-.13-.13-.19-.2-.06-.07-.12-.14-.17-.21-.21-.29-.4-.59-.54-.92-.15-.32-.25-.66-.3-1.01-.05-.35-.04-.7.07-1.03-.06.34-.03.68.06,1.01.09.32.23.63.41.91.18.28.38.54.61.78.06.06.12.12.18.17.06.06.12.11.18.15.06.05.13.09.19.13l.09.04s.04,0,.06.02l-.11.53Z"/>
                <path class="cls-3" d="m42.53,49.6c-.11-.07-.18-.14-.24-.22-.06-.07-.12-.14-.17-.22-.11-.15-.2-.3-.28-.45-.17-.31-.3-.64-.39-.98-.09-.34-.13-.7-.08-1.05.05-.35.21-.68.45-.92-.21.27-.31.6-.31.93,0,.33.08.65.2.95.12.3.29.59.48.85.1.13.2.26.31.37.05.06.11.11.17.16.05.05.12.09.15.1l-.26.47Z"/>
                <path class="cls-3" d="m44.91,49.62c-.06-.03-.12-.06-.17-.1l-.12-.11c-.06-.07-.13-.14-.18-.22-.05-.07-.1-.15-.15-.22-.05-.08-.09-.15-.13-.23-.16-.31-.27-.63-.36-.97-.08-.33-.12-.67-.11-1.01.01-.34.09-.67.23-.97-.1.32-.13.65-.1.97.03.32.11.64.23.93.12.3.27.58.45.84.04.07.09.13.14.19.05.06.1.12.15.17.05.06.11.1.16.15l.08.05s.03.01.05.02l-.18.51Z"/>
                <path class="cls-3" d="m46.44,50.18s-.1-.08-.14-.12l-.09-.12c-.05-.08-.1-.16-.13-.24-.04-.08-.07-.16-.1-.24-.03-.08-.05-.16-.08-.24-.09-.32-.13-.64-.14-.97,0-.32.03-.65.11-.96.09-.31.22-.6.4-.85-.14.28-.23.58-.27.88-.04.3-.03.61.02.91.05.3.13.59.25.86.03.07.06.13.1.2.03.07.07.12.11.18.04.06.08.11.12.15l.06.06s.03.01.04.03l-.27.47Z"/>
                <path class="cls-5" d="m45.34,63.17c-.17.47.08.99.55,1.16.47.17.99-.08,1.16-.55.17-.47-.08-.99-.55-1.16-.47-.17-.99.08-1.16.55Z"/>
                <circle class="cls-5" cx="44.35" cy="53.65" r="1.51"/>
              </g>
              <path class="cls-3" d="m62.44,83.64c.19.02.45-.02.68-.07.24-.04.48-.11.72-.18.48-.14.95-.32,1.4-.52.46-.21.9-.45,1.31-.73.42-.28.81-.6,1.16-.97-.31.4-.68.76-1.08,1.08-.4.32-.82.61-1.27.86-.45.25-.91.48-1.39.67-.24.09-.49.18-.74.25-.26.07-.5.14-.82.15l.03-.54Z"/>
              <path class="cls-2" d="m49.53,69.33c-.59-.09-1.09.39-1.05.99.12,1.92-.95,4.55-1.5,5.46-.68,1.13-4.56,4.43-10.64,3.08-5.14-1.14-7.85-3.02-9.09-4.21-.34-.32-1.55-.39-1.95-.14-.65.42-2.8,2.08-2.69,4.88.05,1.41,1.86,1.09,2.72,2.15.86,1.06,8.63,8.13,19.66,8.81,10.98.68,17.62-3.14,21.4-13.48.03-.09.09-.18.15-.26.59-.75.81-1.44,1.15-2.28.19-.48-.04-1.03-.52-1.21-4.28-1.65-14.06-3.24-17.65-3.79Z"/>
              <path class="cls-8" d="m66.4,76.87c.03-.09.09-.18.15-.26.59-.75.81-1.44,1.15-2.28.19-.48-.04-1.03-.52-1.21-.02,0-.04-.01-.06-.02-1.41,2.2-3.56,10.64-14.29,14.13-11.51,3.74-24.19-4.66-28.23-6.25h0c.27.14.53.31.73.56.86,1.06,8.63,8.13,19.66,8.81,10.98.68,17.62-3.14,21.4-13.48Z"/>
              <path class="cls-11" d="m87.55,52.18c-.76.99-.28,2.08,1.14,2.8,1.41.72,3.8,1.97,4.93,3.27,1.18,1.36,2.05.78,1.61-.28-.43-1.06-1.7-3.33-3.62-4.81-1.19-.92-3.4-1.83-4.06-.98Z"/>
              <path class="cls-3" d="m87.65,51.44c-.76.99-.28,2.08,1.14,2.8,1.41.72,3.8,1.97,4.93,3.27,1.18,1.36,2.05.78,1.61-.28-.43-1.06-1.7-3.33-3.62-4.81-1.19-.92-3.4-1.83-4.06-.98Z"/>
              <path class="cls-2" d="m43.03,41.87c.21.98-.51,1.61-1.79,1.65-1.28.04-3.44.12-4.72.68-1.33.58-2.04-.14-1.36-.77.68-.63,2.67-1.84,4.58-2.25,1.18-.26,3.11-.16,3.29.69Z"/>
              <path class="cls-3" d="m43.05,41.37c.21.98-.51,1.61-1.79,1.65-1.28.04-3.44.12-4.72.68-1.33.58-1.76-.14-1.08-.76.68-.63,2.39-1.84,4.3-2.25,1.18-.26,3.11-.16,3.29.69Z"/>
              <path class="cls-8" d="m25.59,77.8c-.71,1.26-1.65,2.07-2.1,1.82-.45-.25-.24-1.48.46-2.74.71-1.26,1.65-2.07,2.1-1.82.45.25.24,1.48-.46,2.74Z"/>
              <path class="cls-2" d="m25.52,77.24c.41-.73.65-1.46.69-1.98-.04-.09-.09-.15-.16-.19-.45-.25-1.39.56-2.1,1.82-.41.73-.65,1.46-.69,1.98.04.09.09.15.16.19.45.25,1.39-.56,2.1-1.82Z"/>
              <path class="cls-3" d="m31.72,54.91c-.14.28-.36.52-.6.72-.24.2-.51.38-.78.54-.54.32-1.12.59-1.7.84-1.16.49-2.35.9-3.53,1.32-2.36.83-4.72,1.65-6.98,2.7-1.13.52-2.23,1.1-3.28,1.76-1.05.66-2.04,1.41-2.93,2.26-.89.86-1.67,1.83-2.27,2.91-.62,1.07-1.03,2.26-1.29,3.49.14-1.25.49-2.47,1.05-3.61.56-1.14,1.32-2.17,2.21-3.08.89-.91,1.9-1.69,2.95-2.39,1.06-.69,2.18-1.28,3.33-1.81,1.15-.52,2.32-.99,3.5-1.42,1.18-.42,2.38-.82,3.57-1.19,1.19-.38,2.39-.74,3.56-1.17.59-.21,1.17-.43,1.72-.71.28-.14.55-.29.8-.48.25-.18.49-.39.65-.66Z"/>
              <path class="cls-3" d="m101.47,55.96c.44,1.32,1.04,2.57,1.77,3.75.72,1.18,1.55,2.28,2.44,3.34.89,1.05,1.83,2.07,2.8,3.05.97.99,1.96,1.96,2.95,2.94,1.96,1.96,3.95,3.95,5.51,6.29.2.29.37.6.55.9.17.31.33.62.49.93.29.64.55,1.3.71,1.98.33,1.37.36,2.81.01,4.16l.06-.52.03-.26c.01-.09.02-.17.02-.26v-.52s.02-.26.02-.26c0-.09-.01-.17-.02-.26l-.04-.51v-.13s-.04-.13-.04-.13l-.05-.25c-.03-.17-.06-.34-.1-.5l-.15-.49c-.39-1.31-1.06-2.53-1.85-3.65-.79-1.12-1.69-2.17-2.63-3.18-.94-1.01-1.92-1.99-2.91-2.96-1.96-1.96-3.96-3.91-5.69-6.11-.87-1.09-1.67-2.25-2.34-3.47-.66-1.23-1.22-2.52-1.54-3.88Z"/>
              <g>
                <path class="cls-8" d="m72.2,63.49c-2.51,6.01.87,10.71,5.5,12.33,6.12,2.14,10.24-.99,12.1-5.45,1.86-4.47-.74-9.66-5.26-11.55-4.52-1.89-9.81-1.41-12.35,4.68Z"/>
                <path class="cls-5" d="m88.76,67.84c-1.12,5.57-5.71,8.21-10.91,7.36-5.08-.83-7.91-5.41-7.43-10.07.59-5.64,5.87-9.68,11.98-8.42,5.73,1.18,7.13,7.31,6.36,11.13Z"/>
                <path class="cls-4" d="m84.74,57.58c2.9,2.38,3.58,6.64,3,9.55-1.12,5.57-5.71,8.21-10.91,7.36-1.16-.19-2.19-.57-3.1-1.11,1.13.91,2.52,1.55,4.13,1.82,5.2.85,9.79-1.8,10.91-7.36.65-3.23-.26-8.12-4.02-10.26Z"/>
                <path class="cls-13" d="m78.39,57.71c-.97-.2-2.53-.15-3.44.21-.71.48-4.37,3.24-4.55,7.35-.18,4.04,1.59,7.09,4.37,8.78v.06s.1.02.14.03c4.79.79,9.49-1.6,10.47-6.73.76-3.98-1.73-8.61-7-9.7Z"/>
                <path class="cls-6" d="m72.79,60.16l.76-1.32.28,1.07.42-1.33c.05-.15.25-.16.32-.02l.37.83.61-.99c.08-.13.28-.1.31.05l.19.93.66-.88c.09-.12.29-.07.31.09l.09.9,1.13-.92c.12-.1.29,0,.28.15l-.15,1.41,1.43-1.07c.12-.09.29,0,.27.15l-.14,1.31,1.03-.66c.13-.08.3.04.26.19l-.34,1.33,1.12-.71c.14-.09.32.06.25.22l-.54,1.13,1.36-.27c.16-.03.27.15.17.27l-.93,1.17,1.43-.04c.16,0,.24.2.11.3l-1.02.83,1.13.23c.16.03.19.25.04.32l-.93.44,1.36.55c.15.06.14.27,0,.32l-1.28.43,1.11.7c.14.09.09.3-.08.31l-1.36.09.98,1.01c.11.11.02.3-.14.29l-1.23-.13.9,1.11c.1.13-.01.31-.17.27l-1.34-.32.63,1.1c.08.14-.07.31-.22.24l-1.19-.56.38,1.38c.04.15-.13.28-.26.19l-1.16-.79.15,1.41c.02.15-.16.25-.28.15l-1.17-.98.14,1.19c.02.17-.19.26-.3.13l-.81-1-.05,1.24c0,.15-.2.22-.3.1l-1.05-1.23-.26,1.08c-.04.16-.27.18-.32.02l-.42-1.11-.67,1.36c-.06.12-.24.13-.3,0l-.74-1.36-.72.39-1.38-3.06,1.24-9.39c.01-.09.04-.17.08-.25Z"/>
                <path class="cls-3" d="m77.57,59.64c-1.78-.34-4.24-.02-5.49,1-1.05,1.63-1.45,2.5-1.66,4.49-.28,2.65.16,4.81,1.83,6.73.42.4,1.3.68,1.8.8,4.23,1.04,8.05-1.15,8.91-5.07.59-2.69-.65-7.05-5.38-7.95Z"/>
                <path class="cls-3" d="m88.97,65.31c.16-3.38-2.17-8.32-6.49-9.38-3.71-.91-8.02.35-9.99,4.04,2.93-4.04,13.98-2.73,16.48,5.34Z"/>
                <path class="cls-3" d="m88.71,63.85h.45c.14,0,.28,0,.42,0,.28,0,.57-.03.85-.07.56-.07,1.12-.19,1.64-.39.52-.21,1.02-.49,1.41-.91.19-.21.36-.44.49-.7.13-.26.21-.54.27-.82-.03.29-.09.58-.19.86-.11.28-.25.54-.44.78-.36.48-.87.84-1.4,1.12-.54.27-1.11.46-1.7.6-.29.07-.59.12-.88.16-.15.02-.3.04-.45.05l-.42.04-.06-.72Z"/>
                <path class="cls-3" d="m88.27,62.07c.45,0,.9-.03,1.35-.11.45-.08.89-.2,1.3-.38.41-.18.81-.41,1.14-.74.33-.32.58-.71.75-1.15-.12.45-.34.88-.65,1.24-.3.37-.7.65-1.12.89-.42.23-.87.4-1.33.53-.46.13-.93.21-1.42.25l-.02-.54Z"/>
                <path class="cls-3" d="m83.15,58.15c.39-.19.77-.42,1.12-.68.35-.27.68-.57.96-.91.29-.34.53-.71.74-1.12.2-.4.33-.84.43-1.29-.04.46-.11.92-.26,1.36-.15.44-.36.87-.61,1.26-.25.4-.56.76-.9,1.1-.34.34-.71.64-1.12.9l-.35-.63Z"/>
                <path class="cls-3" d="m84.97,59.08c.41-.14.81-.33,1.18-.56.38-.23.74-.49,1.06-.8.32-.31.61-.65.85-1.03.24-.38.42-.8.57-1.23-.09.45-.21.9-.41,1.32-.2.42-.45.82-.75,1.19-.3.37-.64.7-1.01,1-.37.3-.78.56-1.21.78l-.28-.66Z"/>
                <path class="cls-3" d="m87.18,60.43s.04.01.06.02h.1c.07.01.15.02.23.01.08,0,.16-.01.24-.03.08-.01.16-.03.25-.05.33-.08.65-.2.96-.35.61-.3,1.16-.78,1.45-1.43-.2.68-.71,1.26-1.32,1.66-.3.2-.63.37-.98.5-.09.03-.17.06-.27.09-.09.03-.18.05-.28.07-.09.02-.19.03-.3.04h-.17c-.06,0-.13-.02-.2-.04l.2-.5Z"/>
                <path class="cls-3" d="m81.15,57.02s.02,0,.04,0c.03,0,.06-.02.09-.02.06-.03.13-.05.2-.09.07-.04.14-.07.21-.12.07-.04.14-.09.2-.14.26-.2.51-.44.72-.7.43-.52.74-1.17.74-1.89.12.7-.08,1.46-.44,2.09-.18.32-.4.62-.66.9-.06.07-.13.14-.2.2-.07.07-.14.13-.22.19-.08.06-.17.12-.26.17l-.16.08c-.06.02-.14.04-.22.06l-.04-.72Z"/>
                <path class="cls-3" d="m86.32,59.68s.05,0,.08,0h.11c.07-.02.15-.04.22-.05.15-.04.3-.09.45-.15.3-.12.59-.28.85-.47.26-.19.49-.43.67-.71.18-.28.29-.6.31-.94.02.34-.05.69-.19,1-.15.32-.36.61-.61.85-.25.24-.54.46-.85.63-.15.09-.32.17-.49.23-.09.03-.17.06-.27.09l-.14.03c-.06,0-.11.01-.17.02l.02-.54Z"/>
                <path class="cls-3" d="m88.77,63.03s.04.02.07.03l.11.03c.08,0,.17.02.26.03.18,0,.37,0,.55-.01.37-.03.74-.1,1.1-.2.36-.11.71-.26,1.03-.46.32-.2.6-.47.78-.82-.14.36-.4.67-.7.92-.3.25-.65.45-1.02.61-.37.15-.75.27-1.14.35-.2.04-.4.07-.6.08-.1.01-.21,0-.32,0l-.17-.02c-.06-.01-.14-.04-.2-.06l.24-.48Z"/>
                <path class="cls-3" d="m88.24,61.26s.02,0,.05.01h.1c.08,0,.15-.01.24-.03.08-.02.17-.03.25-.06.08-.02.17-.05.25-.08.33-.12.66-.27.97-.46.31-.19.59-.42.84-.68.24-.27.44-.59.55-.95-.04.37-.19.73-.4,1.06-.21.32-.47.61-.77.86-.3.25-.62.47-.96.66-.09.05-.18.09-.27.13-.09.04-.19.08-.28.12-.09.04-.2.06-.31.09l-.18.03c-.07,0-.16,0-.23,0l.17-.7Z"/>
                <path class="cls-3" d="m84.36,58.48s.12-.01.2-.03c.08-.02.16-.05.24-.08.16-.06.32-.14.48-.22.31-.17.61-.37.87-.61.26-.24.49-.52.64-.84.15-.32.2-.7.13-1.06.12.35.12.75,0,1.11-.12.36-.33.69-.57.98-.25.29-.54.54-.85.77-.16.11-.32.22-.49.31-.09.05-.18.09-.27.13-.1.04-.19.08-.33.1l-.03-.54Z"/>
                <path class="cls-3" d="m82.11,57.39s.04,0,.06,0l.1-.02c.07-.02.15-.04.22-.07.08-.03.15-.06.23-.1.08-.04.15-.08.23-.12.3-.17.58-.38.83-.62.26-.24.48-.51.66-.81.18-.3.31-.64.36-1,0,.36-.09.72-.24,1.06-.15.34-.35.65-.59.94-.24.28-.51.54-.81.77-.07.06-.15.11-.23.16-.08.05-.16.1-.25.15-.08.05-.18.09-.28.13l-.16.05c-.06.01-.14.02-.2.02l.05-.54Z"/>
                <path class="cls-3" d="m80.12,57.19s.04,0,.06,0l.09-.03c.06-.03.13-.06.2-.1.07-.04.14-.08.2-.13.07-.04.13-.09.19-.15.25-.2.48-.45.68-.71.2-.26.37-.56.48-.88.11-.32.17-.65.16-1,.06.34.05.69-.03,1.04-.07.34-.21.68-.38.99-.17.31-.39.6-.63.86-.06.07-.13.13-.2.19-.07.06-.14.12-.21.18-.07.06-.16.11-.25.16l-.15.07c-.06.02-.12.03-.19.05l-.04-.54Z"/>
                <circle class="cls-5" cx="77.56" cy="71.1" r=".99"/>
                <path class="cls-3" d="m74.44,75.23c.78-.12,1.57-.07,2.35,0,.78.08,1.56.22,2.32.38.76.17,1.52.38,2.27.63.74.25,1.47.53,2.18.87l-2.26-.6c-.75-.19-1.51-.38-2.26-.55-.76-.17-1.52-.32-2.28-.46-.77-.13-1.53-.25-2.31-.28Z"/>
                <circle class="cls-5" cx="76.42" cy="60.21" r="1.65"/>
                <path class="cls-3" d="m88.86,67.86c-.25,1.22-.68,2.41-1.34,3.48-.66,1.06-1.54,1.99-2.59,2.68-1.05.69-2.25,1.13-3.49,1.34-1.24.21-2.51.18-3.74-.03-1.24-.21-2.44-.68-3.48-1.38-1.05-.7-1.93-1.63-2.6-2.7-.66-1.07-1.11-2.27-1.31-3.51-.19-1.24-.16-2.52.11-3.75.27-1.23.79-2.4,1.51-3.43.72-1.03,1.64-1.93,2.69-2.61,1.06-.68,2.24-1.16,3.47-1.41,1.23-.25,2.5-.26,3.74-.07,1.23.19,2.46.61,3.49,1.33,1.04.71,1.88,1.69,2.47,2.79.6,1.1.97,2.32,1.14,3.55.18,1.23.15,2.5-.08,3.73Zm-.2-.04c.24-1.2.24-2.44.07-3.65-.18-1.21-.55-2.39-1.14-3.46-.59-1.07-1.4-2.01-2.41-2.69-1-.69-2.18-1.08-3.39-1.26-1.21-.17-2.44-.16-3.63.09-1.19.24-2.34.71-3.35,1.37-1.02.66-1.9,1.53-2.59,2.53-.69,1-1.18,2.13-1.44,3.32-.25,1.19-.3,2.42-.11,3.62.19,1.2.61,2.36,1.25,3.39.63,1.03,1.49,1.93,2.49,2.61,1,.68,2.16,1.13,3.35,1.34,1.2.21,2.44.25,3.64.05,1.2-.19,2.37-.61,3.39-1.27,1.02-.66,1.89-1.56,2.54-2.59.65-1.03,1.08-2.2,1.34-3.39Z"/>
              </g>
              <path class="cls-3" d="m35.7,64.43c.32-.04.64,0,.96.01.32.03.64.07.95.12.63.1,1.26.24,1.88.4.62.17,1.23.36,1.82.6.59.24,1.18.51,1.71.87-.6-.23-1.2-.42-1.8-.61-.61-.18-1.21-.36-1.82-.52-.61-.17-1.22-.32-1.84-.47-.31-.08-.62-.15-.92-.22-.31-.07-.62-.14-.93-.19Z"/>
              <path class="cls-3" d="m67.22,80.99c.17-.05.36-.01.51.09.15.1.26.26.29.43-.12-.13-.23-.24-.36-.32-.13-.09-.28-.14-.44-.2Z"/>
              <path class="cls-3" d="m48.21,69.11c.24.44.33.93.36,1.43.02.49-.02.99-.09,1.47-.16.97-.45,1.92-.85,2.82-.2.45-.42.9-.72,1.31-.31.4-.67.75-1.05,1.07-.77.63-1.65,1.14-2.58,1.49-1.86.72-3.91.86-5.87.59-.99-.14-1.94-.38-2.88-.65-.95-.27-1.87-.6-2.78-.99-.9-.39-1.78-.85-2.62-1.38-.42-.26-.82-.55-1.21-.85-.1-.08-.2-.15-.29-.23-.09-.08-.19-.16-.28-.23-.18-.13-.39-.23-.61-.3-.44-.14-.92-.18-1.36-.05-.11.03-.21.08-.31.13-.1.05-.18.12-.28.2-.18.15-.36.32-.52.49-.65.7-1.15,1.56-1.42,2.48-.13.46-.21.94-.15,1.41.03.23.09.46.23.64.14.18.34.31.55.41.43.2.91.33,1.34.61.21.13.41.3.57.5.15.18.33.35.5.52.7.67,1.46,1.28,2.25,1.85.79.57,1.6,1.11,2.43,1.61,1.66,1,3.42,1.85,5.22,2.57,1.81.7,3.67,1.25,5.57,1.61.95.19,1.91.31,2.87.39.96.09,1.93.11,2.9.12,1.93,0,3.87-.14,5.75-.55,1.88-.4,3.71-1.07,5.35-2.06,1.64-.99,3.08-2.31,4.28-3.82.6-.76,1.15-1.56,1.64-2.39.49-.83.94-1.69,1.34-2.58.4-.89.76-1.79,1.11-2.7.18-.45.37-.91.6-1.34.23-.43.51-.84.83-1.21l.04.03c-.3.38-.55.8-.77,1.23-.21.44-.38.89-.55,1.35-.31.92-.64,1.85-1.02,2.75-.37.91-.81,1.79-1.28,2.65-.12.21-.24.43-.37.64l-.39.63-.42.61c-.14.2-.29.4-.44.59-1.2,1.57-2.66,2.95-4.34,4-1.68,1.06-3.57,1.76-5.5,2.18-1.93.42-3.91.56-5.88.55-.98-.02-1.96-.05-2.94-.15-.98-.1-1.96-.23-2.92-.43-1.93-.38-3.82-.97-5.63-1.71-1.82-.75-3.56-1.66-5.21-2.71-1.65-1.05-3.23-2.22-4.66-3.57-.18-.17-.35-.34-.51-.54-.15-.18-.32-.34-.52-.46-.4-.26-.87-.39-1.32-.61-.22-.11-.45-.25-.61-.46-.16-.21-.23-.47-.27-.72-.06-.5.02-1,.15-1.48.27-.95.77-1.83,1.43-2.58.16-.19.34-.36.53-.53.09-.08.19-.17.31-.24.11-.07.23-.12.36-.16.5-.16,1.03-.13,1.53,0,.25.07.49.18.7.33.11.08.2.16.3.23.09.08.19.15.29.22.39.28.79.55,1.2.8.83.49,1.7.91,2.59,1.28.89.37,1.81.68,2.74.95.47.13.93.26,1.4.36.47.12.94.21,1.41.28,1.89.28,3.86.16,5.66-.51.89-.33,1.75-.79,2.5-1.38.37-.29.72-.62,1.02-.99.29-.36.51-.8.72-1.23.4-.87.73-1.79.92-2.74.1-.47.15-.96.15-1.44,0-.48-.07-.97-.28-1.41l.05-.02Z"/>
              <path class="cls-3" d="m51.08,68.14c1.23-.4,2.54-.59,3.84-.64.65-.03,1.3,0,1.96.05.65.06,1.3.15,1.94.28,1.28.27,2.53.7,3.69,1.29,1.17.58,2.24,1.34,3.2,2.21-.53-.37-1.05-.75-1.62-1.06-.27-.17-.56-.32-.84-.47-.29-.14-.57-.3-.87-.42-.58-.27-1.18-.5-1.79-.7-.61-.2-1.23-.37-1.85-.49-1.25-.27-2.53-.39-3.82-.4-.64,0-1.28.02-1.93.08-.64.05-1.28.14-1.91.27Z"/>
              <path class="cls-3" d="m50.87,72.56c.26-.09.54-.12.82-.14.28-.03.56-.04.83-.04.56,0,1.12.03,1.67.1,1.11.13,2.2.41,3.25.81,1.04.41,2.04.94,2.94,1.61.9.66,1.69,1.47,2.36,2.35-.39-.39-.78-.79-1.21-1.13-.42-.36-.85-.69-1.31-.99-.22-.16-.46-.29-.69-.44-.24-.13-.47-.27-.72-.39-.48-.25-.98-.48-1.49-.67-1.02-.39-2.08-.68-3.16-.87-.54-.09-1.09-.16-1.63-.2-.55-.04-1.1-.06-1.65.01Z"/>
              <path class="cls-3" d="m48.9,77.14c.26-.05.51-.12.77-.14l.39-.03c.07,0,.13-.01.2-.01h.2c.26.02.53.02.79.07l.39.06c.13.02.26.06.38.09,1.03.25,2,.69,2.88,1.27.87.59,1.66,1.31,2.29,2.16.32.42.59.88.82,1.34.1.24.22.48.31.72l.23.75c-.33-.99-.83-1.92-1.47-2.74-.64-.81-1.41-1.53-2.28-2.09-.86-.58-1.81-1.02-2.81-1.29-.13-.03-.25-.07-.38-.1l-.38-.07c-.25-.06-.51-.07-.77-.09l-.19-.02c-.06,0-.13,0-.19,0h-.39c-.13,0-.26.03-.39.05l-.39.05Z"/>
              <path class="cls-3" d="m46.43,79.43c.81-.12,1.65-.07,2.45.15.8.22,1.55.61,2.19,1.13.64.53,1.18,1.18,1.58,1.9.19.37.38.73.51,1.12l.11.29c.04.1.06.2.09.3.05.2.11.4.16.59-.15-.38-.25-.78-.43-1.15-.15-.38-.35-.73-.55-1.09-.42-.69-.95-1.32-1.58-1.83-.62-.51-1.35-.9-2.12-1.14-.39-.11-.78-.21-1.19-.25-.4-.06-.81-.05-1.22-.03Z"/>
              <path class="cls-3" d="m27.61,75.63c0,.24-.03.49-.06.73-.04.24-.09.48-.15.72-.12.48-.28.94-.5,1.39-.22.44-.48.86-.79,1.24-.32.38-.69.7-1.1.97.18-.17.37-.32.53-.5.17-.17.32-.36.47-.55.28-.39.53-.8.74-1.23.21-.43.38-.89.53-1.34.14-.46.26-.93.34-1.41Z"/>
              <path class="cls-5" d="m38.67,36.88c.17-.2.34-.45.5-.69.16-.24.33-.47.5-.71.34-.47.7-.93,1.07-1.37.74-.9,1.54-1.75,2.39-2.55.86-.8,1.76-1.54,2.71-2.23.95-.69,1.95-1.31,2.97-1.89,2.05-1.14,4.19-2.2,6.5-2.72l.86-.19c.29-.06.58-.1.87-.15.58-.1,1.16-.17,1.75-.22.58-.07,1.17-.07,1.75-.09.59,0,1.17.02,1.76.07l.02.16c-.56.19-1.12.34-1.67.5l-.83.24c-.14.04-.28.08-.41.11l-.41.12c-.27.08-.55.17-.82.24-.27.08-.54.17-.81.25-.54.16-1.08.33-1.62.51-.27.08-.54.17-.8.26l-.8.26c-.26.09-.53.18-.8.27-.27.08-.53.18-.8.27-1.07.35-2.12.76-3.14,1.25-1.02.49-2.01,1.02-2.97,1.63-.96.59-1.89,1.25-2.78,1.95-.89.7-1.75,1.46-2.55,2.27-.4.41-.79.82-1.17,1.25-.19.21-.38.43-.57.65-.19.22-.37.44-.59.65l-.11-.12Z"/>
              <path class="cls-5" d="m31.4,49.92c-.23.8-.69,1.52-1.25,2.14-.56.63-1.21,1.15-1.89,1.62-1.37.95-2.91,1.56-4.41,2.18-1.51.61-3.04,1.16-4.55,1.75-.75.29-1.5.6-2.23.95-.72.35-1.44.74-2,1.32l-.05-.05c.26-.32.58-.58.91-.82.34-.23.68-.45,1.04-.65.71-.4,1.45-.75,2.19-1.08,1.49-.66,2.99-1.28,4.46-1.95.73-.34,1.46-.69,2.17-1.07.71-.38,1.4-.77,2.08-1.18,1.35-.83,2.64-1.79,3.47-3.19l.07.03Z"/>
              <path class="cls-5" d="m102.6,53.43c.32.69.68,1.35,1.04,2.01l.27.49.28.49c.18.33.37.65.56.97l1.13,1.94c.18.33.38.64.58.96l.3.48.31.47c.84,1.24,1.75,2.44,2.77,3.55,1,1.12,2.1,2.16,3.28,3.09l-.04.06c-1.26-.85-2.41-1.84-3.5-2.91-1.08-1.07-2.06-2.24-2.97-3.46-.91-1.22-1.8-2.47-2.49-3.83-.34-.68-.67-1.37-.94-2.09-.27-.71-.52-1.44-.65-2.2l.07-.02Z"/>
              <path class="cls-5" d="m28.56,76.83c.45.1.84.28,1.23.44.38.17.76.33,1.12.5.19.08.37.17.55.26.18.09.36.18.54.28l.54.29c.18.09.37.17.56.26.19.09.38.15.57.23.19.07.38.15.58.21l.59.2.6.18c.4.13.8.22,1.21.34l1.23.29v.11c-.43-.02-.86-.03-1.28-.07-.42-.05-.85-.07-1.27-.14-.85-.11-1.68-.3-2.51-.53l-.62-.18-.62-.2c-.2-.08-.41-.16-.6-.25-.19-.1-.39-.21-.57-.32-.36-.24-.72-.51-1.03-.81-.32-.3-.59-.63-.86-.98l.05-.09Z"/>
              <path class="cls-5" d="m40.63,80.21c.25-.14.49-.23.74-.29.24-.07.5-.03.75-.06.25-.03.5-.06.75-.1.25-.04.5-.1.74-.18l.03.05c-.21.17-.45.28-.69.4-.24.11-.49.19-.75.26-.25.07-.51.18-.77.17-.13,0-.27-.01-.4-.04-.13-.03-.27-.07-.4-.15v-.05Z"/>
              <path class="cls-2" d="m67.93,36.66c-.42-.17-.66-.44-.5-.86s.68-.83,1.1-.66.62.64.46,1.06-.64.62-1.06.46Z"/>
              <path class="cls-8" d="m59.8,54.88c-.42-.17-.66-.44-.5-.86s.68-.83,1.1-.66c.42.17.62.64.46,1.06s-.64.62-1.06.46Z"/>
              <path class="cls-2" d="m64.9,39.34c.29.32.39.66.06.95-.32.29-.94.42-1.23.1-.29-.32-.27-.82.06-1.11s.82-.27,1.11.06Z"/>
              <path class="cls-8" d="m53.5,40.77c-.73.02-1.26-.22-1.29-.95-.02-.73.47-1.66,1.2-1.68.73-.02,1.33.54,1.36,1.27.02.73-.54,1.33-1.27,1.36Z"/>
              <path class="cls-8" d="m60.67,40.12c-.21.27-.46.39-.73.18s-.46-.67-.25-.94.6-.32.87-.11c.27.21.32.6.11.87Z"/>
              <path class="cls-8" d="m58.07,51.1c-.5.07-.89-.05-.96-.55-.07-.5.2-1.18.69-1.25.5-.07.96.27,1.04.77.07.5-.27.96-.77,1.04Z"/>
              <path class="cls-8" d="m61.23,48.46c-.31.03-.54-.07-.57-.37-.03-.31.16-.71.47-.74s.58.2.6.51c.03.31-.2.58-.51.6Z"/>
              <path class="cls-8" d="m68.05,51.97c-.31.03-.54-.07-.57-.37s.16-.71.47-.74.58.2.6.51-.2.58-.51.6Z"/>
              <path class="cls-8" d="m69.26,47.99c-.15.59-.47.97-1.07.82-.59-.15-1.23-.77-1.08-1.36.15-.59.75-.95,1.34-.8s.95.75.8,1.34Z"/>
              <path class="cls-8" d="m63.76,52.33c-.61-.1-1.01-.39-.91-.99.1-.61.66-1.3,1.27-1.2.61.1,1.02.67.92,1.27-.1.61-.67,1.02-1.27.92Z"/>
              <path class="cls-2" d="m73.33,41.86c.38.69.4,1.32-.28,1.7-.69.38-1.83.36-2.2-.33-.38-.69-.13-1.55.56-1.93.69-.38,1.55-.13,1.93.56Z"/>
              <path class="cls-8" d="m64.28,44.94c-.64.33-1.23.34-1.56-.3-.33-.64-.28-1.7.36-2.03.64-.33,1.44-.08,1.77.56.33.64.08,1.44-.56,1.77Z"/>
              <path class="cls-2" d="m68.87,41.15c.18.23.23.46,0,.64-.23.18-.64.25-.82.02-.18-.23-.15-.56.08-.74.23-.18.56-.15.74.08Z"/>
              <path class="cls-8" d="m73.23,46.52c.18.23.23.46,0,.64-.23.18-.64.25-.82.02-.18-.23-.15-.56.08-.74.23-.18.56-.15.74.08Z"/>
              <path class="cls-8" d="m59.93,44.31c.18.23.23.46,0,.64-.23.18-.64.25-.82.02-.18-.23-.15-.56.08-.74.23-.18.56-.15.74.08Z"/>
              <path class="cls-8" d="m57.66,41.47c.18.23.23.46,0,.64-.23.18-.64.25-.82.02s-.15-.56.08-.74c.23-.18.56-.15.74.08Z"/>
              <path class="cls-2" d="m63.66,34.83c-.34.05-.6-.04-.65-.38-.05-.34.14-.8.48-.84.34-.05.65.19.7.53.05.34-.19.65-.53.7Z"/>
              <path class="cls-8" d="m53.01,44.15c-.34.05-.6-.04-.65-.38-.05-.34.14-.8.48-.84.34-.05.65.19.7.53.05.34-.19.65-.53.7Z"/>
              <path class="cls-2" d="m58.88,36.63c-.59-.02-1.01-.24-.99-.83.02-.59.47-1.31,1.06-1.3.59.02,1.05.51,1.03,1.1-.02.59-.51,1.05-1.1,1.03Z"/>
              <path class="cls-8" d="m56.24,44.54c.31.19.46.43.27.74-.19.31-.64.56-.95.37-.31-.19-.4-.58-.22-.89.19-.31.58-.4.89-.22Z"/>
            </g>
            <path class="cls-8" d="m34.96,40.25c6.56-3.37,38.99-3.25,51.49,18.72,1.13-7.14-.75-19.07-.75-19.07l-33.3-7.71-15.06,2.91-2.38,5.14Z"/>
            <g>
              <path class="cls-12" d="m34.96,40.25c2.02-12.05,12.29-27.28,32.37-27.26,10.71,4.56,25.57,11.43,28.05,13.31,1.35,7.09,2.97,31.61.9,38.24-2.84-7.59-15.06-18.38-25.94-22.43-11.9-4.44-26.69-6.75-35.37-1.85Z"/>
              <g>
                <path class="cls-5" d="m72.19,39.18c8.01,3.08,16.81,8.78,25.05,16.13.05-2.43.02-5.09-.06-7.81-7.58-6.16-15.48-10.97-22.82-13.79-14.7-5.66-27.3-5.64-35.65-4.04-1.23,2.24-2.18,4.54-2.85,6.81,6.51-2.14,19.93-3.61,36.34,2.71Z"/>
                <path class="cls-5" d="m42.62,23.99c6.56-1.11,18.71-1.83,33.26,3.55.04.01.08.03.12.04,6.55,2.44,13.85,6.73,20.8,12.09-.19-2.84-.42-5.52-.66-7.83-6.06-4.22-12.23-7.59-18.03-9.75-.04-.02-.09-.03-.14-.05-10.63-3.93-20.17-4.86-27.5-4.67-3.08,1.82-5.68,4.09-7.84,6.62Z"/>
              </g>
              <path class="cls-16" d="m84.22,46.74c-17.61-13.78-45.21-12.15-44.07-14.18,1.14-2.03,2.48-1.63,2.26-2.09-.22-.46-1.39-.2-.76-1.84.62-1.63,3.93-5.62,5.75-6.41s5.51.65,5.75.09c.24-.56-4.19-1.44-2.89-3.31.47-.68,1.23-1.76,2.61-2.91-10.67,5.07-16.45,15.45-17.91,24.16,8.68-4.9,23.47-2.59,35.37,1.85,6.83,2.55,14.19,7.74,19.42,13.14l5.41-.63s.89-3.44-10.94-7.85Z"/>
              <path class="cls-16" d="m87.99,71.88c5.63,3.28-1.56-21.74-.75-22.78-.37-6.37,8.69-19.88,8.14-22.8-2.48-1.87-17.33-8.75-28.05-13.31-5.37,0-10.04,1.08-14.04,2.91,4.78-.05,20.46,2.41,34.7,55.98Z"/>
              <path class="cls-3" d="m34.98,40.16c.52-3.76,1.74-7.44,3.57-10.81.91-1.69,1.98-3.29,3.17-4.81,1.2-1.51,2.54-2.91,4-4.19,1.47-1.27,3.05-2.4,4.74-3.37,1.69-.96,3.48-1.78,5.33-2.39,3.7-1.27,7.66-1.72,11.55-1.6-1.95.09-3.88.27-5.78.63-1.9.34-3.77.84-5.56,1.51-3.6,1.32-6.92,3.29-9.77,5.78-1.43,1.24-2.75,2.61-3.94,4.07-1.2,1.46-2.26,3.02-3.21,4.65-.95,1.63-1.76,3.34-2.44,5.1-.7,1.76-1.23,3.58-1.64,5.43Z"/>
              <path class="cls-3" d="m96.28,64.53c-1.21-2.68-3.06-5.01-5.06-7.16-1.92-2.22-4.07-4.25-6.35-6.13-2.28-1.88-4.69-3.61-7.22-5.14-2.54-1.53-5.19-2.86-7.98-3.86-5.59-2.03-11.4-3.5-17.31-4.12-2.95-.3-5.93-.37-8.86-.04-2.94.21-5.87.85-8.53,2.16.32-.18.63-.38.96-.56.33-.17.66-.35,1-.5.34-.15.68-.3,1.03-.43.17-.07.35-.14.52-.2l.53-.18c1.42-.47,2.9-.8,4.39-1.03,3-.33,6.03-.26,9.02.04,2.99.3,5.96.84,8.88,1.55,2.92.7,5.8,1.59,8.62,2.61,2.84,1.02,5.54,2.38,8.11,3.93,2.57,1.55,5.01,3.3,7.32,5.2,2.3,1.91,4.48,3.97,6.44,6.22.94,1.16,1.81,2.37,2.59,3.64.78,1.26,1.44,2.6,1.9,3.99Z"/>
              <g>
                <g>
                  <path class="cls-3" d="m90.61,99.5c-.13.85-.99,1.39-2,1.22-1.01-.16-1.75-.86-1.67-1.58.12-1.17.89-1.82,2.1-1.56,1.21.27,1.71,1,1.57,1.91Z"/>
                  <path class="cls-3" d="m87.86,99.4c0,.15-.07.26-.13.38-.06.11-.13.21-.19.31-.13.2-.27.38-.41.55-.14.18-.28.34-.44.5-.15.16-.3.32-.43.51-.13.18-.24.37-.35.57-.11.2-.2.4-.28.61-.16.42-.26.87-.33,1.33h-.07c-.05-.47-.04-.95.05-1.42.09-.47.24-.94.47-1.37.11-.22.23-.44.36-.64.13-.21.29-.4.48-.56.18-.16.38-.3.59-.43.1-.06.21-.12.31-.17.11-.05.21-.1.3-.17l.07.02Z"/>
                  <path class="cls-3" d="m89.66,99.85c.19.15.32.34.44.53.11.19.2.39.27.6.07.21.11.42.11.63,0,.21,0,.43,0,.64,0,.21,0,.43-.02.64-.02.21-.04.42-.08.63-.08.42-.19.83-.37,1.21l-.07-.02c.07-.41.09-.81.07-1.22-.01-.4-.06-.8-.12-1.2-.01-.1-.04-.2-.06-.29-.02-.1-.05-.19-.08-.29-.02-.1-.05-.19-.07-.29-.02-.1-.03-.2-.04-.29-.04-.4-.06-.79-.05-1.24l.06-.03Z"/>
                  <path class="cls-3" d="m88.55,99.46c.19.15.32.34.44.53.11.19.2.39.27.6.07.21.11.42.11.63,0,.21,0,.43,0,.64,0,.21,0,.43-.02.64-.02.21-.04.42-.08.63-.08.42-.19.83-.37,1.21l-.07-.02c.07-.41.09-.81.07-1.22-.01-.4-.06-.8-.12-1.2-.01-.1-.04-.2-.06-.29-.02-.1-.05-.19-.08-.29-.02-.1-.05-.19-.07-.29-.02-.1-.03-.2-.04-.29-.04-.4-.06-.79-.05-1.24l.06-.03Z"/>
                  <path class="cls-3" d="m89.17,99.83c.11.22.16.47.17.71,0,.12,0,.24,0,.36,0,.12-.02.23-.04.35-.03.23-.09.44-.17.65-.08.21-.16.41-.22.62l-.08.31c-.03.1-.05.21-.07.32-.04.21-.08.42-.1.64-.05.43-.04.87.01,1.32l-.07.02c-.16-.43-.26-.88-.31-1.34-.02-.23-.02-.46-.02-.69,0-.11.01-.23.02-.35l.04-.34.09-.68c.03-.22.09-.44.16-.64l.12-.31.12-.3c.09-.2.16-.4.27-.62h.07Z"/>
                  <path class="cls-3" d="m88.58,100.02c-.01.25-.01.48-.03.71-.01.23-.03.47-.06.7-.03.23-.09.46-.17.69-.08.22-.17.45-.24.67-.08.23-.16.45-.25.67-.04.11-.09.22-.15.33-.05.11-.1.22-.16.32-.23.42-.49.84-.83,1.18l-.06-.04c.24-.4.42-.83.55-1.27.04-.11.07-.22.1-.33.03-.11.06-.22.08-.34.06-.22.1-.45.15-.68.04-.23.07-.46.1-.69.03-.23.08-.46.16-.68.08-.22.17-.45.28-.67.12-.22.25-.44.46-.61l.06.03Z"/>
                  <path class="cls-3" d="m88.21,99.66c-.1.49-.26.91-.44,1.32-.09.21-.2.4-.32.59-.12.19-.24.38-.34.58-.1.2-.2.4-.29.61l-.14.31-.13.31c-.16.42-.29.85-.39,1.3h-.07c-.02-.47.02-.94.11-1.4l.07-.34.08-.34c.06-.23.13-.45.21-.67.08-.22.15-.45.23-.67.08-.22.19-.43.33-.63.13-.2.28-.38.45-.55.17-.17.35-.33.57-.46l.06.04Z"/>
                  <path class="cls-3" d="m88.37,100.3c-.03.44-.13.82-.25,1.19-.06.19-.14.36-.24.53-.1.17-.2.34-.28.52-.08.18-.16.36-.24.54-.08.18-.15.36-.22.55-.14.37-.27.74-.37,1.13h-.07c-.02-.41.02-.82.08-1.22.03-.2.07-.4.11-.6.05-.2.1-.4.15-.59l.16-.59c.06-.2.14-.39.24-.56.11-.18.23-.34.37-.5.07-.08.15-.15.23-.23.08-.07.17-.14.26-.2l.06.04Z"/>
                  <path class="cls-3" d="m88.76,100.31c.06.44.02.83-.03,1.22-.03.19-.07.38-.14.57-.06.18-.13.37-.18.56-.05.19-.1.38-.14.57-.05.19-.09.38-.12.58-.07.39-.13.78-.15,1.18h-.07c-.09-.39-.13-.8-.14-1.21,0-.2,0-.41,0-.61,0-.2.02-.41.04-.61l.05-.61c.02-.2.06-.4.14-.6.07-.19.16-.38.27-.56.05-.09.12-.18.18-.26.07-.08.14-.17.22-.24l.07.02Z"/>
                  <path class="cls-3" d="m89.53,100.24c.18.33.27.65.31.98.02.16.02.33,0,.49-.03.16-.06.33-.07.49-.02.16-.04.33-.06.49-.03.16-.06.33-.09.49-.07.33-.15.65-.28.96l-.07-.02c.01-.33,0-.65-.02-.97,0-.16-.02-.32-.03-.48,0-.16-.02-.32-.04-.48-.01-.16-.04-.32-.07-.49-.02-.16-.03-.32,0-.49.02-.16.06-.33.11-.49.06-.16.12-.33.24-.49h.07Z"/>
                  <path class="cls-3" d="m87.72,99.73c-.07.43-.21.78-.37,1.12-.08.17-.17.33-.28.48-.11.15-.22.31-.32.47-.1.16-.19.33-.27.49-.05.08-.09.17-.13.25-.04.08-.08.17-.12.26-.16.34-.29.7-.38,1.07h-.07c-.03-.4.02-.8.1-1.19.02-.1.04-.19.07-.29.02-.1.05-.19.08-.29.06-.19.12-.38.2-.56.07-.19.14-.37.21-.56.07-.19.17-.36.29-.52.12-.16.26-.31.41-.44.08-.07.16-.13.25-.19.09-.06.18-.11.28-.16l.06.04Z"/>
                </g>
                <path class="cls-3" d="m90.85,90.14c.18.43.27.86.32,1.29.05.43.63.79.6,1.22-.58,1.07-1.7,3.69-1.7,3.69-.08.2-.17.39-.26.58-.09.19-.17.38-.27.57-.39.75-.83,1.47-1.34,2.14l-.13-.07c.3-.77.57-1.54.77-2.33.06-.19.1-.39.15-.59.05-.2.2-3.99.31-4.38.23-.78.92-1.35,1.4-2.13h.15Z"/>
              </g>
              <path class="cls-12" d="m60.54,13.6c8.26,2.27,29.96,37.73,28.89,82.95,13.29-23.47,19.22-45.11,13.76-63.19-1.39-4.61-2.34-8.67-5.66-11.87-6.04-5.83-26.08-11.05-36.99-7.88Z"/>
              <path class="cls-3" d="m97.27,21.23c-1.26-.99-2.63-1.82-4.07-2.5-1.43-.7-2.91-1.31-4.41-1.86-1.5-.54-3.02-1.04-4.56-1.46-1.54-.44-3.09-.82-4.66-1.14-1.56-.33-3.14-.61-4.72-.83-1.58-.23-3.17-.38-4.77-.48-1.59-.09-3.19-.11-4.79-.02-1.6.07-3.18.29-4.74.64,3.05-1.01,6.32-1.27,9.55-1.2,3.23.07,6.45.51,9.62,1.16,3.16.67,6.28,1.58,9.28,2.79,1.5.6,2.97,1.29,4.37,2.08.35.2.69.41,1.04.62.33.23.68.43,1,.67.66.46,1.28.97,1.86,1.52Z"/>
              <path class="cls-16" d="m98.47,22.48c1.15,2.84,1.1,4.29,1.86,7.3.23.9-1.45,1.59-1.25,2.5.14.65,2.16,1.52,2.29,2.17.67,3.5,1.76,6.7,1.97,10.05.09,1.37-1.24,3.44-1.22,4.75.01,1.31,1.44,3.52,1.38,4.76-.44,9.97-3.82,15.85-7.95,15.58-4.94-.32-9.63-13.16-11.86-16.31,3.8,9.36,5.99,33.49,5.76,43.25,13.29-23.47,19.22-45.11,13.76-63.19-1.26-4.16-1.96-7.59-4.73-10.87Z"/>
              <g>
                <path class="cls-5" d="m82.66,49.4c9.59,1.67,17.25,4.29,21.85,7.46.33-2.2.54-4.37.65-6.5-6.52-3.56-14.95-5.61-21.49-6.75-1.18-.21-2.36-.39-3.51-.56.78,2.02,1.53,4.12,2.25,6.3.09.01.17.03.26.04Z"/>
                <path class="cls-5" d="m81.88,17.77c-6.91-1.06-13.42-1.42-17.19-1.35,1.51,1.48,3.17,3.49,4.89,5.98,3.11.16,7.08.51,11.43,1.18,9.03,1.38,16.39,3.64,21.12,6.45-1.03-2.95-1.32-4.45-3.07-6.81-5.41-1.97-12.32-4.71-17.18-5.46Z"/>
                <path class="cls-5" d="m105.07,44.68l.06-.07c-.14-2.55-.46-5.05-.98-7.49-6.53-3.43-14.89-5.37-21.39-6.43-3.09-.5-6.09-.87-8.81-1.11,1.05,1.93,2.1,4.01,3.13,6.24,1.51.18,3.1.41,4.75.68,10.57,1.73,18.83,4.64,23.24,8.2Z"/>
                <path class="cls-5" d="m92.94,90.05c.92-1.79,1.8-3.58,2.63-5.35-2.21-.68-4.41-1.26-6.49-1.74.15,2.01.26,4.06.32,6.12,1.22.31,2.4.63,3.54.96Z"/>
                <path class="cls-5" d="m87.48,69.86c.35,2.04.65,4.12.92,6.23,3.59.85,6.84,1.84,9.67,2.94.76-1.84,1.47-3.67,2.12-5.49-4.24-1.63-8.72-2.83-12.71-3.68Z"/>
                <path class="cls-5" d="m101.99,68.04c.58-1.96,1.08-3.9,1.51-5.82-6.05-2.87-13.22-4.64-18.95-5.7.55,2.05,1.07,4.14,1.55,6.3,6.42,1.35,11.84,3.14,15.89,5.22Z"/>
              </g>
              <path class="cls-3" d="m89.43,96.55l1.12-2.23,1.1-2.23,1.07-2.24,1.04-2.26c1.46-2.97,2.84-5.98,4.09-9.04,2.51-6.12,4.56-12.43,5.78-18.91,1.23-6.47,1.6-13.14.63-19.68-.23-1.63-.59-3.25-.98-4.85-.44-1.59-.92-3.2-1.4-4.78-.27-.79-.46-1.59-.73-2.37-.25-.79-.54-1.56-.88-2.31-.68-1.51-1.58-2.93-2.75-4.16.63.56,1.22,1.18,1.75,1.85.52.67.98,1.39,1.39,2.13.41.74.77,1.51,1.09,2.29.32.78.64,1.56.86,2.37.48,1.61.96,3.19,1.4,4.81.4,1.63.76,3.27,1,4.93.99,6.63.61,13.38-.64,19.91-1.23,6.55-3.31,12.9-5.83,19.05-1.26,3.08-2.64,6.11-4.12,9.08l-1.2,2.19-1.23,2.17-1.26,2.15-1.31,2.13Z"/>
              <path class="cls-3" d="m60.55,13.6c.94.24,1.79.75,2.57,1.3.78.57,1.51,1.21,2.2,1.88,1.38,1.34,2.63,2.81,3.8,4.32,2.24,3.1,4.18,6.39,5.95,9.75,1.76,3.37,3.33,6.82,4.75,10.34,1.41,3.51,2.68,7.08,3.78,10.7,2.22,7.22,3.86,14.61,4.9,22.07.52,3.73.89,7.48,1.11,11.23.03.94.04,1.88.05,2.82,0,.94,0,1.88-.01,2.82-.01,1.88-.1,3.75-.21,5.63-.08-3.75-.23-7.5-.58-11.23-.21-3.74-.59-7.47-1.11-11.18-1.04-7.42-2.66-14.77-4.87-21.96-1.1-3.59-2.36-7.14-3.76-10.64-1.41-3.49-2.97-6.93-4.72-10.27-1.76-3.34-3.68-6.6-5.9-9.66-1.06-1.56-2.2-3.07-3.47-4.48-.64-.7-1.31-1.37-2.04-1.98-.73-.6-1.52-1.16-2.44-1.47Z"/>
              <g class="cls-19">
                <path class="cls-5" d="m72.36,15.1c-.2.18-.17.52.04.99.22.48.62,1.08,1.15,1.79.52.71,1.17,1.53,1.85,2.48.17.24.35.48.53.73.18.25.35.52.53.79.18.27.37.54.55.82.18.29.36.58.54.88,1.47,2.39,2.91,5.28,4.2,8.3.16.38.32.76.48,1.14.16.38.33.76.47,1.14.29.77.58,1.54.87,2.3.3.76.54,1.53.8,2.27.25.75.5,1.49.74,2.21.44,1.46.83,2.78,1.17,3.97.33,1.2.6,2.27.85,3.22.5,1.91.81,3.36,1.08,4.43.53,2.15.8,2.79,1.3,2.72.62-.1.73-.74.38-2.86-.09-.53-.21-1.15-.36-1.88-.14-.73-.34-1.57-.56-2.52-.23-.96-.48-2.03-.77-3.25-.31-1.21-.66-2.55-1.05-4.04-.19-.74-.42-1.5-.63-2.28-.11-.39-.22-.78-.33-1.17-.11-.39-.21-.79-.34-1.19-.24-.8-.49-1.6-.74-2.41l-.19-.61c-.06-.2-.14-.4-.21-.6l-.42-1.21c-1.12-3.21-2.45-6.37-4.02-9.01-.2-.33-.4-.65-.59-.97-.05-.08-.1-.16-.15-.24-.05-.08-.11-.15-.16-.23-.11-.15-.21-.3-.31-.44-.21-.29-.41-.58-.61-.85-.21-.27-.43-.53-.63-.78-.1-.12-.21-.25-.31-.37-.1-.12-.2-.24-.31-.35-.21-.22-.42-.44-.62-.64-.1-.1-.2-.2-.3-.3-.1-.1-.2-.18-.3-.27-.2-.18-.39-.34-.57-.49-.36-.31-.72-.55-1.03-.76-.32-.21-.61-.36-.87-.47-.52-.21-.92-.22-1.17,0Z"/>
              </g>
              <g class="cls-19">
                <path class="cls-5" d="m60.63,20.07c-.22-.49-.77-.59-1.57-.41-.38.11-.82.29-1.29.54-.23.13-.47.28-.71.43-.12.08-.25.16-.37.25-.12.09-.24.18-.36.28-.24.19-.5.38-.74.6-.24.22-.49.44-.73.67-.48.47-.97.97-1.42,1.49-.92,1.04-1.77,2.12-2.54,3.12-.76.99-1.38,1.79-1.85,2.44-.24.32-.45.61-.63.86-.18.25-.33.47-.45.66-.49.77-.53,1.08-.1,1.34.53.33.88.26,1.46-.37.58-.62,1.41-1.81,3.06-3.57.83-.87,1.82-1.75,2.82-2.58.5-.42,1.02-.8,1.5-1.18.5-.36.97-.73,1.42-1.05.44-.34.86-.63,1.21-.94.36-.29.67-.56.9-.86.48-.53.68-1.11.4-1.73Z"/>
              </g>
            </g>
          </g>
          <g>
            <path class="cls-2" d="m76.92,85.39l-21.38.43c-.08.1-.15.2-.23.3h0c-4.46,5.89-10.31,16.02-.32,30.53.52.76,1.38,1.28,2.35,1.37,1.84.18,3.98-.59,5.25-1.5.73-.52.96-1.44.57-2.21-.06-.12-.13-.26-.21-.43,5.26.93,8.41.36,9.67-.3,0,0,0,0,0,0-.12,1.13.59,2.2,1.74,2.64,1.73.66,3.81.8,5.49.54.98-.15,1.77-.83,2-1.71,5.09-19.59-2.93-27.83-4.94-29.66Z"/>
            <path class="cls-2" d="m76.92,85.39l-21.38.43c-.08.1-.15.2-.23.3h0c-1.79,2.37-3.81,5.42-4.93,9.17,3.11.56,7.72,0,10.21-3.08,3.82-.81,5.74-1.34,6.25-2.33,4.62,0,9.48-.22,11.92-2.5-.76-.96-1.43-1.62-1.84-1.99Z"/>
            <path class="cls-2" d="m50.15,106.41c.77,3.13,2.29,6.55,4.84,10.24.52.76,1.38,1.28,2.35,1.37.42.04.86.03,1.3-.02-4.31-2.13-6.81-7.69-8.48-11.6Z"/>
            <path class="cls-1" d="m63.35,114.99c-.38-.29-.91-.57-1.37-.38-.81.35-.53,1.58-.24,2.32-.22-.4-1.06-2.42-2.41-1.91-1.28.48-.63,2.15-.35,2.8-.73-1.42-1.37-1.81-2.09-1.66-.69.14-.87.88-.84,1.45.39.22.83.37,1.3.42,1.84.18,3.98-.59,5.25-1.5.52-.37.79-.96.75-1.54Z"/>
            <path class="cls-3" d="m58.57,117.13c-.21-.25-.43-.49-.69-.67-.26-.18-.56-.27-.86-.23-.31.02-.58.19-.73.46-.16.27-.23.59-.24.92-.05-.32-.03-.67.12-.98.07-.16.19-.3.34-.4.15-.1.33-.16.5-.17.17-.02.35,0,.52.05.17.05.32.14.45.25.26.22.45.49.61.78Z"/>
            <path class="cls-3" d="m61.4,116.3c-.12-.17-.24-.35-.38-.5-.13-.16-.28-.31-.44-.44-.16-.12-.33-.23-.52-.28-.19-.06-.39-.06-.58,0-.19.05-.37.14-.52.27-.14.13-.24.31-.29.5-.06.19-.07.4-.06.61,0,.21.04.42.08.62-.15-.39-.24-.83-.16-1.26.04-.22.15-.43.31-.59.17-.16.37-.26.59-.32.22-.06.46-.05.67.02.21.07.41.19.56.34.32.3.55.66.73,1.05Z"/>
            <path class="cls-3" d="m63.35,114.99c-.25-.14-.5-.27-.76-.33-.26-.06-.53-.03-.73.13-.2.15-.3.41-.33.68-.03.27-.01.55.02.83-.1-.27-.17-.55-.16-.85,0-.15.03-.3.09-.44.06-.14.15-.27.28-.37.13-.09.27-.16.43-.17.15-.02.31,0,.45.05.28.09.52.27.73.46Z"/>
            <path class="cls-2" d="m83.49,101.72c-.45,3.35-1.57,12.28-4.18,15.11.18-.02.36-.04.54-.07.98-.15,1.77-.83,2-1.71,1.36-5.22,1.78-9.63,1.64-13.33Z"/>
            <g>
              <path class="cls-1" d="m78.37,116.89c.08-.88.14-2.54-1.17-2.75-1.34-.22-2,1.32-2.3,2.27,1.11.35,2.33.5,3.48.48Z"/>
              <path class="cls-1" d="m74.37,116.23c.17.07.35.13.53.18.33-1.21.28-2.23-.34-2.49-.64-.27-1.37.25-1.77.78.26.67.83,1.24,1.59,1.53Z"/>
              <path class="cls-1" d="m81.02,116.28c-.15-.9-.51-1.47-1.2-1.47-1.03,0-1.28,1.21-1.42,2.08.5,0,.99-.05,1.44-.12.44-.07.84-.24,1.17-.49Z"/>
            </g>
            <g>
              <path class="cls-3" d="m78.41,116.07c-.03-.22-.05-.43-.11-.64-.05-.21-.12-.41-.22-.59-.1-.18-.24-.33-.41-.44-.17-.11-.37-.17-.57-.19-.41-.05-.81.1-1.13.37-.16.13-.3.3-.42.47-.13.17-.24.36-.35.54.15-.41.36-.8.68-1.11.16-.16.35-.29.56-.37.21-.08.45-.11.68-.08.23.03.45.09.64.23.19.13.34.31.44.52.2.41.23.86.2,1.29Z"/>
              <path class="cls-3" d="m75.07,115.5c0-.29-.02-.58-.09-.85-.07-.27-.19-.52-.43-.63-.23-.12-.51-.11-.77-.03-.26.09-.51.23-.74.41.18-.22.41-.42.69-.54.27-.12.62-.15.9,0,.15.07.26.19.34.33.08.14.12.29.14.43.05.3.01.59-.05.87Z"/>
              <path class="cls-3" d="m80.91,115.79c-.12-.26-.26-.52-.48-.69-.21-.18-.48-.23-.75-.2-.27.03-.51.18-.68.39-.18.21-.3.47-.42.74.05-.29.13-.58.31-.83.09-.13.2-.24.33-.32.13-.09.29-.14.44-.16.15-.02.31-.01.47.03.15.04.29.13.4.24.22.22.33.51.38.8Z"/>
            </g>
            <path class="cls-2" d="m66.85,107.29c-3.45,0-5.98-3.08-5.45-6.92-2.18,6.17.61,11.44,1.56,13.51,5.25.93,8.4.36,9.66-.3.77-4.05.67-8.97-.67-13.34.69,2.7-1.65,7.05-5.1,7.05Z"/>
            <path class="cls-3" d="m55.54,85.82c-.73.99-1.42,2.01-2.07,3.05-.64,1.05-1.23,2.13-1.73,3.25-1.02,2.23-1.7,4.6-1.92,7.03-.23,2.43,0,4.88.6,7.24.31,1.18.68,2.34,1.15,3.47.1.29.24.56.36.84.13.28.24.56.38.83.28.54.54,1.1.84,1.62l.44.8.48.78c.31.53.66,1.03.99,1.54l.25.38c.08.11.17.22.27.31.2.19.43.34.69.45.13.05.26.09.4.12.14.03.29.07.43.09.15.02.29.05.44.06l.22.02h.22c1.18.04,2.39-.22,3.46-.75.27-.13.52-.28.77-.44.12-.09.25-.17.35-.26.1-.09.2-.19.27-.3.32-.44.39-1.04.15-1.53-.54-1.1-1.06-2.23-1.48-3.4-.41-1.17-.73-2.37-.91-3.6-.36-2.46-.07-5,.87-7.28-.41,1.16-.67,2.37-.78,3.59-.1,1.22-.04,2.45.17,3.65.2,1.2.54,2.38.97,3.53.43,1.15.96,2.24,1.53,3.34.15.31.22.66.19,1.01-.03.35-.15.68-.35.97-.1.14-.22.27-.34.38-.13.12-.26.2-.39.3-.27.17-.54.34-.83.48-1.14.57-2.4.86-3.68.84h-.24s-.24-.03-.24-.03c-.16,0-.32-.03-.48-.06-.16-.02-.31-.06-.47-.09-.15-.03-.32-.08-.48-.14-.32-.13-.61-.31-.85-.55-.12-.12-.24-.25-.34-.39l-.26-.39c-.34-.52-.7-1.02-1.01-1.56l-.49-.79-.45-.81c-1.2-2.17-2.15-4.49-2.76-6.9-.29-1.21-.49-2.44-.58-3.68-.02-.31-.05-.62-.05-.93v-.93s.04-.93.04-.93c.02-.31.06-.62.08-.93.28-2.47,1.02-4.88,2.1-7.1,1.09-2.22,2.49-4.27,4.04-6.19Z"/>
            <path class="cls-3" d="m53.11,106.73c.22-.24.52-.39.83-.51.31-.12.63-.18.96-.22.33-.03.65-.02.98.02.32.04.64.12.94.23-.32-.04-.64-.08-.96-.09-.32-.01-.63-.01-.95.02-.31.03-.62.08-.93.17-.3.09-.6.2-.87.38Z"/>
            <path class="cls-3" d="m56.22,106.76c-.11.17-.28.29-.46.38-.18.09-.38.15-.57.19-.4.07-.81.04-1.18-.08.2-.01.39,0,.58-.03.19-.01.38-.03.57-.07.19-.03.37-.08.55-.14.18-.06.36-.14.52-.25Z"/>
            <path class="cls-3" d="m76.78,105.47c.28-.16.61-.23.94-.26.33-.03.66,0,.98.05.32.06.64.16.93.29.3.12.58.3.84.48-.3-.12-.59-.25-.89-.35-.3-.1-.6-.19-.92-.24-.31-.06-.62-.09-.94-.09-.31,0-.63.02-.94.12Z"/>
            <path class="cls-3" d="m79.74,106.36c-.16.13-.36.19-.55.23-.2.04-.4.04-.61.03-.4-.04-.79-.18-1.12-.41.2.04.38.1.57.14.19.04.38.07.57.09.19.02.38.02.57.01.19-.01.38-.04.57-.1Z"/>
            <path class="cls-3" d="m62.96,113.89c.4.09.81.14,1.22.18.2.03.41.05.61.06.2.02.41.04.61.05.82.06,1.64.11,2.45.11h.61c.2,0,.41-.02.61-.03.2,0,.41-.03.61-.04.2-.02.41-.03.61-.06.81-.11,1.61-.27,2.37-.61-.69.47-1.51.73-2.32.89-.82.16-1.66.22-2.49.22-.83-.01-1.66-.07-2.48-.19-.41-.06-.82-.13-1.22-.22-.4-.09-.81-.19-1.19-.35Z"/>
            <path class="cls-5" d="m50.87,102.89c.15.42.28.83.4,1.25l.36,1.25c.25.83.42,1.67.69,2.5.27.82.59,1.63.97,2.4.38.78.83,1.52,1.37,2.21l-.04.04c-.6-.63-1.11-1.36-1.57-2.11-.44-.76-.82-1.56-1.14-2.38-.32-.82-.64-1.65-.81-2.51-.18-.86-.29-1.74-.3-2.62h.05Z"/>
            <path class="cls-5" d="m81.6,102.28c.16.86.2,1.74.18,2.61-.02.88-.18,1.74-.35,2.6-.17.86-.4,1.71-.7,2.53-.31.82-.68,1.61-1.17,2.34l-.05-.03c.41-.76.72-1.57.96-2.39.24-.82.41-1.66.53-2.51.12-.85.14-1.71.23-2.56l.13-1.28c.05-.43.1-.86.17-1.29h.05Z"/>
          </g>
          <path class="cls-3" d="m76.43,84.18c.39.48.8.94,1.2,1.41.4.47.79.95,1.18,1.43.38.49.74,1,1.09,1.51.17.26.34.52.5.79.08.13.16.27.24.4l.23.41c.61,1.09,1.1,2.24,1.5,3.42.4,1.18.7,2.4.92,3.62.41,2.46.49,4.96.32,7.44-.18,2.47-.58,4.93-1.17,7.33.38-2.44.66-4.89.75-7.35.03-1.23.05-2.46-.03-3.68-.07-1.22-.19-2.44-.4-3.65-.2-1.2-.49-2.39-.87-3.56-.37-1.16-.84-2.29-1.39-3.39-.55-1.09-1.19-2.14-1.9-3.15-.35-.51-.72-1-1.08-1.5-.37-.5-.74-.99-1.08-1.5Z"/>
          <path class="cls-15" d="m45.36,110.27c-2.89.44-4.93,5.83-1.44,9.33s11.4,4.18,13.14,3.59c.97.97,6.08,3.83,9.81-.5,1.56,1.56,8.59,4.16,10.37.4,4.84,0,19.34-5.69,11.95-13.08-8.94,1.1-43.83.26-43.83.26Z"/>
          <g>
            <path class="cls-7" d="m50.54,110.42c-2.49-4.01-2-7.58-2.31-9.05-.1-.5-1.11-1.69-1.44-3.5-.21-1.17.33-2.93.02-3.8-.3-1.45-4.18-5.19-2.82-6.89,1.37-1.7,5.96.64,7.26.41,1.3-.23,3.58-1.18,6.03-1.75,2.18-.51,6.35-1.77,8.91-1.79,2.55-.02,5.61-.18,6.77-.38,1.17-.2,5.61-3.33,7.57-2.22s-.87,6.39-.64,7.49c.23,1.1,2.07,4.22,3.02,7.98,1.37,5.41.05,7.59.8,9.38.28.67,4.1,3.3,2.75,4.7-1.57,1.64-6.92.21-8.03.32-1.56.16-5.44,2.58-9.93,3.37-4.48.79-10.44.5-11.19.63-.75.13-4.32,3.62-5.9,2.36-2.1-1.67.28-5.41-.87-7.26Z"/>
            <path class="cls-17" d="m67.71,113.66c-6.69.68-8.23.11-10.7,1.79.13-.07.23-.12.31-.13.75-.13,6.71.15,11.19-.63,4.48-.79,8.37-3.21,9.93-3.37,0,0,0,0,0,0-3.78-.26-3.17,1.57-10.73,2.34Z"/>
            <g>
              <path class="cls-5" d="m60.75,84.98s0,0,0,0c-.01,0-.03,0-.04.01.02,0,.03,0,.05,0Z"/>
              <path class="cls-18" d="m55.91,87.01c2.4-1.11,3.41-1.63,4.23-1.88-1.09.28-2.09.54-2.85.72-2.45.57-4.72,1.52-6.03,1.75-.08.01-.18.02-.28.01,1.18.31,2.87.35,4.93-.6Z"/>
            </g>
            <path class="cls-18" d="m50.11,105.63c-1.07-2.25-.6-5.9-.73-6.54-.13-.61-1.51-5.23-3.27-6.38.36.55.64,1.03.71,1.37.31.87-.23,2.63-.02,3.8.32,1.8,1.33,3,1.44,3.5.3,1.46-.18,5.04,2.31,9.05.15.25.24.53.29.83.15-1.32.16-3.78-.72-5.63Z"/>
            <path class="cls-3" d="m46.77,93.92c-.14-.33-.35-.62-.55-.92-.21-.29-.42-.58-.64-.87-.43-.58-.87-1.16-1.25-1.78-.19-.31-.37-.62-.52-.96-.15-.33-.28-.68-.33-1.06-.06-.37,0-.79.25-1.13.25-.33.62-.57,1.03-.68.41-.11.82-.12,1.21-.09.4.02.78.08,1.16.16.76.15,1.49.35,2.23.56.73.2,1.46.4,2.21.52.74.13,1.52.2,2.24-.05-.34.17-.73.24-1.11.27-.39.03-.78,0-1.16-.03-.77-.08-1.52-.25-2.26-.42-.74-.17-1.48-.36-2.22-.49-.37-.07-.74-.12-1.11-.14-.37-.02-.73,0-1.06.09-.33.09-.62.27-.8.52-.18.25-.23.56-.2.89.07.65.4,1.29.74,1.91.35.62.75,1.22,1.13,1.82.19.3.38.61.56.92.18.31.35.63.45.97Z"/>
            <path class="cls-3" d="m48.16,101.19c-.19-.26-.39-.5-.58-.76-.18-.26-.36-.53-.51-.82-.3-.57-.52-1.17-.62-1.82-.08-.67.02-1.29.13-1.9.05-.3.12-.6.16-.9.05-.3.09-.6.06-.91.17.28.21.61.25.92.03.31.03.63.02.94-.01.61-.06,1.22,0,1.78.08.57.25,1.15.45,1.72.1.29.21.57.33.86.11.29.24.58.3.89Z"/>
            <path class="cls-3" d="m50.77,110.9c-.09-.19-.21-.36-.34-.53l-.38-.52c-.13-.17-.23-.36-.34-.54l-.16-.28-.14-.29c-.2-.38-.36-.77-.51-1.17l-.2-.6c-.06-.2-.11-.41-.16-.61-.19-.82-.29-1.66-.31-2.49-.01-.42,0-.83,0-1.25,0-.41.03-.83,0-1.24.13.4.16.82.21,1.23l.12,1.24c.09.82.2,1.63.39,2.43.18.8.44,1.58.76,2.35l.12.29.14.28c.09.19.17.38.27.56l.3.56c.11.18.2.38.24.59Z"/>
            <path class="cls-10" d="m57.31,115.33c-.17.08-.3.21-.43.32l-.41.36c-.27.24-.55.47-.84.69-.58.45-1.22.85-1.93,1.15-.36.14-.75.26-1.16.28-.41.03-.88-.08-1.17-.35-.31-.23-.53-.55-.66-.88-.13-.34-.19-.69-.22-1.03-.05-.7.01-1.39.09-2.07l.25-2.05c.07-.68.13-1.37.12-2.06,0-.69-.08-1.38-.29-2.04.22.66.31,1.35.33,2.04.02.69-.02,1.38-.08,2.07l-.21,2.06c-.06.68-.11,1.37-.05,2.05.03.34.09.67.22.99.13.31.33.6.62.79.31.15.65.15.97.08.33-.08.65-.2.97-.36.64-.3,1.24-.69,1.87-1.06.31-.19.63-.37.95-.55.16-.09.33-.17.5-.25.17-.07.36-.16.55-.16Z"/>
            <path class="cls-10" d="m78.25,111.35c-.86.24-1.65.64-2.46,1-.81.37-1.61.74-2.44,1.07-.83.34-1.67.64-2.53.9-.86.26-1.75.46-2.65.61-1.79.28-3.6.39-5.41.43-.9.02-1.81.01-2.71,0-.9-.02-1.8-.06-2.7-.05.45-.06.9-.07,1.35-.09l1.35-.05c.9-.03,1.8-.07,2.7-.11.9-.05,1.79-.1,2.68-.19.89-.08,1.78-.18,2.66-.32,1.76-.27,3.46-.8,5.12-1.41.83-.31,1.66-.64,2.48-.97.42-.16.83-.32,1.25-.47.42-.15.85-.29,1.3-.36Z"/>
            <path class="cls-18" d="m83.79,106.43s-.06-.09-.08-.13c-.76-1.79.56-3.97-.8-9.38-.95-3.75-2.79-6.87-3.02-7.98-.02-.12-.01-.28.02-.48-.41,1.8-.28,4.14,1.44,9.24,2.1,6.22.74,7.21,2.44,8.72Z"/>
            <path class="cls-3" d="m82.91,105.23c.17.3.43.54.68.78.25.24.51.47.77.71.26.23.51.48.77.72.25.25.49.5.73.77.23.27.46.55.64.86.19.31.36.64.42,1.02.03.19.02.39-.05.59-.04.1-.09.19-.15.27-.06.08-.14.15-.21.21-.29.26-.65.41-1.02.51-.73.19-1.48.2-2.22.18-.74-.02-1.47-.09-2.2-.17l-2.18-.26c-.36-.04-.73-.08-1.09-.11-.36-.02-.73-.04-1.1,0,.36-.05.73-.05,1.1-.03.37.01.73.04,1.1.07l2.19.2c.73.06,1.46.11,2.19.11.72,0,1.46-.03,2.14-.22.33-.1.66-.24.89-.46.23-.23.23-.52.15-.79-.09-.28-.26-.56-.45-.82-.2-.26-.41-.53-.64-.78-.22-.26-.45-.51-.69-.77-.23-.26-.47-.51-.69-.79-.23-.27-.44-.54-.64-.83-.19-.29-.39-.61-.43-.95Z"/>
            <path class="cls-3" d="m79.92,89.08c.26.69.62,1.35.95,2.02.33.67.65,1.35.94,2.03.59,1.37,1.09,2.78,1.42,4.24.17.72.29,1.46.39,2.19.07.74.12,1.48.11,2.22,0,.74-.07,1.48-.14,2.21-.04.37-.06.73-.07,1.1,0,.36.04.73.14,1.09-.14-.34-.22-.71-.25-1.08-.03-.37-.03-.74-.03-1.11.02-.74.04-1.47.02-2.2-.03-.73-.08-1.46-.18-2.18-.11-.72-.23-1.44-.4-2.15-.15-.72-.36-1.42-.58-2.12-.22-.7-.47-1.4-.73-2.09-.27-.69-.54-1.38-.83-2.07l-.41-1.04c-.13-.35-.27-.7-.35-1.06Z"/>
            <path class="cls-3" d="m51.08,87.61c.21,0,.42-.03.63-.08.21-.05.41-.1.61-.16.4-.12.8-.25,1.2-.39.8-.27,1.59-.55,2.4-.8.4-.12.81-.24,1.22-.34.41-.1.82-.2,1.23-.31.82-.22,1.63-.46,2.45-.67.82-.21,1.64-.42,2.48-.59.84-.17,1.68-.32,2.55-.36,1.71-.03,3.4-.08,5.1-.21.42-.03.84-.07,1.26-.12.21-.02.42-.05.62-.08.05,0,.1-.02.14-.03.04-.01.09-.02.13-.04.09-.03.19-.07.28-.11.75-.32,1.49-.73,2.25-1.08.76-.36,1.54-.7,2.37-.95.42-.12.85-.21,1.29-.24.44-.02.93.04,1.33.28.21.12.37.31.46.5.1.2.15.4.18.61.05.41.02.81-.04,1.2-.12.79-.33,1.55-.55,2.3-.22.76-.47,1.5-.67,2.26-.1.38-.19.76-.25,1.14-.05.38-.1.78,0,1.16-.13-.38-.11-.78-.08-1.17.04-.39.12-.78.2-1.16.17-.77.38-1.53.57-2.29.2-.76.39-1.52.48-2.28.04-.38.06-.77,0-1.13-.05-.36-.21-.72-.52-.89-.32-.18-.73-.23-1.13-.21-.4.02-.81.11-1.2.23-.79.24-1.55.58-2.3.94-.75.36-1.47.76-2.26,1.11-.1.04-.2.08-.31.12-.05.02-.11.04-.17.05-.06.02-.12.02-.17.03-.22.04-.43.06-.64.08-.43.04-.85.08-1.28.11-1.7.11-3.42.15-5.11.17-.83.03-1.67.15-2.5.3-.83.15-1.66.33-2.48.53l-2.47.58c-.41.1-.83.18-1.24.28-.41.1-.82.21-1.22.33-.81.24-1.61.5-2.41.77-.4.13-.8.26-1.21.37-.2.06-.41.11-.62.15-.21.04-.42.08-.63.07Z"/>
            <g>
              <path class="cls-5" d="m80.76,98.71c.08.36.48.59.91.52.42-.07.71-.43.63-.79s-.48-.59-.91-.52c-.42.07-.71.43-.63.79Z"/>
              <path class="cls-5" d="m57.46,110.58c.42-.07.71-.43.63-.79-.08-.36-.48-.59-.91-.52-.42.07-.71.43-.63.79.07.36.48.59.91.52Z"/>
              <ellipse class="cls-5" cx="67.36" cy="108.17" rx=".78" ry=".67" transform="translate(-9.38 6.44) rotate(-5.12)"/>
              <path class="cls-5" d="m63.76,94.7c.08.36.48.59.91.52.42-.07.71-.43.63-.79-.07-.36-.48-.59-.91-.52-.42.07-.71.43-.63.79Z"/>
              <path class="cls-5" d="m57.63,89.25c.08.36.48.59.91.52.42-.07.71-.43.63-.79-.08-.36-.48-.59-.91-.52-.42.07-.71.43-.63.79Z"/>
              <path class="cls-5" d="m53.72,96.46c.08.36.48.59.91.52.42-.07.71-.43.63-.79-.08-.36-.48-.59-.91-.52-.42.07-.71.43-.63.79Z"/>
              <path class="cls-5" d="m60.98,101.5c-.42.07-.71.43-.63.79s.48.59.91.52c.42-.07.71-.43.63-.79-.08-.36-.48-.59-.91-.52Z"/>
              <path class="cls-5" d="m71.29,101.05c.42-.07.71-.43.63-.79-.08-.36-.48-.59-.91-.52-.42.07-.71.43-.63.79.07.36.48.59.91.52Z"/>
              <path class="cls-5" d="m47.89,90.28c-.42.07-.71.43-.63.79.08.36.48.59.91.52s.71-.43.63-.79c-.08-.36-.48-.59-.91-.52Z"/>
              <path class="cls-5" d="m50.61,103.32c-.42.07-.71.43-.63.79.08.36.48.59.91.52.42-.07.71-.43.63-.79s-.48-.59-.91-.52Z"/>
              <path class="cls-5" d="m77.6,105.7c-.42.07-.71.43-.63.79.08.36.48.59.91.52.42-.07.71-.43.63-.79-.08-.36-.48-.59-.91-.52Z"/>
              <path class="cls-5" d="m74.77,92.1c-.42.07-.71.43-.63.79.08.36.48.59.91.52.42-.07.71-.43.63-.79-.07-.36-.48-.59-.91-.52Z"/>
              <path class="cls-5" d="m67.67,87.49c.08.36.48.59.91.52.42-.07.71-.43.63-.79-.08-.36-.48-.59-.91-.52-.42.07-.71.43-.63.79Z"/>
              <path class="cls-5" d="m79.58,85.41c-.08-.36-.48-.59-.91-.52-.42.07-.71.43-.63.79.08.36.48.59.91.52.42-.07.71-.43.63-.79Z"/>
            </g>
            <path class="cls-18" d="m55.02,110.87c4.24,3.34,23.99-2.02,24.67-5.44-1.17.72-3.08,1.04-5.45,1.78-.69.22-1.6.67-2.34.88-.82.23-2.19.3-3.04.51-2.96.74-4.8,1.39-7.36,1.77-.52.08-1.36-.09-1.84-.03-.47.06-1.49.44-1.9.47-1.57.13-2.37.34-2.74.06Z"/>
            <path class="cls-18" d="m51.93,91.69c1.34-1.23,10.58-7.09,21.75-4.8-1.1.08-2.86-.36-4.4.48-.68.37-1.11.68-1.65.88-.94.35-1.79-.02-2.68.13-2.31.4-4.39.17-6.37,1.12-.23.11-.8.6-1.05.67-.35.1-1.43.21-1.77.32-1.61.49-2.64.6-3.83,1.21Z"/>
          </g>
          <g>
            <path class="cls-18" d="m48.33,104.77c1.03,1.13,1.73,1.76,2.7,1.8,2.06.09,6.91-7.83,1.72-11.73-5.05,5.4-4.42,9.92-4.42,9.92Z"/>
            <g>
              <path class="cls-2" d="m53.38,94.91c.66,5.09-1.14,8.5-2.36,10.19-.16.22-.42.35-.69.34-3.87-.1-7.21-2.49-6.52-6.82.72-4.53,6.18-5.45,9.57-3.72Z"/>
              <g>
                <path class="cls-14" d="m51.06,105.04c.48-.68,1.05-1.62,1.51-2.82-2.13-.35-2.91-.11-3.14.68-.23.79.4,1.69,1.63,2.14Z"/>
                <path class="cls-14" d="m49.88,99.7c-.15,1.21,1.3,2.01,2.71,2.47.43-1.11.77-2.44.88-3.98-1.9-.1-3.43.23-3.59,1.51Z"/>
                <path class="cls-14" d="m51.07,96.36c-.12,1.04,1.36,1.47,2.41,1.77.07-.97.05-2.03-.09-3.18-.85.14-2.23.61-2.32,1.4Z"/>
              </g>
              <g>
                <path class="cls-3" d="m52.57,102.22c-.27-.02-.54-.05-.8-.07-.27-.02-.54-.03-.8-.02-.26.01-.53.04-.77.12-.25.07-.45.22-.57.44-.12.22-.17.47-.13.72.03.25.15.49.31.7.15.21.35.39.57.54.21.16.45.28.7.4-.52-.15-1.01-.42-1.37-.85-.18-.21-.32-.47-.36-.75-.05-.28,0-.58.14-.84.15-.26.41-.44.68-.51.27-.08.55-.1.82-.09.55.02,1.08.1,1.61.23Z"/>
                <path class="cls-3" d="m53.47,98.18c-.69,0-1.38.03-2.03.19-.32.09-.65.2-.91.39-.14.09-.24.21-.34.34-.04.07-.08.14-.11.21-.02.08-.06.15-.07.23-.08.31-.04.65.12.94.16.29.4.52.66.73.27.21.56.38.87.53.3.16.62.29.94.41-.66-.18-1.31-.43-1.89-.83-.29-.2-.55-.45-.73-.76-.18-.32-.23-.7-.15-1.06.01-.09.06-.17.09-.26.04-.08.09-.16.13-.24.11-.15.24-.28.39-.38.3-.2.63-.33.98-.39.34-.07.69-.1,1.03-.11.35,0,.69.01,1.03.05Z"/>
                <path class="cls-3" d="m53.38,94.96c-.25.06-.49.13-.73.22-.24.08-.47.18-.69.3-.22.12-.43.26-.58.44-.16.18-.26.39-.23.63.02.23.14.44.31.61.17.17.39.3.6.42.22.12.46.21.69.3.23.1.48.17.71.26-.5-.1-.99-.23-1.47-.44-.24-.11-.46-.24-.66-.42-.2-.18-.35-.43-.37-.71v-.21c.02-.07.03-.14.06-.21.03-.07.06-.13.1-.18.04-.06.08-.11.13-.16.19-.2.41-.34.65-.45.47-.22.97-.35,1.48-.4Z"/>
              </g>
              <path class="cls-8" d="m44.03,97.74c-.09.28-.17.57-.22.89-.69,4.32,2.65,6.71,6.52,6.82.27,0,.53-.12.69-.34.03-.04.06-.08.08-.12-3.18-.07-8.05-3.79-7.08-7.24Z"/>
              <path class="cls-3" d="m53.38,94.94c.37,1.81.28,3.72-.14,5.53-.22.9-.51,1.79-.91,2.64-.2.42-.42.83-.67,1.22-.13.19-.26.38-.41.56-.15.18-.31.35-.52.46.18-.14.31-.33.44-.52.12-.19.24-.39.34-.59.21-.4.4-.82.57-1.24.34-.85.61-1.72.82-2.61.11-.44.19-.89.27-1.34.08-.45.13-.9.17-1.36.08-.91.09-1.83.05-2.75Z"/>
              <path class="cls-3" d="m50.67,105.38c-.11.06-.23.07-.35.07-.12,0-.24,0-.36,0-.24-.01-.48-.03-.72-.06-.48-.06-.96-.15-1.43-.29-.93-.28-1.82-.74-2.55-1.41-.74-.66-1.27-1.55-1.52-2.51-.25-.96-.23-1.98-.03-2.94.21-.97.7-1.89,1.42-2.58.72-.69,1.62-1.17,2.57-1.42.95-.26,1.94-.32,2.91-.21.96.12,1.91.39,2.76.86-.88-.4-1.82-.62-2.77-.68-.95-.06-1.91.03-2.81.31-.9.28-1.75.73-2.41,1.39-.66.65-1.11,1.51-1.3,2.42-.2.91-.22,1.88,0,2.78.22.91.71,1.74,1.39,2.39.67.65,1.52,1.13,2.41,1.45.45.16.91.28,1.38.36.24.04.47.07.71.1.12.01.24.02.36.03.12,0,.24,0,.35-.05Z"/>
              <g class="cls-21">
                <path class="cls-5" d="m49.61,95.13c.03-.1.01-.2-.1-.28-.04-.03-.07-.06-.13-.09-.05-.02-.1-.04-.16-.05-.22-.05-.5-.01-.8.08-.61.18-1.3.58-1.85.95-.56.36-.88.64-1.05.83-.16.2-.17.3-.01.41.2.15.32.16.48.05.17-.1.41-.34.94-.57.53-.24,1.24-.35,1.77-.49.27-.07.49-.16.63-.28.08-.07.12-.14.16-.23,0-.09.07-.2.11-.33Z"/>
              </g>
            </g>
          </g>
          <g>
            <path class="cls-18" d="m82.77,95.42c-1.42-.82-3.26-2.63-4.37-6.6-6.4,1.06-5.61,10.05-3.89,11.19,4.53,3.03,7.55,1.9,9.09-.07l-.83-4.53Z"/>
            <g>
              <path class="cls-2" d="m77.82,88.59c-2.93,4.21-2.91,8.06-2.62,10.13.04.27.21.5.46.62,3.48,1.7,7.55,1.12,8.93-3.04,1.45-4.36-2.97-7.69-6.77-7.72Z"/>
              <g>
                <path class="cls-14" d="m75.19,98.65c-.11-.83-.18-1.92-.04-3.2,2.05.67,2.63,1.25,2.47,2.06-.16.8-1.14,1.32-2.43,1.15Z"/>
                <path class="cls-14" d="m78.7,94.45c-.43,1.14-2.09,1.18-3.54.94.13-1.18.45-2.52,1.06-3.94,1.73.79,2.94,1.79,2.49,3Z"/>
                <path class="cls-14" d="m79.19,90.94c-.38.97-1.89.68-2.96.46.39-.9.89-1.83,1.55-2.78.69.51,1.69,1.57,1.41,2.32Z"/>
              </g>
              <g>
                <path class="cls-3" d="m75.15,95.44c.52.13,1.04.3,1.53.54.24.12.48.27.69.46.21.19.36.47.37.77,0,.29-.08.58-.26.81-.17.23-.41.4-.67.5-.52.21-1.09.22-1.61.12.27.01.54.01.8-.03.26-.04.52-.1.75-.22.23-.11.45-.27.59-.48.15-.2.22-.45.22-.7,0-.25-.12-.48-.31-.65-.18-.18-.4-.33-.63-.46-.23-.13-.47-.24-.72-.35-.24-.11-.5-.21-.74-.31Z"/>
                <path class="cls-3" d="m76.22,91.45c.32.13.63.27.94.43.3.17.59.35.87.57.27.22.52.48.68.8.09.16.14.33.17.51,0,.09.01.18,0,.27-.01.09-.01.18-.04.27-.09.35-.32.67-.62.87-.3.19-.65.3-1,.34-.69.09-1.39.01-2.06-.13.34.03.68.07,1.03.07.34,0,.68-.01,1.01-.07.33-.06.66-.16.93-.34.27-.18.46-.46.54-.78.03-.08.03-.16.04-.24,0-.08,0-.16,0-.24-.03-.16-.07-.32-.14-.46-.15-.29-.38-.54-.63-.77-.51-.45-1.11-.79-1.71-1.11Z"/>
                <path class="cls-3" d="m77.79,88.63c.43.28.81.63,1.13,1.04.16.21.29.43.37.69.02.07.04.13.04.2.01.07,0,.14,0,.21,0,.07-.03.14-.05.21l-.09.19c-.15.24-.41.39-.66.46-.26.07-.52.08-.78.07-.52-.03-1.02-.15-1.51-.29.25.03.5.07.76.1.25.03.5.05.75.05.25,0,.5-.02.73-.09.23-.07.44-.2.56-.39.13-.2.15-.43.09-.66-.06-.23-.18-.45-.32-.66-.14-.21-.3-.4-.47-.59-.17-.19-.35-.36-.54-.53Z"/>
              </g>
              <path class="cls-8" d="m84.8,95.42c-.05.29-.12.59-.22.89-1.38,4.15-5.45,4.73-8.93,3.04-.25-.12-.42-.35-.46-.62,0-.05-.01-.1-.02-.15,2.86,1.41,8.89.35,9.62-3.15Z"/>
              <path class="cls-3" d="m77.8,88.61c-.46.8-.88,1.62-1.22,2.46-.17.42-.34.85-.48,1.28-.14.43-.28.87-.38,1.31-.23.88-.39,1.78-.48,2.69-.04.45-.07.91-.07,1.37,0,.23,0,.46.03.68.02.23.05.46.15.67-.13-.19-.19-.42-.25-.65-.05-.23-.08-.46-.11-.69-.04-.46-.05-.93-.03-1.39.04-.93.19-1.85.41-2.76.46-1.8,1.26-3.53,2.43-4.97Z"/>
              <path class="cls-3" d="m75.39,99.13c.07.1.18.15.29.2.11.05.22.1.33.14.22.09.45.17.68.24.46.15.92.25,1.39.32.94.14,1.91.1,2.81-.17.9-.26,1.72-.78,2.33-1.48.62-.7,1.04-1.56,1.29-2.46.25-.9.25-1.86-.04-2.75-.28-.89-.82-1.69-1.49-2.35-.68-.66-1.48-1.19-2.35-1.57-.87-.39-1.81-.62-2.77-.68.96-.03,1.93.17,2.84.51.91.35,1.76.86,2.48,1.53.72.66,1.31,1.5,1.62,2.45.32.95.32,1.99.06,2.95-.27.95-.71,1.86-1.39,2.6-.67.73-1.55,1.28-2.51,1.52-.95.26-1.96.25-2.91.07-.48-.09-.95-.23-1.4-.4-.23-.09-.45-.18-.67-.28-.11-.05-.22-.11-.32-.17-.1-.06-.21-.13-.28-.23Z"/>
              <g class="cls-20">
                <path class="cls-5" d="m81.05,90.52c.02-.1.08-.18.21-.2.05-.01.09-.02.15-.02.06,0,.11.01.16.03.22.06.45.22.68.44.46.44.88,1.11,1.2,1.69.33.58.48.97.55,1.22.05.25.01.34-.18.37-.24.04-.36,0-.45-.18-.11-.17-.21-.49-.57-.94-.36-.46-.94-.88-1.35-1.25-.2-.19-.36-.36-.43-.54-.04-.09-.04-.17-.03-.28.03-.08.03-.21.06-.34Z"/>
              </g>
            </g>
          </g>
          <g>
            <path class="cls-2" d="m64.63,117.39c.31-1.02,1.52-4.25-.51-5.06-3.72-1.49-8.74-4.92-17.49-5.91-2.61-.25-6.71,4.57-2.46,8.19,4.26,3.63,12.37,5.52,17.78,5.95.76-.76,2.67-3.17,2.67-3.17Z"/>
            <path class="cls-8" d="m44.18,114.62c-2.99-2.54-1.85-5.68,0-7.23-1.57,1.57.12,4.41,1.76,5.36,8.91,5.12,13.15,2.2,15.74-.2.52.47.97.92,1.35,1.35,1.44,1.63,1.92,2.47,1.61,3.49,0,0-.85,2.22-1.61,2.98-6.73.28-14.58-2.13-18.84-5.76Z"/>
            <path class="cls-3" d="m63.63,113.3c-.55-.55-1.15-1.05-1.77-1.5-.64-.44-1.28-.86-1.96-1.23-1.35-.75-2.77-1.38-4.23-1.9-1.45-.53-2.94-.96-4.45-1.33-1.51-.35-3.04-.64-4.57-.9,1.55.12,3.1.32,4.63.63,1.53.32,3.04.74,4.51,1.27,1.47.54,2.9,1.19,4.24,2,.68.39,1.31.86,1.93,1.33.6.51,1.18,1.04,1.67,1.64Z"/>
            <path class="cls-3" d="m45.63,106.56c-.3.11-.58.26-.84.44-.26.17-.51.37-.73.59-.45.44-.82.95-1.09,1.51-.27.56-.43,1.16-.45,1.77-.02.61.1,1.21.36,1.76.25.55.63,1.04,1.07,1.46.22.22.46.41.7.6.25.19.5.38.76.55,1.03.71,2.13,1.32,3.27,1.84,1.14.53,2.31.99,3.51,1.39,1.19.41,2.41.74,3.64,1.02,1.23.28,2.47.5,3.73.64.63.07,1.26.13,1.89.16.63.03,1.27.03,1.9.02-2.53.29-5.11.08-7.61-.41-2.51-.49-4.96-1.26-7.29-2.34-1.16-.55-2.29-1.17-3.34-1.92-.26-.18-.52-.38-.77-.59-.25-.2-.5-.41-.73-.65-.46-.47-.86-1.01-1.12-1.63-.26-.61-.38-1.29-.33-1.95.05-.66.26-1.3.57-1.87.32-.57.74-1.07,1.22-1.49.49-.42,1.05-.75,1.67-.92Z"/>
            <path class="cls-5" d="m44.69,108.2c.02.3.87-.08,1.95-.17,1.08-.09,1.98.15,1.95-.15-.02-.3-.95-.83-2.02-.75-1.08.09-1.9.76-1.88,1.06Z"/>
            <path class="cls-2" d="m55.2,112.89c.59-1.97,1.99-4.66,7.05-3.42,5.06,1.24,5.6,4.02,4.89,6.81-.97,3.78-4.71,5.08-8.12,3.85s-4.75-4.11-3.82-7.25Z"/>
            <path class="cls-8" d="m64.4,110.21c2.18,1.43,2.35,3.5,1.82,5.57-.97,3.78-4.71,5.08-8.12,3.85-.24-.09-.46-.18-.68-.28.47.31,1,.57,1.59.79,3.41,1.22,7.15-.07,8.12-3.85.59-2.33.31-4.65-2.73-6.07Z"/>
            <path class="cls-3" d="m59.02,120.14c-.74-.24-1.45-.58-2.08-1.05-.63-.47-1.17-1.07-1.56-1.77-.38-.7-.59-1.5-.63-2.29-.05-.8.09-1.6.31-2.37.22-.76.57-1.51,1.08-2.15.52-.64,1.24-1.11,2.03-1.35.78-.25,1.61-.28,2.41-.23.4.05.8.08,1.18.17.19.04.39.08.58.12l.57.16.29.08c.09.03.19.07.28.1l.56.2c.36.17.73.32,1.08.53.69.4,1.35.93,1.8,1.63.45.69.69,1.52.71,2.33.02.81-.13,1.61-.37,2.37-.24.76-.62,1.49-1.14,2.1-.52.61-1.19,1.09-1.91,1.42-1.47.64-3.14.65-4.62.18.76.18,1.54.24,2.3.18.77-.06,1.52-.26,2.2-.6.68-.34,1.29-.81,1.75-1.4.47-.59.81-1.27,1.01-2l.08-.27.06-.28c.04-.19.07-.37.1-.56.06-.37.07-.75.06-1.12-.03-.74-.25-1.46-.66-2.06-.41-.61-.99-1.09-1.64-1.46-.32-.2-.67-.34-1.01-.49l-.54-.19c-.09-.03-.18-.07-.27-.09l-.28-.08-.55-.16-.56-.12c-.37-.09-.75-.12-1.12-.17-.75-.05-1.51-.02-2.21.19-.7.21-1.34.61-1.82,1.17-.47.57-.81,1.25-1.05,1.97-.24.72-.37,1.47-.36,2.23.01.75.18,1.51.51,2.19.33.68.82,1.29,1.41,1.78.59.49,1.28.87,2,1.17Z"/>
            <path class="cls-14" d="m66.16,115.54c-.16,1.06-1.02,3.78-3.24,3.53-1.19-.14-1.41-.94-1.37-1.73.06-1.15,1.47-1,1.53-1.83.07-1.03-1.09-1.35-.8-2.64.26-1.17,1.06-1.13,1.86-.93,1.71.43,2.27,1.94,2.03,3.6Z"/>
            <path class="cls-14" d="m60.8,112.19c-.27,1.2-.99,1.2-1.85,1.02-.87-.18-1.44-.93-1.29-1.67.16-.74.99-1.2,1.85-1.02.87.18,1.54.53,1.29,1.67Z"/>
            <path class="cls-3" d="m58.95,113.21c-.2-.02-.39-.08-.57-.17-.18-.09-.34-.22-.48-.37-.28-.3-.42-.74-.33-1.15.09-.42.4-.76.77-.92.19-.08.39-.13.58-.15.2,0,.4.01.59.07-.39-.04-.78.02-1.11.2-.33.18-.58.48-.65.84-.08.36.03.74.26,1.03.23.3.56.51.94.63Z"/>
            <path class="cls-14" d="m59.83,114.94c-.16,1.01-.76,1.06-1.49.97-.73-.08-1.25-.66-1.15-1.28.09-.62.76-1.06,1.49-.97.73.08,1.31.32,1.15,1.28Z"/>
            <path class="cls-3" d="m58.34,115.92c-.32,0-.66-.12-.91-.36-.12-.12-.22-.27-.28-.43-.06-.16-.07-.35-.05-.52.06-.35.3-.65.6-.81.3-.16.65-.2.97-.13-.33,0-.64.09-.9.25-.26.17-.45.42-.5.72-.06.29.05.6.25.82.2.23.49.39.81.46Z"/>
            <path class="cls-14" d="m59.7,117.6c-.04.85-.54.98-1.16,1.01-.62.03-1.11-.36-1.1-.89.02-.52.54-.98,1.16-1.01.62-.03,1.13.08,1.1.89Z"/>
            <path class="cls-3" d="m58.54,118.61c-.27.05-.57,0-.81-.16-.12-.08-.22-.2-.29-.33-.07-.14-.09-.29-.08-.44.03-.3.21-.57.45-.73.23-.17.52-.24.8-.23-.27.05-.52.17-.71.34-.19.17-.33.4-.35.64-.03.24.08.49.28.65.19.16.45.25.73.28Z"/>
            <path class="cls-3" d="m64.13,111.94c.41.06.81.22,1.16.47.34.25.62.6.8,1,.19.39.27.82.29,1.25.02.43-.02.85-.11,1.27-.19.82-.53,1.62-1.08,2.28-.27.33-.63.6-1.03.76-.4.16-.84.18-1.24.11.41,0,.82-.08,1.17-.27.35-.18.65-.46.88-.77.23-.32.43-.67.58-1.04.16-.37.28-.75.36-1.14.09-.39.13-.79.12-1.18,0-.4-.07-.79-.21-1.15-.14-.36-.36-.7-.65-.97-.29-.27-.66-.47-1.04-.61Z"/>
            <path class="cls-5" d="m56.04,116.96c-.27-.44-.41-.93-.5-1.44-.08-.51-.08-1.03-.01-1.54.02-.26.08-.51.14-.77.07-.25.15-.5.28-.73.24-.46.57-.87.97-1.2l.04.03c-.07.25-.18.48-.26.71-.08.23-.19.45-.26.68-.17.45-.38.88-.48,1.35-.11.47-.16.95-.14,1.44.01.49.09.98.27,1.44l-.05.03Z"/>
            <g>
              <path class="cls-5" d="m62.29,118.35c-.12-.06-.21-.17-.29-.27-.08-.11-.14-.24-.17-.39-.03-.14-.06-.31.03-.45.08-.14.21-.23.36-.26l.03.03c-.01.16-.04.27-.05.37,0,.1-.07.18-.07.29,0,.11.01.22.04.33.03.11.08.23.16.33l-.02.03Z"/>
              <path class="cls-5" d="m63.35,112.35c-.1.07-.19.15-.27.25-.07.09-.13.19-.17.29-.04.1-.01.21-.04.3-.02.1-.04.21-.09.36h-.03c-.14-.07-.22-.21-.24-.36-.02-.16.07-.31.15-.43.08-.12.19-.22.3-.3.12-.07.24-.13.37-.15v.03Z"/>
              <path class="cls-5" d="m58.45,111.03c-.09.09-.13.2-.18.3-.04.11-.1.21-.14.33-.03.11-.04.23-.03.35.01.12.07.23.16.32h-.01c-.11-.06-.19-.17-.23-.3-.04-.13-.04-.27-.03-.4.02-.13.04-.27.12-.38.04-.06.08-.11.14-.15.05-.04.12-.08.19-.08v.02Z"/>
              <path class="cls-5" d="m57.84,114.15c-.05.09-.07.2-.1.29-.02.1-.07.19-.08.29-.01.1,0,.2.04.29.04.09.12.16.22.22v.02c-.11-.04-.22-.09-.29-.19-.07-.1-.1-.22-.11-.34,0-.12,0-.24.06-.35.03-.05.06-.1.1-.15.04-.04.09-.09.16-.1v.02Z"/>
              <path class="cls-5" d="m57.9,117.41c0,.09,0,.16,0,.23,0,.07-.02.13-.02.21,0,.14.07.28.17.39h-.01c-.07-.03-.13-.08-.19-.14-.05-.07-.09-.14-.11-.23-.02-.08-.05-.17-.02-.26.02-.08.07-.16.15-.21h.02Z"/>
            </g>
          </g>
          <g>
            <path class="cls-2" d="m70.31,117.39c-.31-1.02-1.52-4.25.51-5.06,3.72-1.49,8.74-4.92,17.49-5.91,2.61-.25,6.71,4.57,2.46,8.19-4.26,3.63-12.37,5.52-17.78,5.95-.76-.76-2.67-3.17-2.67-3.17Z"/>
            <path class="cls-8" d="m90.76,114.62c2.99-2.54,1.85-5.68,0-7.23,1.57,1.57-.12,4.41-1.76,5.36-8.91,5.12-13.15,2.2-15.74-.2-.52.47-.97.92-1.35,1.35-1.44,1.63-1.92,2.47-1.61,3.49,0,0,.85,2.22,1.61,2.98,6.73.28,14.58-2.13,18.84-5.76Z"/>
            <path class="cls-3" d="m71.32,113.3c.49-.61,1.07-1.14,1.67-1.64.62-.48,1.25-.94,1.93-1.33,1.34-.81,2.78-1.46,4.24-2,1.47-.53,2.98-.95,4.51-1.27,1.53-.31,3.08-.51,4.63-.63-1.54.26-3.06.55-4.57.9-1.51.37-3,.8-4.45,1.33-1.45.53-2.87,1.15-4.23,1.9-.68.37-1.33.79-1.96,1.23-.63.45-1.22.95-1.77,1.5Z"/>
            <path class="cls-3" d="m89.31,106.56c.61.17,1.18.5,1.67.92.49.42.91.92,1.22,1.49.31.57.52,1.21.57,1.87.05.66-.07,1.34-.33,1.95-.26.61-.65,1.16-1.12,1.63-.23.24-.48.45-.73.65-.25.2-.51.4-.77.59-1.05.75-2.18,1.37-3.34,1.92-2.33,1.08-4.78,1.85-7.29,2.34-2.5.49-5.08.7-7.61.41.64.02,1.27.01,1.9-.02.63-.03,1.26-.09,1.89-.16,1.26-.14,2.5-.37,3.73-.64,1.23-.29,2.45-.62,3.64-1.02,1.2-.4,2.37-.86,3.51-1.39,1.14-.53,2.24-1.13,3.27-1.84.26-.17.51-.36.76-.55.25-.19.49-.39.7-.6.44-.43.81-.92,1.07-1.46.26-.55.38-1.15.36-1.76-.02-.61-.18-1.21-.45-1.77-.27-.56-.64-1.07-1.09-1.51-.22-.22-.47-.42-.73-.59-.26-.18-.54-.33-.84-.44Z"/>
            <path class="cls-5" d="m90.26,108.2c-.02.3-.87-.08-1.95-.17s-1.98.15-1.95-.15c.02-.3.95-.83,2.02-.75,1.08.09,1.9.76,1.88,1.06Z"/>
            <path class="cls-2" d="m79.75,112.89c-.59-1.97-1.99-4.66-7.05-3.42-5.06,1.24-5.6,4.02-4.89,6.81.97,3.78,4.71,5.08,8.12,3.85,3.41-1.22,4.75-4.11,3.82-7.25Z"/>
            <path class="cls-8" d="m70.54,110.21c-2.18,1.43-2.35,3.5-1.82,5.57.97,3.78,4.71,5.08,8.12,3.85.24-.09.46-.18.68-.28-.47.31-1,.57-1.59.79-3.41,1.22-7.15-.07-8.12-3.85-.59-2.33-.31-4.65,2.73-6.07Z"/>
            <path class="cls-3" d="m75.93,120.14c.72-.29,1.4-.68,2-1.17.59-.49,1.08-1.1,1.41-1.78.33-.68.5-1.43.51-2.19.01-.75-.12-1.51-.36-2.23-.24-.72-.57-1.4-1.05-1.97-.48-.56-1.11-.96-1.82-1.17-.7-.21-1.46-.25-2.21-.19-.37.05-.75.08-1.12.17l-.56.12-.55.16-.28.08c-.09.03-.18.06-.27.09l-.54.19c-.34.16-.7.3-1.01.49-.65.37-1.23.85-1.64,1.46-.41.6-.63,1.32-.66,2.06,0,.37,0,.75.06,1.12.03.19.05.37.1.56l.06.28.08.27c.2.72.54,1.41,1.01,2,.47.59,1.07,1.07,1.75,1.4.68.34,1.43.54,2.2.6.77.06,1.55,0,2.3-.18-1.48.47-3.15.46-4.62-.18-.73-.32-1.39-.81-1.91-1.42-.53-.61-.9-1.34-1.14-2.1-.24-.76-.38-1.55-.37-2.37.02-.81.25-1.64.71-2.33.45-.7,1.1-1.23,1.8-1.63.34-.21.72-.36,1.08-.53l.56-.2c.09-.03.19-.07.28-.1l.29-.08.57-.16c.19-.04.39-.08.58-.12.39-.09.79-.12,1.18-.17.8-.05,1.62-.02,2.41.23.78.24,1.51.72,2.03,1.35.52.64.86,1.39,1.08,2.15.23.76.36,1.56.31,2.37-.04.8-.25,1.59-.63,2.29-.39.7-.93,1.3-1.56,1.77-.63.47-1.34.82-2.08,1.05Z"/>
            <path class="cls-14" d="m68.78,115.54c.16,1.06,1.02,3.78,3.24,3.53,1.19-.14,1.41-.94,1.37-1.73-.06-1.15-1.47-1-1.53-1.83-.07-1.03,1.09-1.35.8-2.64-.26-1.17-1.06-1.13-1.86-.93-1.71.43-2.27,1.94-2.03,3.6Z"/>
            <path class="cls-14" d="m74.15,112.19c.27,1.2.99,1.2,1.85,1.02.87-.18,1.44-.93,1.29-1.67-.16-.74-.99-1.2-1.85-1.02-.87.18-1.54.53-1.29,1.67Z"/>
            <path class="cls-3" d="m76,113.21c.37-.12.71-.33.94-.63.23-.29.34-.67.26-1.03-.07-.36-.33-.66-.65-.84-.33-.18-.72-.24-1.11-.2.19-.06.39-.08.59-.07.2.01.4.06.58.15.37.16.68.51.77.92.09.42-.06.86-.33,1.15-.14.15-.3.28-.48.37-.18.09-.37.15-.57.17Z"/>
            <path class="cls-14" d="m75.12,114.94c.16,1.01.76,1.06,1.49.97.73-.08,1.25-.66,1.15-1.28-.09-.62-.76-1.06-1.49-.97-.73.08-1.31.32-1.15,1.28Z"/>
            <path class="cls-3" d="m76.6,115.92c.32-.07.6-.23.81-.46.2-.23.31-.53.25-.82-.05-.29-.24-.55-.5-.72-.26-.17-.57-.25-.9-.25.32-.07.67-.03.97.13.3.16.54.45.6.81.03.17.01.36-.05.52-.06.16-.16.31-.28.43-.25.24-.58.36-.91.36Z"/>
            <path class="cls-14" d="m75.24,117.6c.04.85.54.98,1.16,1.01.62.03,1.11-.36,1.1-.89-.02-.52-.54-.98-1.16-1.01-.62-.03-1.13.08-1.1.89Z"/>
            <path class="cls-3" d="m76.4,118.61c.27-.02.53-.11.73-.28.19-.16.3-.41.28-.65-.02-.24-.16-.47-.35-.64-.2-.17-.44-.28-.71-.34.27-.02.56.06.8.23.23.16.42.43.45.73.01.15-.01.31-.08.44-.07.14-.17.25-.29.33-.24.17-.54.21-.81.16Z"/>
            <path class="cls-3" d="m70.81,111.94c-.39.14-.75.33-1.04.61-.29.27-.51.6-.65.97-.14.37-.21.76-.21,1.15,0,.39.03.79.12,1.18.08.39.21.77.36,1.14.15.37.35.72.58,1.04.24.32.53.59.88.77.35.19.75.26,1.17.27-.41.08-.84.05-1.24-.11-.4-.16-.75-.43-1.03-.76-.56-.66-.89-1.46-1.08-2.28-.09-.42-.13-.84-.11-1.27.02-.43.11-.86.29-1.25.18-.39.46-.74.8-1,.34-.25.75-.41,1.16-.47Z"/>
            <path class="cls-5" d="m78.86,116.93c.18-.46.26-.95.27-1.44.02-.49-.04-.97-.14-1.44-.11-.47-.32-.9-.48-1.35-.07-.23-.18-.45-.26-.68-.09-.23-.19-.45-.26-.71l.04-.03c.4.33.74.74.97,1.2.13.23.21.48.28.73.05.26.11.51.14.77.07.51.07,1.04-.01,1.54-.09.5-.23,1-.5,1.44l-.05-.03Z"/>
            <g>
              <path class="cls-5" d="m72.63,118.32c.07-.1.12-.21.16-.33.03-.11.05-.23.04-.33,0-.11-.07-.19-.07-.29-.01-.1-.04-.21-.05-.37l.03-.03c.16.02.28.12.36.26.08.14.06.31.03.45-.03.15-.09.28-.17.39-.08.11-.17.21-.29.27l-.02-.03Z"/>
              <path class="cls-5" d="m71.6,112.31c.13.02.26.08.37.15.12.07.22.17.3.3.08.12.17.27.15.43-.02.16-.1.3-.24.38h-.03c-.05-.17-.06-.27-.09-.37-.03-.09,0-.19-.04-.3-.04-.1-.09-.2-.17-.29-.07-.09-.16-.18-.27-.25v-.03Z"/>
              <path class="cls-5" d="m76.5,111.02c.07,0,.14.04.19.08.05.04.1.1.14.15.08.11.1.25.12.38.02.13.01.27-.03.4-.04.13-.12.24-.23.31h-.01c.09-.1.14-.22.16-.33.02-.12,0-.24-.03-.35-.03-.12-.09-.22-.14-.33-.05-.11-.09-.21-.18-.3v-.02Z"/>
              <path class="cls-5" d="m77.11,114.13c.07,0,.12.05.16.1.04.04.07.09.1.15.06.11.06.23.06.35,0,.12-.04.24-.11.34-.08.1-.18.15-.28.19v-.02c.09-.06.17-.13.21-.22.05-.09.05-.19.04-.29-.01-.1-.06-.19-.08-.29-.03-.09-.05-.2-.1-.29v-.02Z"/>
              <path class="cls-5" d="m77.06,117.4c.08.05.13.13.15.21.03.08,0,.18-.02.26-.02.08-.06.16-.11.23-.05.06-.12.12-.19.16h-.01c.1-.13.16-.27.17-.41,0-.07-.02-.14-.02-.21,0-.07,0-.14,0-.23h.02Z"/>
            </g>
          </g>
        </g>
      </g>
    </g>
  </g>
</svg>