<?xml version="1.0" encoding="UTF-8"?>
<svg xmlns="http://www.w3.org/2000/svg" viewBox="0 0 236 225.22">
  <defs>
    <style>
      .cls-1 {
        fill: #f6f0ef;
      }

      .cls-2 {
        fill: #f7f3f3;
      }

      .cls-3, .cls-4 {
        fill: #001689;
      }

      .cls-5, .cls-6 {
        fill: #ebdedd;
      }

      .cls-7 {
        fill: #f1d3de;
      }

      .cls-8, .cls-9, .cls-10 {
        fill: #fff;
      }

      .cls-11 {
        fill: #ffe9cc;
      }

      .cls-12, .cls-13 {
        fill: #ffce89;
      }

      .cls-14 {
        fill: #efe4e3;
      }

      .cls-15 {
        fill: #e1f7f5;
      }

      .cls-16 {
        fill: #10cfc9;
      }

      .cls-17 {
        fill: #96e4df;
      }

      .cls-18 {
        fill: #88e0db;
      }

      .cls-19 {
        fill: #ffb548;
        opacity: .13;
      }

      .cls-19, .cls-20, .cls-13, .cls-6, .cls-21, .cls-22, .cls-4 {
        mix-blend-mode: multiply;
      }

      .cls-20 {
        fill: #dff6f4;
      }

      .cls-21 {
        fill: #fff1dd;
      }

      .cls-22 {
        fill: #e7e3f2;
      }

      .cls-23 {
        opacity: .51;
      }

      .cls-24 {
        opacity: .54;
      }

      .cls-25 {
        opacity: .48;
      }

      .cls-26 {
        opacity: .49;
      }

      .cls-27 {
        opacity: .91;
      }

      .cls-4 {
        opacity: .08;
      }

      .cls-28 {
        isolation: isolate;
      }

      .cls-9 {
        opacity: .6;
      }

      .cls-10 {
        opacity: .6;
      }
    </style>
  </defs>
  <g class="cls-28">
    <g id="Layer_2" data-name="Layer 2">
      <g id="Layer_5" data-name="Layer 5">
        <g>
          <path class="cls-4" d="m163.19,209.13c-5.47,0-10.64.26-15.25.72-4.79-2.82-17.8-4.85-33.11-4.85-17.34,0-31.73,2.6-34.57,6.01-3.06-.18-6.3-.28-9.64-.28-19.37,0-35.07,3.24-35.07,7.24s15.7,7.24,35.07,7.24c17.34,0,39-5.53,42.35-5.53,5.47,0,34.92,3.93,50.23,3.93,19.37,0,35.08-3.24,35.08-7.24s-15.7-7.24-35.08-7.24Z"/>
          <g>
            <g>
              <rect class="cls-2" x="82.67" y="137.41" width="71.75" height="66.64"/>
              <path class="cls-6" d="m132.13,176.05c-20.4,13.56-26.86-8.52-28.01-18.45l-9.92,31.9v14.56h48.67v-18.96c-2.09-6.87-4.58-13.14-10.75-9.04Z"/>
              <path class="cls-6" d="m132.82,185.79c-20.4,13.56-28.63-11-28.7-28.19l-9.92,31.9v14.56h48.67v-18.96c-2.09-6.87-3.89-3.4-10.06.7Z"/>
              <g>
                <path class="cls-2" d="m82.06,153.88c-10.14,5.32-16.5,22.52-18.7,28.55-3.47-2.84-9.02-3.75-15.83,0-10.95,6.29-14.98,34.14,8.5,34.04,19.03-.08,36.3-9.8,36.3-9.8l-10.26-52.8Z"/>
                <path class="cls-5" d="m56.02,216.76c19.03-.08,36.3-9.8,36.3-9.8l-2.62-13.48c-4.45-6.85-5.75-16.07-10.61-16.8,10.47,21.33-16.94,34.63-19.95,29.48l-12.96,8.37c2.52,1.41,5.77,2.23,9.84,2.22Z"/>
                <path class="cls-18" d="m50.54,212.06c.21.05.43-.01.65,0,6.35.44,8.56-5.19,8.56-11.08,0-6.98-2.79-13.11-8.24-13.82-.14-.02-.29-.03-.43-.04-2.88-.22-5.59,1.35-7.03,3.86-4.05,7.04-3.8,18.68,6.5,21.09Z"/>
                <path class="cls-3" d="m51.35,215.9c1.85.13,3.75-.2,5.33-1.14,1.59-.92,2.8-2.4,3.62-4.03.83-1.63,1.35-3.42,1.64-5.23.29-1.82.35-3.66.24-5.5-.09-1.84-.36-3.66-.79-5.44-.43-1.78-1.05-3.51-1.94-5.1-.88-1.58-2.05-3.01-3.51-4.04-1.45-1.04-3.19-1.64-4.97-1.71-1.77-.1-3.56.35-5.09,1.26-1.54.9-2.81,2.23-3.67,3.81-1.79,3.19-2.79,6.81-3.03,10.46-.22,3.64.45,7.42,2.44,10.52.98,1.54,2.28,2.89,3.81,3.92,1.53,1.03,3.27,1.75,5.06,2.23-1.82-.38-3.6-1.02-5.19-2.02-1.6-.98-2.99-2.32-4.05-3.87-1.06-1.56-1.79-3.34-2.23-5.18-.44-1.84-.59-3.74-.53-5.62.07-1.89.37-3.76.88-5.58.51-1.82,1.21-3.58,2.13-5.24.91-1.69,2.28-3.16,3.95-4.15,1.66-.99,3.63-1.52,5.57-1.41,1.94.1,3.85.77,5.42,1.91,1.58,1.13,2.81,2.67,3.72,4.34,1.82,3.36,2.56,7.16,2.68,10.91.06,1.87-.03,3.77-.37,5.62-.34,1.85-.89,3.68-1.81,5.33-.91,1.65-2.2,3.13-3.87,4.03-.83.45-1.73.76-2.65.91-.93.15-1.87.15-2.79.04Z"/>
                <path class="cls-3" d="m68.8,208.05c1.82-5.11,2.22-10.75.86-16-.69-2.61-1.8-5.14-3.5-7.23-.84-1.05-1.86-1.94-3.04-2.58-1.17-.66-2.42-1.18-3.72-1.5-2.6-.65-5.37-.49-7.93.29-1.28.39-2.52.93-3.69,1.57-1.15.66-2.18,1.53-3.07,2.52-1.79,1.98-3.09,4.38-4,6.89-.91,2.51-1.43,5.18-1.48,7.84-.05,2.66.39,5.35,1.47,7.76.54,1.2,1.24,2.33,2.1,3.33.86,1,1.87,1.85,2.97,2.56,2.23,1.41,4.85,2.16,7.5,2.43,1.33.14,2.66.16,4.02.12,1.35-.03,2.7-.11,4.04-.22,2.69-.25,5.36-.65,8.02-1.17,2.65-.53,5.28-1.21,7.87-1.98,5.18-1.59,10.26-3.53,15.11-5.99-2.36,1.35-4.82,2.52-7.32,3.59-2.5,1.08-5.05,2.05-7.64,2.88-5.18,1.66-10.53,2.92-15.97,3.44-1.36.12-2.72.22-4.09.25-1.36.05-2.75.04-4.12-.1-2.74-.26-5.5-1.02-7.88-2.51-2.4-1.47-4.27-3.73-5.39-6.29-1.13-2.56-1.56-5.37-1.49-8.13.07-2.76.61-5.5,1.58-8.09.98-2.57,2.37-5.01,4.27-7.03.95-1.01,2.03-1.89,3.26-2.57,1.21-.65,2.49-1.19,3.81-1.58,1.32-.39,2.69-.63,4.07-.67,1.38-.04,2.76.11,4.09.46,1.33.34,2.61.9,3.79,1.58,1.2.68,2.26,1.61,3.1,2.69,1.72,2.15,2.81,4.72,3.48,7.36,1.33,5.31.84,10.97-1.06,16.05Z"/>
                <path class="cls-3" d="m82.06,153.88c-1.25.73-2.39,1.62-3.42,2.63-1.04.99-1.98,2.08-2.87,3.2-1.76,2.27-3.32,4.69-4.75,7.19-1.44,2.49-2.75,5.06-4.02,7.66-1.25,2.6-2.46,5.23-3.66,7.88.87-2.77,1.87-5.5,3.02-8.17,1.14-2.67,2.43-5.28,3.87-7.82,1.46-2.52,3.08-4.97,4.98-7.19,1.9-2.2,4.14-4.24,6.82-5.39Z"/>
              </g>
              <g>
                <path class="cls-2" d="m149.8,154.17c10.14,5.32,16.5,22.52,18.7,28.55,3.47-2.84,9.02-3.75,15.83,0,10.95,6.29,14.98,34.14-8.5,34.04-19.03-.08-36.3-9.8-36.3-9.8l10.26-52.8Z"/>
                <path class="cls-5" d="m175.84,216.76c-19.03-.08-36.3-9.8-36.3-9.8l2.62-13.48c4.45-6.85,5.75-16.07,10.61-16.8-10.47,21.33,16.94,34.63,19.95,29.48l12.96,8.37c-2.52,1.41-5.77,2.23-9.84,2.22Z"/>
                <path class="cls-18" d="m181.32,212.34c-.21.05-.43-.02-.65,0-6.35.44-8.56-5.19-8.56-11.08,0-6.98,2.79-13.11,8.24-13.82.14-.02.29-.03.43-.04,2.88-.22,5.59,1.35,7.03,3.86,4.05,7.04,3.8,18.68-6.5,21.09Z"/>
                <path class="cls-3" d="m180.52,216.18c-.92.1-1.86.1-2.79-.04-.93-.15-1.83-.46-2.65-.91-1.67-.89-2.97-2.38-3.87-4.03-.92-1.66-1.47-3.48-1.81-5.33-.34-1.85-.43-3.74-.37-5.62.11-3.74.86-7.54,2.68-10.91.92-1.67,2.14-3.2,3.72-4.34,1.57-1.14,3.48-1.81,5.42-1.91,1.95-.11,3.91.41,5.57,1.41,1.67.99,3.04,2.46,3.95,4.15.92,1.66,1.62,3.42,2.13,5.24.51,1.82.81,3.69.88,5.58.07,1.89-.08,3.78-.53,5.62-.44,1.83-1.17,3.61-2.23,5.18-1.07,1.56-2.46,2.89-4.06,3.87-1.59,1-3.37,1.65-5.19,2.02,1.8-.47,3.53-1.19,5.06-2.23,1.53-1.02,2.84-2.37,3.81-3.92,1.99-3.1,2.65-6.88,2.44-10.52-.24-3.65-1.24-7.27-3.03-10.46-.87-1.57-2.13-2.91-3.67-3.81-1.53-.91-3.32-1.35-5.09-1.26-1.78.08-3.52.68-4.97,1.71-1.46,1.03-2.63,2.46-3.51,4.04-.89,1.58-1.51,3.32-1.94,5.1-.43,1.78-.69,3.61-.79,5.44-.11,1.84-.04,3.68.24,5.5.29,1.81.81,3.6,1.64,5.23.83,1.63,2.03,3.1,3.62,4.03,1.58.94,3.48,1.27,5.33,1.14Z"/>
                <path class="cls-3" d="m163.07,208.33c-1.9-5.08-2.38-10.75-1.06-16.05.67-2.64,1.76-5.21,3.48-7.36.84-1.08,1.9-2.01,3.1-2.69,1.19-.69,2.46-1.24,3.79-1.58,1.33-.35,2.72-.5,4.09-.46,1.38.05,2.75.28,4.07.67,1.32.39,2.59.93,3.81,1.58,1.22.67,2.31,1.56,3.26,2.57,1.9,2.02,3.29,4.46,4.27,7.03.97,2.58,1.51,5.32,1.58,8.09.07,2.76-.36,5.57-1.49,8.13-1.12,2.56-2.99,4.82-5.39,6.29-2.39,1.48-5.14,2.25-7.88,2.51-1.37.14-2.76.15-4.12.1-1.37-.03-2.73-.13-4.09-.25-5.44-.52-10.79-1.78-15.97-3.44-2.59-.84-5.14-1.81-7.64-2.88-2.5-1.08-4.96-2.24-7.32-3.59,4.85,2.46,9.93,4.4,15.11,5.99,2.59.78,5.22,1.46,7.87,1.98,2.65.52,5.33.92,8.02,1.17,1.35.11,2.69.2,4.04.22,1.35.04,2.69.02,4.02-.12,2.65-.27,5.27-1.02,7.5-2.43,1.11-.71,2.12-1.57,2.97-2.56.86-.99,1.56-2.12,2.1-3.33,1.08-2.41,1.52-5.1,1.47-7.76-.05-2.67-.56-5.33-1.48-7.84-.9-2.51-2.21-4.91-4-6.89-.89-.99-1.92-1.86-3.07-2.52-1.17-.64-2.41-1.18-3.69-1.57-2.56-.78-5.32-.95-7.93-.29-1.3.32-2.55.84-3.72,1.5-1.18.65-2.2,1.53-3.04,2.58-1.7,2.09-2.81,4.62-3.5,7.23-1.36,5.25-.96,10.89.86,16Z"/>
                <path class="cls-3" d="m149.8,154.17c2.69,1.15,4.92,3.19,6.82,5.39,1.91,2.22,3.52,4.67,4.98,7.19,1.44,2.53,2.73,5.14,3.87,7.82,1.15,2.67,2.15,5.4,3.02,8.17-1.2-2.64-2.4-5.27-3.66-7.88-1.26-2.6-2.58-5.17-4.02-7.66-1.43-2.5-2.99-4.92-4.74-7.19-.89-1.13-1.83-2.21-2.87-3.2-1.02-1.01-2.16-1.89-3.42-2.63Z"/>
              </g>
              <path class="cls-10" d="m66.61,192.11c-.17-.46-.37-.91-.58-1.35.02.03.03.07.05.1-.42-.87-.85-1.74-1.37-2.56-.33-.51-.69-.99-1.07-1.46.02.03.05.06.07.09-.05-.06-.1-.13-.16-.19-.36-.41-.74-.8-1.14-1.17-.01-.01-.02-.02-.03-.03,0,0,0,0,0,0-.03-.03-.07-.06-.1-.09,0,0,0,0,0,0-.42-.38-.86-.72-1.31-1.05-.56-.38-1.13-.72-1.73-1.03-.45-.22-.91-.42-1.38-.59-.44-.15-.88-.27-1.33-.36-.41-.08-.82-.14-1.23-.18-.34-.02-.68-.02-1.02,0,0,0,0,0,0,0-.06,0-.13,0-.19.02,0,0,0,0,0,0,0,0,0,0,0,0,0,0-.01,0-.02,0-.32.07-.65-.1-.74-.44-.1-.38.18-.73.54-.77,0,0-.01,0-.02,0,.03,0,.05,0,.08-.01.69-.12,1.38-.13,2.08-.06.77.07,1.52.2,2.27.39.76.19,1.5.45,2.21.78.75.35,1.48.77,2.13,1.28.34.27.67.55.99.84-.03-.03-.06-.05-.09-.08,1.11,1,2.08,2.15,2.87,3.41.39.62.74,1.25,1.01,1.93.26.65.48,1.3.72,1.96.16.43-.03.91-.46,1.08-.11.05-.23.06-.35.06-.31-.02-.61-.21-.73-.52Z"/>
              <path class="cls-10" d="m39.98,200.93c-.03-.24-.07-.48-.08-.73-.02-.37-.02-.74-.01-1.11.03-.82.11-1.64.21-2.45.18-1.53.44-3.05.94-4.51.15-.45.33-.88.54-1.3.2-.4.45-.77.7-1.14.49-.72,1.05-1.38,1.68-1.98.63-.6,1.31-1.12,2.05-1.57.78-.47,1.63-.82,2.52-1.05.83-.22,1.7-.29,2.56-.31.87-.01,1.75.12,2.58.37.45.13.88.3,1.31.52.34.17.66.35.94.6.38.33.71.7,1.02,1.1.07.09.13.19.2.28.19.26.18.61-.05.84-.24.24-.66.25-.91,0-.08-.08-.16-.15-.24-.23-.09-.08-.19-.16-.29-.23-.13-.08-.27-.16-.41-.24-.19-.09-.39-.17-.58-.24-.37-.12-.75-.21-1.13-.29.02,0,.05.01.07.01-.48-.09-.96-.15-1.44-.19-.59-.04-1.17-.03-1.76,0-.38.03-.76.07-1.13.14-.41.09-.81.21-1.21.34-.32.12-.65.24-.96.38-.32.17-.63.34-.93.54-.33.23-.64.49-.95.75-.21.19-.4.39-.59.6-.3.36-.6.72-.87,1.11-.25.39-.47.79-.67,1.2-.31.65-.57,1.32-.81,2-.25.74-.46,1.5-.63,2.27,0-.03.01-.06.02-.1-.15.75-.24,1.5-.3,2.26,0,0,0,0,0,0-.03.45-.05.89-.07,1.34-.01.3-.03.61-.02.92.04.34-.19.68-.56.73-.03,0-.06,0-.09,0-.36,0-.63-.3-.64-.64Z"/>
              <path class="cls-10" d="m164.24,193.78c.12-.48.26-.95.42-1.41-.01.04-.02.07-.04.11.32-.92.65-1.82,1.08-2.7.28-.54.57-1.06.9-1.57-.02.03-.04.06-.06.1.05-.07.09-.14.14-.2.31-.45.64-.88,1-1.29,0-.01.02-.02.03-.03,0,0,0,0,0,0,.03-.03.06-.07.09-.1,0,0,0,0,0,0,.37-.42.77-.82,1.19-1.19.51-.44,1.04-.84,1.6-1.21.42-.27.86-.52,1.3-.74.42-.19.84-.36,1.28-.51.4-.12.79-.23,1.2-.31.34-.06.67-.1,1.02-.12,0,0,0,0,0,0,.06,0,.13,0,.19,0,0,0,0,0,0,0,0,0,0,0,0,0,0,0,.01,0,.02,0,.33.03.64-.18.69-.52.06-.38-.26-.7-.63-.7,0,0,.01,0,.02,0-.03,0-.05,0-.08,0-.7-.05-1.39.03-2.07.17-.75.15-1.49.37-2.21.64-.73.27-1.44.62-2.11,1.02-.71.43-1.38.93-1.98,1.51-.31.3-.61.62-.9.95.03-.03.05-.06.08-.09-.99,1.12-1.82,2.37-2.48,3.71-.32.66-.6,1.33-.79,2.03-.18.67-.34,1.35-.5,2.02-.11.44.13.9.58,1.02.12.03.24.04.36.02.31-.05.59-.28.67-.59Z"/>
              <path class="cls-10" d="m191.28,201.21c.03-.24.07-.48.08-.73.02-.37.02-.74.01-1.11-.03-.82-.11-1.64-.21-2.45-.18-1.53-.44-3.05-.94-4.51-.15-.45-.33-.88-.54-1.3-.2-.4-.45-.77-.7-1.14-.49-.72-1.05-1.38-1.68-1.98-.63-.6-1.31-1.12-2.05-1.57-.78-.47-1.63-.82-2.52-1.05-.83-.22-1.7-.29-2.56-.31-.87-.01-1.75.12-2.58.37-.45.13-.88.3-1.31.52-.34.17-.66.35-.94.6-.38.33-.71.7-1.02,1.1-.07.09-.13.19-.2.28-.19.26-.18.61.05.84.24.24.66.25.91,0,.08-.08.16-.15.24-.23.09-.08.19-.16.29-.23.13-.08.27-.16.41-.24.19-.09.39-.17.58-.24.37-.12.75-.21,1.13-.29-.02,0-.05.01-.07.01.48-.09.96-.15,1.44-.19.59-.04,1.17-.03,1.76,0,.38.03.76.07,1.13.14.41.09.81.21,1.21.34.32.12.65.24.96.38.32.17.63.34.93.54.33.23.64.49.95.75.21.19.4.39.59.6.3.36.6.72.87,1.11.25.39.47.79.67,1.2.31.65.57,1.32.81,2,.25.74.46,1.5.63,2.27,0-.03-.01-.06-.02-.1.15.75.24,1.5.3,2.26,0,0,0,0,0,0,.03.45.05.89.07,1.34.01.3.03.61.02.92-.04.34.19.68.56.73.03,0,.06,0,.09,0,.36,0,.63-.3.64-.64Z"/>
              <path class="cls-10" d="m65.3,181.96c.14-.3.26-.6.38-.91.4-1.13.78-2.26,1.19-3.38.43-1.16.91-2.29,1.48-3.36.36-.68.76-1.31,1.22-1.9.2-.27.42-.53.63-.79.11-.13.22-.27.33-.4.07-.08.15-.17.22-.26,0,0,.01-.02.02-.03,0,0,0,0,0,0,0,0,0,0,0,0,.16-.2.46-.2.64.03.18.24.12.57-.1.71,0,0,.02-.01.03-.02,0,0,.02-.01.02-.02,0,0,0-.01.01-.02,0,0,0,0-.01.01,0,0,0,0,.01-.01,0,0-.01.01-.02.02-.04.04-.07.09-.11.14-.25.36-.46.75-.66,1.15-.26.51-.5,1.04-.75,1.56-.26.56-.53,1.11-.79,1.67-.5,1.08-.96,2.18-1.46,3.26-.19.41-.38.81-.58,1.2-.2.39-.41.77-.62,1.16-.11.22-.21.43-.32.65-.11.22-.35.31-.57.18-.11-.07-.19-.18-.23-.31-.03-.11-.03-.23.02-.34Z"/>
              <path class="cls-10" d="m166.73,182.27c-.14-.3-.26-.6-.38-.91-.4-1.13-.78-2.26-1.19-3.38-.43-1.16-.91-2.29-1.48-3.36-.36-.68-.76-1.31-1.22-1.9-.2-.27-.42-.53-.63-.79-.11-.13-.22-.27-.33-.4-.07-.08-.15-.17-.22-.26,0,0-.01-.02-.02-.03,0,0,0,0,0,0,0,0,0,0,0,0-.16-.2-.46-.2-.64.03-.18.24-.12.57.1.71,0,0-.02-.01-.03-.02,0,0-.02-.01-.02-.02,0,0,0-.01-.01-.02,0,0,0,0,.01.01,0,0,0,0-.01-.01,0,0,.01.01.02.02.04.04.07.09.11.14.25.36.46.75.66,1.15.26.51.5,1.04.75,1.56.26.56.53,1.11.79,1.67.5,1.08.96,2.18,1.46,3.26.19.41.38.81.58,1.2.2.39.41.77.62,1.16.11.22.21.43.32.65.11.22.35.31.57.18.11-.07.19-.18.23-.31.03-.11.03-.23-.02-.34Z"/>
            </g>
            <g>
              <path class="cls-2" d="m187.88,51.9c17.49,32.07,17.63,36.86,26.09,46.59,8.47,9.73,30.12,29.98,17.82,49.53-12.31,19.55-26.13,20.09-36.86,15.86-.65,9.41-40.05,27.62-49.06-19.45,15.81-36.79,42.01-92.53,42.01-92.53Z"/>
              <path class="cls-1" d="m193.47,79.35l-34.69,35.84c-4.57,10.15-9.04,20.26-12.9,29.24,9.01,47.06,48.41,28.86,49.06,19.45,9.3,3.66,19.7,2.58,30.54-7.82,5.14-9.15,8.98-22.08,1.74-31.39-22.65-29.14-26.47-22.94-33.74-45.32Z"/>
              <path class="cls-5" d="m193.47,79.35l-6.09,6.29-8.37,22.14-24.61,17.2c-3.02,6.78-5.91,13.38-8.53,19.46,1.43,7.44,3.61,13.25,6.28,17.72,1.45,1.68,2.94,2.84,4.41,3.21,8.33,2.05,11.66.54,14.87.69.11-2.27.35-13.04.35-13.04,0,0,2.97,6.15,5.29,11.7,4.02.19,9.67-2.83,11.73-4.7.1-2.08-2.72-8.4-3.32-13.41,2.64.95,7.9,4.49,11.87,8.84,4.45-1.04,9-5.07,11.92-7.73-1.38-1.51-7.62-13.41-7.62-13.41,0,0,6.76,2.12,12.22,8.11,2.92-2.66,8.82-15.91,8.7-23.54-18.58-22.59-22.36-18.77-29.11-39.53Z"/>
              <path class="cls-14" d="m147.05,149.55c8.51,31.93,32.92,28.08,43.22,20.58-38.98,6.83-35.68-27.13-38.86-30.62l-3.32-.15c-.28.65-.56,1.3-.84,1.94l-.19,8.26Z"/>
              <path class="cls-3" d="m194.93,163.88c-.11.83-.41,1.63-.79,2.39-.2.37-.41.74-.66,1.08-.23.36-.5.68-.77,1.02-1.1,1.3-2.41,2.4-3.81,3.35-2.82,1.9-6.04,3.17-9.37,3.84-1.67.32-3.37.49-5.07.49-1.7-.03-3.4-.2-5.05-.59-1.65-.38-3.27-.93-4.78-1.67-1.51-.75-2.93-1.66-4.23-2.72,1.44.85,2.91,1.61,4.45,2.21l1.16.42c.39.12.79.23,1.18.35.39.13.8.2,1.19.3.2.05.4.1.6.14l.6.1c3.22.57,6.54.51,9.73-.14,1.6-.3,3.18-.76,4.7-1.34,1.53-.57,3-1.29,4.41-2.13,1.39-.85,2.73-1.82,3.88-2.98.58-.58,1.11-1.21,1.57-1.89.44-.69.83-1.42,1.06-2.23Z"/>
              <path class="cls-3" d="m188.22,48.68c2.92,6.12,5.74,12.28,8.6,18.42,1.42,3.08,2.83,6.16,4.29,9.21,1.45,3.06,2.94,6.1,4.56,9.06,1.61,2.96,3.36,5.85,5.33,8.57.98,1.36,2.04,2.67,3.13,3.95,1.09,1.28,2.25,2.52,3.39,3.77,4.57,5,9.08,10.15,12.68,15.98,1.77,2.92,3.32,6.01,4.38,9.29,1.06,3.27,1.62,6.75,1.38,10.21-.23,3.46-1.29,6.85-2.99,9.86-.85,1.51-1.8,2.91-2.81,4.3-1.01,1.38-2.09,2.71-3.24,3.97-2.3,2.53-4.9,4.81-7.8,6.64-2.89,1.83-6.1,3.2-9.47,3.85-3.36.65-6.86.58-10.17-.25-1.65-.41-3.26-1.01-4.78-1.77-1.52-.76-2.95-1.69-4.28-2.74,2.73,2.01,5.85,3.48,9.13,4.22,3.29.74,6.72.72,9.99,0,3.28-.7,6.39-2.08,9.2-3.91,2.81-1.83,5.32-4.1,7.54-6.62,1.11-1.26,2.15-2.58,3.12-3.95.97-1.36,1.92-2.77,2.72-4.22,1.62-2.9,2.61-6.14,2.82-9.45.21-3.31-.34-6.64-1.38-9.81-1.04-3.17-2.57-6.18-4.32-9.04-3.5-5.74-7.94-10.87-12.48-15.88-1.13-1.26-2.28-2.51-3.38-3.81-1.1-1.3-2.17-2.64-3.16-4.03-2-2.77-3.73-5.72-5.3-8.73-1.58-3.01-3.03-6.08-4.44-9.17-1.41-3.08-2.78-6.18-4.15-9.29l-8.1-18.65Z"/>
              <path class="cls-8" d="m197.17,77.98c.67,1.43,1.41,2.8,2.16,4.17l.56,1.03.58,1.02c.37.68.77,1.35,1.17,2.02l2.36,4.03c.38.68.8,1.34,1.21,2l.62.99.65.97c1.76,2.58,3.64,5.08,5.76,7.38,2.09,2.33,4.36,4.49,6.83,6.44l-.09.12c-2.61-1.77-5.02-3.83-7.28-6.05-2.25-2.23-4.28-4.67-6.19-7.2-1.89-2.54-3.75-5.13-5.18-7.97-.71-1.42-1.39-2.85-1.95-4.34-.57-1.48-1.09-3-1.35-4.57l.14-.04Z"/>
              <path class="cls-10" d="m94.81,159.32c-.97-1.05-1.93-2.14-2.67-3.37-.75-1.24-1.35-2.55-1.82-3.92-.13-.36-.25-.72-.37-1.08-.06-.18-.12-.37-.18-.55-.03-.11-.06-.22-.09-.32-.05-.11-.08-.24-.07-.36.03-.28.22-.52.49-.6.27-.08.57,0,.74.22.08.1.13.21.14.32.14.55.3,1.09.5,1.61.22.56.47,1.11.71,1.65.26.57.52,1.14.81,1.7.31.55.64,1.09,1,1.61.57.79,1.18,1.54,1.84,2.25.24.27.17.72-.09.93-.18.15-.4.18-.6.12-.12-.04-.24-.11-.33-.21Z"/>
              <path class="cls-10" d="m133.58,156.11c-.3-.1-.4-.46-.54-.72-.07-.11-.14-.22-.21-.33-.1-.13-.21-.26-.32-.38-.15-.15-.3-.29-.46-.42-.35-.27-.71-.53-1.09-.76,0,0,0,0,.01,0-.27-.17-.54-.33-.82-.47-.16-.07-.33-.13-.5-.18-.13-.04-.25-.06-.38-.09-.19-.03-.37-.05-.56-.05-.18,0-.36,0-.54.02-.1.01-.2.03-.31.05-.18.05-.35.1-.52.17-.2.08-.39.18-.57.28-.1.06-.2.12-.29.18-.05.04-.1.08-.14.11-.27.22-.67.19-.89-.07-.23-.27-.18-.66.07-.89.27-.24.53-.49.82-.71.35-.26.74-.47,1.14-.62.75-.28,1.55-.37,2.34-.24.38.06.78.16,1.13.31.36.15.7.36,1.02.58.36.25.68.52.98.85.27.3.48.65.67,1.01.22.41.38.84.55,1.27.07.19.17.39.15.6-.02.2-.13.36-.29.44-.13.07-.29.09-.45.04Z"/>
              <path class="cls-2" d="m67.48,47.87c-19.21,15.59-23.07,27.55-33.53,31.58C23.5,83.48-.96,91.66.49,112.69c1.59,23.03,17.35,23.47,20.23,23.77-.31,6.74,25.22,47.72,60.93,8.52,9.15-30.32-14.17-97.11-14.17-97.11Z"/>
              <path class="cls-1" d="m81.65,144.98c2.42-8.02,2.57-18.58,1.48-29.79l-32.06-36.01c-1.3,5.64-31.37,12.2-37.85,18.51-3.6,3.51-9.74,5.89-12.14,17.74,2.27,21.25,16.84,20.74,19.64,21.03-.31,6.74,25.22,47.72,60.93,8.52Z"/>
              <path class="cls-14" d="m81.65,144.98c.5-1.64.89-3.39,1.2-5.23-.2-.83-.45-1.64-.77-2.4-24.73,25.57-48.04,13.75-56.74,9.18,8.88,12.46,29.78,27.56,56.3-1.55Z"/>
              <path class="cls-3" d="m20.72,136.46c.01.8.22,1.58.48,2.33.26.75.59,1.48.95,2.19.72,1.42,1.58,2.76,2.53,4.04,1.87,2.57,4.06,4.9,6.45,6.97,2.4,2.06,5.03,3.86,7.87,5.24,2.82,1.39,5.85,2.38,8.96,2.81,3.1.46,6.28.38,9.37-.25,1.54-.3,3.06-.72,4.55-1.25,1.48-.53,2.93-1.18,4.35-1.88,1.41-.71,2.77-1.54,4.11-2.39,1.32-.88,2.62-1.8,3.87-2.8,2.52-1.96,4.85-4.15,7.1-6.42-2.06,2.45-4.33,4.73-6.75,6.85-1.21,1.06-2.5,2.03-3.8,2.98-1.32.92-2.69,1.78-4.12,2.56-1.43.76-2.89,1.46-4.42,2.03-1.52.57-3.09,1.03-4.68,1.37-3.19.68-6.5.77-9.74.31-3.23-.47-6.37-1.51-9.27-2.98-2.9-1.48-5.58-3.35-7.97-5.53-2.39-2.18-4.53-4.63-6.32-7.31-.89-1.35-1.69-2.75-2.34-4.22-.33-.74-.62-1.49-.84-2.26-.21-.78-.36-1.58-.32-2.38Z"/>
              <path class="cls-3" d="m67.48,47.87c-2.19,1.85-4.32,3.77-6.39,5.74-2.07,1.98-4.06,4.03-5.99,6.14-1.94,2.1-3.81,4.26-5.66,6.45-1.85,2.18-3.67,4.4-5.63,6.53-1.95,2.11-4.08,4.15-6.6,5.66-.63.38-1.28.72-1.94,1.03-.67.3-1.35.58-2.02.83-1.34.52-2.67,1.03-4,1.56-5.29,2.13-10.48,4.58-15.13,7.83-2.33,1.61-4.51,3.43-6.42,5.51-1.91,2.07-3.53,4.41-4.68,6.97-1.16,2.56-1.83,5.32-2,8.13-.09,1.4-.04,2.81.05,4.23.1,1.41.26,2.82.52,4.21.52,2.78,1.39,5.5,2.77,7.97,1.37,2.46,3.26,4.64,5.56,6.28,2.29,1.65,4.98,2.75,7.79,3.21,1.4.23,2.83.31,4.26.21,1.42-.09,2.84-.36,4.18-.89-2.64,1.16-5.63,1.35-8.48.97-2.86-.39-5.65-1.43-8.06-3.06-2.41-1.63-4.41-3.86-5.87-6.38-1.47-2.52-2.42-5.31-3-8.15-.29-1.42-.48-2.86-.61-4.31-.12-1.44-.17-2.9-.08-4.36.16-2.92.85-5.81,2.04-8.49,1.18-2.68,2.86-5.12,4.82-7.28,1.96-2.16,4.2-4.04,6.57-5.7,4.78-3.3,10.05-5.74,15.39-7.86,1.34-.53,2.68-1.04,4.02-1.55.68-.25,1.33-.51,1.96-.79.63-.29,1.25-.61,1.86-.97,2.41-1.44,4.51-3.37,6.47-5.42,1.97-2.06,3.82-4.24,5.72-6.4,1.89-2.16,3.8-4.3,5.8-6.37,4-4.12,8.25-8,12.79-11.51Z"/>
              <path class="cls-5" d="m13.22,97.69c-1.82,1.78-4.3,3.27-6.61,5.84-1.37,6.23-.13,13.6,1.55,17.84,4.22-3.84,9.94-10.42,13.84-12.41-5.6,8.94-8.93,15.31-10.56,16.79,2.62,2.88,9.33,4.62,11.53,4.72,1.49-1.36,7.72-8.44,14.67-9.91-2.46,7.85-7.16,11.74-8.6,15.1-.09,1.96,2.51,4.86,7.42,7.95,4.28-1.19,8.26-6.73,10.71-8.96-1.79,3.32-4.03,7.99-5.88,12.3,4.46,2.78,21.31,8.43,27.03,3.22,5.72-5.21,9.99-27.68,9.99-27.68l-16.32-31.06-10.92-12.26c-1.3,5.64-31.37,12.2-37.85,18.51Z"/>
              <path class="cls-2" d="m194.96,90.43c-6.25,37.66-34.38,59.43-72.22,54.05-7.14,5.74-19.53,3.52-29.68.45-27.61-8.38-46.53-33.67-42.61-71.35S83.12,8.01,129.95,12.88c47.91,4.98,70.95,41.75,65.01,77.56Z"/>
              <g>
                <path class="cls-14" d="m164.71,137.55c-11.5,6.29-26.19,1.49-31.43-1.95-5.45-3.58-6.31-20.21-9.31-17.48-2.78,2.53-5.91,19.62-25.43,28.3,8.83,2.11,18.31,2.8,24.2-1.94,16.05,2.28,30.34-.32,41.97-6.94Z"/>
                <path class="cls-14" d="m165.98,136.8c-.09.06-.18.11-.27.16.09-.05.18-.11.27-.16Z"/>
              </g>
              <path class="cls-3" d="m51.32,67.44c1.29-7.74,3.81-15.31,7.56-22.24,3.77-6.92,8.83-13.16,14.91-18.22,6.07-5.08,13.19-8.84,20.69-11.33,7.5-2.53,15.42-3.66,23.3-3.86,3.95-.04,7.9.13,11.82.53,3.93.4,7.83,1.03,11.68,1.91,7.69,1.77,15.19,4.52,22,8.54,3.41,1.99,6.66,4.26,9.68,6.8,3.01,2.55,5.8,5.36,8.31,8.4,2.5,3.05,4.69,6.34,6.59,9.79,1.89,3.45,3.43,7.09,4.64,10.82-.68-1.84-1.38-3.68-2.22-5.45-.8-1.79-1.72-3.52-2.68-5.23-1.96-3.39-4.21-6.61-6.75-9.58-2.54-2.97-5.33-5.72-8.34-8.21-3.03-2.47-6.26-4.67-9.66-6.59-6.79-3.85-14.18-6.59-21.8-8.29-3.81-.85-7.67-1.46-11.56-1.84-3.89-.38-7.79-.52-11.69-.47-7.79.17-15.6,1.25-23.01,3.71-7.41,2.41-14.39,6.13-20.46,11.03-6.06,4.91-11.14,11.01-14.98,17.82-1.93,3.4-3.57,6.97-4.9,10.65-1.33,3.69-2.37,7.48-3.14,11.33Z"/>
              <path class="cls-3" d="m129.9,13.48c-.22-.04-.43-.09-.65-.14-.47-.11-.94-.25-1.4-.4-.98-.33-1.94-.73-2.85-1.23-.94-.52-1.86-1.09-2.68-1.78-.82-.69-1.56-1.47-2.16-2.36-.39-.58-.73-1.19-.99-1.84-.26-.65-.4-1.32-.46-2.01-.06-.64.02-1.29.17-1.91.16-.65.5-1.24.84-1.81,0,0,0,0,0,0-.12.3-.23.61-.33.92,0,0,0,0,0-.01-.07.25-.13.5-.17.75-.03.21-.05.41-.06.62,0,.3.01.6.04.9.03.25.08.49.13.73,0-.01,0-.03-.01-.04.09.34.19.67.31,1,.15.34.31.67.48,1,.26.44.53.86.83,1.27.38.49.78.95,1.2,1.4-.01-.01-.03-.03-.04-.04.57.58,1.16,1.11,1.79,1.62,0,0,0,0,0,0,0,0,0,0,0,0,.01,0,.02.02.03.03,0,0-.02-.02-.03-.02.71.55,1.43,1.06,2.19,1.54,0,0-.02-.01-.03-.02.7.42,1.42.81,2.17,1.16,0,0,0,0,0,0,.51.23,1.03.44,1.56.61,0,0,0,0,0,0,.07.02.15.04.22.06,0,0,0,0,0,0t0,0h0,0s0,0,0,0c0,0,0,0-.01,0-.03,0-.09-.01-.12-.02Z"/>
              <path class="cls-3" d="m129.6,13.15c-.18.02-.36.02-.54.02-.46,0-.92-.04-1.38-.09-.94-.09-1.88-.22-2.8-.45-2.03-.53-3.88-1.6-5.39-3.05-.63-.6-1.18-1.29-1.61-2.04-.42-.72-.68-1.51-.87-2.32,0,0,0,0,0,0,.17.42.36.83.58,1.23,0,0,0,0,0-.01.17.3.36.59.57.87.29.38.61.74.94,1.09,0,0,0,0-.01-.01,0,0,.01.01.02.02,0,0,0,0,0,0,0,0,0,0,0,0,.4.39.82.76,1.26,1.12.5.39,1.03.74,1.57,1.08.64.37,1.3.71,1.97,1.02,0,0-.01,0-.02,0,0,0,.02,0,.03.01,0,0,0,0,.01,0,0,0,0,0-.01,0,.62.26,1.24.5,1.88.7-.01,0-.02,0-.03-.01.52.15,1.04.28,1.56.41.54.13,1.07.26,1.61.35,0,0,0,0,0,0,.22.03.44.06.66.07h0s.05,0,.08,0c0,0,0,0,.01,0h0,0s0,0,0,0c0,0-.02,0-.03.01-.01,0-.03,0-.04,0Z"/>
              <path class="cls-3" d="m132.98,13.89c-.15-.02-.3-.05-.45-.07-.46-.08-.93-.18-1.38-.32-.99-.31-1.96-.71-2.86-1.22-1.88-1.06-3.43-2.63-4.54-4.48-.81-1.35-1.33-2.92-1.28-4.5.03-.85.25-1.69.68-2.43,0,0,0,0,0,0-.03.08-.06.17-.09.26,0,0,0,0,0,0-.07.24-.12.48-.16.73,0,0,0,0,0-.01-.02.17-.04.33-.05.5,0,.05,0,.11,0,.16,0,.25.01.49.03.74.03.27.08.53.14.8.09.36.21.71.34,1.05.17.41.36.81.57,1.2.29.51.62.99.96,1.47.58.76,1.19,1.48,1.85,2.18-.02-.02-.03-.03-.05-.05.5.51,1.02.99,1.57,1.44.58.45,1.18.86,1.81,1.25,0,0,0,0,0,0,0,0,0,0,.01,0,0,0,.01,0,.02,0,0,0,0,0,0,0,.52.31,1.06.6,1.61.85,0,0,0,0-.01,0,.38.16.76.3,1.16.42,0,0,0,0,0,0,.07.02.15.04.22.06,0,0,.01,0,.02,0h0s0,0,0,0h0,0s0,0,0,0c0,0,0,0-.01,0-.03,0-.06,0-.08-.01Z"/>
              <path class="cls-3" d="m122.74,144.48c-.98.8-2.08,1.45-3.24,1.97-1.16.51-2.39.89-3.63,1.16-2.49.54-5.06.66-7.6.56-5.09-.25-10.1-1.33-14.98-2.73-4.9-1.4-9.63-3.4-14.05-5.95-4.42-2.56-8.5-5.71-12.1-9.33-3.59-3.64-6.69-7.76-9.19-12.21-2.5-4.45-4.42-9.22-5.74-14.14-1.32-4.92-2.08-9.98-2.36-15.05-.23-5.07-.04-10.16.61-15.18-.39,5.05-.48,10.11-.06,15.14.39,5.03,1.24,10.02,2.64,14.85,1.42,4.82,3.32,9.51,5.83,13.85,2.49,4.35,5.53,8.39,9.06,11.94,3.52,3.57,7.52,6.66,11.84,9.21,4.32,2.56,8.96,4.55,13.76,6.05,4.81,1.49,9.75,2.65,14.77,3.01,2.5.18,5.04.15,7.51-.3,2.47-.45,4.89-1.33,6.93-2.84Z"/>
              <path class="cls-3" d="m195.62,85.3c-.14,2.2-.38,4.41-.77,6.59-.18,1.09-.35,2.19-.6,3.27-.23,1.08-.43,2.17-.72,3.24-1.08,4.3-2.52,8.52-4.35,12.57-1.82,4.06-4.09,7.92-6.73,11.51-2.65,3.58-5.71,6.87-9.12,9.75-3.43,2.86-7.19,5.31-11.19,7.28-4.01,1.96-8.23,3.47-12.57,4.44-4.34.98-8.78,1.49-13.21,1.58-4.43.05-8.87-.26-13.23-.98,4.39.47,8.81.67,13.21.43,4.4-.2,8.77-.8,13.03-1.87,8.51-2.13,16.55-6.1,23.24-11.74,6.72-5.63,12-12.85,15.79-20.76,1.9-3.96,3.42-8.1,4.6-12.34.33-1.05.57-2.13.84-3.2.28-1.07.49-2.15.72-3.23.11-.54.23-1.08.33-1.62.1-.54.19-1.09.28-1.63.18-1.09.33-2.18.46-3.28Z"/>
              <g>
                <path class="cls-14" d="m92.57,87.69c-1.4,13.48-12.27,18.7-22.33,17.04-13.31-2.19-17.72-12.01-16.68-22.02,1.04-10.02,10.97-16.93,21.11-15.87,10.14,1.05,19.32,7.2,17.9,20.85Z"/>
                <path class="cls-8" d="m57.38,81.54c-2.66,10.52,3.06,18.87,12.73,21.7,9.44,2.76,18.11-2.79,21.12-11.22,3.65-10.21-2.12-21.52-13.69-24.4-10.85-2.7-18.33,6.71-20.16,13.92Z"/>
                <path class="cls-15" d="m72.79,67.18c-6.96,1.7-11.66,8.48-13.05,13.99-2.66,10.52,3.06,18.87,12.73,21.7,2.15.63,4.25.82,6.27.65-2.69.63-5.62.6-8.62-.28-9.67-2.83-15.39-11.18-12.73-21.7,1.55-6.11,7.15-13.78,15.41-14.36Z"/>
                <path class="cls-17" d="m83.63,72.65c1.84.46,4.49,1.83,5.75,3.21.82,1.41,4.85,9.2,1.77,16.42-3.03,7.1-8.6,10.91-14.79,11.51l-.05.11c-.09-.02-.18-.05-.27-.07-8.9-2.6-15.05-10.59-12.49-20.25,1.98-7.48,10.1-13.42,20.08-10.93Z"/>
                <path class="cls-16" d="m84.58,74.04c1.73.43,4.23,1.72,5.42,3.02,1.34,2.78,3.71,9.2,1.14,15.22-2.63,6.17-7.18,9.85-12.39,11.11-.35.06-.7.1-1.06.14l-.04.09s-.02,0-.04,0c-.08-.02-.15-.04-.23-.06-8.42-2.46-14.24-10.03-11.82-19.17,1.88-7.08,9.57-12.7,19.02-10.35Z"/>
                <path class="cls-9" d="m91.25,81.5l-.22-2.91-1.36,1.62.37-2.63c.04-.3-.31-.49-.53-.29l-1.32,1.13-.23-2.2c-.03-.29-.4-.4-.58-.16l-1.1,1.45-.42-2.06c-.06-.29-.44-.36-.6-.1l-.89,1.48-1.19-2.51c-.12-.26-.5-.24-.6.03l-.91,2.55-1.58-3.02c-.13-.25-.5-.23-.59.04l-.85,2.37-1.23-1.99c-.16-.25-.54-.18-.6.11l-.51,2.58-1.34-2.15c-.17-.28-.6-.16-.6.17v2.4s-2.12-1.59-2.12-1.59c-.24-.18-.58.04-.51.33l.64,2.79-2.43-1.24c-.28-.14-.57.15-.44.43l1.07,2.26-2.14-.54c-.3-.08-.53.28-.33.52l1.25,1.52-2.8-.18c-.3-.02-.46.35-.25.56l1.85,1.8-2.49.28c-.31.04-.4.45-.12.61l2.26,1.28-2.53.93c-.29.11-.28.51,0,.61l2.23.8-2.47,1.17c-.28.13-.23.55.07.61l2.58.55-2,1.38c-.26.18-.14.59.18.59h2.52s-1.8,2.08-1.8,2.08c-.2.23,0,.58.29.54l2.66-.4-1.42,2.3c-.15.25.07.56.36.49l2.84-.72-1.21,1.94c-.17.28.12.61.41.47l2.23-1.06-.95,2.18c-.12.27.16.55.43.43l2.82-1.25-.44,2.07c-.07.31.31.52.54.3l1.63-1.57.04,2.89c0,.26.3.41.52.26l2.41-1.73.92,1.26,4.91-4.12,5.62-17.21c.05-.16.07-.33.06-.49Z"/>
                <path class="cls-3" d="m75.73,104.17c-1.88.08-3.8-.15-5.69-.7-10.28-3-15.46-11.84-12.89-21.98l.23.06-.23-.06c1.03-4.05,3.56-8.09,6.77-10.8,2.79-2.36,7.43-4.84,13.67-3.29,5.64,1.41,10.18,4.85,12.77,9.69,2.46,4.6,2.86,10.07,1.09,15.02-1.52,4.26-4.46,7.79-8.26,9.93-2.31,1.3-4.86,2.02-7.47,2.13Zm-2.59-36.77c-8.28.37-13.94,7.94-15.53,14.21-2.5,9.88,2.55,18.49,12.56,21.42,1.83.53,3.67.75,5.46.67,6.76-.3,12.88-4.74,15.38-11.74,1.73-4.83,1.34-10.16-1.06-14.64-2.53-4.72-6.96-8.08-12.47-9.45-1.52-.38-2.97-.52-4.35-.46Z"/>
                <path class="cls-3" d="m76.3,103.9c-2.42-.58-4.73-1.63-6.77-3.07-2.04-1.45-3.78-3.35-5.01-5.56-1.25-2.2-1.87-4.75-1.9-7.28-.01-1.27.13-2.53.4-3.77.26-1.24.68-2.46,1.24-3.59,2.28-4.55,6.85-7.85,11.86-8.59,2.49-.39,5.05-.23,7.47.42,1.22.33,2.35.88,3.42,1.53.53.33,1.04.69,1.51,1.1.46.42.89.88,1.17,1.44-.31-.54-.76-.98-1.24-1.36-.48-.38-1-.72-1.54-1.02-1.08-.59-2.22-1.09-3.41-1.36-2.4-.54-4.89-.65-7.29-.2-2.4.45-4.69,1.42-6.65,2.86-1.95,1.44-3.57,3.34-4.64,5.51-.54,1.08-.95,2.22-1.21,3.41-.27,1.19-.42,2.4-.42,3.61,0,2.43.6,4.84,1.72,7,1.12,2.16,2.77,4.05,4.72,5.54.97.75,2.02,1.41,3.11,1.98,1.1.55,2.25,1.02,3.44,1.39Z"/>
                <path class="cls-3" d="m83.44,76.65c3.36.89,7.32,3.47,8.64,6.25.46,3.68.44,5.5-.85,9.12-1.71,4.79-4.25,8.16-8.72,10.09-1.06.33-2.8.09-3.76-.11-8.14-1.7-12.93-8.63-11.16-16.1,1.21-5.12,6.93-11.61,15.85-9.26Z"/>
                <path class="cls-3" d="m58.91,76.99c2.52-5.96,10.82-12.51,19.14-10.77,7.15,1.49,13.54,7.23,13.88,15.21-1.71-9.39-22.04-16.29-33.02-4.43Z"/>
                <path class="cls-3" d="m59.67,75.67l-.69-.41c-.25-.15-.49-.31-.73-.47-.48-.32-.94-.66-1.39-1.02-.89-.72-1.73-1.53-2.43-2.45-.69-.92-1.25-1.97-1.48-3.1-.11-.56-.15-1.14-.1-1.7.06-.56.2-1.11.39-1.63-.13.54-.21,1.09-.2,1.64.02.55.11,1.09.28,1.6.33,1.03.96,1.93,1.69,2.71.74.77,1.6,1.44,2.51,2.02.46.29.92.56,1.4.8.24.12.48.24.73.36l.79.36-.76,1.29Z"/>
                <path class="cls-3" d="m62.42,73.14c-.81-.5-1.55-1.06-2.24-1.68-.69-.62-1.32-1.31-1.84-2.08-.52-.77-.95-1.6-1.16-2.5-.21-.9-.21-1.82-.03-2.69-.05.89.08,1.78.39,2.58.31.81.82,1.52,1.39,2.15.58.63,1.24,1.18,1.95,1.66.71.48,1.46.9,2.23,1.23l-.69,1.33Z"/>
                <path class="cls-3" d="m73.89,70.31c-.48-.8-.87-1.64-1.17-2.5-.3-.86-.52-1.75-.63-2.65-.11-.9-.1-1.81,0-2.69.11-.89.37-1.74.68-2.56-.2.86-.32,1.72-.31,2.58.02.86.14,1.71.36,2.53.22.82.54,1.6.92,2.35.39.74.85,1.45,1.37,2.08l-1.23.86Z"/>
                <path class="cls-3" d="m70.08,70.54c-.57-.74-1.04-1.53-1.44-2.35-.39-.82-.71-1.68-.91-2.57-.21-.88-.3-1.78-.29-2.68.01-.89.17-1.77.4-2.62-.1.87-.13,1.74-.02,2.6.11.85.33,1.68.63,2.47.3.79.71,1.54,1.18,2.23.47.7,1,1.35,1.59,1.92l-1.12.99Z"/>
                <path class="cls-3" d="m66.16,71.15c-.13-.03-.27-.06-.38-.1l-.29-.14c-.17-.1-.34-.2-.48-.32-.15-.11-.29-.23-.42-.35-.14-.12-.26-.25-.38-.38-.49-.52-.91-1.08-1.26-1.69-.7-1.2-1.1-2.62-.87-3.97-.03,1.36.54,2.63,1.34,3.65.4.51.86.98,1.36,1.38.12.1.25.2.38.28.13.09.26.17.39.25.13.08.27.13.39.19l.18.06s.08,0,.11.01l-.07,1.12Z"/>
                <path class="cls-3" d="m67.91,70.49c-.1-.06-.19-.11-.29-.17l-.22-.18c-.14-.12-.27-.25-.39-.38-.24-.26-.45-.53-.64-.81-.39-.56-.7-1.17-.93-1.8-.23-.63-.36-1.31-.34-1.98.01-.67.19-1.32.5-1.89-.23.61-.3,1.26-.22,1.88.08.62.28,1.22.58,1.76.29.55.66,1.05,1.08,1.5.21.23.43.43.66.62.11.09.23.18.35.25l.17.1s.1.04.14.06l-.44,1.03Z"/>
                <path class="cls-3" d="m61.37,74.33c-.14-.02-.29-.04-.41-.07l-.32-.11c-.19-.09-.38-.17-.55-.28-.34-.2-.66-.41-.97-.65-.61-.47-1.17-.99-1.67-1.56-.49-.58-.93-1.21-1.24-1.89-.31-.68-.5-1.44-.43-2.18.03.74.3,1.44.68,2.05.38.61.86,1.15,1.4,1.63.54.47,1.12.89,1.74,1.25.3.18.62.34.94.47.16.07.31.11.47.17l.21.05c.06,0,.09,0,.14,0l.02,1.12Z"/>
                <path class="cls-3" d="m63.45,71.86c-.13-.05-.27-.1-.38-.16l-.28-.19c-.16-.13-.32-.26-.45-.4-.14-.14-.27-.28-.39-.42-.12-.14-.24-.29-.35-.44-.45-.6-.82-1.24-1.13-1.91-.31-.67-.53-1.38-.63-2.1-.1-.72-.08-1.47.15-2.15-.13.71-.06,1.42.13,2.09.19.67.49,1.31.85,1.89.37.59.8,1.13,1.28,1.62.12.13.24.24.37.35.12.12.25.22.38.32.13.11.26.18.39.27l.18.09c.05.02.08.01.12.03l-.24,1.1Z"/>
                <path class="cls-3" d="m72.17,70c-.24-.16-.37-.3-.51-.45-.13-.15-.25-.3-.36-.45-.22-.31-.42-.62-.59-.95-.35-.65-.63-1.33-.82-2.04-.18-.71-.27-1.45-.17-2.18.1-.72.43-1.41.93-1.91-.43.57-.64,1.25-.65,1.93,0,.68.17,1.35.42,1.98.26.63.6,1.22,1,1.76.2.27.41.53.64.77.11.12.23.23.35.33.11.1.24.19.31.22l-.55.98Z"/>
                <path class="cls-3" d="m77.11,70.06c-.12-.06-.25-.13-.35-.21l-.24-.22c-.13-.15-.27-.3-.37-.45-.11-.15-.22-.31-.31-.47-.1-.16-.18-.32-.26-.48-.33-.65-.57-1.32-.74-2.01-.17-.69-.26-1.4-.23-2.1.03-.7.18-1.4.48-2.02-.21.66-.26,1.35-.2,2.01.06.67.23,1.32.48,1.94.25.62.56,1.21.93,1.75.09.14.19.27.29.39.1.13.2.25.31.36.1.12.22.21.33.3l.16.11s.07.02.1.04l-.38,1.06Z"/>
                <path class="cls-3" d="m80.31,71.21c-.1-.08-.2-.16-.29-.25l-.19-.25c-.1-.16-.21-.33-.28-.49-.08-.16-.15-.33-.21-.49-.06-.16-.11-.33-.16-.5-.18-.66-.28-1.34-.29-2.01-.01-.67.05-1.35.24-1.99.18-.64.46-1.25.84-1.77-.3.58-.48,1.2-.56,1.83-.08.63-.05,1.27.05,1.88.1.62.28,1.22.52,1.78.06.14.12.28.2.41.07.14.15.26.23.38.08.13.17.22.25.32l.13.12s.07.03.09.05l-.56.97Z"/>
                <path class="cls-8" d="m78.02,98.24c-.35.98.16,2.06,1.14,2.42.98.35,2.06-.16,2.42-1.14.35-.98-.16-2.06-1.14-2.42-.98-.35-2.06.16-2.42,1.14Z"/>
                <circle class="cls-8" cx="75.97" cy="78.43" r="3.15"/>
              </g>
              <path class="cls-3" d="m113.6,140.84c.4.03.93-.05,1.42-.14.5-.09,1-.22,1.49-.37.99-.29,1.97-.66,2.92-1.09.95-.43,1.87-.93,2.74-1.52.87-.58,1.69-1.25,2.41-2.02-.65.83-1.41,1.58-2.24,2.25-.82.67-1.72,1.27-2.65,1.79-.93.53-1.9.99-2.9,1.39-.5.2-1.01.38-1.54.53-.54.14-1.04.29-1.7.31l.05-1.12Z"/>
              <g>
                <g>
                  <polygon class="cls-8" points="150.3 213.54 113.16 219.29 113.77 166.94 156.62 160.31 150.3 213.54"/>
                  <path class="cls-3" d="m149.77,213.63c-6.04,1.32-12.14,2.29-18.23,3.29-6.11.89-12.21,1.81-18.38,2.37,6.04-1.33,12.14-2.3,18.23-3.29,6.11-.89,12.21-1.81,18.37-2.37Z"/>
                  <path class="cls-3" d="m156.62,160.31c-.36,4.46-.76,8.91-1.23,13.35l-1.47,13.32-1.69,13.3c-.59,4.43-1.24,8.85-1.94,13.27.36-4.46.76-8.91,1.23-13.35l1.47-13.32,1.69-13.3c.59-4.43,1.24-8.85,1.93-13.27Z"/>
                  <polygon class="cls-8" points="74.64 159.36 113.77 167 113.16 219.29 80.11 212.84 74.64 159.36"/>
                  <polygon class="cls-20" points="75.59 168.6 113.64 177.86 155.44 170.23 156.44 161.81 146.87 161.82 113.77 166.94 113.77 167 87.34 161.84 74.9 161.84 75.59 168.6"/>
                  <path class="cls-3" d="m80.08,212.55c-.62-4.41-1.2-8.83-1.71-13.26l-1.47-13.29-1.25-13.31c-.39-4.44-.72-8.88-1-13.33.62,4.41,1.2,8.83,1.72,13.26l1.47,13.29,1.25,13.31c.39,4.44.72,8.88,1.01,13.33Z"/>
                  <path class="cls-3" d="m113.77,167c.12,4.34.19,8.68.21,13.02l-.04,13.01-.26,13.01c-.11,4.34-.29,8.67-.51,13.01-.12-4.34-.2-8.68-.21-13.02l.04-13.01.26-13.01c.11-4.34.29-8.67.51-13.01Z"/>
                  <g>
                    <polygon class="cls-11" points="157.32 167.78 158.68 159.53 108.03 155.74 72.39 158.57 73.42 166.81 115.35 175.32 157.32 167.78"/>
                    <path class="cls-3" d="m73.57,166.84c7.04,1.04,14.01,2.42,20.98,3.78,6.95,1.47,13.91,2.9,20.8,4.69-7.04-1.03-14.01-2.42-20.98-3.78-6.95-1.47-13.91-2.9-20.8-4.69Z"/>
                    <path class="cls-3" d="m72.39,158.57c.53,1.33.79,2.69.98,4.06.16,1.37.24,2.76.06,4.18-.53-1.33-.79-2.69-.98-4.06-.15-1.38-.24-2.76-.06-4.18Z"/>
                    <polygon class="cls-11" points="158.68 159.53 141.16 158.86 115.47 165 115.35 175.32 157.32 167.78 158.68 159.53"/>
                    <path class="cls-3" d="m157.36,167.54c-.14-1.39,0-2.74.2-4.08.24-1.33.54-2.65,1.12-3.93.14,1.39,0,2.74-.2,4.08-.24,1.33-.54,2.65-1.12,3.93Z"/>
                    <path class="cls-3" d="m115.35,175.31c6.93-1.63,13.92-2.92,20.9-4.23,7-1.2,14-2.44,21.07-3.31-6.93,1.64-13.92,2.92-20.9,4.23-7,1.2-14,2.43-21.07,3.31Z"/>
                    <path class="cls-3" d="m115.47,165c.34,1.68.41,3.36.41,5.04-.04,1.68-.14,3.35-.52,5.03-.35-1.68-.41-3.36-.41-5.04.04-1.68.14-3.35.52-5.03Z"/>
                    <polygon class="cls-11" points="158.68 159.53 112.47 150.75 72.39 158.57 115.43 167.3 158.68 159.53"/>
                    <path class="cls-3" d="m112.47,150.75c-6.51,1.66-13.09,2.97-19.67,4.31-6.6,1.23-13.19,2.49-19.85,3.4,6.51-1.66,13.09-2.97,19.67-4.31,6.6-1.23,13.19-2.49,19.85-3.4Z"/>
                    <path class="cls-3" d="m158.68,159.53c-3.85-.56-7.7-1.16-11.53-1.83l-11.49-2.07-11.45-2.28c-3.81-.79-7.61-1.63-11.4-2.53,3.85.56,7.7,1.16,11.53,1.83l11.49,2.07,11.45,2.29c3.81.79,7.61,1.63,11.4,2.53Z"/>
                    <path class="cls-3" d="m116,167.19c6.93-1.63,13.93-2.92,20.92-4.23,7.01-1.2,14.01-2.44,21.08-3.31-6.93,1.64-13.93,2.92-20.92,4.23-7.01,1.2-14.01,2.43-21.08,3.31Z"/>
                    <path class="cls-3" d="m72.39,158.57c7.25,1.08,14.43,2.51,21.62,3.91,7.16,1.51,14.33,2.98,21.43,4.82-7.25-1.07-14.43-2.51-21.62-3.91-7.16-1.51-14.33-2.99-21.43-4.82Z"/>
                  </g>
                  <polygon class="cls-21" points="90.18 155.1 127.44 165.14 127.87 217.02 127.87 217.02 132.22 216.34 135.2 163.62 93.81 154.39 90.18 155.1"/>
                  <g>
                    <polygon class="cls-12" points="142.91 162.36 98.96 153.39 91.62 154.82 130.53 164.59 130.53 164.59 142.91 162.36 142.91 162.36"/>
                    <path class="cls-3" d="m142.91,162.36c-7.4-1.12-14.73-2.59-22.07-4.03-7.31-1.55-14.64-3.07-21.88-4.94,7.4,1.12,14.73,2.59,22.07,4.03,7.31,1.55,14.63,3.07,21.88,4.94Z"/>
                    <path class="cls-3" d="m91.62,154.82c6.58,1.25,13.07,2.86,19.57,4.43,6.47,1.68,12.95,3.33,19.34,5.33-6.58-1.25-13.07-2.86-19.57-4.43-6.47-1.68-12.95-3.33-19.34-5.33Z"/>
                  </g>
                  <polygon class="cls-12" points="130.53 164.59 129.93 216.7 136.46 215.69 142.91 162.36 130.53 164.59"/>
                  <polygon class="cls-21" points="133.48 154.75 92.62 162.67 95.77 215.9 99.85 216.69 99.85 216.69 100.45 164.24 138.19 155.64 133.48 154.75"/>
                  <path class="cls-3" d="m130.53,165.07c.12,4.3.19,8.61.21,12.91l-.04,12.91-.26,12.9c-.11,4.3-.29,8.6-.51,12.9-.12-4.3-.2-8.61-.21-12.91l.04-12.91.26-12.9c.11-4.3.29-8.6.51-12.9Z"/>
                  <path class="cls-3" d="m142.91,162.36c-2,.73-4.05,1.18-6.11,1.57-2.07.35-4.14.64-6.27.65,2-.73,4.05-1.18,6.11-1.57,2.07-.35,4.14-.64,6.27-.65Z"/>
                  <path class="cls-3" d="m136.46,215.69c.37-4.44.78-8.87,1.25-13.29l1.5-13.26,1.71-13.23c.6-4.41,1.25-8.81,1.96-13.2-.36,4.44-.78,8.87-1.25,13.29l-1.5,13.26-1.71,13.23c-.6,4.41-1.25,8.81-1.96,13.2Z"/>
                  <polygon class="cls-12" points="86.63 161.46 86.63 161.46 91.18 215 97.98 216.33 97.71 163.7 97.71 163.7 86.63 161.46"/>
                  <polygon class="cls-12" points="137.15 155.44 131.26 154.32 86.63 161.46 97.71 163.7 137.15 155.44"/>
                  <path class="cls-3" d="m131.26,154.32c-7.38,1.57-14.81,2.78-22.24,4.03-7.45,1.14-14.89,2.3-22.39,3.11,7.38-1.57,14.81-2.78,22.24-4.03,7.45-1.13,14.89-2.3,22.39-3.11Z"/>
                  <path class="cls-3" d="m97.71,163.7c6.5-1.75,13.06-3.15,19.63-4.58,6.58-1.32,13.16-2.68,19.82-3.67-6.49,1.76-13.06,3.16-19.63,4.58-6.59,1.32-13.16,2.67-19.82,3.67Z"/>
                  <path class="cls-3" d="m113.16,219.29c-5.58-.7-11.1-1.75-16.62-2.77-5.5-1.13-11-2.23-16.44-3.68,5.58.7,11.1,1.75,16.61,2.77,5.5,1.13,11,2.23,16.44,3.68Z"/>
                  <g>
                    <path class="cls-3" d="m97.23,163.61c-1.76.01-3.46-.24-5.14-.57-1.68-.36-3.35-.78-4.96-1.48,1.76-.02,3.46.24,5.14.57,1.68.36,3.35.78,4.96,1.48Z"/>
                    <path class="cls-3" d="m97.98,216.33c-.19-4.38-.34-8.77-.42-13.15l-.18-13.16.04-13.16c.04-4.39.14-8.77.29-13.16.19,4.38.34,8.77.42,13.15l.17,13.16-.04,13.16c-.04,4.39-.14,8.77-.29,13.16Z"/>
                    <path class="cls-3" d="m86.63,161.46c.55,4.45,1.05,8.9,1.49,13.36l1.25,13.38,1.03,13.39c.32,4.47.57,8.94.78,13.42-.55-4.45-1.05-8.9-1.49-13.36l-1.24-13.38-1.03-13.39c-.32-4.47-.57-8.94-.78-13.42Z"/>
                  </g>
                  <path class="cls-16" d="m118.4,182.3c-.55.38-1.31.24-1.69-.31-.38-.55-.24-1.31.31-1.69s1.31-.24,1.69.31.24,1.31-.31,1.69Z"/>
                  <circle class="cls-16" cx="102.3" cy="198.25" r="1.21"/>
                  <path class="cls-16" d="m81.32,190.44c-.55.38-1.31.24-1.69-.31-.38-.55-.24-1.31.31-1.69.55-.38,1.31-.24,1.69.31.38.55.24,1.31-.31,1.69Z"/>
                  <path class="cls-16" d="m82.47,209.27c-.55.38-1.31.24-1.69-.31-.38-.55-.24-1.31.31-1.69.55-.38,1.31-.24,1.69.31.38.55.24,1.31-.31,1.69Z"/>
                  <circle class="cls-16" cx="102.77" cy="213.68" r="1.21"/>
                  <circle class="cls-16" cx="101.69" cy="178.33" r="1.21" transform="translate(-82.39 87.46) rotate(-34.03)"/>
                  <path class="cls-16" d="m78.72,172.6c-.55.38-1.31.24-1.69-.31s-.24-1.31.31-1.69c.55-.38,1.31-.24,1.69.31.38.55.24,1.31-.31,1.69Z"/>
                  <circle class="cls-16" cx="118.11" cy="196.74" r="1.21"/>
                  <circle class="cls-16" cx="117.55" cy="209.41" r="1.21" transform="translate(-71.79 61.69) rotate(-22.73)"/>
                  <circle class="cls-16" cx="124.58" cy="188.42" r="1.21"/>
                  <path class="cls-16" d="m109.11,189.47c-.55.38-1.31.24-1.69-.31s-.24-1.31.31-1.69c.55-.38,1.31-.24,1.69.31.38.55.24,1.31-.31,1.69Z"/>
                  <circle class="cls-16" cx="86.03" cy="181.85" r="1.21"/>
                  <path class="cls-16" d="m88.3,199.17c-.55.38-1.31.24-1.69-.31-.38-.55-.24-1.31.31-1.69.55-.38,1.31-.24,1.69.31s.24,1.31-.31,1.69Z"/>
                  <circle class="cls-16" cx="109.42" cy="206.12" r="1.21"/>
                  <circle class="cls-16" cx="150.07" cy="184.12" r="1.21"/>
                  <circle class="cls-16" cx="148.46" cy="200.42" r="1.21"/>
                  <circle class="cls-16" cx="144.3" cy="174.84" r="1.21"/>
                  <path class="cls-16" d="m142.91,193.42c-.55.38-1.31.24-1.69-.31s-.24-1.31.31-1.69c.55-.38,1.31-.24,1.69.31.38.55.24,1.31-.31,1.69Z"/>
                  <circle class="cls-16" cx="140.92" cy="210.4" r="1.21"/>
                  <path class="cls-16" d="m126.22,204.33c-.55.38-1.31.24-1.69-.31-.38-.55-.24-1.31.31-1.69s1.31-.24,1.69.31c.38.55.24,1.31-.31,1.69Z"/>
                  <path class="cls-16" d="m126.97,215.41c-.55.38-1.31.24-1.69-.31-.38-.55-.24-1.31.31-1.69s1.31-.24,1.69.31c.38.55.24,1.31-.31,1.69Z"/>
                </g>
                <g>
                  <path class="cls-19" d="m93.56,159.77c.46,7.6,12.22,9.03,18.13,3.2,3.3,4.24,8.28,1.87,8.75.98,15.18,5.84,19.01,1.46,16.58-3.21-20.77-3.11-43.45-.97-43.45-.97Z"/>
                  <g>
                    <g>
                      <path class="cls-12" d="m112.2,151.78c-1.68-4.15-8.22-12.2-13.34-10.84-5.12,1.36-5.12,7.28-3.66,11.63-.66.61-4.57,9.41,1.86,10.84,6.43,1.43,12.03-1.61,15.6-4.93-.69-2.28-.46-6.71-.46-6.71Z"/>
                      <g>
                        <path class="cls-7" d="m104.07,158.72c.51.42,1.27.35,1.69-.16s.35-1.27-.16-1.69c-.51-.42-1.27-.35-1.69.16-.42.51-.35,1.27.16,1.69Z"/>
                        <path class="cls-7" d="m98.61,159.39c.42-.51.35-1.27-.16-1.69-.51-.42-1.27-.35-1.69.16s-.35,1.27.16,1.69c.51.42,1.27.35,1.69-.16Z"/>
                        <path class="cls-7" d="m96.57,150.95c-.42.51-.35,1.27.16,1.69.51.42,1.27.35,1.69-.16.42-.51.35-1.27-.16-1.69-.51-.42-1.27-.35-1.69.16Z"/>
                        <path class="cls-7" d="m96.15,145.42c.51.42,1.27.35,1.69-.16.42-.51.35-1.27-.16-1.69s-1.27-.35-1.69.16c-.42.51-.35,1.27.16,1.69Z"/>
                        <path class="cls-7" d="m105.19,151.33c.42-.51.35-1.27-.16-1.69-.51-.42-1.27-.35-1.69.16-.42.51-.35,1.27.16,1.69.51.42,1.27.35,1.69-.16Z"/>
                      </g>
                      <g>
                        <path class="cls-8" d="m104.04,158.76c.51.42,1.27.35,1.69-.16.42-.51.35-1.27-.16-1.69-.51-.42-1.27-.35-1.69.16-.42.51-.35,1.27.16,1.69Z"/>
                        <path class="cls-8" d="m98.58,159.43c.42-.51.35-1.27-.16-1.69-.51-.42-1.27-.35-1.69.16-.42.51-.35,1.27.16,1.69.51.42,1.27.35,1.69-.16Z"/>
                        <path class="cls-8" d="m96.54,150.99c-.42.51-.35,1.27.16,1.69.51.42,1.27.35,1.69-.16.42-.51.35-1.27-.16-1.69-.51-.42-1.27-.35-1.69.16Z"/>
                        <path class="cls-8" d="m96.12,145.45c.51.42,1.27.35,1.69-.16.42-.51.35-1.27-.16-1.69-.51-.42-1.27-.35-1.69.16-.42.51-.35,1.27.16,1.69Z"/>
                        <path class="cls-8" d="m105.16,151.37c.42-.51.35-1.27-.16-1.69-.51-.42-1.27-.35-1.69.16-.42.51-.35,1.27.16,1.69.51.42,1.27.35,1.69-.16Z"/>
                        <path class="cls-8" d="m104.23,144.5c.42-.51.35-1.27-.16-1.69-.51-.42-1.27-.35-1.69.16-.42.51-.35,1.27.16,1.69.51.42,1.27.35,1.69-.16Z"/>
                      </g>
                      <path class="cls-13" d="m111.73,157.93s-5.85,3.8-11.3,2.55c-2.86-.65-6.25-3.19-5.39-7.69-.96,1.51-3.97,9.28,2.03,10.62,6.12,1.36,11.5-1.33,15.08-4.46l-.41-1.02Z"/>
                      <path class="cls-3" d="m95.11,152.67c-.16.26-.29.55-.41.84-.12.29-.23.58-.33.87-.2.59-.36,1.18-.48,1.79-.25,1.2-.36,2.45-.13,3.63.12.59.33,1.15.65,1.63.32.48.76.88,1.27,1.16.51.28,1.08.46,1.67.58l.9.16c.3.04.61.06.91.09,1.22.1,2.44.05,3.65-.13,1.21-.19,2.39-.53,3.54-.97,2.29-.9,4.42-2.22,6.32-3.82-1.74,1.78-3.82,3.26-6.14,4.26-1.16.5-2.37.87-3.62,1.1-1.25.21-2.53.27-3.79.17-.32-.03-.63-.06-.95-.1l-.94-.17c-.62-.13-1.26-.32-1.83-.66-.57-.33-1.07-.81-1.42-1.37-.36-.56-.57-1.2-.67-1.84-.2-1.28-.01-2.57.31-3.78.17-.61.38-1.2.62-1.78.25-.57.51-1.15.89-1.65Z"/>
                      <path class="cls-13" d="m111.25,153.26c-2.16-.08-3.9-.13-5.71-.58-.36-.09-.55.42-.21.58,1.96.89,4.44,1.39,5.15,1.42-4.39.24-7.21-.03-9.06-.48-.32-.08-.48.36-.2.52,2.94,1.7,7.03,2.45,9.65,1.87-4.79,1.2-7.13,1.72-8.62,1.9-.36.04-.36.56,0,.61,3.77.57,8.29-.42,8.82-.62.65-.25.19-5.23.19-5.23Z"/>
                      <path class="cls-3" d="m100.65,154.32c.7.5,1.48.87,2.28,1.17.8.3,1.62.54,2.46.72.83.18,1.68.31,2.53.39.21.03.43.03.64.05.21.02.43.02.64.02.43.03.86,0,1.29,0-.43.06-.86.12-1.29.14-.22.02-.43.02-.65.02-.22,0-.43,0-.65,0-.87-.02-1.73-.14-2.58-.32-.85-.19-1.68-.44-2.48-.8-.4-.17-.78-.38-1.16-.59-.36-.24-.72-.48-1.03-.79Z"/>
                      <path class="cls-3" d="m104.17,152.51c.71.48,1.5.83,2.31,1.11.81.27,1.63.49,2.47.65.84.16,1.69.27,2.54.32.21.02.43.02.64.03.21.01.43.01.64,0,.43.01.86-.02,1.29-.03-.42.08-.85.14-1.28.18-.22.02-.43.03-.65.04-.22,0-.43.02-.65.01-.87,0-1.74-.1-2.59-.25-.85-.17-1.69-.4-2.5-.73-.4-.16-.79-.35-1.17-.56-.37-.23-.74-.46-1.05-.76Z"/>
                      <path class="cls-3" d="m101.72,159.04c.93.17,1.87.21,2.81.2.94-.02,1.88-.08,2.8-.21.93-.12,1.85-.32,2.75-.58l.34-.1.33-.12c.22-.08.45-.15.66-.25.22-.09.44-.17.65-.27.21-.11.42-.21.64-.31-.2.13-.4.25-.6.38-.2.13-.42.22-.63.34-.21.11-.43.2-.65.29l-.33.14-.34.12c-.9.32-1.83.53-2.78.66-.94.12-1.9.18-2.85.14-.48-.02-.95-.06-1.42-.12-.47-.08-.94-.16-1.39-.31Z"/>
                      <g class="cls-24">
                        <path class="cls-8" d="m96.86,144.43c-.11-.14-.38-.04-.6.26-.23.29-.4.73-.52,1.24-.24,1.03-.21,2.34-.11,3.4.09,1.07.19,1.71.27,2.09.08.38.15.49.3.46.2-.04.26-.16.23-.52-.02-.36-.13-.98-.15-2-.01-1.03.19-2.25.41-3.17.11-.46.21-.84.26-1.12.04-.27.05-.46-.1-.64Z"/>
                      </g>
                      <path class="cls-3" d="m112.2,151.78c-.6-1.25-1.35-2.42-2.18-3.52-.83-1.11-1.73-2.15-2.7-3.13-.98-.97-2.02-1.87-3.17-2.6-1.14-.73-2.4-1.31-3.71-1.42-1.3-.12-2.63.38-3.63,1.23-.5.42-.92.96-1.23,1.54-.32.59-.56,1.22-.72,1.88-.31,1.32-.36,2.71-.22,4.07.13,1.37.48,2.72.98,4.02-.62-1.25-1.02-2.6-1.26-3.98-.22-1.38-.24-2.82.05-4.21.29-1.38.92-2.76,2.03-3.74.54-.49,1.19-.86,1.88-1.11.68-.25,1.44-.36,2.17-.3.73.05,1.44.25,2.1.52.66.27,1.29.62,1.88,1.01,1.18.79,2.24,1.73,3.2,2.75.96,1.02,1.83,2.13,2.6,3.29.38.58.74,1.18,1.07,1.8.33.61.63,1.25.86,1.9Z"/>
                      <g class="cls-24">
                        <path class="cls-8" d="m99.55,142.81c.07.06.13.1.21.13.09.03.23.06.43.11.39.1.99.31,1.65.63,1.34.63,2.96,1.74,4.18,2.81,1.22,1.08,1.88,1.84,2.29,2.27.4.44.55.55.68.45.16-.13.11-.3-.24-.77-.37-.45-1.02-1.21-2.21-2.37-1.18-1.16-2.72-2.52-4.21-3.26-.74-.37-1.46-.58-2.03-.56-.28.01-.53.08-.67.21-.15.12-.15.27-.07.34Z"/>
                      </g>
                    </g>
                    <g>
                      <path class="cls-12" d="m119.44,152.41c1.98-4.01,9.08-11.57,14.09-9.84s4.58,7.63,2.81,11.86c.61.66,3.87,9.72-2.64,10.68-6.51.96-11.88-2.47-15.2-6.04.86-2.22.95-6.66.95-6.66Z"/>
                      <g>
                        <path class="cls-8" d="m127.04,159.92c-.54.39-1.29.26-1.68-.28-.39-.54-.26-1.29.28-1.68.54-.39,1.29-.26,1.68.28.39.54.26,1.29-.28,1.68Z"/>
                        <path class="cls-8" d="m132.44,160.99c-.39-.54-.26-1.29.28-1.68.54-.39,1.29-.26,1.68.28.39.54.26,1.29-.28,1.68-.54.39-1.29.26-1.68-.28Z"/>
                        <path class="cls-8" d="m135.09,152.72c.39.54.26,1.29-.28,1.68-.54.39-1.29.26-1.68-.28s-.26-1.29.28-1.68c.54-.39,1.29-.26,1.68.28Z"/>
                        <path class="cls-8" d="m135.9,147.23c-.54.39-1.29.26-1.68-.28-.39-.54-.26-1.29.28-1.68.54-.39,1.29-.26,1.68.28.39.54.26,1.29-.28,1.68Z"/>
                        <path class="cls-8" d="m126.46,152.47c-.39-.54-.26-1.29.28-1.68s1.29-.26,1.68.28c.39.54.26,1.29-.28,1.68-.54.39-1.29.26-1.68-.28Z"/>
                      </g>
                      <path class="cls-13" d="m119.71,158.36s3.77,2.95,9.29,2.11c2.9-.45,8.02-1.25,7.49-5.8.85,1.58,3.29,9.54-2.79,10.44-6.2.92-11.37-2.16-14.72-5.54l.73-1.21Z"/>
                      <path class="cls-3" d="m136.42,154.54c.34.53.56,1.12.77,1.71.2.59.37,1.2.49,1.82.24,1.23.33,2.52.04,3.79-.15.63-.4,1.25-.8,1.78-.39.54-.93.97-1.52,1.26-.59.3-1.25.45-1.88.52l-.95.11c-.32.02-.63.02-.95.03-1.27,0-2.54-.14-3.77-.45-1.23-.32-2.42-.77-3.53-1.36-2.24-1.16-4.21-2.79-5.82-4.69,1.78,1.74,3.81,3.21,6.03,4.27,1.11.52,2.27.95,3.46,1.23,1.19.27,2.41.41,3.63.4.3,0,.61-.01.91-.03l.91-.09c.6-.07,1.18-.21,1.71-.45.53-.24.99-.61,1.35-1.07.35-.46.61-1,.76-1.58.31-1.16.29-2.41.13-3.63-.08-.61-.2-1.22-.35-1.82-.08-.3-.17-.6-.27-.89-.1-.29-.2-.59-.35-.86Z"/>
                      <path class="cls-13" d="m120.28,153.95c2.16.08,3.9.15,5.74-.16.37-.06.52.46.17.59-2.02.74-4.53,1.07-5.24,1.04,4.36.55,7.19.49,9.07.17.32-.05.46.39.17.53-3.05,1.48-7.2,1.93-9.76,1.17,7.86,2.58,9.16,2.84,10.94,2.73-4.02,1.37-10.64-.56-11.27-.85-.63-.29.19-5.23.19-5.23Z"/>
                      <path class="cls-3" d="m130.77,155.78c-.33.28-.71.5-1.09.71-.39.19-.79.36-1.2.51-.82.29-1.67.49-2.53.61-.86.12-1.73.18-2.6.13-.22,0-.43-.03-.65-.04-.22-.01-.43-.04-.65-.07-.43-.06-.85-.14-1.27-.24.43.03.86.08,1.29.09.21.01.43.03.64.02.21,0,.43.01.64,0,.86-.01,1.71-.08,2.55-.2.85-.12,1.68-.3,2.5-.54.82-.24,1.62-.55,2.36-1Z"/>
                      <path class="cls-3" d="m127.4,153.72c-.34.27-.72.48-1.11.68-.4.18-.8.34-1.21.48-.83.27-1.68.44-2.55.55-.86.1-1.74.13-2.6.06-.22,0-.43-.04-.65-.06-.22-.02-.43-.05-.64-.08-.43-.07-.85-.16-1.27-.27.43.04.86.11,1.29.12.21.02.43.04.64.04.21,0,.43.02.64.02.86.01,1.71-.03,2.56-.13.85-.1,1.69-.25,2.51-.47.82-.22,1.64-.51,2.38-.94Z"/>
                      <path class="cls-3" d="m129.37,160.41c-.46.12-.93.17-1.41.21-.47.02-.95.03-1.43.02-.95-.03-1.9-.15-2.83-.34-.93-.2-1.85-.48-2.72-.86l-.33-.14-.32-.16c-.21-.11-.43-.21-.63-.34-.2-.13-.41-.24-.6-.38-.19-.14-.38-.28-.57-.42.21.12.41.23.61.35.2.12.42.21.63.32.21.11.42.2.64.29l.32.14.33.12c.88.32,1.78.59,2.7.78.92.2,1.85.33,2.78.41.94.08,1.88.1,2.82,0Z"/>
                      <path class="cls-3" d="m119.44,152.41c.28-.64.62-1.25,1-1.83.37-.59.78-1.16,1.2-1.72.86-1.1,1.8-2.14,2.83-3.09,1.03-.95,2.15-1.81,3.39-2.51.62-.35,1.27-.64,1.95-.87.68-.22,1.4-.37,2.13-.37.73,0,1.48.16,2.14.45.67.29,1.28.71,1.79,1.24,1.03,1.05,1.57,2.47,1.75,3.87.19,1.41.06,2.84-.25,4.2-.33,1.36-.83,2.68-1.54,3.88.59-1.26,1.03-2.58,1.27-3.94.24-1.35.3-2.74.08-4.08-.11-.67-.31-1.32-.58-1.92-.28-.61-.65-1.17-1.12-1.63-.94-.91-2.23-1.51-3.53-1.49-1.32.02-2.62.5-3.81,1.15-1.2.65-2.3,1.47-3.35,2.37-1.04.9-2.02,1.88-2.92,2.92-.91,1.04-1.75,2.15-2.43,3.36Z"/>
                    </g>
                    <g>
                      <path class="cls-12" d="m115.29,151.96c.61.66,5.99-2.04,6.05,4.02-.1,2.81-1.54,7.41-9.34,5.08-3.27-.96-2.81-5.88-1.81-8.38.55-1.53,3.33-2.63,5.1-.73Z"/>
                      <path class="cls-13" d="m120.31,152.74c.08.41.13.87.14,1.4-.1,2.81-1.54,7.41-9.34,5.08-.62-.18-1.1-.5-1.47-.92.3,1.3,1.02,2.37,2.37,2.76,7.8,2.33,9.24-2.27,9.34-5.08-.02-1.65-.43-2.65-1.03-3.24Z"/>
                      <path class="cls-8" d="m118.44,156.11c.51.42,1.27.35,1.69-.16.42-.51.35-1.27-.16-1.69-.51-.42-1.27-.35-1.69.16-.42.51-.35,1.27.16,1.69Z"/>
                      <path class="cls-8" d="m112.54,157.4c.42-.51.35-1.27-.16-1.69-.51-.42-1.27-.35-1.69.16-.42.51-.35,1.27.16,1.69.51.42,1.27.35,1.69-.16Z"/>
                      <path class="cls-3" d="m114.52,161.62c-.45-.01-.9-.07-1.35-.14-.45-.07-.89-.15-1.33-.28-.45-.12-.89-.35-1.25-.67-.36-.32-.65-.71-.86-1.14-.43-.86-.56-1.81-.57-2.73,0-.93.12-1.84.35-2.73.12-.44.27-.89.44-1.3.19-.46.53-.85.91-1.13.39-.28.83-.47,1.29-.56.46-.09.93-.09,1.38,0,.92.19,1.66.79,2.27,1.44.61.66,1.13,1.4,1.58,2.17-.48-.75-1.02-1.48-1.65-2.11-.62-.63-1.37-1.19-2.23-1.34-.43-.09-.88,0-1.28.13-.41.13-.79.34-1.11.61-.32.27-.57.6-.7.98-.15.42-.27.83-.37,1.26-.19.85-.3,1.73-.3,2.59,0,.86.12,1.74.45,2.51.17.38.4.74.69,1.03.3.29.66.52,1.05.67.83.31,1.69.56,2.57.75Z"/>
                      <path class="cls-3" d="m115.35,152c.19.07.38.04.57.02.19-.02.38-.06.58-.09.39-.07.78-.13,1.18-.16.79-.06,1.65,0,2.39.46.74.45,1.18,1.27,1.37,2.06.11.4.15.81.18,1.21.03.41.02.82-.03,1.22-.1.8-.3,1.6-.66,2.34-.37.73-.9,1.41-1.59,1.86-.69.47-1.49.71-2.28.8-.8.11-1.59.02-2.37-.11.79,0,1.57,0,2.32-.18.75-.16,1.46-.44,2.05-.89.59-.45,1.05-1.05,1.35-1.73.31-.67.5-1.41.58-2.16.05-.38.07-.75.05-1.12,0-.19-.03-.37-.05-.56-.03-.18-.05-.37-.1-.55-.15-.73-.5-1.39-1.08-1.81-.58-.42-1.36-.55-2.12-.56-.38-.01-.77.01-1.17.03-.2,0-.39.02-.59.02-.19,0-.41,0-.58-.11Z"/>
                    </g>
                    <g class="cls-23">
                      <path class="cls-8" d="m122.8,150.31c-.14-.1-.02-.49.26-.83,1.36-1.63,2.99-3.06,4.92-4.04.96-.49,2.01-.84,3.11-.97,1.09-.13,2.22-.03,3.28.31.31.09.51.24.62.37.11.13.12.26.07.38-.11.24-.52.25-.97.11-.93-.32-1.92-.43-2.9-.34-.98.1-1.95.39-2.86.82-1.82.87-3.43,2.22-4.78,3.76-.45.48-.59.53-.73.43Z"/>
                    </g>
                    <g class="cls-23">
                      <path class="cls-8" d="m135.68,147.82c-.12.02-.16.2-.13.47.03.26.11.61.2,1,.08.39.16.84.17,1.3.01.46-.04.92-.15,1.33-.24.82-.57,1.25-.74,1.51-.18.25-.22.35-.13.42.11.09.21.06.42-.18.21-.24.55-.7.88-1.57.15-.44.27-.95.32-1.46.04-.51,0-1.02-.08-1.46-.08-.44-.21-.8-.34-1.04-.13-.24-.26-.36-.41-.33Z"/>
                    </g>
                    <g class="cls-26">
                      <path class="cls-8" d="m112.01,152.46c.09.09.18.1.32.1.14,0,.35-.02.62.02.53.07,1.24.38,1.76.76.52.38.79.68.96.85.17.16.24.2.32.12.11-.09.1-.18-.04-.37-.14-.19-.42-.49-.93-.94-.51-.44-1.2-.97-1.93-1.1-.36-.07-.71-.02-.92.12-.22.13-.27.33-.16.44Z"/>
                    </g>
                  </g>
                </g>
              </g>
              <path class="cls-2" d="m86.74,111.06c-1.23-.19-2.27.82-2.19,2.06.24,4-1.98,9.46-3.12,11.36-1.41,2.34-9.48,9.22-22.14,6.41-10.7-2.37-16.33-6.29-18.91-8.76-.7-.67-3.23-.82-4.05-.29-1.35.87-5.82,4.33-5.59,10.16.11,2.93,3.87,2.27,5.66,4.47s17.96,16.92,40.92,18.34c22.86,1.41,36.67-6.53,44.54-28.06.07-.2.18-.38.31-.54,1.24-1.55,1.68-3,2.38-4.73.4-1-.08-2.14-1.09-2.52-8.9-3.44-29.27-6.75-36.72-7.89Z"/>
              <path class="cls-14" d="m121.85,126.76c.07-.2.18-.38.31-.54,1.24-1.55,1.68-3,2.38-4.73.4-1-.08-2.14-1.09-2.52-.04-.01-.08-.03-.12-.04-2.93,4.57-7.41,22.14-29.73,29.4-23.95,7.79-50.35-9.69-58.74-13h0c.57.29,1.1.64,1.52,1.16,1.79,2.21,17.96,16.92,40.92,18.34,22.86,1.41,36.67-6.53,44.54-28.06Z"/>
              <path class="cls-5" d="m165.85,75.38c-1.58,2.06-.58,4.32,2.36,5.83,2.94,1.51,7.91,4.09,10.26,6.8,2.47,2.84,4.26,1.63,3.36-.59-.9-2.21-3.54-6.94-7.54-10.01-2.48-1.91-7.09-3.82-8.45-2.04Z"/>
              <path class="cls-3" d="m166.07,73.84c-1.58,2.06-.58,4.32,2.36,5.83,2.94,1.51,7.91,4.09,10.26,6.8,2.47,2.84,4.26,1.63,3.36-.59-.9-2.21-3.54-6.94-7.54-10.01-2.48-1.91-7.09-3.82-8.45-2.04Z"/>
              <path class="cls-14" d="m73.2,53.92c.44,2.04-1.07,3.34-3.73,3.43-2.66.08-7.17.25-9.82,1.41-2.77,1.22-4.25-.29-2.83-1.6,1.42-1.3,5.56-3.82,9.53-4.67,2.46-.53,6.48-.33,6.85,1.43Z"/>
              <path class="cls-3" d="m73.26,52.88c.44,2.04-1.07,3.34-3.73,3.43-2.66.08-7.17.25-9.82,1.41-2.77,1.22-3.66-.29-2.24-1.59,1.42-1.3,4.97-3.83,8.94-4.68,2.46-.53,6.48-.33,6.85,1.43Z"/>
              <path class="cls-14" d="m36.92,128.69c-1.47,2.62-3.43,4.31-4.37,3.79-.94-.53-.51-3.08.96-5.7,1.47-2.62,3.43-4.31,4.37-3.79.94.53.51,3.08-.96,5.7Z"/>
              <path class="cls-14" d="m36.78,127.52c.86-1.53,1.36-3.03,1.44-4.12-.08-.18-.19-.32-.34-.4-.94-.53-2.89,1.17-4.37,3.79-.86,1.53-1.36,3.03-1.44,4.12.08.18.19.32.34.4.94.53,2.89-1.17,4.37-3.79Z"/>
              <path class="cls-3" d="m49.67,81.05c-.3.58-.76,1.07-1.26,1.5-.5.42-1.05.79-1.62,1.12-1.13.67-2.33,1.22-3.53,1.74-2.42,1.01-4.88,1.88-7.34,2.74-4.91,1.73-9.83,3.44-14.52,5.62-2.35,1.08-4.64,2.28-6.82,3.65-2.18,1.36-4.24,2.92-6.1,4.7-1.84,1.78-3.47,3.8-4.73,6.05-1.3,2.23-2.14,4.71-2.67,7.26.29-2.59,1.03-5.15,2.19-7.52,1.17-2.36,2.76-4.52,4.6-6.41,1.84-1.9,3.95-3.52,6.15-4.97,2.21-1.43,4.55-2.66,6.92-3.78,2.39-1.09,4.82-2.06,7.28-2.95,2.46-.88,4.94-1.7,7.43-2.47,2.48-.79,4.97-1.55,7.41-2.43,1.22-.44,2.43-.9,3.59-1.49.58-.29,1.14-.61,1.66-.99.52-.38,1.01-.82,1.36-1.37Z"/>
              <path class="cls-3" d="m194.82,83.25c.92,2.74,2.15,5.36,3.67,7.79,1.5,2.45,3.23,4.75,5.08,6.95,1.86,2.19,3.81,4.3,5.83,6.35,2.01,2.06,4.07,4.08,6.13,6.11,4.07,4.09,8.22,8.21,11.46,13.09.41.61.77,1.25,1.15,1.87.35.64.69,1.29,1.02,1.94.6,1.34,1.15,2.7,1.48,4.13.69,2.84.75,5.84.02,8.65l.13-1.08.06-.54c.02-.18.05-.36.04-.54l.02-1.08v-.54c0-.18-.02-.36-.03-.54l-.09-1.07-.02-.27-.05-.26-.1-.53c-.07-.35-.13-.7-.21-1.05l-.3-1.03c-.81-2.73-2.21-5.26-3.85-7.59-1.65-2.33-3.51-4.52-5.48-6.62-1.96-2.11-3.99-4.14-6.05-6.17-4.09-4.07-8.24-8.15-11.85-12.71-1.81-2.27-3.47-4.67-4.87-7.22-1.38-2.56-2.53-5.25-3.2-8.07Z"/>
              <g>
                <path class="cls-14" d="m133.92,98.92c-5.22,12.51,1.82,22.29,11.44,25.65,12.74,4.45,21.31-2.06,25.19-11.35,3.88-9.29-1.53-20.11-10.94-24.04-9.41-3.93-20.41-2.93-25.69,9.74Z"/>
                <path class="cls-8" d="m168.38,107.95c-2.33,11.58-11.88,17.09-22.71,15.32-10.57-1.73-16.47-11.26-15.46-20.95,1.22-11.74,12.21-20.14,24.93-17.52,11.92,2.45,14.84,15.21,13.24,23.15Z"/>
                <path class="cls-15" d="m160,86.6c6.04,4.95,7.46,13.81,6.23,19.88-2.33,11.58-11.88,17.09-22.71,15.32-2.4-.39-4.56-1.2-6.46-2.31,2.35,1.89,5.24,3.23,8.6,3.78,10.82,1.78,20.37-3.74,22.71-15.32,1.36-6.73-.53-16.9-8.37-21.35Z"/>
                <path class="cls-17" d="m146.79,86.88c-2.02-.42-5.27-.32-7.15.44-1.47.99-9.09,6.75-9.46,15.29-.37,8.4,3.31,14.76,9.1,18.26v.13c.1.02.2.04.3.06,9.96,1.63,19.76-3.32,21.79-14,1.57-8.28-3.61-17.93-14.58-20.18Z"/>
                <path class="cls-16" d="m145.21,87.79c-1.9-.39-4.96-.3-6.74.41-2.62,2.1-7.97,7.28-8.28,14.41-.32,7.3,2.42,13.06,6.94,16.74.32.22.64.43.97.63v.11s.02.02.03.02c.08.02.17.03.25.05,9.43,1.55,18.71-3.15,20.63-13.26,1.49-7.84-3.41-16.97-13.8-19.11Z"/>
                <path class="cls-9" d="m135.15,91.98l1.58-2.75.58,2.23.87-2.76c.1-.31.53-.34.66-.04l.77,1.73,1.26-2.05c.17-.27.58-.2.65.11l.4,1.94,1.38-1.83c.19-.26.6-.14.64.18l.18,1.88,2.35-1.91c.24-.2.61,0,.58.31l-.3,2.93,2.97-2.23c.25-.19.6.01.56.32l-.28,2.72,2.15-1.38c.27-.17.61.07.53.39l-.71,2.78,2.32-1.48c.3-.19.66.13.51.45l-1.12,2.36,2.82-.57c.32-.07.55.31.35.57l-1.94,2.43,2.97-.08c.34,0,.49.42.23.63l-2.12,1.72,2.36.48c.33.07.39.52.08.67l-1.94.91,2.83,1.14c.31.12.29.56-.02.66l-2.66.9,2.31,1.45c.29.18.18.63-.16.65l-2.82.2,2.05,2.11c.23.24.04.63-.29.6l-2.56-.27,1.88,2.32c.21.26-.03.65-.36.57l-2.8-.67,1.32,2.3c.17.3-.15.64-.46.5l-2.48-1.17.8,2.88c.09.32-.27.57-.54.39l-2.42-1.64.31,2.93c.03.32-.33.51-.58.31l-2.44-2.04.28,2.47c.04.35-.4.54-.63.26l-1.69-2.09-.1,2.59c-.01.32-.41.46-.62.22l-2.18-2.55-.54,2.24c-.08.34-.55.37-.68.04l-.86-2.31-1.4,2.82c-.13.26-.49.26-.63.01l-1.55-2.84-1.5.81-2.88-6.36,2.58-19.54c.02-.18.08-.35.17-.51Z"/>
                <path class="cls-3" d="m139.28,121.01c1.34.2,2.69.29,4.03.26,1.34-.03,2.68-.19,3.99-.47,2.62-.53,5.13-1.61,7.26-3.21,2.12-1.59,3.86-3.68,5-6.07.57-1.19,1-2.46,1.29-3.75.3-1.29.44-2.61.42-3.93-.03-2.64-.72-5.27-1.97-7.61-1.25-2.34-3.05-4.37-5.19-5.94-2.15-1.57-4.65-2.64-7.27-3.24-1.29-.29-2.65-.34-3.99-.27-.67.04-1.34.13-1.99.28-.65.15-1.3.37-1.86.76.54-.41,1.18-.67,1.83-.86.65-.19,1.33-.3,2-.37,1.35-.13,2.72-.13,4.08.12,2.67.51,5.26,1.55,7.52,3.11,1.13.78,2.18,1.68,3.09,2.71.91,1.03,1.71,2.16,2.37,3.37,1.31,2.42,2.06,5.15,2.12,7.92.02,1.38-.15,2.77-.47,4.1-.32,1.34-.77,2.65-1.38,3.88-1.22,2.47-3.02,4.67-5.28,6.24-2.24,1.59-4.84,2.63-7.53,3.1-2.69.46-5.45.41-8.09-.16Z"/>
                <path class="cls-3" d="m145.09,90.89c-3.71-.71-8.83-.04-11.43,2.07-2.19,3.39-3.03,5.2-3.46,9.35-.57,5.51.33,10.01,3.81,14.01.88.83,2.7,1.41,3.74,1.66,8.79,2.16,16.76-2.39,18.54-10.56,1.22-5.6-1.34-14.66-11.2-16.55Z"/>
                <path class="cls-3" d="m168.81,102.7c.33-7.03-4.53-17.31-13.51-19.52-7.72-1.9-16.69.73-20.79,8.4,6.1-8.41,29.09-5.69,34.29,11.12Z"/>
                <path class="cls-3" d="m168.27,99.66h.94c.29.01.59,0,.88,0,.59-.02,1.18-.07,1.76-.14,1.17-.14,2.32-.4,3.42-.82,1.09-.43,2.13-1.02,2.94-1.88.4-.43.75-.92,1.02-1.45.26-.54.44-1.11.57-1.71-.06.6-.18,1.2-.39,1.78-.22.57-.53,1.12-.91,1.62-.76,1-1.8,1.75-2.91,2.32-1.12.56-2.31.96-3.53,1.24-.61.14-1.22.25-1.84.34-.31.04-.62.08-.93.11l-.88.08-.13-1.49Z"/>
                <path class="cls-3" d="m167.34,95.96c.93.01,1.88-.07,2.8-.22.93-.16,1.84-.41,2.71-.78.86-.38,1.69-.86,2.37-1.53.68-.66,1.2-1.49,1.55-2.39-.26.93-.71,1.83-1.35,2.59-.63.77-1.46,1.36-2.32,1.84-.87.48-1.81.84-2.77,1.1-.96.26-1.94.44-2.95.53l-.03-1.12Z"/>
                <path class="cls-3" d="m156.69,87.8c.81-.39,1.59-.87,2.32-1.42.73-.56,1.41-1.18,2.01-1.89.6-.71,1.11-1.49,1.53-2.33.42-.84.69-1.75.9-2.68-.08.95-.24,1.9-.55,2.83-.32.92-.74,1.8-1.28,2.63-.53.83-1.17,1.59-1.87,2.29-.71.7-1.48,1.33-2.33,1.88l-.73-1.31Z"/>
                <path class="cls-3" d="m160.48,89.74c.84-.3,1.68-.69,2.46-1.16.78-.47,1.53-1.02,2.2-1.66.67-.64,1.27-1.36,1.78-2.14.51-.79.88-1.66,1.19-2.57-.18.93-.44,1.87-.86,2.75-.42.88-.94,1.71-1.56,2.47-.62.77-1.34,1.45-2.11,2.07-.78.62-1.62,1.16-2.52,1.61l-.59-1.38Z"/>
                <path class="cls-3" d="m165.09,92.54s.08.03.13.04l.21.03c.15,0,.31.02.48,0,.17-.01.34-.03.51-.06.17-.02.34-.06.51-.1.68-.16,1.35-.41,1.99-.73,1.27-.63,2.42-1.62,3.02-2.98-.42,1.42-1.48,2.63-2.74,3.46-.63.42-1.31.78-2.03,1.05-.18.07-.36.13-.55.19-.19.06-.38.1-.58.15-.19.05-.41.06-.62.08h-.34c-.13-.02-.27-.05-.41-.08l.42-1.04Z"/>
                <path class="cls-3" d="m152.53,85.44s.05,0,.09,0c.06-.02.12-.03.18-.05.13-.06.27-.1.42-.19.14-.08.29-.16.43-.25.14-.09.28-.19.42-.3.55-.42,1.06-.91,1.51-1.46.9-1.09,1.54-2.44,1.54-3.93.26,1.46-.16,3.03-.92,4.35-.38.67-.83,1.29-1.37,1.87-.13.15-.27.29-.42.42-.14.14-.3.27-.46.39-.16.13-.35.24-.54.36l-.33.16c-.13.05-.3.08-.45.11l-.09-1.5Z"/>
                <path class="cls-3" d="m163.29,90.98c.06,0,.11,0,.17,0l.22-.02c.15-.02.31-.05.46-.09.32-.08.63-.18.94-.31.62-.25,1.22-.58,1.77-.98.55-.4,1.03-.9,1.39-1.47.37-.58.6-1.25.65-1.95.04.7-.1,1.43-.41,2.09-.3.66-.75,1.26-1.27,1.77-.53.51-1.12.95-1.77,1.31-.32.19-.66.34-1.01.49-.18.07-.36.13-.55.18l-.3.07c-.12.01-.23.03-.35.03l.05-1.12Z"/>
                <path class="cls-3" d="m168.38,97.94c.05.01.08.04.15.06l.24.05c.18.02.35.05.54.05.37.02.76,0,1.14-.03.77-.06,1.54-.21,2.3-.42.75-.23,1.48-.53,2.14-.96.66-.42,1.25-.98,1.63-1.7-.29.75-.83,1.4-1.46,1.92-.63.52-1.36.93-2.11,1.26-.76.32-1.55.56-2.37.73-.41.09-.82.14-1.25.17-.21.02-.44.01-.66.01l-.36-.04c-.13-.02-.28-.07-.42-.12l.5-1.01Z"/>
                <path class="cls-3" d="m167.29,94.27s.04.02.1.02h.21c.16-.02.32-.02.49-.06.17-.03.34-.07.52-.12.17-.05.35-.1.52-.16.7-.24,1.38-.56,2.02-.95.64-.39,1.23-.86,1.74-1.42.51-.56.92-1.22,1.14-1.97-.09.78-.41,1.53-.84,2.2-.44.67-.98,1.27-1.6,1.8-.61.52-1.28.99-2.01,1.38-.18.1-.36.19-.55.28-.19.09-.39.17-.59.24-.2.08-.42.13-.64.19l-.37.06c-.14.01-.32,0-.48-.02l.35-1.46Z"/>
                <path class="cls-3" d="m159.22,88.49c.08,0,.26-.03.42-.07.16-.04.33-.1.5-.17.33-.13.67-.29.99-.46.65-.35,1.26-.78,1.81-1.28.54-.5,1.03-1.08,1.34-1.76.31-.67.42-1.45.26-2.21.25.73.24,1.55,0,2.31-.24.76-.68,1.44-1.2,2.05-.52.61-1.12,1.13-1.76,1.6-.33.23-.66.45-1.02.64-.18.1-.37.19-.56.27-.2.08-.4.16-.7.2l-.07-1.12Z"/>
                <path class="cls-3" d="m154.53,86.23s.08,0,.13,0l.21-.03c.15-.05.31-.08.47-.15.16-.06.32-.13.48-.21.16-.07.32-.16.47-.25.62-.36,1.2-.8,1.73-1.29.53-.49,1-1.06,1.38-1.69.37-.63.64-1.33.74-2.08,0,.75-.19,1.5-.49,2.2-.31.7-.72,1.36-1.22,1.95-.49.59-1.05,1.13-1.68,1.61-.15.12-.31.24-.48.34-.16.11-.34.21-.52.31-.17.1-.38.18-.57.26l-.34.1c-.13.02-.28.03-.42.04l.11-1.12Z"/>
                <path class="cls-3" d="m150.4,85.8s.08,0,.14-.01l.19-.06c.13-.06.28-.11.42-.2.14-.08.28-.16.42-.26.14-.09.27-.19.4-.3.53-.43,1.01-.93,1.42-1.48.42-.55.76-1.16,1-1.82.23-.66.36-1.36.33-2.08.12.71.1,1.44-.06,2.16-.15.72-.43,1.41-.79,2.05-.36.64-.8,1.25-1.32,1.79-.13.14-.26.27-.41.4-.14.13-.29.25-.45.37-.15.12-.33.23-.51.33l-.3.14c-.12.04-.26.07-.39.1l-.08-1.12Z"/>
                <circle class="cls-8" cx="145.06" cy="114.75" r="2.06" transform="translate(5.58 236.22) rotate(-79.4)"/>
                <path class="cls-3" d="m138.58,123.34c1.62-.25,3.27-.15,4.89,0,1.63.16,3.24.45,4.83.8,1.59.36,3.17.79,4.72,1.31,1.55.52,3.07,1.11,4.54,1.81l-4.71-1.25c-1.57-.4-3.14-.79-4.71-1.14-1.57-.36-3.16-.67-4.75-.95-1.59-.26-3.19-.53-4.81-.58Z"/>
                <circle class="cls-8" cx="142.68" cy="92.08" r="3.43"/>
                <path class="cls-3" d="m168.59,108c-.52,2.54-1.42,5.02-2.79,7.23-1.37,2.22-3.21,4.15-5.39,5.58-2.18,1.44-4.69,2.36-7.26,2.78-2.57.43-5.21.38-7.78-.06-2.57-.44-5.07-1.41-7.24-2.87-2.18-1.46-4.02-3.4-5.4-5.62-1.38-2.22-2.31-4.73-2.73-7.31-.4-2.59-.33-5.25.23-7.8.56-2.56,1.64-5,3.13-7.15,1.49-2.15,3.4-4.01,5.6-5.43,2.2-1.42,4.66-2.41,7.22-2.93,2.56-.52,5.21-.53,7.78-.15,2.57.39,5.11,1.27,7.27,2.76,2.17,1.48,3.91,3.53,5.15,5.82,1.24,2.29,2.01,4.82,2.37,7.39.37,2.57.32,5.2-.17,7.75Zm-.42-.09c.49-2.49.51-5.08.14-7.6-.38-2.52-1.14-4.98-2.37-7.21-1.22-2.22-2.92-4.18-5.02-5.6-2.09-1.43-4.54-2.25-7.04-2.62-2.51-.36-5.08-.34-7.56.18-2.48.51-4.86,1.48-6.98,2.86-2.12,1.38-3.96,3.18-5.39,5.26-1.43,2.08-2.46,4.43-3,6.9-.53,2.47-.62,5.03-.24,7.53.4,2.49,1.28,4.91,2.6,7.06,1.32,2.15,3.09,4.02,5.18,5.43,2.09,1.42,4.49,2.36,6.98,2.8,2.5.44,5.07.51,7.57.11,2.5-.4,4.93-1.27,7.06-2.65,2.13-1.38,3.93-3.24,5.28-5.39,1.35-2.15,2.26-4.57,2.78-7.06Z"/>
              </g>
              <path class="cls-3" d="m57.95,100.86c.67-.07,1.34-.02,2,.03.66.06,1.33.14,1.98.25,1.32.21,2.61.5,3.9.83,1.28.35,2.56.76,3.79,1.25,1.24.5,2.46,1.06,3.56,1.82-1.24-.48-2.49-.88-3.75-1.27-1.26-.38-2.52-.75-3.79-1.08-1.27-.35-2.55-.67-3.82-.99-.64-.16-1.28-.32-1.92-.46-.64-.15-1.29-.3-1.94-.39Z"/>
              <path class="cls-3" d="m123.54,135.32c.35-.09.75-.02,1.07.18.32.2.55.54.6.9-.25-.27-.47-.5-.75-.67-.27-.18-.57-.29-.92-.42Z"/>
              <path class="cls-3" d="m83.99,110.62c.49.91.69,1.94.75,2.97.05,1.03-.03,2.06-.19,3.07-.33,2.02-.93,4-1.76,5.88-.43.94-.87,1.86-1.51,2.72-.64.84-1.38,1.57-2.18,2.23-1.6,1.32-3.42,2.36-5.36,3.1-3.88,1.49-8.14,1.79-12.22,1.23-2.05-.29-4.03-.8-6-1.35-1.97-.56-3.9-1.26-5.78-2.07-1.88-.82-3.71-1.77-5.44-2.86-.87-.55-1.71-1.14-2.52-1.77-.2-.16-.41-.31-.6-.48-.2-.16-.4-.34-.57-.47-.37-.27-.81-.48-1.26-.63-.91-.29-1.92-.37-2.82-.1-.22.07-.44.16-.64.28-.2.11-.38.26-.58.42-.38.32-.74.66-1.08,1.03-1.35,1.46-2.39,3.24-2.96,5.15-.27.96-.43,1.96-.31,2.94.06.49.19.96.48,1.33.28.38.7.64,1.15.85.9.42,1.9.69,2.79,1.26.44.28.85.63,1.19,1.04.31.37.68.73,1.04,1.08,1.46,1.39,3.05,2.65,4.68,3.85,1.64,1.19,3.32,2.3,5.06,3.35,3.46,2.09,7.11,3.85,10.86,5.34,3.76,1.46,7.64,2.6,11.6,3.35,1.97.39,3.97.64,5.98.82,2,.18,4.02.23,6.04.25,4.02,0,8.06-.28,11.97-1.14,3.91-.83,7.71-2.22,11.13-4.29,3.42-2.06,6.42-4.8,8.91-7.95,1.25-1.57,2.39-3.24,3.41-4.97,1.02-1.74,1.96-3.53,2.79-5.37.83-1.84,1.58-3.72,2.31-5.62.37-.95.77-1.89,1.25-2.79.48-.9,1.07-1.75,1.73-2.52l.09.07c-.62.8-1.15,1.66-1.59,2.57-.44.91-.8,1.85-1.14,2.81-.65,1.91-1.33,3.85-2.13,5.72-.78,1.88-1.68,3.72-2.67,5.51-.26.44-.49.9-.76,1.33l-.81,1.31-.86,1.27c-.29.42-.61.82-.91,1.24-2.49,3.26-5.53,6.14-9.03,8.33-3.5,2.21-7.43,3.66-11.44,4.54-4.02.88-8.14,1.18-12.23,1.14-2.05-.04-4.08-.11-6.13-.31-2.04-.2-4.07-.48-6.08-.89-4.02-.79-7.94-2.02-11.73-3.56-3.78-1.55-7.41-3.46-10.85-5.64-3.44-2.18-6.72-4.63-9.69-7.43-.37-.36-.73-.71-1.06-1.12-.31-.38-.68-.7-1.09-.97-.83-.54-1.8-.82-2.74-1.26-.47-.22-.93-.52-1.27-.95-.34-.44-.49-.98-.55-1.49-.13-1.05.03-2.09.31-3.08.57-1.98,1.61-3.82,2.97-5.36.34-.39.71-.75,1.1-1.1.19-.17.4-.35.64-.49.23-.14.49-.26.74-.34,1.04-.34,2.15-.28,3.18.02.51.15,1.01.37,1.47.69.24.17.42.32.62.48.19.16.4.3.6.45.81.59,1.64,1.15,2.51,1.66,1.72,1.03,3.54,1.9,5.39,2.67,1.86.77,3.76,1.41,5.7,1.97.97.27,1.94.53,2.92.75.98.24,1.95.43,2.94.59,3.94.59,8.04.34,11.77-1.06,1.86-.7,3.64-1.64,5.2-2.87.78-.61,1.51-1.3,2.12-2.06.6-.76,1.06-1.66,1.5-2.56.84-1.82,1.52-3.73,1.92-5.7.2-.98.32-1.99.31-2.99-.02-1-.16-2.01-.59-2.92l.1-.05Z"/>
              <path class="cls-3" d="m89.95,108.59c2.57-.83,5.28-1.22,7.98-1.32,1.36-.05,2.71-.01,4.07.1,1.35.12,2.7.32,4.03.59,2.66.56,5.26,1.45,7.68,2.68,2.44,1.2,4.66,2.79,6.66,4.6-1.11-.77-2.19-1.56-3.37-2.21-.57-.36-1.17-.66-1.75-.98-.6-.29-1.19-.61-1.8-.87-1.21-.56-2.46-1.04-3.72-1.45-1.26-.42-2.55-.76-3.86-1.03-2.6-.56-5.27-.82-7.94-.84-1.34,0-2.67.05-4.01.17-1.34.11-2.67.3-3.99.57Z"/>
              <path class="cls-3" d="m89.52,117.78c.55-.18,1.13-.24,1.71-.3.58-.06,1.16-.08,1.74-.09,1.16,0,2.32.06,3.47.2,2.31.28,4.58.85,6.76,1.68,2.17.85,4.25,1.95,6.11,3.35,1.88,1.37,3.52,3.05,4.9,4.9-.82-.81-1.61-1.64-2.51-2.36-.87-.74-1.78-1.43-2.73-2.06-.47-.32-.96-.61-1.44-.91-.5-.28-.98-.57-1.5-.82-1.01-.52-2.04-1-3.11-1.4-2.12-.82-4.33-1.42-6.58-1.8-1.12-.19-2.26-.33-3.4-.41-1.14-.08-2.29-.13-3.43.03Z"/>
              <path class="cls-3" d="m85.43,127.31c.53-.09,1.07-.24,1.61-.28l.82-.06c.14,0,.27-.02.41-.02l.41.02c.55.02,1.1.04,1.64.14l.81.12c.27.05.53.12.8.18,2.13.51,4.16,1.44,5.99,2.64,1.82,1.23,3.45,2.73,4.76,4.49.66.88,1.22,1.82,1.71,2.8.21.5.45,1,.64,1.51l.49,1.56c-.69-2.07-1.73-4-3.06-5.69-1.33-1.69-2.94-3.17-4.74-4.35-1.79-1.2-3.77-2.11-5.85-2.68-.26-.07-.52-.15-.78-.21l-.8-.14c-.53-.12-1.07-.14-1.61-.19l-.4-.04c-.13,0-.27,0-.41,0h-.81c-.27,0-.54.07-.81.09l-.81.1Z"/>
              <path class="cls-3" d="m80.28,132.08c1.69-.26,3.43-.14,5.1.31,1.66.45,3.22,1.28,4.57,2.36,1.33,1.1,2.45,2.45,3.29,3.95.39.77.78,1.53,1.06,2.34l.22.6c.08.2.12.41.18.62.11.41.22.82.33,1.24-.31-.8-.52-1.62-.9-2.38-.31-.79-.73-1.53-1.14-2.26-.88-1.44-1.97-2.75-3.28-3.8-1.29-1.07-2.8-1.87-4.41-2.37-.81-.23-1.63-.43-2.48-.51-.84-.13-1.69-.1-2.54-.07Z"/>
              <path class="cls-3" d="m41.12,124.17c0,.51-.06,1.01-.12,1.52-.08.5-.18,1-.3,1.5-.25.99-.59,1.96-1.03,2.88-.45.92-1,1.8-1.65,2.58-.66.78-1.44,1.46-2.3,2.01.36-.36.77-.66,1.09-1.05.36-.35.66-.75.98-1.14.59-.81,1.11-1.67,1.54-2.57.44-.9.79-1.84,1.09-2.8.3-.96.54-1.94.7-2.94Z"/>
              <path class="cls-8" d="m64.13,43.53c.36-.42.7-.94,1.04-1.43.34-.49.69-.99,1.04-1.48.71-.97,1.46-1.93,2.23-2.86,1.54-1.86,3.2-3.64,4.98-5.3,1.78-1.66,3.66-3.21,5.64-4.65,1.98-1.43,4.05-2.73,6.19-3.92,4.26-2.38,8.73-4.58,13.52-5.66l1.79-.4c.6-.12,1.2-.22,1.81-.32,1.2-.21,2.42-.35,3.64-.45,1.21-.14,2.44-.14,3.65-.19,1.22,0,2.44.05,3.66.15l.03.34c-1.16.4-2.32.7-3.47,1.04l-1.72.5c-.29.09-.57.16-.86.24l-.85.26c-.57.17-1.14.35-1.7.5-.57.16-1.13.35-1.69.52-1.13.33-2.25.7-3.36,1.06-.56.16-1.12.36-1.67.55l-1.67.54c-.55.2-1.11.37-1.66.56-.56.17-1.11.37-1.66.56-2.22.73-4.41,1.58-6.53,2.6-2.12,1.01-4.19,2.13-6.18,3.39-2,1.24-3.94,2.59-5.79,4.06-1.86,1.46-3.63,3.04-5.31,4.72-.84.84-1.65,1.71-2.44,2.61-.4.45-.79.9-1.18,1.35-.4.45-.76.91-1.23,1.35l-.23-.25Z"/>
              <path class="cls-8" d="m49,70.68c-.47,1.66-1.44,3.17-2.6,4.46-1.16,1.3-2.52,2.4-3.94,3.38-2.85,1.97-6.05,3.24-9.18,4.53-3.15,1.28-6.33,2.41-9.46,3.65-1.57.61-3.13,1.24-4.64,1.97-1.5.74-3,1.55-4.17,2.75l-.11-.1c.55-.66,1.21-1.21,1.9-1.71.7-.48,1.42-.94,2.17-1.35,1.49-.83,3.02-1.55,4.56-2.25,3.09-1.38,6.22-2.66,9.28-4.06,1.53-.7,3.04-1.44,4.51-2.23,1.47-.79,2.92-1.6,4.33-2.46,2.81-1.72,5.49-3.72,7.22-6.64l.14.06Z"/>
              <path class="cls-8" d="m43.11,126.68c.94.2,1.75.58,2.55.91.79.35,1.58.68,2.34,1.03.39.17.77.34,1.14.54.38.18.75.38,1.12.59l1.13.59c.38.19.77.36,1.16.53.39.18.79.32,1.19.47.4.15.8.31,1.21.44l1.22.42,1.24.37c.82.28,1.67.47,2.51.7l2.55.6-.03.22c-.88-.04-1.76-.06-2.64-.14-.88-.09-1.76-.15-2.64-.28-1.76-.22-3.5-.62-5.23-1.11l-1.3-.38-1.29-.41c-.42-.16-.84-.33-1.26-.52-.41-.2-.8-.43-1.19-.67-.76-.5-1.49-1.05-2.14-1.68-.66-.63-1.23-1.32-1.78-2.04l.11-.2Z"/>
              <path class="cls-8" d="m68.22,133.7c.52-.3,1.02-.47,1.54-.6.51-.14,1.04-.07,1.56-.12.52-.05,1.04-.12,1.56-.2.52-.08,1.03-.2,1.54-.38l.06.1c-.43.35-.93.59-1.43.82-.51.22-1.03.4-1.56.55-.53.15-1.05.37-1.61.35-.28,0-.55-.03-.83-.09-.28-.06-.56-.14-.83-.32v-.11Z"/>
              <g>
                <path class="cls-14" d="m122,68c-.63-.25-1-.66-.75-1.3s1.03-1.25,1.66-.99c.63.25.94.97.69,1.6-.25.63-.97.94-1.6.69Z"/>
                <path class="cls-14" d="m109.76,95.44c-.63-.25-1-.66-.75-1.3s1.03-1.25,1.66-.99c.63.25.94.97.69,1.6-.25.63-.97.94-1.6.69Z"/>
                <path class="cls-14" d="m117.44,72.04c.44.49.58,1,.1,1.44-.49.44-1.42.64-1.85.15-.44-.49-.4-1.24.08-1.67.49-.44,1.24-.4,1.67.08Z"/>
                <path class="cls-14" d="m100.27,74.18c-1.09.04-1.9-.33-1.94-1.42-.04-1.09.71-2.5,1.8-2.53,1.09-.04,2.01.82,2.05,1.91.04,1.09-.82,2.01-1.91,2.05Z"/>
                <path class="cls-14" d="m111.07,73.21c-.31.41-.69.59-1.1.27s-.69-1.01-.38-1.41.9-.48,1.31-.17c.41.31.48.9.17,1.31Z"/>
                <path class="cls-14" d="m107.16,89.75c-.75.11-1.34-.08-1.45-.83-.11-.75.29-1.78,1.05-1.89.75-.11,1.45.41,1.56,1.16.11.75-.41,1.45-1.16,1.56Z"/>
                <path class="cls-14" d="m111.91,85.77c-.46.04-.81-.1-.85-.56-.04-.46.25-1.07.71-1.11.46-.04.87.3.91.77.04.46-.3.87-.77.91Z"/>
                <path class="cls-14" d="m122.18,91.06c-.46.04-.81-.1-.85-.56-.04-.46.25-1.07.71-1.11.46-.04.87.3.91.77.04.46-.3.87-.77.91Z"/>
                <path class="cls-14" d="m124.01,85.06c-.23.89-.71,1.46-1.6,1.23-.89-.23-1.85-1.16-1.63-2.05.23-.89,1.13-1.43,2.02-1.21.89.23,1.43,1.13,1.21,2.02Z"/>
                <path class="cls-14" d="m115.72,91.6c-.91-.15-1.52-.58-1.37-1.5.15-.91.99-1.96,1.91-1.81.91.15,1.53,1.01,1.39,1.92-.15.91-1.01,1.53-1.92,1.39Z"/>
                <path class="cls-14" d="m130.14,75.83c.57,1.03.61,1.99-.43,2.56-1.03.57-2.75.54-3.32-.5-.57-1.03-.19-2.33.84-2.9,1.03-.57,2.33-.19,2.9.84Z"/>
                <path class="cls-14" d="m116.51,80.47c-.97.5-1.85.51-2.35-.46s-.43-2.56.54-3.06c.97-.5,2.16-.12,2.66.85.5.97.12,2.16-.85,2.66Z"/>
                <path class="cls-14" d="m123.42,74.77c.27.34.35.69,0,.96-.34.27-.97.37-1.24.03-.27-.34-.22-.84.12-1.11.34-.27.84-.22,1.11.12Z"/>
                <path class="cls-14" d="m129.97,82.85c.27.34.35.69,0,.96-.34.27-.97.37-1.24.03-.27-.34-.22-.84.12-1.11.34-.27.84-.22,1.11.12Z"/>
                <path class="cls-14" d="m109.96,79.52c.27.34.35.69,0,.96-.34.27-.97.37-1.24.03-.27-.34-.22-.84.12-1.11.34-.27.84-.22,1.11.12Z"/>
                <path class="cls-14" d="m106.54,75.24c.27.34.35.69,0,.96-.34.27-.97.37-1.24.03-.27-.34-.22-.84.12-1.11s.84-.22,1.11.12Z"/>
                <path class="cls-14" d="m115.57,65.24c-.51.07-.9-.06-.97-.57-.07-.51.21-1.2.72-1.27.51-.07.98.29,1.05.8.07.51-.29.98-.8,1.05Z"/>
                <path class="cls-14" d="m99.53,79.27c-.51.07-.9-.06-.97-.57-.07-.51.21-1.2.72-1.27.51-.07.98.29,1.05.8s-.29.98-.8,1.05Z"/>
                <path class="cls-14" d="m108.37,67.95c-.89-.03-1.52-.37-1.49-1.25.03-.89.71-1.98,1.59-1.95.89.03,1.58.77,1.55,1.65-.03.89-.77,1.58-1.65,1.55Z"/>
                <path class="cls-14" d="m104.4,79.87c.46.28.69.65.41,1.11-.28.46-.97.84-1.43.56-.46-.28-.61-.88-.33-1.34s.88-.61,1.34-.33Z"/>
              </g>
            </g>
            <g>
              <path class="cls-22" d="m66.77,173.03c1.45,2.83,5,4.96,6.92,5.58,4.09,1.32,18.18-11.92,9.89-22.59-13.11,8.05-16.82,17.01-16.82,17.01Z"/>
              <g>
                <path class="cls-2" d="m84.81,156.48c-1.48,10.57-6.96,16.42-10.33,19.16-.44.36-1.03.47-1.58.31-7.72-2.33-13.1-8.97-9.34-17.26,3.95-8.7,15.41-7.54,21.25-2.21Z"/>
                <g>
                  <path class="cls-18" d="m74.59,175.55c1.34-1.1,2.99-2.68,4.59-4.84-4.08-1.88-5.78-1.82-6.68-.35-.89,1.46-.12,3.62,2.09,5.19Z"/>
                  <path class="cls-18" d="m75.17,164.18c-.96,2.35,1.51,4.75,4.08,6.45,1.46-1.99,2.88-4.47,3.96-7.51-3.75-1.23-7.02-1.43-8.04,1.06Z"/>
                  <path class="cls-18" d="m79.38,158.14c-.8,2.01,1.92,3.71,3.86,4.89.68-1.92,1.22-4.05,1.56-6.43-1.77-.19-4.81,0-5.42,1.55Z"/>
                </g>
                <g>
                  <path class="cls-3" d="m79.18,170.72c-.53-.19-1.05-.4-1.58-.58-.53-.19-1.06-.35-1.6-.48-.54-.12-1.08-.22-1.62-.19-.53.01-1.04.2-1.39.56-.36.37-.61.86-.66,1.38-.07.52.03,1.06.23,1.56.2.51.49.98.84,1.4.34.44.75.82,1.18,1.18-.95-.59-1.8-1.41-2.29-2.47-.25-.52-.37-1.12-.32-1.71.05-.6.33-1.17.75-1.6.43-.44,1.06-.66,1.65-.65.59,0,1.16.11,1.7.27,1.09.33,2.11.8,3.1,1.34Z"/>
                  <path class="cls-3" d="m83.21,163.11c-1.38-.36-2.78-.7-4.19-.73-.7,0-1.41.04-2.05.29-.32.11-.61.29-.87.5-.12.12-.24.23-.34.36-.09.14-.21.26-.27.42-.33.59-.43,1.28-.28,1.95.16.66.52,1.27.93,1.83.42.56.92,1.07,1.45,1.54.52.48,1.09.92,1.66,1.35-1.23-.73-2.4-1.59-3.33-2.71-.47-.56-.85-1.21-1.04-1.93-.18-.73-.08-1.54.28-2.2.07-.17.21-.32.31-.47.12-.15.26-.28.4-.41.3-.23.63-.43.98-.55.71-.25,1.45-.31,2.17-.25.72.05,1.44.18,2.13.35.69.19,1.38.41,2.04.67Z"/>
                  <path class="cls-3" d="m84.8,156.59c-.53-.01-1.06,0-1.58.04-.52.04-1.04.11-1.55.23-.5.13-1,.29-1.41.56-.42.27-.73.64-.8,1.13-.09.47.04.96.3,1.39.25.44.61.81.98,1.17.38.36.8.68,1.22.99.42.32.86.61,1.29.92-.94-.48-1.87-1.01-2.7-1.69-.42-.34-.8-.74-1.1-1.21-.29-.47-.47-1.06-.36-1.64l.12-.41c.07-.13.12-.27.22-.38.09-.12.18-.23.3-.32.1-.1.22-.18.34-.25.48-.29,1.01-.45,1.54-.54,1.06-.18,2.14-.17,3.19.01Z"/>
                </g>
                <path class="cls-5" d="m64.49,157.03c-.34.51-.65,1.06-.92,1.66-3.76,8.29,1.62,14.93,9.34,17.26.55.17,1.14.05,1.58-.31.08-.06.16-.13.24-.19-6.35-1.89-14.08-12.04-10.23-18.42Z"/>
                <path class="cls-3" d="m84.8,156.55c-.25,3.84-1.48,7.62-3.31,11.02-.94,1.7-2.01,3.32-3.27,4.79-.63.74-1.3,1.44-2.02,2.08-.37.32-.74.63-1.14.9-.4.27-.82.54-1.3.64.45-.18.81-.5,1.17-.81.35-.32.69-.65,1.01-1,.65-.7,1.25-1.43,1.82-2.19,1.14-1.52,2.17-3.12,3.07-4.78.46-.83.88-1.68,1.27-2.54.4-.86.75-1.74,1.09-2.63.67-1.78,1.18-3.62,1.62-5.49Z"/>
                <path class="cls-3" d="m73.62,176.02c-.25.06-.5,0-.75-.04-.25-.06-.49-.13-.73-.2-.48-.15-.95-.32-1.42-.51-.93-.38-1.84-.83-2.7-1.36-1.71-1.07-3.26-2.48-4.35-4.23-1.12-1.73-1.7-3.8-1.68-5.87.02-2.08.62-4.1,1.56-5.92.96-1.83,2.44-3.41,4.26-4.41,1.82-1,3.89-1.45,5.93-1.44,2.05,0,4.07.43,5.95,1.17,1.87.76,3.63,1.83,5.06,3.23-1.54-1.28-3.31-2.25-5.19-2.89-1.87-.65-3.85-.98-5.81-.93-1.96.06-3.91.51-5.6,1.48-1.69.95-3.06,2.41-3.95,4.14-.9,1.72-1.47,3.65-1.51,5.59-.05,1.94.47,3.88,1.47,5.56.99,1.68,2.42,3.11,4.05,4.23.81.57,1.68,1.06,2.58,1.49.45.21.91.4,1.38.58.23.09.47.18.7.25.24.07.48.14.73.1Z"/>
                <g class="cls-27">
                  <path class="cls-8" d="m77.14,154.87c.12-.19.14-.39-.04-.61-.06-.09-.11-.17-.2-.24-.09-.08-.18-.14-.28-.19-.42-.22-.99-.3-1.65-.29-1.32.02-2.93.45-4.23.88-1.31.42-2.11.8-2.56,1.08-.43.32-.5.5-.25.82.32.4.56.5.94.37.4-.1,1.01-.45,2.2-.63,1.19-.19,2.68-.01,3.82,0,.57,0,1.07-.04,1.42-.22.19-.09.31-.21.44-.38.07-.17.25-.36.4-.6Z"/>
                </g>
              </g>
            </g>
            <g>
              <path class="cls-22" d="m161.14,159.89c-3.38.47-8.72-.12-15.63-5.2-9.15,9.94,3.69,23.66,7.98,23.34,11.32-.84,11.7-9.34,11.7-14.53l-4.05-3.6Z"/>
              <g>
                <path class="cls-2" d="m144.25,155.05c.59,10.66,5.56,16.95,8.7,19.96.41.39.99.56,1.55.44,7.88-1.68,13.8-7.85,10.74-16.43-3.21-9-14.73-8.8-20.99-3.97Z"/>
                <g>
                  <path class="cls-18" d="m152.85,174.9c-1.24-1.21-2.76-2.92-4.17-5.2,4.22-1.53,5.91-1.33,6.69.2.76,1.53-.18,3.62-2.52,5Z"/>
                  <path class="cls-18" d="m153.22,163.52c.76,2.43-1.9,4.61-4.6,6.09-1.29-2.11-2.5-4.7-3.32-7.82,3.84-.92,7.11-.84,7.92,1.73Z"/>
                  <path class="cls-18" d="m149.53,157.15c.63,2.07-2.23,3.54-4.26,4.55-.51-1.97-.88-4.14-1.02-6.54,1.78-.04,4.79.41,5.27,1.99Z"/>
                </g>
                <g>
                  <path class="cls-3" d="m148.68,169.7c1.03-.45,2.09-.83,3.2-1.07.56-.12,1.13-.18,1.72-.12.58.05,1.19.32,1.59.79.37.47.61,1.06.61,1.66,0,.6-.17,1.18-.46,1.68-.57,1.01-1.49,1.76-2.49,2.27.46-.32.9-.67,1.28-1.08.39-.4.72-.84.96-1.33.24-.49.39-1.01.36-1.54,0-.52-.22-1.03-.54-1.43-.33-.39-.81-.62-1.34-.68-.53-.07-1.08-.02-1.63.06-.55.08-1.09.21-1.63.35-.54.13-1.08.29-1.62.44Z"/>
                  <path class="cls-3" d="m145.3,161.79c.69-.2,1.38-.36,2.09-.49.71-.11,1.43-.18,2.15-.17.72,0,1.46.13,2.15.44.34.15.65.37.94.63.13.14.26.28.36.44.09.17.21.32.27.5.3.69.34,1.5.1,2.22-.25.71-.68,1.32-1.2,1.84-1.02,1.04-2.26,1.8-3.55,2.43.61-.38,1.2-.77,1.76-1.21.57-.43,1.11-.89,1.57-1.42.46-.53.87-1.1,1.08-1.75.2-.65.16-1.35-.12-1.96-.05-.16-.16-.29-.23-.44-.09-.14-.21-.26-.31-.39-.24-.23-.51-.43-.83-.57-.62-.29-1.32-.4-2.01-.46-1.41-.09-2.83.13-4.23.38Z"/>
                  <path class="cls-3" d="m144.26,155.16c1.06-.09,2.13-.02,3.18.25.52.13,1.04.34,1.49.67.11.09.23.17.32.28.11.1.19.22.27.34.09.12.13.27.19.4l.09.42c.06.59-.16,1.16-.5,1.6-.34.45-.75.81-1.19,1.11-.89.61-1.85,1.06-2.83,1.46.45-.27.92-.53,1.36-.81.45-.27.89-.56,1.3-.88.4-.33.79-.67,1.08-1.09.29-.41.46-.88.41-1.36-.03-.5-.31-.89-.71-1.2-.39-.31-.87-.51-1.36-.67-.49-.16-1.01-.28-1.52-.36-.52-.09-1.04-.14-1.57-.17Z"/>
                </g>
                <path class="cls-5" d="m164.46,157.29c.3.54.56,1.11.78,1.73,3.06,8.58-2.86,14.74-10.74,16.43-.56.12-1.14-.04-1.55-.44-.07-.07-.15-.14-.22-.21,6.49-1.35,15.03-10.82,11.72-17.5Z"/>
                <path class="cls-3" d="m144.25,155.11c.27,1.9.64,3.77,1.15,5.6.26.91.53,1.82.86,2.71.32.89.66,1.78,1.05,2.64.76,1.74,1.65,3.42,2.66,5.02.51.8,1.05,1.58,1.63,2.33.29.37.6.74.92,1.08.33.34.67.68,1.1.9-.46-.14-.86-.45-1.24-.75-.37-.31-.72-.65-1.06-.99-.66-.7-1.28-1.46-1.84-2.25-1.13-1.57-2.07-3.28-2.86-5.05-1.55-3.54-2.45-7.41-2.38-11.26Z"/>
                <path class="cls-3" d="m153.78,175.44c.25.06.5.01.74-.04.24-.05.48-.12.72-.2.48-.14.95-.29,1.42-.47.93-.35,1.84-.77,2.69-1.27,1.72-.98,3.26-2.28,4.39-3.87,1.14-1.59,1.82-3.48,1.93-5.41.12-1.93-.29-3.9-1.04-5.69-.74-1.79-1.98-3.36-3.59-4.45-1.59-1.11-3.51-1.72-5.45-1.94-1.95-.21-3.95-.04-5.87.45-1.92.48-3.77,1.3-5.42,2.45,1.55-1.28,3.39-2.2,5.32-2.8,1.94-.59,3.99-.84,6.03-.67,2.03.16,4.06.78,5.79,1.93,1.73,1.14,3.08,2.84,3.88,4.75.78,1.9,1.21,3.96,1.06,6.03-.16,2.06-.91,4.08-2.16,5.71-1.23,1.65-2.89,2.93-4.68,3.85-.9.46-1.84.83-2.81,1.13-.48.15-.97.28-1.46.39-.24.05-.49.11-.74.14-.25.03-.51.06-.75-.02Z"/>
                <g class="cls-25">
                  <path class="cls-8" d="m152.04,154.08c-.1-.2-.1-.4.1-.6.07-.09.13-.16.22-.22.1-.07.19-.12.3-.17.44-.18,1.02-.22,1.67-.15,1.31.13,2.88.69,4.15,1.23,1.27.53,2.04.97,2.46,1.29.4.36.46.54.18.84-.35.38-.6.45-.97.29-.39-.14-.96-.54-2.14-.81-1.17-.29-2.67-.24-3.81-.32-.57-.05-1.06-.13-1.39-.34-.18-.11-.29-.23-.41-.41-.05-.18-.22-.38-.35-.63Z"/>
                </g>
              </g>
            </g>
          </g>
        </g>
      </g>
    </g>
  </g>
</svg>