<?xml version="1.0" encoding="UTF-8"?>
<svg id="Layer_2" data-name="Layer 2" xmlns="http://www.w3.org/2000/svg" viewBox="0 0 217.94 180">
  <defs>
    <style>
      .cls-1 {
        fill: #034ea2;
      }

      .cls-2 {
        fill: #001689;
      }

      .cls-3 {
        fill: #fff;
      }

      .cls-4 {
        fill: #ffb548;
      }

      .cls-5 {
        stroke: #fff;
        stroke-width: 6.5px;
      }

      .cls-5, .cls-6 {
        fill: none;
        stroke-linecap: round;
        stroke-linejoin: round;
      }

      .cls-7 {
        fill: #afeae6;
        fill-rule: evenodd;
      }

      .cls-6 {
        stroke: #001689;
        stroke-width: 1.69px;
      }
    </style>
  </defs>
  <g id="Layer_5" data-name="Layer 5">
    <g>
      <path class="cls-4" d="m134.08,180c-1.19,0-119.17-.49-133.12-83.48C-5.36,58.89,20.4,31.76,49.12,24.42c.96-.24,1.91-.46,2.85-.66,20.26-4.12,37.57,3.32,45.42,7.62,4.8-7.51,16.42-22.37,36.19-28.48.92-.28,1.86-.55,2.82-.79,28.72-7.34,64.34,4.09,76.85,40.14,27.59,79.5-75.68,136.55-76.73,137.12l-1.14.62h-1.3Z"/>
      <g>
        <path class="cls-3" d="m26.38,60.14c-.98-.04-1.81-.18-2.49-.43-.68-.25-1.26-.67-1.74-1.28,0,0-.04-.05-.1-.12-.06-.07-.11-.13-.15-.19s-.1-.13-.16-.22c-.06-.1-.11-.18-.15-.26-.04-.08-.07-.16-.1-.26-.03-.1-.04-.19-.04-.27,0-.39.31-.63.94-.72.34-.07.55-.1.65-.1.15,0,.27.04.35.12.08.08.23.23.43.45.21.22.48.45.81.68.55.37,1.1.56,1.67.56s1.05-.19,1.44-.56c.39-.37.59-.76.59-1.16,0-.13-.03-.27-.1-.4-.21-.42-.63-.78-1.25-1.08-.62-.3-1.32-.57-2.1-.81s-1.31-.44-1.58-.59c-.93-.53-1.4-1.36-1.4-2.51,0-.23.04-.54.13-.94.24-1.1.96-1.9,2.15-2.38.54-.21,1.16-.32,1.86-.32.61,0,1.18.07,1.73.22.55.15,1.06.42,1.54.8s.8.87.99,1.46c0,.04.01.1.01.17,0,.23-.18.45-.55.65-.32.17-.59.26-.81.26-.37,0-.73-.25-1.08-.75-.34-.48-.87-.72-1.61-.72s-1.26.23-1.58.68c-.14.2-.22.41-.22.62,0,.26.1.5.29.73.2.23.43.39.7.48,1.63.63,2.85,1.13,3.65,1.48.58.24,1,.62,1.27,1.15.27.52.4,1.11.4,1.75,0,.35-.05.72-.14,1.12-.16.75-.67,1.38-1.52,1.9-.85.51-1.74.77-2.66.77h-.06Z"/>
        <path class="cls-3" d="m31.37,51.08c.02-.2.17-.4.46-.59.29-.19.6-.29.92-.29.36,0,.65.14.89.42.04.05.07.11.11.19.03.08.07.14.1.19.03.04.08.06.14.06.1,0,.22-.05.36-.16.68-.53,1.45-.79,2.29-.79.34,0,.69.04,1.07.13,1.5.36,2.53,1.23,3.1,2.64.23.59.35,1.22.35,1.9,0,1.15-.25,2.12-.75,2.91-.5.79-1.2,1.34-2.09,1.66-.43.14-.94.22-1.51.22-.37,0-.69-.02-.96-.06-.16-.02-.44-.15-.84-.4-.39-.25-.68-.37-.87-.37-.05,0-.09.49-.13,1.46s-.06,1.62-.06,1.94c0,.36-.08.65-.22.86-.14.21-.39.33-.76.36-.09,0-.21.01-.38.01-.29,0-.52-.03-.71-.08-.18-.05-.32-.14-.4-.27-.08-.12-.13-.25-.16-.37-.02-.12-.04-.29-.04-.5,0-.11,0-.39,0-.86,0-.47,0-.88,0-1.23,0-4.07.03-7.07.09-8.99Zm4.93,6.37h.16c.72,0,1.26-.26,1.61-.77.36-.51.55-1.11.59-1.79v-.14c0-.64-.21-1.2-.64-1.67-.43-.47-.93-.73-1.51-.76h-.23c-.75,0-1.34.24-1.76.72-.42.48-.63,1.06-.63,1.74v.07c.02.84.24,1.48.65,1.93s1,.68,1.76.68Z"/>
        <path class="cls-3" d="m46.68,50.15h.01c.2,0,.35.11.45.32.1.22.14.39.14.51v.3c0,.37-.04.62-.12.76-.08.14-.3.28-.64.42-.13.06-.32.12-.55.19-.24.07-.42.13-.56.18-.14.05-.29.13-.45.23-.16.1-.28.24-.36.43-.08.18-.13.41-.15.69-.02.35-.05,1.05-.11,2.1-.05,1.06-.1,1.87-.14,2.44-.03.33-.15.54-.38.63-.32.09-.6.13-.85.13-.27,0-.5-.04-.71-.12-.16-.06-.31-.21-.43-.45-.12-.24-.19-.48-.2-.7-.03-1.1-.04-2.21-.04-3.33,0-.7,0-1.77.03-3.21,0-.4.16-.76.46-1.06s.63-.45.99-.45c.42,0,.76.19,1.01.56.04.05.07.11.09.18.02.07.04.16.06.26.02.1.03.17.04.21.57-.84,1.27-1.25,2.1-1.25.07,0,.17,0,.3.03Z"/>
        <path class="cls-3" d="m50.17,55.49c-.12,0-.19.07-.19.22,0,.16.06.36.19.58.53.83,1.28,1.24,2.26,1.24.29,0,.57-.03.84-.1.27-.07.57-.16.89-.28s.57-.2.76-.25c.14-.04.3-.06.46-.06.44,0,.76.22.95.65.07.14.1.29.1.43,0,.37-.22.68-.65.95-.91.59-1.95.88-3.1.88-.36,0-.72-.03-1.08-.09-1.86-.28-3.14-1.24-3.82-2.88-.25-.63-.37-1.25-.37-1.84,0-1.29.47-2.4,1.4-3.33.93-.93,2.17-1.4,3.72-1.4,1.43,0,2.62.54,3.57,1.63.27.32.51.81.74,1.47.1.24.14.58.14,1.01,0,.02,0,.05,0,.09,0,.04,0,.06,0,.07,0,.8-1.05,1.2-3.14,1.2-.51,0-1.18-.03-2.02-.09s-1.36-.09-1.56-.09h-.07Zm4.15-1.9s.07,0,.12-.02c.05-.01.08-.02.09-.02,0,0-.02-.04-.03-.09,0-.05-.02-.08-.04-.09-.45-.7-1.09-1.05-1.92-1.05-.47,0-.92.11-1.35.32-.43.22-.72.44-.87.68-.02.03-.04.11-.07.23.23.06.81.09,1.73.09.38,0,.84,0,1.4-.02.56-.01.87-.02.95-.02Z"/>
        <path class="cls-3" d="m67.36,54.96c0,.17.02.53.07,1.06.04.53.06.95.06,1.25,0,1.18-.31,1.92-.92,2.22-.13.06-.29.09-.46.09-.21,0-.4-.03-.56-.09-.18-.06-.33-.17-.45-.35-.12-.18-.19-.37-.21-.57l-.3.22c-.68.64-1.52.97-2.52.97-.27,0-.6-.03-.98-.1-1.41-.26-2.44-1.08-3.08-2.45-.36-.75-.53-1.49-.53-2.23,0-1.06.35-2,1.05-2.82s1.64-1.43,2.81-1.84c.3-.1.59-.14.87-.14.7,0,1.48.31,2.35.94.04.03.1.08.18.17.08.08.14.14.17.17.02-.37.14-.64.37-.84.23-.19.5-.29.81-.29.35,0,.65.12.91.35.26.23.39.55.39.95v3.36Zm-7.24.04c0,.79.2,1.41.61,1.85.41.45.97.67,1.68.67.79,0,1.4-.25,1.82-.75s.64-1.12.64-1.87-.23-1.38-.7-1.82c-.47-.43-1.02-.65-1.67-.65s-1.22.23-1.69.68c-.47.45-.71,1.08-.71,1.89Z"/>
        <path class="cls-3" d="m72.75,50.18c.15,0,.31,0,.46.03.15.02.29.04.4.06.11.02.24.06.39.13.15.07.26.11.32.14s.18.09.34.19c.16.1.25.16.29.18.03.02.14.09.32.22.18.12.28.19.29.2.08-.42.12-.91.12-1.46,0-.21,0-.53-.02-.96-.01-.43-.02-.74-.02-.94,0-.27,0-.47.01-.61,0-.26.11-.46.31-.59.2-.13.44-.2.73-.2s.55.06.8.17c.25.12.43.26.53.43.1.18.14.44.14.76,0,.17-.01.42-.04.73-.03.32-.04.53-.04.63v9.41c0,.52-.26.79-.79.81-.02,0-.09,0-.22,0-.12,0-.23,0-.32,0-.73,0-1.09-.17-1.09-.5,0-.24-.04-.36-.13-.36-.07,0-.18.07-.33.2-.67.59-1.47.88-2.41.88-.31,0-.61-.03-.89-.09-.78-.14-1.45-.44-2-.89s-.95-1.04-1.18-1.78c-.27-.87-.4-1.83-.4-2.85,0-.69.29-1.41.86-2.15.57-.74,1.19-1.23,1.87-1.48.63-.22,1.21-.33,1.73-.33Zm-1.92,4.79c0,.79.21,1.41.63,1.87.42.46.99.69,1.71.7h.01c.68,0,1.26-.25,1.73-.73.47-.49.71-1.1.71-1.83s-.24-1.35-.71-1.85c-.48-.5-1.05-.76-1.74-.76s-1.28.24-1.7.71c-.42.47-.63,1.11-.63,1.9Z"/>
        <path class="cls-3" d="m86.47,52.31c-.08-.04-.19-.06-.33-.06-.05,0-.13,0-.24,0s-.19,0-.24,0c-.27,0-.43-.06-.49-.17-.07-.17-.1-.33-.1-.46,0-.29.1-.55.31-.79.21-.24.46-.37.77-.41.37-.06.57-.34.62-.84,0-.02,0-.1.01-.25,0-.14.02-.24.02-.3,0-.05.02-.14.04-.27.02-.12.04-.22.06-.29.02-.07.06-.15.09-.24s.09-.17.14-.22c.06-.06.12-.11.19-.14.19-.11.48-.16.85-.16.21,0,.38.03.5.09.09,0,.16.04.21.09.05.05.09.13.12.22.02.1.04.18.05.26,0,.08.02.18.02.3,0,.12,0,.19,0,.22.05.68.13,1.08.25,1.19s.5.18,1.17.19h.03c.15,0,.28.02.38.04.1.02.19.03.27.04.08,0,.14.04.19.08.04.04.08.07.12.09.03.01.06.06.07.14.01.08.02.13.03.15,0,.02,0,.1.01.22s0,.21,0,.26c0,.39-.14.66-.4.79s-.6.2-1.04.2c-.09,0-.22,0-.39,0-.17,0-.3,0-.37,0-.13,0-.22.03-.25.08-.03.05-.05.21-.05.48,0,.07,0,.25,0,.55s0,.58,0,.83v1.4c0,.56,0,.98.03,1.25.03.35.17.52.43.52h.04c.8-.15,1.22-.23,1.25-.23.25,0,.44.08.58.23,0,0,.04.04.09.09.05.05.08.09.09.12,0,.02.02.07.04.15.02.08.03.17.03.29v.07c-.03.1-.06.21-.09.34-.03.13-.05.22-.07.26-.01.04-.04.1-.06.17-.03.07-.07.12-.13.16s-.13.07-.21.12c-.08.05-.19.11-.34.17-.48.2-.96.3-1.44.3-.57,0-1.08-.13-1.53-.4-.46-.26-.8-.67-1.03-1.2-.13-.32-.2-1.18-.2-2.59,0-.18,0-.45,0-.79,0-.35,0-.6,0-.76,0-1.03-.05-1.57-.14-1.61Z"/>
        <path class="cls-3" d="m93.77,59.52h-.13c-.06,0-.15,0-.29,0-.13,0-.23,0-.29,0-.49,0-.81-.22-.95-.65-.05-.14-.07-.32-.07-.53,0-.33,0-.81,0-1.46,0-.64,0-1.12,0-1.44,0-.26,0-.66,0-1.2,0-.54,0-.94,0-1.2,0-.34,0-.85,0-1.53,0-.68,0-1.2,0-1.54,0-.26,0-.65,0-1.16s0-.9,0-1.16c0-.36.09-.61.27-.76.18-.15.51-.23,1-.23.05,0,.13,0,.24,0s.19,0,.24,0c.22,0,.41.08.58.23s.25.34.26.56c.02.31.03.88.03,1.71s0,1.44.01,1.8c0,.07.03.11.09.14s.12.01.17-.04c.64-.61,1.45-.91,2.41-.91.54,0,1.04.11,1.51.34.47.23.84.55,1.13.97.37.54.6,1.13.7,1.77.1.64.15,1.5.15,2.59,0,.3,0,.75-.01,1.37,0,.62-.01,1.08-.01,1.38,0,.37-.12.63-.37.77-.25.14-.6.21-1.06.21-.16,0-.27-.02-.33-.06-.25,0-.45-.11-.59-.3-.14-.19-.22-.38-.23-.57-.03-.47-.04-1.18-.04-2.12,0-.26,0-.65,0-1.17,0-.52,0-.9,0-1.15,0-.56-.17-1-.52-1.32-.35-.32-.75-.48-1.21-.48-.39,0-.74.12-1.04.37-.3.25-.47.61-.52,1.08-.08.76-.16,2.33-.25,4.71-.03.63-.32.95-.88.95Z"/>
        <path class="cls-3" d="m104.14,55.49c-.12,0-.19.07-.19.22,0,.16.06.36.19.58.53.83,1.28,1.24,2.26,1.24.29,0,.57-.03.84-.1.27-.07.57-.16.89-.28s.57-.2.76-.25c.14-.04.3-.06.46-.06.44,0,.76.22.95.65.07.14.1.29.1.43,0,.37-.22.68-.65.95-.91.59-1.95.88-3.1.88-.36,0-.72-.03-1.08-.09-1.86-.28-3.14-1.24-3.82-2.88-.25-.63-.37-1.25-.37-1.84,0-1.29.47-2.4,1.4-3.33.93-.93,2.17-1.4,3.72-1.4,1.43,0,2.62.54,3.57,1.63.27.32.51.81.74,1.47.1.24.14.58.14,1.01,0,.02,0,.05,0,.09,0,.04,0,.06,0,.07,0,.8-1.05,1.2-3.14,1.2-.51,0-1.18-.03-2.02-.09s-1.36-.09-1.56-.09h-.07Zm4.15-1.9s.07,0,.12-.02c.05-.01.08-.02.09-.02,0,0-.02-.04-.03-.09,0-.05-.02-.08-.04-.09-.45-.7-1.09-1.05-1.92-1.05-.47,0-.92.11-1.35.32-.43.22-.72.44-.87.68-.02.03-.04.11-.07.23.23.06.81.09,1.73.09.38,0,.84,0,1.4-.02.56-.01.87-.02.95-.02Z"/>
        <path class="cls-3" d="m120.83,47.7v11.08c0,.19-.11.37-.32.54-.22.17-.52.25-.9.25-.36,0-.65-.07-.89-.22-.24-.14-.37-.36-.38-.65-.08-3.44-.12-6.65-.12-9.63v-1.38c0-.31.13-.55.39-.72.26-.17.56-.26.91-.26s.66.09.92.26c.26.17.39.41.39.72Z"/>
        <path class="cls-3" d="m126.38,50.12c1.23.06,2.32.53,3.26,1.41.95.88,1.42,2.01,1.42,3.37v.17c-.04,1.22-.52,2.29-1.44,3.21-.92.92-2.1,1.38-3.54,1.38-.03,0-.08,0-.14,0s-.11,0-.15,0c-1.19-.06-2.25-.52-3.18-1.38-.93-.86-1.4-1.95-1.4-3.26,0,0,0-.03,0-.06,0-.03,0-.05,0-.07,0-1.33.47-2.45,1.41-3.38s2.1-1.39,3.49-1.39h.26Zm-.27,7.34c.75,0,1.35-.26,1.81-.77.46-.51.68-1.11.68-1.79s-.23-1.27-.68-1.77c-.46-.49-1.01-.77-1.65-.81-.02,0-.05,0-.09,0-.04,0-.08,0-.09,0-.67,0-1.24.27-1.71.81-.47.54-.71,1.11-.73,1.72v.12c0,.65.23,1.24.7,1.76s.99.78,1.56.78c.09,0,.15,0,.19-.01h.01Z"/>
        <path class="cls-3" d="m136.46,59.54c-.56,0-.97-.13-1.25-.38-.27-.25-.51-.67-.7-1.26-.92-2.15-1.8-4.35-2.64-6.6-.04-.09-.06-.19-.06-.32,0-.2.08-.37.23-.49.15-.12.36-.19.61-.2.04,0,.1,0,.17,0,.08,0,.13,0,.16,0,.58,0,.96.09,1.14.26s.38.59.61,1.25c.38,1.18.95,2.66,1.73,4.42.24-.56.57-1.42.99-2.57s.75-2.02,1-2.59c.18-.41.42-.62.71-.63h.4c.43,0,.77.05,1,.16.24.11.35.31.35.61,0,.22-.05.46-.16.72-.54,1.42-1.34,3.4-2.39,5.92-.24.55-.49.95-.76,1.2-.26.25-.65.42-1.15.51Z"/>
        <path class="cls-3" d="m143.92,55.49c-.12,0-.19.07-.19.22,0,.16.06.36.19.58.53.83,1.28,1.24,2.26,1.24.29,0,.57-.03.84-.1.27-.07.57-.16.89-.28s.57-.2.76-.25c.14-.04.3-.06.46-.06.44,0,.76.22.95.65.07.14.1.29.1.43,0,.37-.22.68-.65.95-.91.59-1.95.88-3.1.88-.36,0-.72-.03-1.08-.09-1.86-.28-3.14-1.24-3.82-2.88-.25-.63-.37-1.25-.37-1.84,0-1.29.47-2.4,1.4-3.33.93-.93,2.17-1.4,3.72-1.4,1.43,0,2.62.54,3.57,1.63.27.32.51.81.74,1.47.1.24.14.58.14,1.01,0,.02,0,.05,0,.09,0,.04,0,.06,0,.07,0,.8-1.05,1.2-3.14,1.2-.51,0-1.18-.03-2.02-.09s-1.36-.09-1.56-.09h-.07Zm4.15-1.9s.07,0,.12-.02c.05-.01.08-.02.09-.02,0,0-.02-.04-.03-.09,0-.05-.02-.08-.04-.09-.45-.7-1.09-1.05-1.92-1.05-.47,0-.92.11-1.35.32-.43.22-.72.44-.87.68-.02.03-.04.11-.07.23.23.06.81.09,1.73.09.38,0,.84,0,1.4-.02.56-.01.87-.02.95-.02Z"/>
        <path class="cls-3" d="m163.71,51.26c.36-.41.74-.62,1.15-.62.5,0,.85.27,1.05.82.16.4.32.83.48,1.29.15.46.32.97.5,1.54.18.57.32,1.01.42,1.3.16-.31.32-.67.48-1.08.16-.41.28-.77.37-1.06.09-.29.2-.7.35-1.22.15-.52.25-.88.31-1.08.08-.27.26-.49.54-.66s.6-.26.96-.26c.21,0,.43.04.66.12.35.12.52.33.52.62,0,.18-.07.45-.2.79-.18.52-.44,1.26-.77,2.23-.33.97-.64,1.85-.92,2.63-.28.78-.56,1.52-.84,2.21-.17.46-.53.69-1.07.69-.17,0-.37-.02-.58-.07-.19-.05-.38-.15-.58-.32-.19-.16-.32-.34-.39-.52-.5-1.22-.95-2.58-1.34-4.09-.18.3-.34.63-.47,1s-.26.8-.4,1.29c-.13.49-.24.85-.32,1.07,0,.04-.03.11-.06.22-.03.11-.06.19-.07.22-.01.04-.04.11-.07.2-.03.1-.06.16-.09.19-.02.03-.06.09-.09.17-.04.08-.08.13-.11.17s-.08.08-.14.14-.12.1-.17.13-.12.06-.19.09c-.07.03-.15.05-.24.07-.12.03-.25.04-.36.04-.75,0-1.28-.52-1.6-1.56-.23-.76-.63-1.89-1.2-3.38-.57-1.49-.97-2.63-1.2-3.41v-.06c0-.12.06-.26.17-.43.11-.17.22-.28.32-.34.24-.12.49-.19.74-.19.36,0,.69.13.99.39.29.26.49.59.58.99.1.42.22.86.38,1.33.15.46.34.98.55,1.56.21.58.37,1.01.46,1.31.07-.21.18-.66.33-1.35.15-.69.32-1.31.5-1.87s.4-.99.65-1.28Z"/>
        <path class="cls-3" d="m175.26,49.04c-.29.27-.67.41-1.14.41s-.86-.14-1.16-.43c-.3-.28-.45-.65-.45-1.09,0-.35.16-.69.48-1.01.32-.32.66-.48,1.02-.48h.09c.43.03.81.17,1.12.42.32.25.48.61.48,1.08s-.14.81-.43,1.09Zm-2.42,5.93v-3.36c0-.38.12-.71.37-.97.24-.26.54-.39.89-.39s.65.13.92.38c.26.25.41.55.43.87.02.77.03,1.93.03,3.47v3.42c0,.44-.11.74-.32.89-.21.15-.62.23-1.23.24h-.01c-.71,0-1.07-.35-1.07-1.05,0-.16,0-.4,0-.72,0-.32,0-.56,0-.72,0-.23,0-.57,0-1.03,0-.46,0-.8,0-1.03Z"/>
        <path class="cls-3" d="m177.2,52.31c-.08-.04-.19-.06-.33-.06-.05,0-.13,0-.24,0s-.19,0-.24,0c-.27,0-.43-.06-.49-.17-.07-.17-.1-.33-.1-.46,0-.29.1-.55.31-.79.21-.24.46-.37.77-.41.37-.06.57-.34.62-.84,0-.02,0-.1.01-.25,0-.14.02-.24.02-.3,0-.05.02-.14.04-.27.02-.12.04-.22.06-.29.02-.07.06-.15.09-.24s.09-.17.14-.22c.06-.06.12-.11.19-.14.19-.11.48-.16.85-.16.21,0,.38.03.5.09.09,0,.16.04.21.09.05.05.09.13.12.22.02.1.04.18.05.26,0,.08.02.18.02.3,0,.12,0,.19,0,.22.05.68.13,1.08.25,1.19s.5.18,1.17.19h.03c.15,0,.28.02.38.04.1.02.19.03.27.04.08,0,.14.04.19.08.04.04.08.07.12.09.03.01.06.06.07.14.01.08.02.13.03.15,0,.02,0,.1.01.22s0,.21,0,.26c0,.39-.14.66-.4.79s-.6.2-1.04.2c-.09,0-.22,0-.39,0-.17,0-.3,0-.37,0-.13,0-.22.03-.25.08-.03.05-.05.21-.05.48,0,.07,0,.25,0,.55s0,.58,0,.83v1.4c0,.56,0,.98.03,1.25.03.35.17.52.43.52h.04c.8-.15,1.22-.23,1.25-.23.25,0,.44.08.58.23,0,0,.04.04.09.09.05.05.08.09.09.12,0,.02.02.07.04.15.02.08.03.17.03.29v.07c-.03.1-.06.21-.09.34-.03.13-.05.22-.07.26-.01.04-.04.1-.06.17-.03.07-.07.12-.13.16s-.13.07-.21.12c-.08.05-.19.11-.34.17-.48.2-.96.3-1.44.3-.57,0-1.08-.13-1.53-.4-.46-.26-.8-.67-1.03-1.2-.13-.32-.2-1.18-.2-2.59,0-.18,0-.45,0-.79,0-.35,0-.6,0-.76,0-1.03-.05-1.57-.14-1.61Z"/>
        <path class="cls-3" d="m184.5,59.52h-.13c-.06,0-.15,0-.29,0-.13,0-.23,0-.29,0-.49,0-.81-.22-.95-.65-.05-.14-.07-.32-.07-.53,0-.33,0-.81,0-1.46,0-.64,0-1.12,0-1.44,0-.26,0-.66,0-1.2,0-.54,0-.94,0-1.2,0-.34,0-.85,0-1.53,0-.68,0-1.2,0-1.54,0-.26,0-.65,0-1.16s0-.9,0-1.16c0-.36.09-.61.27-.76.18-.15.51-.23,1-.23.05,0,.13,0,.24,0s.19,0,.24,0c.22,0,.41.08.58.23s.25.34.26.56c.02.31.03.88.03,1.71s0,1.44.01,1.8c0,.07.03.11.09.14s.12.01.17-.04c.64-.61,1.45-.91,2.41-.91.54,0,1.04.11,1.51.34.47.23.84.55,1.13.97.37.54.6,1.13.7,1.77.1.64.15,1.5.15,2.59,0,.3,0,.75-.01,1.37,0,.62-.01,1.08-.01,1.38,0,.37-.12.63-.37.77-.25.14-.6.21-1.06.21-.16,0-.27-.02-.33-.06-.25,0-.45-.11-.59-.3-.14-.19-.22-.38-.23-.57-.03-.47-.04-1.18-.04-2.12,0-.26,0-.65,0-1.17,0-.52,0-.9,0-1.15,0-.56-.17-1-.52-1.32-.35-.32-.75-.48-1.21-.48-.39,0-.74.12-1.04.37-.3.25-.47.61-.52,1.08-.08.76-.16,2.33-.25,4.71-.03.63-.32.95-.88.95Z"/>
      </g>
      <g>
        <g>
          <g>
            <path class="cls-5" d="m149.05,162.21l-1.5,1.53v5.71h-5.44v-20.61h5.44v6.4l6.97-6.89,4.35,3.99-5.66,5.71,6.94,8.31-4.54,4.02-6.56-8.17Z"/>
            <path class="cls-5" d="m163.72,153.5c-.5-.28-.91-.67-1.23-1.16-.32-.49-.48-1.02-.48-1.58,0-.88.33-1.6,1-2.19.67-.58,1.46-.87,2.39-.87.87,0,1.58.26,2.12.79.54.53.81,1.23.81,2.11,0,.97-.29,1.76-.88,2.39s-1.31.94-2.19.94c-.53,0-1.04-.14-1.54-.42Zm-1.43,1.46h5.71v14.49h-5.28l-.44-14.49Z"/>
            <path class="cls-5" d="m181.7,150.1c2,1,3.6,2.37,4.82,4.11,1.22,1.74,1.83,3.68,1.83,5.81,0,3.26-1.18,5.7-3.55,7.3s-5.56,2.41-9.57,2.41c-1.6,0-3.19-.09-4.76-.27l.22-19.82c.84-.36,1.63-.63,2.36-.79s1.53-.25,2.36-.25c2.19,0,4.28.5,6.27,1.5Zm.72,9.08c0-.93-.26-1.74-.78-2.43-.52-.69-1.19-1.22-2.02-1.6-.83-.37-1.68-.56-2.56-.56-.46,0-.84.04-1.15.11v9.27c4.34.09,6.51-1.5,6.51-4.78Z"/>
            <path class="cls-5" d="m192.49,168.78c-1.48-.65-2.69-1.51-3.64-2.58l3.69-4.04c.58.66,1.27,1.17,2.06,1.54.79.37,1.59.56,2.39.56.73,0,1.32-.14,1.78-.41.46-.27.68-.59.68-.96s-.22-.63-.66-.79c-.44-.16-1-.25-1.69-.25-1.35,0-2.59-.28-3.73-.85-1.14-.56-2.05-1.34-2.73-2.34-.68-.99-1.02-2.11-1.02-3.35s.36-2.42,1.07-3.44c.71-1.02,1.67-1.82,2.87-2.41,1.2-.58,2.51-.88,3.94-.88s2.84.28,4.21.83c1.37.56,2.57,1.35,3.61,2.39l-3.09,4.18c-1.71-1.26-3.33-1.89-4.87-1.89-.67,0-1.26.12-1.75.36-.49.24-.74.52-.74.85,0,.35.29.61.88.78.58.17,1.27.26,2.08.26,1.46,0,2.76.23,3.91.68,1.15.46,2.05,1.13,2.71,2.02.66.89.98,1.98.98,3.25,0,1.37-.39,2.62-1.16,3.76-.78,1.14-1.81,2.04-3.1,2.69-1.29.66-2.7.98-4.21.98s-2.98-.32-4.46-.97Z"/>
          </g>
          <g>
            <path class="cls-6" d="m149.05,162.21l-1.5,1.53v5.71h-5.44v-20.61h5.44v6.4l6.97-6.89,4.35,3.99-5.66,5.71,6.94,8.31-4.54,4.02-6.56-8.17Z"/>
            <path class="cls-6" d="m163.72,153.5c-.5-.28-.91-.67-1.23-1.16-.32-.49-.48-1.02-.48-1.58,0-.88.33-1.6,1-2.19.67-.58,1.46-.87,2.39-.87.87,0,1.58.26,2.12.79.54.53.81,1.23.81,2.11,0,.97-.29,1.76-.88,2.39s-1.31.94-2.19.94c-.53,0-1.04-.14-1.54-.42Zm-1.43,1.46h5.71v14.49h-5.28l-.44-14.49Z"/>
            <path class="cls-6" d="m181.7,150.1c2,1,3.6,2.37,4.82,4.11,1.22,1.74,1.83,3.68,1.83,5.81,0,3.26-1.18,5.7-3.55,7.3s-5.56,2.41-9.57,2.41c-1.6,0-3.19-.09-4.76-.27l.22-19.82c.84-.36,1.63-.63,2.36-.79s1.53-.25,2.36-.25c2.19,0,4.28.5,6.27,1.5Zm.72,9.08c0-.93-.26-1.74-.78-2.43-.52-.69-1.19-1.22-2.02-1.6-.83-.37-1.68-.56-2.56-.56-.46,0-.84.04-1.15.11v9.27c4.34.09,6.51-1.5,6.51-4.78Z"/>
            <path class="cls-6" d="m192.49,168.78c-1.48-.65-2.69-1.51-3.64-2.58l3.69-4.04c.58.66,1.27,1.17,2.06,1.54.79.37,1.59.56,2.39.56.73,0,1.32-.14,1.78-.41.46-.27.68-.59.68-.96s-.22-.63-.66-.79c-.44-.16-1-.25-1.69-.25-1.35,0-2.59-.28-3.73-.85-1.14-.56-2.05-1.34-2.73-2.34-.68-.99-1.02-2.11-1.02-3.35s.36-2.42,1.07-3.44c.71-1.02,1.67-1.82,2.87-2.41,1.2-.58,2.51-.88,3.94-.88s2.84.28,4.21.83c1.37.56,2.57,1.35,3.61,2.39l-3.09,4.18c-1.71-1.26-3.33-1.89-4.87-1.89-.67,0-1.26.12-1.75.36-.49.24-.74.52-.74.85,0,.35.29.61.88.78.58.17,1.27.26,2.08.26,1.46,0,2.76.23,3.91.68,1.15.46,2.05,1.13,2.71,2.02.66.89.98,1.98.98,3.25,0,1.37-.39,2.62-1.16,3.76-.78,1.14-1.81,2.04-3.1,2.69-1.29.66-2.7.98-4.21.98s-2.98-.32-4.46-.97Z"/>
          </g>
          <g>
            <path class="cls-7" d="m149.05,162.21l-1.5,1.53v5.71h-5.44v-20.61h5.44v6.4l6.97-6.89,4.35,3.99-5.66,5.71,6.94,8.31-4.54,4.02-6.56-8.17Z"/>
            <path class="cls-7" d="m163.72,153.5c-.5-.28-.91-.67-1.23-1.16-.32-.49-.48-1.02-.48-1.58,0-.88.33-1.6,1-2.19.67-.58,1.46-.87,2.39-.87.87,0,1.58.26,2.12.79.54.53.81,1.23.81,2.11,0,.97-.29,1.76-.88,2.39s-1.31.94-2.19.94c-.53,0-1.04-.14-1.54-.42Zm-1.43,1.46h5.71v14.49h-5.28l-.44-14.49Z"/>
            <path class="cls-7" d="m181.7,150.1c2,1,3.6,2.37,4.82,4.11,1.22,1.74,1.83,3.68,1.83,5.81,0,3.26-1.18,5.7-3.55,7.3s-5.56,2.41-9.57,2.41c-1.6,0-3.19-.09-4.76-.27l.22-19.82c.84-.36,1.63-.63,2.36-.79s1.53-.25,2.36-.25c2.19,0,4.28.5,6.27,1.5Zm.72,9.08c0-.93-.26-1.74-.78-2.43-.52-.69-1.19-1.22-2.02-1.6-.83-.37-1.68-.56-2.56-.56-.46,0-.84.04-1.15.11v9.27c4.34.09,6.51-1.5,6.51-4.78Z"/>
            <path class="cls-7" d="m192.49,168.78c-1.48-.65-2.69-1.51-3.64-2.58l3.69-4.04c.58.66,1.27,1.17,2.06,1.54.79.37,1.59.56,2.39.56.73,0,1.32-.14,1.78-.41.46-.27.68-.59.68-.96s-.22-.63-.66-.79c-.44-.16-1-.25-1.69-.25-1.35,0-2.59-.28-3.73-.85-1.14-.56-2.05-1.34-2.73-2.34-.68-.99-1.02-2.11-1.02-3.35s.36-2.42,1.07-3.44c.71-1.02,1.67-1.82,2.87-2.41,1.2-.58,2.51-.88,3.94-.88s2.84.28,4.21.83c1.37.56,2.57,1.35,3.61,2.39l-3.09,4.18c-1.71-1.26-3.33-1.89-4.87-1.89-.67,0-1.26.12-1.75.36-.49.24-.74.52-.74.85,0,.35.29.61.88.78.58.17,1.27.26,2.08.26,1.46,0,2.76.23,3.91.68,1.15.46,2.05,1.13,2.71,2.02.66.89.98,1.98.98,3.25,0,1.37-.39,2.62-1.16,3.76-.78,1.14-1.81,2.04-3.1,2.69-1.29.66-2.7.98-4.21.98s-2.98-.32-4.46-.97Z"/>
          </g>
        </g>
        <g>
          <g>
            <path class="cls-1" d="m74.16,124.72v14.81h-34.8v-56.42h14.81v41.61h19.99Z"/>
            <path class="cls-1" d="m80.12,95.96c-1.36-.76-2.47-1.81-3.33-3.15-.86-1.33-1.3-2.76-1.3-4.29,0-2.37.9-4.34,2.7-5.92,1.8-1.58,3.96-2.37,6.48-2.37,2.37,0,4.28.72,5.74,2.15,1.46,1.43,2.18,3.33,2.18,5.7,0,2.62-.79,4.78-2.37,6.48-1.58,1.7-3.55,2.55-5.92,2.55-1.43,0-2.83-.38-4.18-1.15Zm-3.89,3.96h15.47v39.24h-14.29l-1.18-39.24Z"/>
            <path class="cls-1" d="m148.49,114.65c0,3.6-.85,7.13-2.55,10.59-1.7,3.46-4.06,6.4-7.07,8.85s-6.39,4.06-10.14,4.85c-1.88.4-3.68.59-5.41.59-4.29,0-8.42-.96-12.36-2.89-3.95-1.92-7.32-4.61-10.11-8.07-2.79-3.45-4.65-7.35-5.59-11.7-.35-1.68-.52-3.48-.52-5.41,0-4.24.93-8.34,2.78-12.29,1.85-3.95,4.45-7.3,7.81-10.07,3.36-2.76,7.18-4.61,11.48-5.55,2.07-.39,4.12-.59,6.14-.59,3.41,0,6.7.48,9.88,1.44s5.79,2.36,7.81,4.18l-7.85,12.14c-1.09-1.04-2.51-1.84-4.26-2.41-1.75-.57-3.54-.85-5.37-.85-1.09,0-2.2.12-3.33.37-2.71.64-4.95,2.16-6.7,4.55-1.75,2.39-2.63,5.05-2.63,7.96,0,.79.07,1.6.22,2.44.69,3.06,2.17,5.59,4.44,7.59,2.27,2,4.84,3,7.7,3,.69,0,1.41-.07,2.15-.22,1.63-.34,3.22-1.01,4.78-2s2.5-2.1,2.85-3.33l-13.18-2.52,3.04-13.25,24.51,4.89c.99,2.32,1.48,4.89,1.48,7.7Z"/>
            <path class="cls-1" d="m163.82,135.86c-4.49-2.69-8.08-6.24-10.77-10.66-2.69-4.42-4.04-9.12-4.04-14.1s1.34-9.66,4.04-14.03c2.69-4.37,6.28-7.85,10.77-10.44,4.49-2.59,9.28-3.89,14.36-3.89s9.77,1.3,14.21,3.89,7.98,6.06,10.62,10.4c2.64,4.34,3.96,9.03,3.96,14.07s-1.32,9.83-3.96,14.25c-2.64,4.42-6.18,7.95-10.62,10.59s-9.18,3.96-14.21,3.96-9.87-1.34-14.36-4.04Zm21.14-12.62c2.2-1.23,3.95-2.91,5.26-5.04,1.31-2.12,1.96-4.49,1.96-7.11s-.66-4.89-1.96-6.96c-1.31-2.07-3.07-3.69-5.29-4.85-2.22-1.16-4.69-1.74-7.4-1.74-2.57,0-4.9.58-7,1.74-2.1,1.16-3.74,2.76-4.92,4.81-1.18,2.05-1.78,4.36-1.78,6.92s.6,5.07,1.81,7.22c1.21,2.15,2.86,3.83,4.96,5.03,2.1,1.21,4.48,1.81,7.14,1.81s5.02-.62,7.22-1.85Z"/>
          </g>
          <g>
            <path class="cls-3" d="m39.36,145.49c-3.29,0-5.96-2.67-5.96-5.96v-56.42c0-3.29,2.67-5.96,5.96-5.96h14.81c3.29,0,5.96,2.67,5.96,5.96v35.65h14.03c3.29,0,5.96,2.67,5.96,5.96v14.81c0,3.29-2.67,5.96-5.96,5.96h-34.8Z"/>
            <path class="cls-3" d="m77.42,145.12c-3.22,0-5.86-2.56-5.96-5.78l-1.18-39.24c-.05-1.51.48-2.98,1.47-4.11-1.47-2.29-2.22-4.81-2.22-7.48,0-4.09,1.64-7.69,4.73-10.4,2.87-2.52,6.47-3.85,10.41-3.85s7.35,1.33,9.91,3.85c2.6,2.56,3.97,6,3.97,9.95,0,3.02-.74,5.79-2.17,8.15.8,1.02,1.28,2.3,1.28,3.69v39.24c0,3.29-2.67,5.96-5.96,5.96h-14.29Z"/>
            <path class="cls-3" d="m123.32,145.49c-5.19,0-10.22-1.17-14.98-3.49-4.72-2.3-8.8-5.56-12.13-9.69-3.37-4.17-5.65-8.94-6.78-14.18-.44-2.12-.65-4.34-.65-6.66,0-5.1,1.12-10.09,3.34-14.82,2.22-4.74,5.39-8.83,9.42-12.14,4.08-3.36,8.79-5.64,13.99-6.77.05-.01.1-.02.16-.03,2.43-.46,4.87-.7,7.26-.7,3.97,0,7.88.57,11.61,1.7,4.01,1.21,7.41,3.05,10.08,5.46,2.17,1.96,2.6,5.2,1.01,7.66l-5.03,7.78,7.55,1.51c1.93.38,3.55,1.7,4.32,3.51,1.3,3.05,1.96,6.43,1.96,10.03,0,4.51-1.07,8.96-3.17,13.22-2.08,4.21-4.99,7.86-8.66,10.84-3.74,3.04-8,5.07-12.67,6.05-2.27.48-4.5.72-6.63.72Z"/>
            <path class="cls-3" d="m178.18,145.86c-6.16,0-12.02-1.64-17.43-4.88-5.31-3.18-9.62-7.44-12.8-12.67-3.25-5.34-4.9-11.13-4.9-17.2s1.66-11.85,4.92-17.16c3.2-5.2,7.53-9.4,12.87-12.48,5.39-3.11,11.22-4.68,17.34-4.68s11.87,1.58,17.22,4.7c5.29,3.08,9.56,7.27,12.71,12.45,3.21,5.27,4.83,11.05,4.83,17.16s-1.62,11.97-4.8,17.31c-3.14,5.26-7.42,9.51-12.7,12.65-5.36,3.18-11.16,4.8-17.26,4.8Zm-.67-42.35c-1.55,0-2.9.33-4.12,1-1.14.63-2.01,1.48-2.65,2.58-.66,1.14-.98,2.42-.98,3.94,0,1.64.34,3.04,1.05,4.29.68,1.21,1.58,2.13,2.74,2.8,1.19.69,2.55,1.02,4.17,1.02s3-.36,4.3-1.09c1.31-.74,2.33-1.71,3.1-2.97.72-1.17,1.08-2.48,1.08-3.98s-.34-2.67-1.04-3.78c-.74-1.18-1.73-2.08-3.01-2.75-1.37-.71-2.89-1.06-4.64-1.06Z"/>
          </g>
          <g>
            <path class="cls-2" d="m74.16,124.72v14.81h-34.8v-56.42h14.81v41.61h19.99Z"/>
            <path class="cls-2" d="m80.12,95.96c-1.36-.76-2.47-1.81-3.33-3.15-.86-1.33-1.3-2.76-1.3-4.29,0-2.37.9-4.34,2.7-5.92,1.8-1.58,3.96-2.37,6.48-2.37,2.37,0,4.28.72,5.74,2.15,1.46,1.43,2.18,3.33,2.18,5.7,0,2.62-.79,4.78-2.37,6.48-1.58,1.7-3.55,2.55-5.92,2.55-1.43,0-2.83-.38-4.18-1.15Zm-3.89,3.96h15.47v39.24h-14.29l-1.18-39.24Z"/>
            <path class="cls-2" d="m148.49,114.65c0,3.6-.85,7.13-2.55,10.59-1.7,3.46-4.06,6.4-7.07,8.85s-6.39,4.06-10.14,4.85c-1.88.4-3.68.59-5.41.59-4.29,0-8.42-.96-12.36-2.89-3.95-1.92-7.32-4.61-10.11-8.07-2.79-3.45-4.65-7.35-5.59-11.7-.35-1.68-.52-3.48-.52-5.41,0-4.24.93-8.34,2.78-12.29,1.85-3.95,4.45-7.3,7.81-10.07,3.36-2.76,7.18-4.61,11.48-5.55,2.07-.39,4.12-.59,6.14-.59,3.41,0,6.7.48,9.88,1.44s5.79,2.36,7.81,4.18l-7.85,12.14c-1.09-1.04-2.51-1.84-4.26-2.41-1.75-.57-3.54-.85-5.37-.85-1.09,0-2.2.12-3.33.37-2.71.64-4.95,2.16-6.7,4.55-1.75,2.39-2.63,5.05-2.63,7.96,0,.79.07,1.6.22,2.44.69,3.06,2.17,5.59,4.44,7.59,2.27,2,4.84,3,7.7,3,.69,0,1.41-.07,2.15-.22,1.63-.34,3.22-1.01,4.78-2s2.5-2.1,2.85-3.33l-13.18-2.52,3.04-13.25,24.51,4.89c.99,2.32,1.48,4.89,1.48,7.7Z"/>
            <path class="cls-2" d="m163.82,135.86c-4.49-2.69-8.08-6.24-10.77-10.66-2.69-4.42-4.04-9.12-4.04-14.1s1.34-9.66,4.04-14.03c2.69-4.37,6.28-7.85,10.77-10.44,4.49-2.59,9.28-3.89,14.36-3.89s9.77,1.3,14.21,3.89,7.98,6.06,10.62,10.4c2.64,4.34,3.96,9.03,3.96,14.07s-1.32,9.83-3.96,14.25c-2.64,4.42-6.18,7.95-10.62,10.59s-9.18,3.96-14.21,3.96-9.87-1.34-14.36-4.04Zm21.14-12.62c2.2-1.23,3.95-2.91,5.26-5.04,1.31-2.12,1.96-4.49,1.96-7.11s-.66-4.89-1.96-6.96c-1.31-2.07-3.07-3.69-5.29-4.85-2.22-1.16-4.69-1.74-7.4-1.74-2.57,0-4.9.58-7,1.74-2.1,1.16-3.74,2.76-4.92,4.81-1.18,2.05-1.78,4.36-1.78,6.92s.6,5.07,1.81,7.22c1.21,2.15,2.86,3.83,4.96,5.03,2.1,1.21,4.48,1.81,7.14,1.81s5.02-.62,7.22-1.85Z"/>
          </g>
        </g>
        <g>
          <g>
            <path class="cls-1" d="m196.71,144.92v-.58c-.24.19-.51.34-.85.46s-.67.17-1.02.17c-.55,0-1.05-.15-1.52-.45s-.83-.71-1.11-1.23c-.27-.51-.41-1.08-.41-1.69s.14-1.19.42-1.71.67-.92,1.16-1.21c.49-.29,1.04-.44,1.64-.44.32,0,.63.05.92.16.29.11.52.26.69.45v-.54h2.07l.29,6.61h-2.28Zm-.82-2.2c.2-.13.36-.31.47-.53s.17-.45.17-.7c0-.34-.11-.62-.33-.85-.22-.23-.5-.34-.83-.34-.37,0-.68.13-.96.39-.27.26-.41.56-.41.92,0,.22.06.43.18.64.12.21.28.37.47.5.2.12.4.19.6.19s.42-.07.62-.2Z"/>
            <path class="cls-1" d="m204.18,144.92v-3.49c0-.35-.1-.62-.31-.82-.21-.2-.49-.3-.85-.3-.59,0-1,.31-1.22.92l.05,3.67-2.34-.04-.17-9.98h2.37l.06,4.17c.25-.28.57-.51.97-.68.4-.17.8-.26,1.21-.26.76,0,1.37.28,1.82.83.45.56.68,1.31.69,2.25l.03,3.72h-2.3Z"/>
          </g>
          <g>
            <path class="cls-3" d="m194.85,146.83c-.91,0-1.76-.25-2.54-.76-.73-.47-1.31-1.12-1.74-1.91-.42-.79-.63-1.65-.63-2.57s.22-1.81.65-2.6c.44-.81,1.06-1.45,1.84-1.92.79-.47,1.66-.71,2.59-.71.38,0,.76.05,1.12.14.16-.04.32-.06.49-.06h2.07c1,0,1.82.79,1.86,1.78l.29,6.61c.02.51-.16,1-.52,1.37s-.84.57-1.35.57h-2.28c-.22,0-.43-.04-.63-.11-.41.11-.82.16-1.24.16Z"/>
            <path class="cls-3" d="m204.18,146.78c-.44,0-.85-.16-1.17-.41-.33.26-.73.4-1.16.4,0,0-2.37-.04-2.37-.04-1-.02-1.82-.83-1.83-1.83l-.17-9.98c0-.5.18-.98.53-1.34s.83-.56,1.33-.56h2.37c1.02,0,1.85.82,1.86,1.84l.02,1.4c.12,0,.24-.01.36-.01,1.33,0,2.46.53,3.27,1.52.73.89,1.1,2.04,1.11,3.42l.03,3.72c0,.5-.19.97-.54,1.33-.35.35-.83.55-1.32.55h-2.3Z"/>
          </g>
          <g>
            <path class="cls-2" d="m196.71,144.92v-.58c-.24.19-.51.34-.85.46s-.67.17-1.02.17c-.55,0-1.05-.15-1.52-.45s-.83-.71-1.11-1.23c-.27-.51-.41-1.08-.41-1.69s.14-1.19.42-1.71.67-.92,1.16-1.21c.49-.29,1.04-.44,1.64-.44.32,0,.63.05.92.16.29.11.52.26.69.45v-.54h2.07l.29,6.61h-2.28Zm-.82-2.2c.2-.13.36-.31.47-.53s.17-.45.17-.7c0-.34-.11-.62-.33-.85-.22-.23-.5-.34-.83-.34-.37,0-.68.13-.96.39-.27.26-.41.56-.41.92,0,.22.06.43.18.64.12.21.28.37.47.5.2.12.4.19.6.19s.42-.07.62-.2Z"/>
            <path class="cls-2" d="m204.18,144.92v-3.49c0-.35-.1-.62-.31-.82-.21-.2-.49-.3-.85-.3-.59,0-1,.31-1.22.92l.05,3.67-2.34-.04-.17-9.98h2.37l.06,4.17c.25-.28.57-.51.97-.68.4-.17.8-.26,1.21-.26.76,0,1.37.28,1.82.83.45.56.68,1.31.69,2.25l.03,3.72h-2.3Z"/>
          </g>
        </g>
        <g>
          <path class="cls-1" d="m205.24,72.18c1.1.68,1.95,1.59,2.56,2.72.61,1.13.88,2.34.79,3.63-.08,1.29-.51,2.49-1.28,3.6-.77,1.11-1.76,1.99-2.98,2.62-1.22.64-2.51.92-3.87.83-1.32-.08-2.51-.51-3.55-1.28-1.04-.77-1.84-1.74-2.4-2.92-.56-1.18-.79-2.4-.71-3.65.08-1.29.5-2.47,1.25-3.53.75-1.06,1.71-1.88,2.87-2.45,1.16-.57,2.37-.82,3.63-.74,1.36.09,2.59.47,3.69,1.16Zm-1.02,9.56c1.06-.89,1.64-2.01,1.73-3.37.08-1.26-.35-2.33-1.28-3.23-.93-.9-2.03-1.38-3.28-1.46-1.39-.09-2.54.24-3.44.98-.9.74-1.4,1.83-1.49,3.26-.09,1.39.26,2.56,1.06,3.5.79.94,1.83,1.45,3.12,1.53,1.33.08,2.52-.32,3.58-1.2Zm-1.96-2.53c.23.6.59.91,1.07.94l-.12,1.83c-.61-.04-1.18-.31-1.71-.8-.53-.49-.88-1.05-1.04-1.68h-.15s-.1,1.62-.1,1.62l-1.84-.12.39-6.12c.21-.12.5-.22.86-.28s.71-.08,1.05-.06c1.02.06,1.77.34,2.25.83.48.49.69,1.13.64,1.91-.06.88-.49,1.52-1.3,1.91Zm-1.01-1.75c.25-.12.38-.28.39-.49.01-.24-.05-.43-.19-.58-.14-.14-.34-.23-.57-.24-.14,0-.26,0-.36.03l-.09,1.43c.31.02.58-.03.83-.15Z"/>
          <path class="cls-3" d="m200.95,89.71c-.25,0-.5,0-.75-.02-2.11-.13-4.04-.83-5.72-2.07-1.59-1.17-2.83-2.67-3.68-4.47-.85-1.81-1.22-3.72-1.1-5.67.13-2.06.8-3.96,2-5.64,1.14-1.62,2.63-2.89,4.4-3.76,1.59-.79,3.27-1.18,4.99-1.18.24,0,.48,0,.72.02,2.04.13,3.92.73,5.6,1.77,1.71,1.06,3.06,2.5,4.01,4.26.98,1.82,1.41,3.79,1.28,5.85-.13,2.04-.8,3.95-2,5.68-1.15,1.66-2.65,2.98-4.45,3.93-1.66.87-3.44,1.31-5.29,1.31Z"/>
          <path class="cls-2" d="m205.24,72.18c1.1.68,1.95,1.59,2.56,2.72.61,1.13.88,2.34.79,3.63-.08,1.29-.51,2.49-1.28,3.6-.77,1.11-1.76,1.99-2.98,2.62-1.22.64-2.51.92-3.87.83-1.32-.08-2.51-.51-3.55-1.28-1.04-.77-1.84-1.74-2.4-2.92-.56-1.18-.79-2.4-.71-3.65.08-1.29.5-2.47,1.25-3.53.75-1.06,1.71-1.88,2.87-2.45,1.16-.57,2.37-.82,3.63-.74,1.36.09,2.59.47,3.69,1.16Zm-1.02,9.56c1.06-.89,1.64-2.01,1.73-3.37.08-1.26-.35-2.33-1.28-3.23-.93-.9-2.03-1.38-3.28-1.46-1.39-.09-2.54.24-3.44.98-.9.74-1.4,1.83-1.49,3.26-.09,1.39.26,2.56,1.06,3.5.79.94,1.83,1.45,3.12,1.53,1.33.08,2.52-.32,3.58-1.2Zm-1.96-2.53c.23.6.59.91,1.07.94l-.12,1.83c-.61-.04-1.18-.31-1.71-.8-.53-.49-.88-1.05-1.04-1.68h-.15s-.1,1.62-.1,1.62l-1.84-.12.39-6.12c.21-.12.5-.22.86-.28s.71-.08,1.05-.06c1.02.06,1.77.34,2.25.83.48.49.69,1.13.64,1.91-.06.88-.49,1.52-1.3,1.91Zm-1.01-1.75c.25-.12.38-.28.39-.49.01-.24-.05-.43-.19-.58-.14-.14-.34-.23-.57-.24-.14,0-.26,0-.36.03l-.09,1.43c.31.02.58-.03.83-.15Z"/>
        </g>
      </g>
    </g>
  </g>
</svg>