<svg viewBox="0 0 362.67 372.04" xmlns="http://www.w3.org/2000/svg" xmlns:xlink="http://www.w3.org/1999/xlink"><clipPath id="a"><path d="m0 0h362.67v372.04h-362.67z"/></clipPath><g clip-path="url(#a)" opacity=".37"><path d="m330.3 350.28c1.52-3.51 5.95-2.16 8.11.53.06-.06.12-.11.2-.15 1.78-.99 3.76-1.99 5.74-1.04 1.6.76 2.37 2.55 2.14 4.48-.49 4.14-7.31 8.76-10.69 7.17-3.01-1.41-7.54-6.27-5.49-10.99z" fill="#ffb548"/><path d="m283.7 330.55c-.28-6.49 7.48-7.71 12.77-5.21.05-.13.1-.26.19-.39 1.99-2.83 4.27-5.83 7.99-5.85 3.01-.02 5.51 2.13 6.59 5.25 2.33 6.69-4.65 18.81-11 18.9-5.65.08-16.17-3.98-16.55-12.7z" fill="#10cfc9"/><path d="m283.9 278.47c-1.13-3.16 2.52-4.95 5.51-4.52 0-.07.01-.14.04-.22.55-1.7 1.22-3.53 3.05-4.11 1.48-.47 3.05.21 4.06 1.59 2.17 2.95.57 10-2.55 11.01-2.78.9-8.59.51-10.11-3.75z" fill="#ffd9a4"/><path d="m357.75 208.51c.35-3.32 4.39-3.35 6.89-1.67.03-.06.07-.12.13-.18 1.23-1.29 2.61-2.64 4.5-2.37 1.53.22 2.64 1.5 2.95 3.17.67 3.58-3.8 9.2-7.03 8.76-2.88-.39-7.91-3.25-7.44-7.71z" fill="#ffb548"/><path d="m291.09 215.3c-.39-9.44 10.9-11.2 18.59-7.55.07-.19.15-.38.28-.56 2.9-4.11 6.22-8.47 11.63-8.5 4.37-.02 8.01 3.12 9.58 7.65 3.37 9.73-6.8 27.35-16.03 27.47-8.22.11-23.52-5.81-24.05-18.51z" fill="#dcf5f3"/><path d="m317.57 275.08c2.22-8.67 12.95-7.18 18.93-1.77.11-.15.24-.3.41-.43 3.76-2.94 7.95-5.99 12.87-4.53 3.97 1.17 6.41 5.02 6.6 9.56.4 9.75-13.65 22.95-22.05 20.53-7.48-2.15-19.75-11.7-16.76-23.36z" style="fill:none;stroke:#ffb548;stroke-dasharray:0 0 2.32 2.32;stroke-width:.45;stroke-linecap:round;stroke-linejoin:round"/><path d="m219.32 298.28c6.61-7.76 16.83-.88 20.24 7.65.19-.1.4-.19.63-.24 5.31-1.13 11.12-2.15 15.42 1.79 3.48 3.18 4.05 8.33 1.98 13.07-4.46 10.17-25.42 16.65-32.8 9.98-6.58-5.94-14.35-21.83-5.47-32.26z" fill="#ffb548"/><path d="m102.57 371.49c-1.13-3.16 2.52-4.95 5.51-4.52 0-.07.01-.14.04-.22.55-1.7 1.22-3.53 3.05-4.11 1.48-.47 3.05.21 4.06 1.59 2.17 2.95.57 10-2.55 11.01-2.78.9-8.59.51-10.11-3.75z" fill="#ffd9a4"/><path d="m176.42 301.52c.35-3.32 4.39-3.35 6.89-1.67.03-.06.07-.12.13-.18 1.23-1.29 2.61-2.64 4.5-2.37 1.53.22 2.64 1.5 2.95 3.17.67 3.58-3.8 9.2-7.03 8.76-2.88-.39-7.91-3.25-7.44-7.71z" fill="#ffb548"/><path d="m200.36 347.96c2.33 2.39-.23 5.51-3.12 6.36.03.07.05.13.06.21.2 1.77.36 3.69-1.06 4.97-1.15 1.04-2.84 1.06-4.32.24-3.18-1.77-4.64-8.8-2.24-11 2.14-1.96 7.56-4 10.69-.78z" fill="#92e3de"/><path d="m109.75 308.31c-.39-9.44 10.9-11.2 18.59-7.55.07-.19.15-.38.28-.56 2.9-4.11 6.22-8.47 11.63-8.5 4.37-.02 8.01 3.12 9.58 7.65 3.37 9.73-6.8 27.35-16.03 27.47-8.22.11-23.52-5.81-24.05-18.51z" fill="#dcf5f3"/><path d="m136.23 368.09c2.22-8.67 12.95-7.18 18.93-1.77.11-.15.24-.3.41-.43 3.76-2.94 7.95-5.99 12.87-4.53 3.97 1.17 6.41 5.02 6.6 9.56.4 9.75-13.65 22.95-22.05 20.53-7.48-2.15-19.75-11.7-16.76-23.36z" style="fill:none;stroke:#ffb548;stroke-dasharray:0 0 2.32 2.32;stroke-width:.45;stroke-linecap:round;stroke-linejoin:round"/><path d="m230.6 369.9c5.59-6.51 14.18-.67 17.02 6.52.16-.08.33-.16.54-.2 4.48-.93 9.38-1.77 12.99 1.57 2.92 2.7 3.38 7.03 1.61 11.02-3.8 8.55-21.47 13.93-27.67 8.28-5.52-5.03-12-18.44-4.48-27.19z" style="fill:none;stroke-linecap:round;stroke-linejoin:round;stroke:#10cfc9;stroke-dasharray:0 2.29;stroke-width:.46"/><path d="m37.99 205.27c6.61-7.76 16.83-.88 20.24 7.65.19-.1.4-.19.63-.24 5.31-1.13 11.12-2.15 15.42 1.79 3.48 3.18 4.05 8.33 1.98 13.07-4.46 10.17-25.42 16.65-32.8 9.98-6.58-5.94-14.35-21.83-5.47-32.26z" fill="#ffb548"/><path d="m2.17 314.31c3.45-7.94 13.46-4.87 18.33 1.21.13-.13.28-.25.46-.35 4.03-2.23 8.51-4.5 12.97-2.36 3.61 1.73 5.35 5.77 4.84 10.13-1.11 9.37-16.53 19.81-24.18 16.22-6.81-3.2-17.05-14.19-12.42-24.85z" fill="#ffd9a4"/><path d="m72.95 342.22c1.99 2.7-.99 5.46-3.98 5.91.02.07.03.14.03.22-.04 1.79-.15 3.73-1.74 4.81-1.28.88-2.98.67-4.34-.35-2.93-2.2-3.42-9.41-.73-11.28 2.4-1.66 8.08-2.96 10.76.68z" fill="#ffb548"/><path d="m-4.92 208.51c.35-3.32 4.39-3.35 6.89-1.67.03-.06.07-.12.13-.18 1.23-1.29 2.61-2.64 4.5-2.37 1.53.22 2.64 1.5 2.95 3.17.67 3.58-3.8 9.2-7.03 8.76-2.88-.39-7.91-3.25-7.44-7.71z" fill="#ffb548"/><path d="m19.02 254.95c2.33 2.39-.23 5.51-3.12 6.36.03.07.05.13.06.21.2 1.77.36 3.69-1.06 4.97-1.15 1.04-2.84 1.06-4.32.24-3.18-1.77-4.64-8.8-2.24-11 2.14-1.96 7.56-4 10.69-.78z" fill="#92e3de"/><path d="m49.26 276.89c5.59-6.51 14.18-.67 17.02 6.52.16-.08.33-.16.54-.2 4.48-.93 9.38-1.77 12.99 1.57 2.92 2.7 3.38 7.03 1.61 11.02-3.8 8.55-21.47 13.93-27.67 8.28-5.52-5.03-12-18.44-4.48-27.19z" style="fill:none;stroke-linecap:round;stroke-linejoin:round;stroke:#10cfc9;stroke-dasharray:0 2.29;stroke-width:.46"/><path d="m330.3 164.26c1.52-3.51 5.95-2.16 8.11.53.06-.06.12-.11.2-.15 1.78-.99 3.76-1.99 5.74-1.04 1.6.76 2.37 2.55 2.14 4.48-.49 4.14-7.31 8.76-10.69 7.17-3.01-1.41-7.54-6.27-5.49-10.99z" fill="#ffb548"/><path d="m283.7 144.53c-.28-6.49 7.48-7.71 12.77-5.21.05-.13.1-.26.19-.39 1.99-2.83 4.27-5.83 7.99-5.85 3.01-.02 5.51 2.13 6.59 5.25 2.33 6.69-4.65 18.81-11 18.9-5.65.08-16.17-3.98-16.55-12.7z" fill="#10cfc9"/><path d="m283.9 92.45c-1.13-3.16 2.52-4.95 5.51-4.52 0-.07.01-.14.04-.22.55-1.7 1.22-3.53 3.05-4.11 1.48-.47 3.05.21 4.06 1.59 2.17 2.95.57 10-2.55 11.01-2.78.9-8.59.51-10.11-3.75z" fill="#ffd9a4"/><path d="m357.75 22.49c.35-3.32 4.39-3.35 6.89-1.67.03-.06.07-.12.13-.18 1.23-1.29 2.61-2.64 4.5-2.37 1.53.22 2.64 1.5 2.95 3.17.67 3.58-3.8 9.2-7.03 8.76-2.88-.39-7.91-3.25-7.44-7.71z" fill="#ffb548"/><path d="m291.09 29.28c-.39-9.44 10.9-11.2 18.59-7.55.07-.19.15-.38.28-.56 2.9-4.11 6.22-8.47 11.63-8.5 4.37-.02 8.01 3.12 9.58 7.65 3.37 9.73-6.8 27.35-16.03 27.47-8.22.11-23.52-5.81-24.05-18.51z" fill="#dcf5f3"/><path d="m317.57 89.06c2.22-8.67 12.95-7.18 18.93-1.77.11-.15.24-.3.41-.43 3.76-2.94 7.95-5.99 12.87-4.53 3.97 1.17 6.41 5.02 6.6 9.56.4 9.75-13.65 22.95-22.05 20.53-7.48-2.15-19.75-11.7-16.76-23.36z" style="fill:none;stroke:#ffb548;stroke-dasharray:0 0 2.32 2.32;stroke-width:.45;stroke-linecap:round;stroke-linejoin:round"/><path d="m219.32 112.26c6.61-7.76 16.83-.88 20.24 7.65.19-.1.4-.19.63-.24 5.31-1.13 11.12-2.15 15.42 1.79 3.48 3.18 4.05 8.33 1.98 13.07-4.46 10.17-25.42 16.65-32.8 9.98-6.58-5.94-14.35-21.83-5.47-32.26z" fill="#ffb548"/><path d="m183.5 221.3c3.45-7.94 13.46-4.87 18.33 1.21.13-.13.28-.25.46-.35 4.03-2.23 8.51-4.5 12.97-2.36 3.61 1.73 5.35 5.77 4.84 10.13-1.11 9.37-16.53 19.81-24.18 16.22-6.81-3.2-17.05-14.19-12.42-24.85z" fill="#ffd9a4"/><path d="m148.97 257.27c1.52-3.51 5.95-2.16 8.11.53.06-.06.12-.11.2-.15 1.78-.99 3.76-1.99 5.74-1.04 1.6.76 2.37 2.55 2.14 4.48-.49 4.14-7.31 8.76-10.69 7.17-3.01-1.41-7.54-6.27-5.49-10.99z" fill="#ffb548"/><path d="m102.37 237.54c-.28-6.49 7.48-7.71 12.77-5.21.05-.13.1-.26.19-.39 1.99-2.83 4.27-5.83 7.99-5.85 3.01-.02 5.51 2.13 6.59 5.25 2.33 6.69-4.65 18.81-11 18.9-5.65.08-16.17-3.98-16.55-12.7z" fill="#10cfc9"/><path d="m254.28 249.21c1.99 2.7-.99 5.46-3.98 5.91.02.07.03.14.03.22-.04 1.79-.15 3.73-1.74 4.81-1.28.88-2.98.67-4.34-.35-2.93-2.2-3.42-9.41-.73-11.28 2.4-1.66 8.08-2.96 10.76.68z" fill="#ffb548"/><path d="m102.57 185.46c-1.13-3.16 2.52-4.95 5.51-4.52 0-.07.01-.14.04-.22.55-1.7 1.22-3.53 3.05-4.11 1.48-.47 3.05.21 4.06 1.59 2.17 2.95.57 10-2.55 11.01-2.78.9-8.59.51-10.11-3.75z" fill="#ffd9a4"/><path d="m176.42 115.5c.35-3.32 4.39-3.35 6.89-1.67.03-.06.07-.12.13-.18 1.23-1.29 2.61-2.64 4.5-2.37 1.53.22 2.64 1.5 2.95 3.17.67 3.58-3.8 9.2-7.03 8.76-2.88-.39-7.91-3.25-7.44-7.71z" fill="#ffb548"/><path d="m200.36 161.94c2.33 2.39-.23 5.51-3.12 6.36.03.07.05.13.06.21.2 1.77.36 3.69-1.06 4.97-1.15 1.04-2.84 1.06-4.32.24-3.18-1.77-4.64-8.8-2.24-11 2.14-1.96 7.56-4 10.69-.78z" fill="#92e3de"/><path d="m109.75 122.29c-.39-9.44 10.9-11.2 18.59-7.55.07-.19.15-.38.28-.56 2.9-4.11 6.22-8.47 11.63-8.5 4.37-.02 8.01 3.12 9.58 7.65 3.37 9.73-6.8 27.35-16.03 27.47-8.22.11-23.52-5.81-24.05-18.51z" fill="#dcf5f3"/><path d="m136.23 182.07c2.22-8.67 12.95-7.18 18.93-1.77.11-.15.24-.3.41-.43 3.76-2.94 7.95-5.99 12.87-4.53 3.97 1.17 6.41 5.02 6.6 9.56.4 9.75-13.65 22.95-22.05 20.53-7.48-2.15-19.75-11.7-16.76-23.36z" style="fill:none;stroke:#ffb548;stroke-dasharray:0 0 2.32 2.32;stroke-width:.45;stroke-linecap:round;stroke-linejoin:round"/><path d="m230.6 183.88c5.59-6.51 14.18-.67 17.02 6.52.16-.08.33-.16.54-.2 4.48-.93 9.38-1.77 12.99 1.57 2.92 2.7 3.38 7.03 1.61 11.02-3.8 8.55-21.47 13.93-27.67 8.28-5.52-5.03-12-18.44-4.48-27.19z" style="fill:none;stroke-linecap:round;stroke-linejoin:round;stroke:#10cfc9;stroke-dasharray:0 2.29;stroke-width:.46"/><path d="m37.99 19.25c6.61-7.76 16.83-.88 20.24 7.65.19-.1.4-.19.63-.24 5.31-1.13 11.12-2.15 15.42 1.79 3.48 3.18 4.05 8.33 1.98 13.07-4.46 10.17-25.42 16.65-32.8 9.98-6.58-5.94-14.35-21.83-5.47-32.26z" fill="#ffb548"/><path d="m2.17 128.29c3.45-7.94 13.46-4.87 18.33 1.21.13-.13.28-.25.46-.35 4.03-2.23 8.51-4.5 12.97-2.36 3.61 1.73 5.35 5.77 4.84 10.13-1.11 9.37-16.53 19.81-24.18 16.22-6.81-3.2-17.05-14.19-12.42-24.85z" fill="#ffd9a4"/><path d="m72.95 156.2c1.99 2.7-.99 5.46-3.98 5.91.02.07.03.14.03.22-.04 1.79-.15 3.73-1.74 4.81-1.28.88-2.98.67-4.34-.35-2.93-2.2-3.42-9.41-.73-11.28 2.4-1.66 8.08-2.96 10.76.68z" fill="#ffb548"/><path d="m-4.92 22.49c.35-3.32 4.39-3.35 6.89-1.67.03-.06.07-.12.13-.18 1.23-1.29 2.61-2.64 4.5-2.37 1.53.22 2.64 1.5 2.95 3.17.67 3.58-3.8 9.2-7.03 8.76-2.88-.39-7.91-3.25-7.44-7.71z" fill="#ffb548"/><path d="m19.02 68.93c2.33 2.39-.23 5.51-3.12 6.36.03.07.05.13.06.21.2 1.77.36 3.69-1.06 4.97-1.15 1.04-2.84 1.06-4.32.24-3.18-1.77-4.64-8.8-2.24-11 2.14-1.96 7.56-4 10.69-.78z" fill="#92e3de"/><path d="m49.26 90.87c5.59-6.51 14.18-.67 17.02 6.52.16-.08.33-.16.54-.2 4.48-.93 9.38-1.77 12.99 1.57 2.92 2.7 3.38 7.03 1.61 11.02-3.8 8.55-21.47 13.93-27.67 8.28-5.52-5.03-12-18.44-4.48-27.19z" style="fill:none;stroke-linecap:round;stroke-linejoin:round;stroke:#10cfc9;stroke-dasharray:0 2.29;stroke-width:.46"/><path d="m183.5 35.28c3.45-7.94 13.46-4.87 18.33 1.21.13-.13.28-.25.46-.35 4.03-2.23 8.51-4.5 12.97-2.36 3.61 1.73 5.35 5.77 4.84 10.13-1.11 9.37-16.53 19.81-24.18 16.22-6.81-3.2-17.05-14.19-12.42-24.85z" fill="#ffd9a4"/><path d="m148.97 71.25c1.52-3.51 5.95-2.16 8.11.53.06-.06.12-.11.2-.15 1.78-.99 3.76-1.99 5.74-1.04 1.6.76 2.37 2.55 2.14 4.48-.49 4.14-7.31 8.76-10.69 7.17-3.01-1.41-7.54-6.27-5.49-10.99z" fill="#ffb548"/><path d="m102.37 51.52c-.28-6.49 7.48-7.71 12.77-5.21.05-.13.1-.26.19-.39 1.99-2.83 4.27-5.83 7.99-5.85 3.01-.02 5.51 2.13 6.59 5.25 2.33 6.69-4.65 18.81-11 18.9-5.65.08-16.17-3.98-16.55-12.7z" fill="#10cfc9"/><path d="m254.28 63.19c1.99 2.7-.99 5.46-3.98 5.91.02.07.03.14.03.22-.04 1.79-.15 3.73-1.74 4.81-1.28.88-2.98.67-4.34-.35-2.93-2.2-3.42-9.41-.73-11.28 2.4-1.66 8.08-2.96 10.76.68z" fill="#ffb548"/><path d="m102.57-.56c-1.13-3.16 2.52-4.95 5.51-4.52 0-.07.01-.14.04-.22.55-1.7 1.22-3.53 3.05-4.11 1.48-.47 3.05.21 4.06 1.59 2.17 2.95.57 10-2.55 11.01-2.78.9-8.59.51-10.11-3.75z" fill="#ffd9a4"/><g fill="none" stroke-linecap="round" stroke-linejoin="round"><path d="m136.23-3.95c2.22-8.67 12.95-7.18 18.93-1.77.11-.15.24-.3.41-.43 3.76-2.94 7.95-5.99 12.87-4.53 3.97 1.17 6.41 5.02 6.6 9.56.4 9.75-13.65 22.95-22.05 20.53-7.48-2.15-19.75-11.7-16.76-23.36z" stroke="#ffb548" stroke-dasharray="0 0 2.32 2.32" stroke-width=".45"/><path d="m230.6-2.14c5.59-6.51 14.18-.67 17.02 6.52.16-.08.33-.16.54-.2 4.48-.93 9.38-1.77 12.99 1.57 2.92 2.7 3.38 7.03 1.61 11.02-3.8 8.55-21.47 13.93-27.67 8.28-5.52-5.03-12-18.44-4.48-27.19z" stroke="#10cfc9" stroke-dasharray="0 2.29" stroke-width=".46"/></g></g></svg>