<?xml version="1.0" encoding="UTF-8"?>
<svg id="Layer_2" data-name="Layer 2" xmlns="http://www.w3.org/2000/svg" xmlns:xlink="http://www.w3.org/1999/xlink" viewBox="0 0 336.25 254.46">
  <defs>
    <style>
      .cls-1 {
        fill: none;
      }

      .cls-2 {
        clip-path: url(#clippath);
      }

      .cls-3 {
        fill: #ffeacb;
      }
    </style>
    <clipPath id="clippath">
      <rect class="cls-1" width="336.25" height="254.46"/>
    </clipPath>
  </defs>
  <g id="Layer_1-2" data-name="Layer 1">
    <g class="cls-2">
      <path class="cls-3" d="m56.21,285.45c1.68-11,2.49-22.12,2.41-33.25-.26.11-.52.21-.78.32,7.43,8.14,14.8,16.35,22.11,24.6.15-.25.29-.51.44-.76-10.95-2.8-22.38-3.11-33.47-.92.15.25.29.51.44.76,8.51-8.5,19.22-14.15,29.78-19.67-.21-.21-.41-.41-.62-.62-3.51,5.63-7.03,11.27-10.54,16.9-3.11,4.98-6.18,10.3-11.32,13.45-.5.31-.04,1.09.46.78,4.75-2.91,7.79-7.61,10.68-12.24,3.84-6.14,7.67-12.29,11.5-18.44.25-.4-.23-.82-.62-.62-10.63,5.55-21.4,11.25-29.96,19.81-.34.34.01.84.44.76,10.93-2.15,22.2-1.84,32.99.92.46.12.74-.42.44-.76-7.31-8.26-14.68-16.46-22.11-24.6-.27-.3-.78-.06-.78.32.08,11.05-.71,22.08-2.38,33.01-.09.57.79.82.88.24h0Z"/>
      <g>
        <path class="cls-3" d="m348.94,155.71c-1.36-3.69-4.19-6.65-8.17-7.31-3.46-.58-7.07,1.19-8.4,4.5-1.28,3.18-.64,6.77,2.1,8.95,2.55,2.02,6.32,2.16,9.04.44-.21-.21-.41-.41-.62-.62-2.19,2.95-4.48,6.49-2.9,10.25,1.21,2.87,4.65,3.5,7.4,3.04,8.4-1.43,6.66-13.46,3.26-18.61-.32-.49-1.11-.03-.78.46,1.69,2.56,2.58,5.43,2.68,8.5.1,3.32-.76,7.1-4.13,8.42-2.75,1.08-6.47.51-7.72-2.46-1.37-3.26,1.14-6.67,2.98-9.14.28-.37-.25-.85-.62-.62-2.4,1.52-5.34,1.35-7.71-.14-2.67-1.68-3.21-5.06-2.24-7.85,1.14-3.32,4.63-4.7,7.9-4.15,3.42.57,5.91,3.49,7.06,6.6.2.55,1.08.31.88-.24h0Z"/>
        <path class="cls-3" d="m347,151.51c-3.3-4.91-7.76-8.87-13.04-11.53-.52-.26-.98.52-.46.78,5.15,2.59,9.51,6.42,12.72,11.21.32.48,1.11.03.78-.46h0Z"/>
      </g>
      <g>
        <g>
          <path class="cls-3" d="m175.27,177.63c-.95-6.95-2.81-14.26-8.89-18.49-6.16-4.28-14.21-1.73-19.99,1.89-5.4,3.37-9.96,8.91-9.02,15.65.95,6.82,6.74,11.81,13.63,11.78-.08-.28-.15-.56-.23-.85-3.72,1.95-6.23,6.31-5.47,10.56.83,4.64,4.57,7.99,9.21,8.52,4.7.54,10.13-1.93,13.74-4.8,3.57-2.84,6.05-6.65,7.2-11.06.15-.57-.73-.81-.88-.24-2.04,7.81-8.49,13.22-16.25,14.95-4.96,1.11-9.88-1.08-11.72-5.93-1.63-4.28.72-9.15,4.63-11.2.41-.21.21-.85-.23-.85-6.82.03-12.35-5.14-12.82-11.92-.46-6.61,4.65-11.48,9.89-14.55,5.78-3.39,13.21-4.89,18.84-.42,5.16,4.1,6.64,11.03,7.49,17.21.08.58.95.33.88-.24h0Z"/>
          <path class="cls-3" d="m174.22,177.59c-.62,2.58-.82,5.18-.58,7.83.15,1.74.38,4.36,2,5.43,3.22,2.12,8.1-.69,10.23-3.24,2.64-3.18,1.08-7.23-1.93-9.46-1.9-1.41-8.17-4.23-9.53-.85-.22.54.66.78.88.24.64-1.58,3.24-.65,4.35-.35,1.63.45,3.19,1.16,4.49,2.25,3,2.49,2.69,6.3-.09,8.75-2.01,1.78-6.77,4.03-8.63,1.02-.91-1.47-.9-3.79-.97-5.45-.08-2,.19-3.99.66-5.93.14-.57-.74-.81-.88-.24h0Z"/>
          <path class="cls-3" d="m174.3,182.91c-4.43-4.49-10.63-7.96-16.94-8.73-.58-.07-.57.84,0,.91,6.05.73,12.06,4.16,16.29,8.46.41.42,1.05-.23.64-.64h0Z"/>
          <path class="cls-3" d="m173.86,183.24c-4.87.84-10.23,3.4-12.54,8-.26.52.52.98.78.46,2.21-4.4,7.35-6.78,12-7.58.58-.1.33-.97-.24-.88h0Z"/>
          <path class="cls-3" d="m178.79,176.39c1.09-8.65,7.3-16.09,15.37-19.21,5.66-2.19,9.63,3.07,11.06,7.94,1.41,4.81-.36,10.28-4.84,12.77-.39.22-.22.86.23.85,4.2-.09,9.07.06,11.25,4.3,1.94,3.78.32,8.48-2.92,10.92-3.5,2.63-8.3,2.67-12.28,1.28-2.18-.76-4.16-2.07-5.94-3.51-1.24-1.01-4.69-3.55-4.08-5.3.19-.55-.68-.79-.88-.24-.72,2.06,1.54,3.62,2.87,4.9,1.98,1.91,4.27,3.51,6.79,4.63,4.48,1.99,9.88,1.86,13.97-.97,3.62-2.5,5.02-7.25,3.59-11.36-1.81-5.22-7.67-5.65-12.37-5.55.08.28.15.56.23.85,4.44-2.46,6.28-7.47,5.57-12.34-.69-4.76-4.38-10.69-9.72-10.64-2.45.03-4.97,1.47-7,2.7-2.15,1.3-4.08,2.97-5.77,4.83-3.32,3.66-5.42,8.28-6.03,13.17-.07.58.84.57.91,0h0Z"/>
          <path class="cls-3" d="m183.52,178.49c2.57-2.31,5.81-3.5,9.26-3.43.59.01.59-.9,0-.91-3.69-.08-7.16,1.23-9.9,3.7-.44.39.21,1.03.64.64h0Z"/>
          <path class="cls-3" d="m187.33,185.27c3.41-1.49,7.23-1.51,10.66-.06.53.23,1-.56.46-.78-3.76-1.6-7.83-1.58-11.57.06-.54.23-.07,1.02.46.78h0Z"/>
          <path class="cls-3" d="m165.22,203.43c-.07,3.41.92,6.47,2.97,9.2.18.24.63.35.78,0,.71-1.62,1.38-3.26,2.01-4.91-.28.04-.55.07-.83.11,1.04,1.66,2.52,2.8,4.39,3.38,2.07.64,1.61-2.75,1.69-3.83.44-5.75,1.94-11.28,4.54-16.43.26-.52-.52-.98-.78-.46-1.87,3.71-3.22,7.6-3.99,11.69-.39,2.06-.61,4.16-.75,6.25-.04.54-.06,1.07-.08,1.61-.03.71-1.44-.1-1.51-.13-1.15-.53-2.05-1.47-2.71-2.53-.22-.35-.69-.25-.83.11-.6,1.58-1.24,3.15-1.92,4.7h.78c-1.95-2.6-2.91-5.48-2.84-8.74.01-.59-.9-.59-.91,0h0Z"/>
          <path class="cls-3" d="m181.82,190.41c3.92,6.16,4.1,13.62,4.17,20.7,0,.41.48.58.78.32,2.27-1.98,1.65-6.33,4.49-7.6-.18-.02-.37-.05-.55-.07,1.14,1.26,3.13,4.72,4.83,2.43.88-1.18,1.05-3.26,1.3-4.67.3-1.74.38-3.51.32-5.27-.02-.58-.93-.59-.91,0,.07,2.27-.13,4.5-.62,6.72-.1.48-.73,3.94-1.87,2.8-.84-.84-1.61-1.77-2.41-2.65-.15-.16-.37-.15-.55-.07-3.11,1.39-2.32,5.68-4.68,7.75.26.11.52.21.78.32-.08-7.23-.28-14.86-4.29-21.16-.31-.49-1.1-.04-.78.46h0Z"/>
        </g>
        <g>
          <path class="cls-3" d="m317.75,101.73c-.48-4.15-2.69-8.66-6.68-10.46-4.28-1.93-6.52,2.47-6.61,6.07-.13,4.74,2.77,9.54,5.43,13.26,2.81,3.93,6.41,7.25,10.46,9.87.22.14.48.03.62-.16,2.9-3.99,5.94-7.91,8.67-12.02,2.26-3.38,4.1-7.54,2.5-11.57-1.27-3.19-4.81-5.27-8.21-4.81-4.06.55-6.48,3.7-7.69,7.4-.18.56.69.8.88.24,1.21-3.7,3.76-6.75,7.93-6.78,3.99-.03,6.8,3.58,6.84,7.33.03,3.64-2.46,7.05-4.49,9.87-2.39,3.3-4.79,6.59-7.19,9.89.21-.05.41-.11.62-.16-6.37-4.12-11.7-10.2-14.43-17.33-1.18-3.08-2.15-11.51,3.48-10.53,4.16.73,6.56,6.22,6.98,9.9.07.57.98.58.91,0h0Z"/>
          <path class="cls-3" d="m321.81,104.96c5.26-2.33,10.66-4.28,16.19-5.86.56-.16.32-1.04-.24-.88-5.61,1.6-11.08,3.59-16.41,5.95-.53.24-.07,1.02.46.78h0Z"/>
          <path class="cls-3" d="m308.05,107.91c-2.15,1.07-4.3,2.16-6.47,3.22-1.32.65-2.58.12-3.88-.26-1.27-.37-2.54-.75-3.8-1.12-.56-.17-.8.71-.24.88,1.45.43,2.9.86,4.35,1.28,1.05.31,1.97.57,3.06.38,1.17-.21,2.36-1.06,3.41-1.58,1.34-.67,2.69-1.34,4.03-2.01.52-.26.06-1.05-.46-.78h0Z"/>
          <path class="cls-3" d="m299.95,112.42c-.72,1.41-1.44,2.82-2.15,4.22-.27.52.52.98.78.46.72-1.41,1.44-2.82,2.15-4.22.27-.52-.52-.98-.78-.46h0Z"/>
          <path class="cls-3" d="m299.26,112.39c-1.97.89-4.04,1.47-6.18,1.73-.57.07-.58.98,0,.91,2.32-.27,4.52-.89,6.64-1.85.53-.24.07-1.03-.46-.78h0Z"/>
        </g>
        <g>
          <path class="cls-3" d="m92.2,166.2c-.8.83-.13,1.75.64,2.33,1.32.99,3.38,1.13,4.95.96,3.34-.35,6.29-2.84,6.64-6.25.36-3.53-3.95-5.13-6.81-4.57-3.75.73-6.23,4.08-5.86,7.89.06.58.97.58.91,0-.26-2.62.91-5.02,3.19-6.35,2.33-1.35,6.59-.97,7.55,1.92.83,2.48-1.52,4.86-3.51,5.84-1.03.51-2.21.67-3.34.68-.34,0-4.65-.85-3.72-1.81.41-.42-.23-1.06-.64-.64h0Z"/>
          <path class="cls-3" d="m94.63,160.52c.43-3.66-.49-7.26-2.53-10.31-1.38-2.07-5.06-5.92-7.68-3.36-2.24,2.19-1.55,5.79-.83,8.47,1.04,3.85,3.26,7.35,6.13,10.1.18-.24.37-.48.55-.71-2.72-1.72-6.07-1.77-8.8-.06-2.5,1.57-3.93,4.69-3.46,7.58.53,3.21,4.45,3.61,6.94,2.9,3.65-1.05,7.13-3.71,9.97-6.14-.21-.21-.43-.43-.64-.64-1.95,2.26-2.87,5.07-2.69,8.05.17,2.75,1.6,5.79,4.44,6.53,2.9.76,4.22-1.88,4.79-4.19.9-3.62.45-7.47-.39-11.05-.13-.57-1.01-.33-.88.24.57,2.46.9,4.94.81,7.47-.09,2.52-.61,7.16-4.1,6.66-2.69-.39-3.66-3.86-3.8-6.12-.16-2.53.82-5.05,2.45-6.94.38-.45-.2-1.02-.64-.64-1.98,1.68-4.09,3.15-6.35,4.42-2.48,1.39-5.87,2.95-8.31.64-2.43-2.3.27-6.52,2.31-7.97,2.34-1.67,5.54-1.43,7.88.06.44.28.92-.36.55-.71-2.32-2.22-4.09-4.86-5.28-7.84-1-2.53-1.91-5.82-.76-8.44,1.89-4.33,6.55,1.33,7.72,3.35,1.51,2.61,2.03,5.71,1.68,8.68-.07.58.84.57.91,0h0Z"/>
          <path class="cls-3" d="m98.46,168.25c.62,3.19,2.39,6.18,5.05,8.1,2.51,1.82,6.18,3.2,8.95,1.14,2.48-1.84,1.91-5.45.47-7.71-2-3.13-5.85-5.06-9.37-5.83-.08.29-.16.58-.24.88,3.89.54,8.07-.83,11.06-3.35,2.79-2.36,3.2-6.39.43-8.88-2.56-2.31-7.14-3.04-10.28-1.68-3.16,1.37-5.26,4.67-4.39,8.14.14.57,1.02.33.88-.24-.73-2.9.96-5.6,3.51-6.91,2.78-1.43,6.44-.69,8.99.86,3.61,2.19,2.44,6.41-.45,8.6-2.59,1.97-6.3,3.03-9.51,2.58-.56-.08-.83.75-.24.88,2.9.63,5.5,1.96,7.64,4.01,2.26,2.16,3.64,6.4.33,8.34-2.52,1.48-6.01-.49-7.93-2.1-2.13-1.79-3.5-4.35-4.03-7.06-.11-.58-.99-.33-.88.24h0Z"/>
          <path class="cls-3" d="m92.64,151.22c-1.9-3.08.9-6.22,4.12-6.05,3.49.19,5.18,3.88,4.96,6.94-.04.59.87.58.91,0,.28-4.1-2.36-7.96-6.72-7.87-3.68.08-5.98,4.32-4.06,7.43.31.5,1.09.04.78-.46h0Z"/>
        </g>
        <path class="cls-3" d="m157.61,31.54c-3.97-2.24-8.84-1.44-12.39,1.25-3.87,2.94-4.99,7.88-3.61,12.41,1.47,4.83,5.67,8.38,10.64,9.07,5.17.73,10.55-1.67,13.76-5.7-.24-.03-.48-.06-.71-.09,4.85,6.56,13.12,9.93,21.18,8.63,7.94-1.28,14.65-7.6,16.94-15.2-.28.04-.55.07-.83.11,2.65,4.23,7.74,5.79,12.5,5.02,5.38-.87,9.28-5.36,9.97-10.68.77-5.89-1.74-11.6-6.66-14.93-5.03-3.41-11.88-3.67-17.41-1.45.19.15.38.29.58.44.47-6.74-6.23-11.39-12.4-11.55-7.83-.2-14.04,6.77-17.53,13h.78c-3.98-5.16-11.04-8.06-16.86-4-4.66,3.25-4.71,11.11.83,13.51.53.23,1-.55.46-.78-2.38-1.03-3.68-3.31-3.86-5.84-.2-2.77,1.46-5.13,3.72-6.56,5.21-3.3,11.53-.26,14.92,4.14.2.26.6.33.78,0,3.29-5.86,8.49-11.71,15.57-12.51,6.05-.68,13.13,4.07,12.67,10.6-.02.27.31.55.58.44,5.04-2.03,10.78-1.87,15.61.69,4.87,2.58,7.55,7.73,7.46,13.16-.09,5.23-3.31,9.8-8.38,11.22-4.56,1.28-9.97-.26-12.54-4.37-.21-.34-.72-.27-.83.11-2.17,7.17-8.18,12.71-15.46,14.4-7.77,1.8-16.32-1.71-21-8.05-.16-.21-.51-.34-.71-.09-2.94,3.68-7.44,5.73-12.15,5.53-4.75-.21-8.7-3.43-10.46-7.74-1.67-4.1-.82-8.7,2.44-11.73,3.15-2.93,8.17-3.8,11.96-1.67.51.29.97-.5.46-.78h0Z"/>
        <path class="cls-3" d="m56.21,30.99c1.68-11,2.49-22.12,2.41-33.25-.26.11-.52.21-.78.32,7.43,8.14,14.8,16.35,22.11,24.6.15-.25.29-.51.44-.76-10.95-2.8-22.38-3.11-33.47-.92.15.25.29.51.44.76,8.51-8.5,19.22-14.15,29.78-19.67-.21-.21-.41-.41-.62-.62l-10.54,16.9c-3.11,4.98-6.18,10.3-11.32,13.45-.5.31-.04,1.09.46.78,4.75-2.91,7.79-7.61,10.68-12.24,3.84-6.14,7.67-12.29,11.5-18.44.25-.4-.23-.82-.62-.62-10.63,5.55-21.4,11.25-29.96,19.81-.34.34.01.84.44.76,10.93-2.15,22.2-1.84,32.99.92.46.12.74-.42.44-.76-7.31-8.26-14.68-16.46-22.11-24.6-.27-.3-.78-.06-.78.32.08,11.05-.71,22.08-2.38,33.01-.09.57.79.82.88.24h0Z"/>
        <path class="cls-3" d="m25.38,102.95c4.69-6.01,8.91-12.36,12.6-19.04-.28-.04-.55-.07-.83-.11,1.7,7.35,3.35,14.7,4.94,22.07.25-.15.51-.29.76-.44-5.62-5.35-12.33-9.37-19.7-11.8v.88c7.92-2.2,16.16-1.99,24.3-1.74-.08-.28-.15-.56-.23-.85-3.82,2.09-7.65,4.19-11.47,6.28-3.66,2-7.37,4.27-11.65,4.47-.58.03-.59.94,0,.91,4.05-.18,7.58-2.11,11.07-4.02,4.17-2.28,8.34-4.57,12.51-6.85.41-.22.21-.83-.23-.85-8.22-.25-16.54-.44-24.54,1.77-.45.12-.42.74,0,.88,7.22,2.38,13.79,6.32,19.3,11.57.34.32.85,0,.76-.44-1.59-7.37-3.23-14.73-4.94-22.07-.09-.38-.64-.45-.83-.11-3.65,6.6-7.81,12.91-12.45,18.85-.36.46.28,1.1.64.64h0Z"/>
        <path class="cls-3" d="m68.49,131.47c-1.92-4.9-4.2-9.63-6.86-14.17-.17.22-.34.45-.51.67,4.94,1.57,9.88,3.18,14.8,4.83v-.88c-5.17,1.47-9.9,4.03-13.96,7.55.25.15.51.29.76.44,1.49-5.45,4.48-10.23,7.49-14.96-.28-.08-.56-.15-.85-.23-.1,3.01-.21,6.01-.31,9.02-.1,2.85-.07,5.78-1.43,8.37-.27.52.51.98.78.46,1.24-2.38,1.42-4.99,1.51-7.62.12-3.41.23-6.81.35-10.22.02-.47-.61-.6-.85-.23-3.04,4.79-6.06,9.65-7.58,15.18-.13.46.43.73.76.44,3.94-3.42,8.54-5.9,13.56-7.32.45-.13.42-.74,0-.88-4.92-1.65-9.85-3.25-14.8-4.83-.39-.12-.71.33-.51.67,2.62,4.47,4.88,9.13,6.77,13.95.21.54,1.09.3.88-.24h0Z"/>
        <g>
          <path class="cls-3" d="m214.38,110.26c-4.34-1.36-7.75-4.79-10.81-8.01-3.07-3.22-5.86-6.7-8.87-9.98-5.52-6.02-12.19-11.38-20.6-12.21-7.7-.76-14.71,3.87-17.8,10.82-3.2,7.2-1.67,16.07,3.28,22.08,6.19,7.52,16.71,9.16,25.85,8.22,9.62-.98,18.9-4.72,26.66-10.46.47-.34.01-1.13-.46-.78-7.14,5.28-15.44,8.73-24.22,10.08-9.03,1.39-19.01.25-25.88-6.3-6.6-6.29-7.84-17.21-3.12-24.91,2.21-3.6,5.79-6.25,9.84-7.38,4.45-1.24,9.27-.24,13.38,1.64,6.81,3.11,11.84,9.09,16.63,14.63,4.36,5.04,9.25,11.37,15.87,13.45.56.18.8-.7.24-.88h0Z"/>
          <path class="cls-3" d="m161.45,93.23c-.71.99.5,2.39,1.57,1.82.44-.23.69-.81.63-1.29-.07-.61-.55-1.02-1.16-1.02-.55,0-1.06.38-1.22.9-.19.64.3,1.2.85,1.42.26.11.6.08.85-.05.32-.16.45-.61.47-.95.02-.38-.1-.7-.48-.84-.32-.11-.67-.03-.9.21-.41.42.23,1.06.64.64-.03.03-.12-.07-.04.02-.04-.11-.09-.21-.13-.32.02.22,0,.39-.12.58l.16-.16c-.19.1-.51-.16-.41-.37.1-.19.49-.26.56-.05.07.19-.05.51-.27.52-.29,0-.35-.42-.23-.6.34-.48-.45-.93-.78-.46h0Z"/>
          <path class="cls-3" d="m176.52,95.56c.58-.64.31-1.68-.5-1.97-.43-.15-.93.07-1.22.39-.33.37-.39.89-.14,1.33.21.37.63.55,1.04.58.46.03.93-.26.9-.76-.06-.83-1.14-1.42-1.84-.91-.16.12-.28.31-.21.51.15.44.45.74.88.9.19.07.41-.05.51-.21.14-.23.42-.55.42-.83,0-.24-.2-.49-.36-.66-.31-.34-.89-.5-1.21-.09-.15.19-.19.45,0,.64.16.16.49.19.64,0,.09-.09.03-.09-.18.01-.03,0,.04.02.06.03.09.08.15.18.2.29v-.46c-.12.2-.24.4-.36.6.17-.07.34-.14.51-.21-.12-.05-.21-.15-.25-.27-.07.17-.14.34-.21.51.21-.15.5.03.47.29.08-.13.15-.26.23-.39-.27.19-.68-.08-.37-.38.28-.27.49.23.34.39-.39.43.25,1.08.64.64h0Z"/>
          <path class="cls-3" d="m165.73,99.73c-1.49,1.25-2.83,2.63-4.03,4.17-.57.73-1.17,1.39-.21,2,.98.62,3.22-.43,4.17-.71,1.75-.52,3.43-1.24,5.07-2.05.53-.26.06-1.04-.46-.78-2.22,1.09-4.52,1.93-6.92,2.52-.96.24-1.58.39-.69-.75.33-.42.68-.81,1.03-1.2.82-.92,1.73-1.75,2.67-2.55.45-.38-.2-1.02-.64-.64h0Z"/>
          <path class="cls-3" d="m165.52,101.03c1.65.52,3.27,1.11,4.87,1.77.54.22.78-.66.24-.88-1.6-.66-3.22-1.25-4.87-1.77-.56-.18-.8.7-.24.88h0Z"/>
          <path class="cls-3" d="m183.75,103.81c-1.66,2.44.83,5.44,2.89,6.69,1.21.73,2.66.77,3.94.25.58-.23,1.02-.64,1.39-1.12.51-.64.58-.43,1.3-.15,2.46.95,5.39-.37,6.65-2.56,1.67-2.91-3.51-5.09-5.5-5.4-.57-.09-.82.79-.24.88,2.35.36,6.87,2.49,4.03,5.25-.76.74-1.86,1.09-2.89,1.19-1.09.11-1.83-.4-2.82-.68-.37-.1-.64.04-.88.28-.21.2-.39.66-.54.85-.52.65-1.42.86-2.2.91-2.43.14-5.94-3.61-4.36-5.93.33-.49-.46-.94-.78-.46h0Z"/>
          <path class="cls-3" d="m192.46,119.62c-.13,1.86.08,3.64.64,5.41.37,1.18.54,1.52-.42,2.42-.88.83-1.89,1.48-2.94,2.07-.51.29-.05,1.07.46.78.97-.54,1.87-1.16,2.73-1.86.53-.43,1.38-1.03,1.58-1.74.2-.74-.48-1.75-.68-2.42-.47-1.51-.55-3.1-.44-4.66.04-.59-.87-.58-.91,0h0Z"/>
          <path class="cls-3" d="m180.01,122c.5,1.42.95,2.86,1.34,4.31.33,1.22,0,1.76-.87,2.48-.7.58-1.4,1.16-2.1,1.74-.45.37.19,1.01.64.64.84-.7,1.68-1.39,2.52-2.09.31-.26,1.06-.74,1.02-1.26-.16-2.05-1-4.14-1.68-6.07-.19-.55-1.07-.31-.88.24h0Z"/>
        </g>
        <g>
          <path class="cls-3" d="m12.69,155.71c-1.36-3.69-4.19-6.65-8.17-7.31-3.46-.58-7.07,1.19-8.4,4.5-1.28,3.18-.64,6.77,2.1,8.95,2.55,2.02,6.32,2.16,9.04.44-.21-.21-.41-.41-.62-.62-2.19,2.95-4.48,6.49-2.9,10.25,1.21,2.87,4.65,3.5,7.4,3.04,8.4-1.43,6.66-13.46,3.26-18.61-.32-.49-1.11-.03-.78.46,1.69,2.56,2.58,5.43,2.68,8.5.1,3.32-.76,7.1-4.13,8.42-2.75,1.08-6.47.51-7.72-2.46-1.37-3.26,1.14-6.67,2.98-9.14.28-.37-.25-.85-.62-.62-2.4,1.52-5.34,1.35-7.71-.14-2.67-1.68-3.21-5.06-2.24-7.85,1.14-3.32,4.63-4.7,7.9-4.15,3.42.57,5.91,3.49,7.06,6.6.2.55,1.08.31.88-.24h0Z"/>
          <path class="cls-3" d="m12.61,154.84c-1.94-3.56-3.32-8.19-.3-11.59,2.05-2.31,4.65-.78,4.99,1.86.25,1.94-.79,3.99-1.14,5.87-.08.4.44.83.76.44,3.82-4.65,10.03.15,12.29,3.9,2,3.32-1.9,5.56-4.7,5.8-2.89.24-5.7-1.14-8.23-2.33-.53-.25-.99.53-.46.78,3.26,1.54,6.6,2.98,10.28,2.23,2.81-.57,5.16-3.03,4.34-5.97-.39-1.41-1.59-2.64-2.56-3.68-1.09-1.17-2.44-2.26-3.93-2.86-2.62-1.06-5.77-.81-7.66,1.48.25.15.51.29.76.44.49-2.6,1.78-5.11.78-7.75-.72-1.9-2.57-2.7-4.44-2.04-2.24.78-3.37,3.39-3.68,5.54-.43,2.93.76,5.82,2.13,8.33.28.51,1.07.06.78-.46h0Z"/>
          <path class="cls-3" d="m10.75,151.51c-3.3-4.91-7.76-8.87-13.04-11.53-.52-.26-.98.52-.46.78,5.15,2.59,9.51,6.42,12.72,11.21.32.48,1.11.03.78-.46h0Z"/>
          <path class="cls-3" d="m10.69,152.43c-1.73-5.1-3.48-10.42-2.55-15.87.1-.57-.78-.82-.88-.24-.96,5.63.76,11.07,2.55,16.35.19.55,1.07.31.88-.24h0Z"/>
          <path class="cls-3" d="m10.71,153.85c-1.86-1.2-4.77-.84-6.03,1.13-2,3.13,2.45,3.78,4.66,3.19-.17-.22-.34-.45-.51-.67-.76,1.52-.9,3.07-.38,4.69.3.94,1.32,2.16,2.45,1.91,3.25-.71,2.21-5.66.88-7.56-.33-.48-1.12-.02-.78.46,1.07,1.55,1.54,3.53.77,5.32-.32.82-.98.96-1.97.43-.31-.37-.52-.8-.63-1.27-.37-1.17-.09-2.45.44-3.51.17-.35-.11-.77-.51-.67-.96.26-1.8.27-2.77.06-1.82-.4-1.02-2,0-2.72,1.17-.82,2.75-.76,3.92,0,.49.32.95-.47.46-.78h0Z"/>
          <path class="cls-3" d="m11.36,153.43c.4-.78.89-1.43,1.52-2.03.44.11.89.23,1.33.34.08.49.03.96-.15,1.41-.14.47-.3.92-.4,1.41-.1.46.41.74.76.44,1.33-1.11,2.79-2.25,4.62-1.6-.11-.15-.22-.29-.33-.44.02,2.96-5.08,2.71-7.07,2.69-.25,0-.45.21-.45.45,0,.73,0,1.46,0,2.19,0,.59.91.59.91,0,0-.73,0-1.46,0-2.19l-.45.45c2.57.03,8,.15,7.97-3.59,0-.21-.14-.37-.33-.44-2.14-.76-3.92.5-5.5,1.83.25.15.51.29.76.44.32-1.51,1.4-3.63-.51-4.56-1.47-.71-2.95,1.74-3.45,2.73-.27.52.52.98.78.46h0Z"/>
          <path class="cls-3" d="m5.99,155.45c-.07.83-.07,1.65,0,2.48.03.34.51.67.78.32.74-.95,1.25-1.94,1.57-3.09-.3-.04-.6-.08-.89-.12.08.83.14,1.66.19,2.5.02.43.62.65.85.23.57-1.08,1.15-2.17,1.72-3.25-.28-.08-.56-.15-.85-.23.19,2.68.38,5.37.56,8.05.03.48.82.66.89.12.15-1.08.31-2.16.46-3.24h-.88c.22.9.24,1.69.04,2.59.3.04.6.08.89.12.26-3.03.53-6.06.79-9.1-.3.04-.6.08-.89.12.13.95.26,1.89.39,2.84.06.46.77.41.88,0,.27-1.05.41-2.08.42-3.16h-.91c.04,1.14.45,2.05,1.31,2.81.17.15.48.2.64,0,.28-.36.56-.71.83-1.07-.24-.03-.48-.06-.71-.09.31.5.64.91,1.08,1.3.23.21.7.16.76-.2.1-.56.22-1.08.39-1.62-.28.04-.55.07-.83.11.14.27.28.54.42.81.09.18.33.27.51.21.35-.14.71-.2,1.09-.2.58-.03.59-.93,0-.91-.47.02-.88.09-1.33.23.17.07.34.14.51.21-.14-.27-.28-.54-.42-.81-.19-.37-.72-.25-.83.11-.17.54-.29,1.06-.39,1.62.25-.07.51-.13.76-.2-.37-.34-.67-.69-.94-1.12-.14-.22-.53-.33-.71-.09-.28.36-.56.71-.83,1.07h.64c-.68-.6-1.02-1.25-1.05-2.17-.02-.58-.9-.59-.91,0,0,1-.13,1.95-.38,2.92h.88c-.13-.95-.26-1.89-.39-2.84-.07-.54-.85-.35-.89.12-.26,3.03-.53,6.06-.79,9.1-.04.51.79.62.89.12.23-1.05.22-2.03-.04-3.08-.1-.41-.81-.46-.88,0-.15,1.08-.31,2.16-.46,3.24.3.04.6.08.89.12-.19-2.68-.38-5.37-.56-8.05-.03-.42-.62-.66-.85-.23-.57,1.08-1.15,2.17-1.72,3.25.28.08.56.15.85.23-.05-.83-.11-1.67-.19-2.5-.05-.49-.75-.64-.89-.12-.28,1.01-.7,1.86-1.34,2.69.26.11.52.21.78.32-.07-.83-.07-1.65,0-2.48.05-.58-.86-.58-.91,0h0Z"/>
        </g>
        <g>
          <path class="cls-3" d="m309.27,33.27c-4.84,9.22-16.72,6.89-24.82,4.58-8.3-2.37-17.66-4.5-26.01-1.11-3.23,1.31-5.97,3.74-7.5,6.88-1.65,3.38-.99,7.13.11,10.57,2.17,6.78,6.97,12.48,12.77,16.48,11.43,7.89,27.36,8.37,38.18-.78,5.51-4.66,9.05-11.2,11.11-18.03,1.06-3.51,1.63-7.16,2.09-10.79.37-2.91-.18-5.44-1.44-8.08-.25-.53-1.03-.07-.78.46.82,1.72,1.4,3.43,1.46,5.34.06,1.98-.38,4-.68,5.95-.7,4.61-2,9.13-3.99,13.34-3.64,7.73-10.09,14.12-18.37,16.62-15.99,4.82-34.58-5.43-39.61-21.17-.92-2.86-1.36-5.84-.36-8.74.99-2.85,3.38-5.1,5.95-6.54,5.94-3.32,13.92-2.63,20.32-1.26,6.46,1.39,12.62,4.07,19.34,3.95,5.2-.09,10.54-2.46,13.03-7.2.27-.52-.51-.98-.78-.46h0Z"/>
          <path class="cls-3" d="m309.42,32.54c-8.36-.17-16.1-5.33-19.52-12.96-.24.18-.48.37-.71.55,2.11,2.51,5.5,2.09,8.42,1.79,4.05-.42,7.85,1.04,10.14,4.51.32.49,1.11.03.78-.46-1.78-2.7-4.52-4.48-7.73-4.97-3.55-.54-8.23,1.74-10.97-1.52-.36-.43-.91.12-.71.55,3.55,7.91,11.64,13.23,20.3,13.41.59.01.59-.9,0-.91h0Z"/>
          <path class="cls-3" d="m309.18,26.15c.22-4.48,4.32-6.97,8.37-7.49,2.51-.32,5.88.63,7.7-1.66-.26-.11-.52-.21-.78-.32.02,6.88-2.86,15.83-11.11,16.07-.58.02-.59.93,0,.91,3.49-.1,6.71-1.99,8.75-4.8,2.56-3.54,3.28-7.9,3.27-12.18,0-.36-.52-.65-.78-.32-1.21,1.52-3.29,1.32-5.05,1.3-1.89-.03-3.88.24-5.62.99-3.12,1.34-5.49,4.01-5.66,7.51-.03.59.88.58.91,0h0Z"/>
          <path class="cls-3" d="m268.25,44.47c.07.82.31,1.79,1.19,2.09.88.31,1.63-.2,1.74-1.1.11-.9-.47-1.95-1.39-2.13-.99-.19-1.65.81-1.46,1.71.17.81.88,1.51,1.74,1.44.78-.06,1.38-.85,1.32-1.61-.06-.86-1.17-1.48-1.76-.68-.38.51-.56,1.87.41,1.83.2,0,.39-.13.44-.33.1-.44-.02-.92-.41-1.19-.46-.32-.97.13-1.18.54-.09.17-.09.42.07.55.38.31,1.03.28,1.27-.22.27-.58-.02-1.09-.46-1.47-.15-.13-.38-.19-.55-.07-.43.3-.61.74-.5,1.26.13.57,1.01.33.88-.24-.02-.1,0-.17.08-.23-.18-.02-.37-.05-.55-.07.07.06.13.11.19.18.03.04.06.07.09.11.04.08.1.12.2.12.02.18.05.37.07.55.08-.15.16-.21.31-.27h-.46c.08.06.1.13.08.23.15-.11.29-.22.44-.33.14.14.2.14.18.02.01-.06.03-.13.04-.19.04-.14.08-.28.19-.11.14.22-.08.54-.25.67-.62.44-1.09-.56-.96-1.04.13-.47.66-.12.81.11.16.25.34.86.12,1.12-.16.19-.51.03-.65-.1-.29-.26-.34-.74-.37-1.1-.05-.58-.96-.58-.91,0h0Z"/>
          <path class="cls-3" d="m250.27,46.09c4.48,4.23,10.1,6.98,16.18,8.01,5.5.93,12.47.66,16.61-3.58.41-.42-.23-1.06-.64-.64-4.05,4.15-10.87,4.17-16.21,3.27-5.72-.97-11.09-3.72-15.29-7.7-.43-.4-1.07.24-.64.64h0Z"/>
        </g>
        <path class="cls-3" d="m217.58,80.78c3.56,8.15,7.55,16.11,11.94,23.84.17.3.61.29.78,0,1.96-3.2,3.92-6.39,5.88-9.59-.21.05-.41.11-.62.16,7.51,3.69,7,14.52,14.35,18.52.26.14.59.02.67-.27.78-2.86,1.55-5.73,2.33-8.59-.25.07-.51.13-.76.2,4.19,5.29,8.37,10.58,12.56,15.87.29.37.87-.03.76-.44-2.8-10.04-7.28-19.54-13.26-28.08-.2-.29-.76-.32-.83.11-.4,2.36-1.32,4.52-2.81,6.4l.71.09c-3.69-5.42-7.37-10.84-11.06-16.26-.13-.19-.41-.31-.62-.16-2.49,1.78-4.47,4.04-5.86,6.77h.78c-2.77-4.79-6.22-9.12-10.27-12.9-.14-.13-.38-.19-.55-.07-1.4,1.03-2.81,2.06-4.21,3.09-.47.34-.01,1.13.46.78,1.4-1.03,2.81-2.06,4.21-3.09-.18-.02-.37-.05-.55-.07,4,3.72,7.39,7.99,10.13,12.72.16.28.63.31.78,0,1.32-2.58,3.17-4.75,5.54-6.44-.21-.05-.41-.11-.62-.16,3.69,5.42,7.37,10.84,11.06,16.26.15.22.52.34.71.09,1.59-2.01,2.62-4.27,3.05-6.8-.28.04-.55.07-.83.11,5.94,8.48,10.39,17.89,13.16,27.87.25-.15.51-.29.76-.44-4.19-5.29-8.37-10.58-12.56-15.87-.22-.28-.68-.1-.76.2-.78,2.86-1.55,5.73-2.33,8.59.22-.09.45-.18.67-.27-7.3-3.97-6.76-14.79-14.35-18.52-.23-.11-.49-.06-.62.16-1.96,3.2-3.92,6.39-5.88,9.59h.78c-4.39-7.73-8.38-15.69-11.94-23.84-.23-.54-1.02-.07-.78.46h0Z"/>
        <g>
          <path class="cls-3" d="m115.7,32.82c-3.6-4.6-11.54-5.18-15.25-.36-1.89,2.45-2.47,5.56-1.87,8.57.7,3.54,3.44,5.56,6.3,7.41,3.35,2.16,6.72,3.79,10.79,3.1,3.72-.63,7.56-3.04,10.06-5.82,2.44-2.72,2.63-6.07.81-9.16-1.67-2.85-4.64-5.52-8.11-5.36-1.28.06-2.44.66-3.3,1.58-.4.43.24,1.07.64.64,2.7-2.87,6.46-.61,8.57,1.72,1.17,1.29,2.09,2.79,2.49,4.5.47,2-.52,3.95-1.75,5.44-2.11,2.56-5.51,4.42-8.64,5.35-3.74,1.11-7.09-.28-10.24-2.23-2.76-1.7-5.48-3.42-6.54-6.64-.88-2.66-.36-5.66,1.12-8,3.16-4.98,10.9-4.43,14.29-.09.36.46,1-.19.64-.64h0Z"/>
          <path class="cls-3" d="m115,33.13c1.09-1,1.16-2.39,1.24-3.79.11-1.98.63-3.9,1.43-5.7,1.58-3.57,4.45-6.47,7.93-8.2.52-.26.06-1.04-.46-.78-3.13,1.56-5.65,3.97-7.44,6.96-.92,1.54-1.56,3.25-1.98,4.99-.43,1.79.07,4.57-1.36,5.87-.43.4.21,1.04.64.64h0Z"/>
          <path class="cls-3" d="m117.39,23.83c.26-2,2.73-2.64,4.4-2.85,1.59-.19,3.19.18,4.62.87-.07-.17-.14-.34-.21-.51-.83,4.54-6.64,5.76-9.12,1.8-.31-.5-1.1-.04-.78.46,2.86,4.57,9.79,3.34,10.78-2.01.03-.19-.02-.42-.21-.51-3.02-1.46-9.78-1.79-10.38,2.76-.08.58.83.57.91,0h0Z"/>
          <path class="cls-3" d="m117.38,24.19c2.59-.86,5.24-1.47,7.94-1.82.57-.07.58-.98,0-.91-2.79.36-5.51.97-8.19,1.85-.55.18-.32,1.06.24.88h0Z"/>
        </g>
        <g>
          <path class="cls-3" d="m93.84,72.54c-1.43-3.97-6.21-6.18-10.04-4.17-3.53,1.85-4.19,7.15-1.62,10,.11-.26.21-.52.32-.78-3.22.26-5.89,2.47-6.69,5.61-.79,3.1,1.01,6.41,3.69,7.92-.03-.24-.06-.48-.09-.71-3.22,2.72-4.59,7.03-3.5,11.1.51,1.92,1.69,3.62,3.11,4.97,1.71,1.62,3.85,2.23,6.03,2.93,2.43.78,3.88,2.8,5.92,4.19,1.67,1.14,3.67,1.79,5.65,2.08,3.61.51,7.4-.58,9.74-3.46l-.71-.09c1.79,2.74,5.03,3.82,8.19,3.43,1.69-.2,3.27-.93,4.71-1.79,1.8-1.08,3.05-2.72,4.72-3.93.88-.64,2.86.32,3.82.52.82.17,1.66.22,2.5.24,1.81.03,3.71-.37,5.36-1.11,3.32-1.49,5.72-4.13,7.06-7.5.66-1.64.87-3.42.84-5.17-.03-1.44.11-2.59.95-3.79.65-.92,1.27-1.78,1.76-2.8,1.52-3.18,1.5-6.93.51-10.25-.99-3.32-3.34-6.26-6.11-8.3-1.4-1.03-2.9-1.91-4.51-2.58-.96-.39-1.66-.71-2.41-1.43-.63-.6-1.35-1.12-2.08-1.6-2.99-1.97-6.74-2.7-10.27-2.35-1.76.17-3.44.7-5.03,1.47-.83.4-1.69-.25-2.52-.55-1.01-.37-2.07-.62-3.13-.82-3.87-.73-8.09-.26-11.71,1.32-2.46,1.07-7.73,3.87-5.68,7.33.3.5,1.09.05.78-.46-1.39-2.33,2.03-4.36,3.69-5.28,1.86-1.03,3.91-1.66,6-2.04,2.04-.37,4.17-.35,6.22-.06.92.13,1.82.35,2.71.61,1.04.3,1.99.92,3.01,1.2.44.12,1.09-.45,1.47-.63.84-.41,1.75-.68,2.66-.9,1.96-.48,4.03-.45,6.01-.11,1.76.3,3.44.96,4.98,1.85,1.54.89,2.56,2.4,4.21,3,8.03,2.9,14.11,11.65,10.43,20.13-.74,1.7-2.2,2.95-2.72,4.74-.26.9-.12,1.94-.11,2.86.02,1.19-.2,2.37-.52,3.51-1.21,4.33-4.81,7.47-9.11,8.51-2.53.61-4.91.15-7.35-.54-2.07-.59-3.23,1.23-4.59,2.44-3.73,3.33-10.61,5.52-13.95.39-.15-.22-.52-.33-.71-.09-2.27,2.79-5.79,3.66-9.25,3.17-1.67-.24-3.26-.86-4.71-1.72-1.68-.99-2.89-2.58-4.52-3.64-1.66-1.07-3.76-1.25-5.53-2.12-1.92-.94-3.38-2.61-4.34-4.48-2.07-3.99-.63-8.93,2.68-11.74.22-.19.15-.58-.09-.71-2.45-1.37-3.78-4.11-3.28-6.89.5-2.74,3.14-4.73,5.82-4.94.4-.03.6-.47.32-.78-2.31-2.57-1.41-6.81,1.44-8.58,3.18-1.97,7.55.41,8.71,3.63.2.55,1.08.31.88-.24h0Z"/>
          <path class="cls-3" d="m104.42,113.55c-.45,7.5-2.95,14.69-7.22,20.87-.15.22,0,.63.27.67,5.55.83,11.14.83,16.69,0,.24-.04.39-.35.32-.56-.99-2.9-1.84-5.85-2.56-8.83-.36-1.49-.67-2.99-.95-4.5-.35-1.87-.8-3.85.06-5.64.25-.53-.53-.99-.78-.46-1.27,2.67-.27,5.86.3,8.6.78,3.75,1.83,7.45,3.07,11.08.11-.19.21-.37.32-.56-5.38.8-10.83.8-16.21,0l.27.67c4.36-6.31,6.88-13.67,7.34-21.33.04-.59-.87-.58-.91,0h0Z"/>
          <path class="cls-3" d="m113.52,78.9c.52-1.79,2.79-2.71,4.33-1.52,1.4,1.08.98,3.34-.25,4.32-.43.34.12.92.55.71,1.94-.92,4.58-1.68,6.62-.67,2.77,1.37.41,5.16-.7,6.75-.34.48.45.93.78.46.94-1.31,2.64-1.22,3.74-.2,1.25,1.15.98,3.09.28,4.42-1.37,2.62-4.8,3.58-7.51,3.05-.57-.11-.82.76-.24.88,3.62.7,8.89-1.19,9.23-5.48.14-1.78-.58-3.47-2.22-4.29-1.45-.72-3.17-.08-4.06,1.16.26.15.52.31.78.46,1.32-1.89,3.29-5.24,1.14-7.35-2.17-2.14-5.9-1.11-8.31.04.18.24.37.48.55.71,1.72-1.36,1.99-4.68-.12-5.89-2.09-1.2-4.8-.11-5.47,2.21-.16.56.71.8.88.24h0Z"/>
          <path class="cls-3" d="m86.56,89.26c-2,1.12-2.35,3.5-1.49,5.48.55,1.25,1.76,2.16,2.91,2.81.7.4.46.86.56,1.62.08.63.31,1.21.58,1.79,2.53,5.5,10.42,3.36,10.94-2.25.05-.58-.86-.58-.91,0-.26,2.83-2.93,5.01-5.77,4.56-2.64-.41-4.26-3.26-3.93-5.74.02-.14-.1-.34-.23-.39-1.41-.63-2.61-1.47-3.37-2.85-.8-1.46-.27-3.43,1.16-4.23.51-.29.05-1.07-.46-.78h0Z"/>
        </g>
        <g>
          <path class="cls-3" d="m18.65,217.93c-2.84-3.66-3.1-8.39-1.93-12.73,1.26-4.65,4.41-8.36,8.06-11.36,3.66-3.01,7.93-5.24,12.08-7.48,4.99-2.69,9.98-5.39,14.97-8.08l-.62-.62c-2.64,5.08-3.93,10.63-4.81,16.25-.92,5.83-1.23,11.85-2.97,17.51-1.62,5.26-5.24,9.13-10.54,10.68-4.61,1.34-9.86.52-13.65-2.47-.45-.36-1.1.28-.64.64,7.42,5.87,19.01,3.71,23.87-4.36,3.19-5.3,3.47-12.08,4.28-18.05.92-6.77,2.07-13.61,5.26-19.74.21-.41-.21-.84-.62-.62-5.45,2.94-10.9,5.88-16.35,8.83-4.49,2.43-8.95,4.99-12.72,8.47-6.33,5.85-10.14,16.27-4.31,23.78.36.46,1-.19.64-.64h0Z"/>
          <path class="cls-3" d="m19.56,220.31c2.78-8.94,8.4-16.81,15.98-22.3.47-.34.02-1.13-.46-.78-7.78,5.64-13.55,13.66-16.4,22.85-.17.56.7.8.88.24h0Z"/>
          <path class="cls-3" d="m17.76,219.36s.05-.02.08-.03c.24-.09.38-.3.32-.56,0-.03-.02-.07-.03-.1-.04-.18-.24-.35-.44-.33-.71.07-1.19.89-1.63,1.37-1.07,1.15-2.07,2.36-3.04,3.6-1.74,2.23-3.27,4.62-4.63,7.1-.12.21-.06.5.16.62.5.26,1.49,1.06,2.12.74,1.02-.51,1.39-2.21,1.98-3.15.9-1.43,2.02-2.73,3.07-4.05,1.1-1.38,2.16-3.11,3.94-3.65.56-.17.32-1.05-.24-.88-2.42.73-3.85,3.27-5.34,5.14-.88,1.1-1.74,2.21-2.48,3.41-.36.58-.65,1.2-.92,1.82-.35.81-1.13.11-1.66-.18.05.21.11.41.16.62,1.18-2.14,2.49-4.2,3.93-6.17.8-1.09,1.66-2.14,2.55-3.17.34-.4.7-.78,1.05-1.17.2-.22,1.06-1.11.99-1.1-.15-.11-.29-.22-.44-.33,0,.03.02.07.03.1.11-.19.21-.37.32-.56-.03,0-.05.02-.08.03-.55.2-.31,1.08.24.88h0Z"/>
        </g>
        <path class="cls-3" d="m34.78,24.52c-3.06-.43-6.27.13-9.18,1.07-3.3,1.06-5.57,3.18-7.74,5.83-4.84,5.89-7.36,13.57-6.96,21.17.39,7.28,3.64,14.42,9.18,19.2,6.08,5.25,14.62,7.04,22.46,6.49,5.88-.41,11.1-3.26,14-8.48.24-.44-.37-.95-.71-.55-1.78,2.04-4.86.93-7.03.22-2.57-.85-5.03-1.99-7.37-3.35-4.54-2.64-8.34-6.42-10.86-11.03-2.77-5.05-3.19-10.7-2.22-16.29.46-2.67,1.21-5.31,2.06-7.88.76-2.27,1.95-4.71,4.37-5.53.55-.19.31-1.07-.24-.88-2.16.73-3.43,2.47-4.34,4.47-1.29,2.81-2.01,6-2.62,9.02-1.21,6.05-.67,12.05,2.21,17.55,2.75,5.26,7.37,9.3,12.53,12.11,2.55,1.39,5.31,2.47,8.11,3.26,2.05.58,4.53.71,6.05-1.03-.24-.18-.48-.37-.71-.55-4.73,8.52-15.13,9.18-23.72,7.27-8.48-1.89-15.25-7.53-18.41-15.63-3.02-7.73-2.22-16.42,1.51-23.75,1.75-3.44,4.37-7.25,7.65-9.38,2.88-1.87,6.82-2.56,10.19-2.57.52,0,1.04.04,1.56.11.57.08.82-.79.24-.88h0Z"/>
        <g>
          <path class="cls-3" d="m258.46,161.91c-3.87,5.41-3.38,13.11.99,18.09,2.55,2.9,6.36,4.46,10.02,5.37,3.74.93,7.81,1.13,11.43-.37,6.12-2.55,8.08-10.14,6.27-16.05-2.09-6.81-9.2-12.03-15.93-13.61-5.9-1.39-9.87,3.06-13,7.37-.35.47.44.93.78.46,2.19-3.01,4.67-6.23,8.51-7.06,4.11-.88,8.83,1.92,12.03,4.24,6.12,4.45,9.62,12.52,5.69,19.57-4.27,7.68-15.54,5.77-21.87,2.09-6.81-3.96-8.69-13.27-4.13-19.64.34-.48-.45-.93-.78-.46h0Z"/>
          <path class="cls-3" d="m259.03,161.02c-4.87-7.28-10.15-14.28-15.81-20.97-.38-.45-1.02.2-.64.64,5.61,6.63,10.84,13.57,15.67,20.79.32.48,1.11.03.78-.46h0Z"/>
          <path class="cls-3" d="m255.8,172.32c-8.79.08-17.57.16-26.36.24-.59,0-.59.91,0,.91,8.79-.08,17.57-.16,26.36-.24.59,0,.59-.91,0-.91h0Z"/>
          <path class="cls-3" d="m271.46,155.66c-.8-7.65-1.12-15.33-.96-23.02.01-.59-.9-.59-.91,0-.16,7.69.16,15.37.96,23.02.06.58.97.58.91,0h0Z"/>
          <path class="cls-3" d="m279.47,160.1c4.45-7.29,9.58-14.16,14.99-20.77.37-.45-.27-1.1-.64-.64-5.45,6.67-10.64,13.6-15.13,20.95-.31.5.48.96.78.46h0Z"/>
          <path class="cls-3" d="m286.86,174.74c8.93-1.88,17.99-2.99,27.1-3.33.58-.02.59-.93,0-.91-9.2.34-18.34,1.46-27.34,3.36-.57.12-.33,1,.24.88h0Z"/>
          <path class="cls-3" d="m259.6,181.26c-4.44,4.96-8.88,9.93-13.31,14.89-.39.44.25,1.08.64.64,4.44-4.96,8.88-9.93,13.31-14.89.39-.44-.25-1.08-.64-.64h0Z"/>
          <path class="cls-3" d="m271.55,186.87c.22,6.06.44,12.12.66,18.17.02.58.93.59.91,0-.22-6.06-.44-12.12-.66-18.17-.02-.58-.93-.59-.91,0h0Z"/>
          <path class="cls-3" d="m282.2,184.57c5.5,3.52,10.84,7.28,16.01,11.26.46.36.92-.43.46-.78-5.17-3.98-10.52-7.74-16.01-11.26-.5-.32-.95.47-.46.78h0Z"/>
        </g>
        <path class="cls-3" d="m140.31,139.91c-2.06,1.63-1.59,4.88.61,6.13,2.47,1.4,5.44-.65,6.01-3.11.72-3.1-1.88-5.69-4.72-6.19-3.27-.57-6.16,1.62-7.73,4.3-1.72,2.93-1.41,6.5,1.5,8.45,2.64,1.76,6.43,1.77,9.36.85,3.03-.95,5.26-3.35,5.91-6.45.74-3.52-.95-7.05-3.45-9.44-2.45-2.35-6.1-3.9-9.5-3.91-3.67-.01-6.65,2.97-8.46,5.86-3.81,6.1-2.28,14.56,4.13,18.19,6.3,3.57,15.04.48,19.49-4.64,5.18-5.98,3.11-13.91-1.39-19.58-.36-.46-1,.19-.64.64,2.87,3.61,4.89,8.13,4.07,12.82-.69,3.91-3.6,7.03-6.91,8.99-3.68,2.18-8.35,2.94-12.46,1.7-4.14-1.24-6.9-5.29-7.41-9.45-.56-4.54,1.75-9.29,5.32-12.03,3.96-3.04,9.31-1.12,12.79,1.75,3.54,2.93,5.08,8.42,2,12.23-2.39,2.96-6.84,3.51-10.3,2.57-1.68-.45-3.25-1.4-3.94-3.06-.62-1.48-.15-3.26.48-4.65,1.3-2.82,4.22-4.75,7.34-4.2,3.3.57,5.21,5.12,2.15,7.25-3,2.1-6.52-2.09-3.61-4.4.46-.36-.19-1-.64-.64h0Z"/>
        <path class="cls-3" d="m218.72,146.18c-1.28-1.87-3.12-3.06-5.35-3.46-1.62-.29-4.19.02-4.83,1.86-1.55,4.49,5.39,7.63,8.77,8.05.57.07,1.96.47,2.37-.1,1.04-1.44,2.08-2.89,3.12-4.33,1.11-1.53,3.84-3.93,2.05-5.87-2.36-2.56-6.9-1.59-8.12,1.63-.21.55.67.78.88.24.94-2.48,4.43-3.21,6.37-1.47,1.5,1.34-1.15,3.89-1.96,5.02-.58.8-1.16,1.6-1.73,2.4-.56.78-.92,1.72-1.98,1.67-3.3-.15-7.65-2.02-8.91-5.31-1.04-2.72,2.38-3.17,4.18-2.85,1.8.32,3.36,1.48,4.37,2.97.33.48,1.12.03.78-.46h0Z"/>
        <path class="cls-3" d="m77.95,205.66c-4.37-1.42-10.84-.33-12.59,4.57-1.41,3.94.74,9.1,5.21,9.57.51.05.62-.8.12-.89-2.92-.52-6.06,1.19-7.06,4.05-1.11,3.17-.06,6.6,2.26,8.95,4.07,4.11,11.68,3.48,15.22-.95-.24-.03-.48-.06-.71-.09,3.6,5.05,8.41,10.07,15.18,9.01,6.43-1.01,10.17-7.77,8.44-13.83-.28.12-.55.23-.83.35,2.1,2.98,5.52,4.56,9.15,4.48,3.67-.08,6.76-2.41,8.42-5.59,3.74-7.19-2.48-15.59-10.38-14.7.08.28.15.56.23.85,2.3-.98,3.6-3.62,3.22-6.07-.5-3.17-2.92-5.48-5.64-6.94-5.46-2.94-12.58-1.9-17.2,2.1.25.07.51.13.76.2-1.17-4.05-5.54-6.52-9.61-5.42-4.07,1.1-6.22,6.01-4.99,9.85.18.56,1.06.32.88-.24-1.14-3.54.82-7.53,4.35-8.73,3.53-1.2,7.52,1.38,8.5,4.79.1.35.5.42.76.2,3.9-3.38,9.34-4.3,14.21-2.76,2.56.81,4.92,2.5,6.31,4.82,1.53,2.55.88,6.2-2,7.42-.41.17-.21.9.23.85,3.32-.38,6.43.99,8.61,3.49,2.29,2.63,2.49,6.36,1.16,9.47-2.84,6.66-12.08,7.28-16.17,1.48-.29-.41-.98-.17-.83.35,1.74,6.09-2.33,12.11-8.6,12.82-5.89.67-10.29-4.4-13.35-8.7-.15-.21-.52-.34-.71-.09-2.99,3.75-8.53,4.4-12.57,2.01-2.45-1.45-3.84-4.25-3.82-7.05.03-3.28,3.1-6.07,6.37-5.49.04-.3.08-.6.12-.89-4.09-.43-5.75-5.61-4.09-8.95,1.98-3.97,7.44-4.65,11.23-3.41.56.18.8-.7.24-.88h0Z"/>
        <g>
          <path class="cls-3" d="m185.54,235.8c-.31.29-.61.59-.92.88-.31.3,0,.93.44.76,15.43-6.22,30.98-12.12,46.65-17.7.55-.2.31-1.07-.24-.88-15.67,5.58-31.22,11.48-46.65,17.7.15.25.29.51.44.76.31-.29.61-.59.92-.88.42-.41-.22-1.05-.64-.64h0Z"/>
          <path class="cls-3" d="m183.67,238.26c1.02,6.81,5.63,12.77,12.04,15.34,4.16,1.67,8.74,2.58,13.16,3.21,4.03.57,8.14.56,12.06-.59,3.31-.97,6.35-2.87,8.5-5.57,2.27-2.86,3.08-6.53,3.5-10.07.54-4.49.62-9.08.66-13.6.02-2.78.24-6.42-2.5-8.06-.5-.3-.96.48-.46.78,2.91,1.75,2.07,6.8,2.01,9.63-.07,3.75-.23,7.52-.63,11.25-.4,3.66-1.39,7.29-3.82,10.13-2.15,2.52-5.27,4.04-8.41,4.88-3.85,1.03-7.96.77-11.85.16-3.7-.57-7.46-1.4-10.98-2.65-6.61-2.34-11.38-8.17-12.41-15.09-.09-.58-.96-.33-.88.24h0Z"/>
          <path class="cls-3" d="m228.16,221.47c0,2.72,0,5.44,0,8.16-.01,2.79-.26,5.53-1.42,8.09-1.85,4.07-5.66,7.05-9.83,8.45-4.97,1.67-10.98.75-15.9-.71-5.03-1.49-9.71-4.84-11.48-9.94-.19-.55-1.07-.31-.88.24,1.66,4.77,5.58,8,10.14,9.88,2.63,1.08,5.46,1.6,8.27,1.95,3.09.39,6.23.45,9.26-.31,4.54-1.15,8.53-4.29,10.82-8.35,1.22-2.18,1.7-4.62,1.86-7.08.23-3.44.07-6.94.07-10.38,0-.59-.91-.59-.91,0h0Z"/>
          <path class="cls-3" d="m197.84,240.34c.76-.2,1.51-.41,2.27-.61.41-.11.42-.61.11-.83-.77-.55-1.74-.7-2.65-.43-.56.16-.32,1.04.24.88.69-.2,1.36-.07,1.95.34.04-.28.07-.55.11-.83l-2.27.61c-.57.15-.33,1.03.24.88h0Z"/>
          <path class="cls-3" d="m205.4,243.85c.6,0,1.21,0,1.81,0,.34,0,.58-.39.39-.68-.59-.93-1.7-1.37-2.76-1.08-.56.16-.32,1.03.24.88.66-.18,1.36.07,1.73.66.13-.23.26-.46.39-.68-.6,0-1.21,0-1.81,0-.59,0-.59.91,0,.91h0Z"/>
          <path class="cls-3" d="m219.64,238.95c.59-.19,1.19-.39,1.78-.58.48-.16.41-.9-.12-.89-.45,0-.91,0-1.36,0-.59,0-.59.91,0,.91.45,0,.91,0,1.36,0-.04-.3-.08-.6-.12-.89l-1.78.58c-.55.18-.32,1.06.24.88h0Z"/>
          <path class="cls-3" d="m212.37,235.32c.6-.2,1.2-.39,1.8-.59.18-.06.35-.23.33-.44-.05-.82-1.03-1.22-1.64-.67-.44.39.21,1.03.64.64,0,0,.09.05.09.03.11-.15.22-.29.33-.44-.6.2-1.2.39-1.8.59-.55.18-.32,1.06.24.88h0Z"/>
          <path class="cls-3" d="m219.48,229.77c.47-.05.93-.11,1.4-.16.25-.03.45-.19.45-.45,0-.23-.21-.48-.45-.45-.47.05-.93.11-1.4.16-.25.03-.45.19-.45.45,0,.23.21.48.45.45h0Z"/>
        </g>
        <path class="cls-3" d="m240.5,10.13c-1.26,4.37-4.1,8.17-4.19,12.85-.06,3.16,2.1,6.66,5.5,6.93,3.39.28,5.3-2.72,5.41-5.8.08-2.22-.88-4.41-1.67-6.44-.95-2.46-1.91-4.93-2.86-7.39-.21-.54-1.09-.31-.88.24,1.28,3.32,2.67,6.61,3.82,9.98.63,1.84.91,3.74.34,5.62-.6,1.96-2.4,3.17-4.42,2.83-3.96-.66-4.71-5.19-4.06-8.43.71-3.57,2.88-6.67,3.89-10.15.16-.56-.71-.8-.88-.24h0Z"/>
        <path class="cls-3" d="m121.01,179.84c-.82,2.25-1.63,4.49-2.45,6.74-.72,1.98-1.41,3.93-1.52,6.04-.15,2.94,1.93,6.09,5.08,6,3.28-.1,4.66-4.02,4.37-6.72-.47-4.32-4.07-7.58-4.33-11.97-.03-.58-.94-.59-.91,0,.17,2.89,1.6,5.33,2.88,7.86,1.52,3.01,2.64,7.23-.72,9.48-1.7,1.14-3.61.06-4.62-1.42-1.07-1.55-.94-3.53-.57-5.28.76-3.56,2.42-7.07,3.66-10.49.2-.55-.68-.79-.88-.24h0Z"/>
        <g>
          <path class="cls-3" d="m313.39,232.01c-8.12-3.47-16.87-5.07-25.69-4.72-6.65.26-16.91,1.24-19.71,8.54-1.13,2.97-.85,6.17,1.5,8.45,2.49,2.42,6.72,2.96,9.99,3.37,8.63,1.07,17.35-.17,25.34-3.58,3.99-1.7,8.21-4.44,9.13-8.98.12-.57-.76-.82-.88-.24-.78,3.86-4.11,6.21-7.44,7.86-3.88,1.92-8.17,3.11-12.43,3.83-4.35.73-8.82.77-13.2.28-3.95-.45-9.67-1.15-11.39-5.36-1.6-3.9,1.24-8,4.43-9.98,3.76-2.33,8.72-2.84,13.03-3.17,9.14-.71,18.44.9,26.86,4.5.53.23,1-.56.46-.78h0Z"/>
          <path class="cls-3" d="m273.68,237.91h.61c.59,0,.59-.91,0-.91h-.61c-.59,0-.59.91,0,.91h0Z"/>
          <path class="cls-3" d="m284.04,229.88c2.23,4.6,2.28,9.96.13,14.6.28.12.55.23.83.35,1.71-5.23,1.82-10.79.33-16.09-.16-.56-1.03-.32-.88.24,1.44,5.15,1.33,10.52-.33,15.61-.16.49.61.82.83.35,2.3-4.96,2.25-10.6-.13-15.52-.26-.53-1.04-.07-.78.46h0Z"/>
          <path class="cls-3" d="m284.09,228.37c.17,6.39.29,12.83-1.38,19.06-.13.48.61.83.83.35,2.55-5.54,3.17-11.69,1.74-17.63-.14-.57-1.01-.33-.88.24,1.37,5.68.8,11.62-1.65,16.93.28.12.55.23.83.35,1.69-6.3,1.58-12.83,1.41-19.3-.02-.58-.92-.59-.91,0h0Z"/>
          <path class="cls-3" d="m283.81,228.6c1.82,5.64,1.73,11.63-.24,17.22-.17.49.58.79.83.35,2.89-5.08,3.52-11.12,1.73-16.69-.18-.56-1.05-.32-.88.24,1.99,6.34,2.3,13.51-1.4,19.3-.27.43.39.96.71.55,3.42-4.33,4.83-9.8,3.92-15.24-.1-.58-.97-.33-.88.24.85,5.08-.49,10.31-3.68,14.36.24.18.48.37.71.55,3.83-5.98,3.55-13.44,1.49-20-.29.08-.58.16-.88.24,1.72,5.34,1.13,11.11-1.64,15.99.28.12.55.23.83.35,2.02-5.73,2.1-11.92.24-17.71-.18-.56-1.06-.32-.88.24h0Z"/>
          <path class="cls-3" d="m286.65,230.27c2.05,5.44,2.04,11.35-.04,16.78.29.08.58.16.88.24,1.97-5.78,1.98-12,.02-17.79-.28.12-.55.23-.83.35,2.78,4.69,3.19,10.37,1.16,15.42.29.08.58.16.88.24,1.7-5.6,3.37-11.89.49-17.4-.24-.46-.97-.14-.83.35,1.27,4.31,1.69,8.76,1.26,13.23-.06.58.85.58.91,0,.44-4.55,0-9.09-1.29-13.47-.28.12-.55.23-.83.35,2.76,5.27,1.05,11.35-.58,16.7-.17.57.66.77.88.24,2.12-5.27,1.64-11.24-1.25-16.12-.26-.43-1-.15-.83.35,1.91,5.65,1.9,11.67-.02,17.31-.19.56.67.78.88.24,2.13-5.56,2.14-11.69.04-17.26-.2-.54-1.08-.31-.88.24h0Z"/>
          <path class="cls-3" d="m297.24,229.64c2.24,4.66,2.64,9.91,1.17,14.86-.17.57.69.79.88.24,1.82-5.3,2.33-10.86,1.53-16.4-.29.08-.58.16-.88.24,1.06,4.86,2.11,10.48-1.07,14.79.28.12.55.23.83.35,1.55-4.34,2.28-8.87,2.17-13.48-.3.04-.6.08-.89.12,1.24,4.99.97,10.14-.78,14.98.3.04.6.08.89.12.55-5.06,1.1-10.12,1.65-15.17-.28.08-.56.15-.85.23,1.71,3.11,2.02,6.66.92,10.03-.18.56.7.8.88.24,1.17-3.6.8-7.42-1.02-10.73-.24-.43-.8-.19-.85.23-.55,5.06-1.1,10.12-1.65,15.17-.06.54.73.57.89.12,1.8-4.98,2.07-10.32.78-15.46-.12-.5-.91-.39-.89.12.11,4.53-.61,8.97-2.13,13.24-.19.52.55.73.83.35,3.33-4.5,2.27-10.41,1.16-15.49-.13-.58-.96-.32-.88.24.77,5.37.23,10.79-1.53,15.92.29.08.58.16.88.24,1.55-5.19,1.09-10.68-1.26-15.56-.25-.53-1.04-.07-.78.46h0Z"/>
          <path class="cls-3" d="m286.51,228.91c-2.24-5.12-3.15-10.65-2.74-16.22.09-1.18.38-2.34,1.12-3.3,1.29-1.66,2.6.3,3.17,1.45,1.31,2.63,1.97,5.55,2.14,8.47.3-.04.6-.08.89-.12-.41-2.96,1.9-5.02,4.23-6.33,1.11-.63,2.34-1.23,3.56-1.59,1.74-.52,2.59,1.36,2.94,2.66,1.29,4.74-.73,10.38-3.74,14.04-.37.45.27,1.1.64.64,2.05-2.49,3.39-5.37,4-8.53.52-2.71.67-6.32-1.07-8.64-1.85-2.45-5.28-.21-7.24.9-2.6,1.46-4.63,4-4.2,7.1.07.51.92.39.89-.12-.2-3.42-1.07-6.75-2.7-9.77-1.17-2.16-3.38-2.09-4.64-.12-1.6,2.49-1.1,6.48-.86,9.24.33,3.7,1.33,7.31,2.82,10.71.23.54,1.02.07.78-.46h0Z"/>
          <path class="cls-3" d="m279.44,227.58c-1.35-2.34-2.27-4.83-2.8-7.48-.3-1.5-.67-3.99,1.49-4.19,1.27-.12,2.6.8,3.58,1.51.48.34.93-.44.46-.78-1.64-1.18-5.73-3.02-6.51.21-.41,1.67.05,3.46.45,5.09.53,2.15,1.43,4.19,2.53,6.11.29.51,1.08.05.78-.46h0Z"/>
        </g>
        <g>
          <path class="cls-3" d="m149.74,246.37c4.34-3.95,5.83-10.18,4.33-15.78-1.78-6.65-8.17-10.13-14.25-12.16-.18-.06-.42.04-.51.21-3.06,5.89-3.87,12.62-2.5,19.1,1.02,4.82,4.38,13.06,10.66,11.79.21-.04.32-.25.33-.44.79-10.13-1.7-20.31-7.08-28.94-.31-.5-1.1-.04-.78.46,5.3,8.5,7.74,18.49,6.96,28.48.11-.15.22-.29.33-.44-3.14.64-5.54-1.96-7.02-4.41-1.49-2.46-2.31-5.39-2.8-8.21-1-5.74.02-11.79,2.69-16.94-.17.07-.34.14-.51.21,5.75,1.92,11.49,5.02,13.5,11.13,1.74,5.31.14,11.53-3.98,15.28-.43.39.21,1.04.64.64h0Z"/>
          <path class="cls-3" d="m146.58,238.28c1.27-1.73,2.71-3.29,4.32-4.69.4-.35-.11-.95-.55-.71-1.39.74-2.63,1.67-3.74,2.78-.36.36.12,1.01.55.71,1.8-1.24,3.6-2.47,5.4-3.71.48-.33.03-1.12-.46-.78-1.8,1.24-3.6,2.47-5.4,3.71.18.24.37.48.55.71,1.06-1.06,2.24-1.93,3.56-2.64-.18-.24-.37-.48-.55-.71-1.68,1.46-3.16,3.08-4.47,4.88-.35.47.44.93.78.46h0Z"/>
          <path class="cls-3" d="m144.28,228.41c.67-1.71,1.34-3.41,2.02-5.12.19-.49-.59-.79-.83-.35l-2.38,4.32c-.24.44.36.94.71.55,1.35-1.46,2.45-3.08,3.32-4.88.25-.53-.53-.99-.78-.46-.83,1.72-1.88,3.28-3.18,4.69.24.18.48.37.71.55.79-1.44,1.58-2.88,2.38-4.32-.28-.12-.55-.23-.83-.35-.67,1.71-1.34,3.41-2.02,5.12-.22.55.66.78.88.24h0Z"/>
          <path class="cls-3" d="m144.3,232.03c-2.87-.53-5.75-1.05-8.62-1.58-.58-.11-.79.67-.24.88,2.54.94,5.15,1.44,7.85,1.51.5.01.63-.81.12-.89-2.11-.35-4.23-.7-6.34-1.05-.57-.09-.82.78-.24.88,2.11.35,4.23.7,6.34,1.05.04-.3.08-.6.12-.89-2.63-.07-5.15-.56-7.61-1.47-.08.29-.16.58-.24.88,2.87.53,5.75,1.05,8.62,1.58.57.11.82-.77.24-.88h0Z"/>
          <path class="cls-3" d="m146.11,242.56c-3.47-.55-6.94-1.09-10.41-1.64-.56-.09-.82.73-.24.88,2.73.7,5.49,1.16,8.3,1.38.58.05.58-.86,0-.91-2.73-.22-5.41-.67-8.06-1.34-.08.29-.16.58-.24.88,3.47.55,6.94,1.09,10.41,1.64.57.09.82-.79.24-.88h0Z"/>
          <path class="cls-3" d="m147.83,249.72c.47-1.17,1.21-2.17,2.16-2.99.2-.17.15-.47,0-.64-.72-.82-2.26-.41-2.43.69-.08.57.79.82.88.24.06-.44.6-.64.91-.29v-.64c-1.08.93-1.87,2.08-2.4,3.39-.22.54.66.78.88.24h0Z"/>
          <path class="cls-3" d="m147.79,249.7c.17-.7,0-1.33-.56-1.8l.07.55c1.05-1.46,2.25-2.78,3.6-3.97.44-.39-.21-1.03-.64-.64-1.41,1.24-2.65,2.63-3.74,4.15-.11.15-.07.43.07.55.32.21.43.52.32.92-.14.57.74.81.88.24h0Z"/>
        </g>
      </g>
      <g>
        <path class="cls-3" d="m-14.44,104.96c5.26-2.33,10.66-4.28,16.19-5.86.56-.16.32-1.04-.24-.88-5.61,1.6-11.08,3.59-16.41,5.95-.53.24-.07,1.02.46.78h0Z"/>
        <path class="cls-3" d="m.27,97.64c.24.92.47,1.84.71,2.76.09.34.52.44.76.2.76-.75,1.61-1.37,2.56-1.88.37-.2.24-.71-.11-.83-.81-.27-1.61-.55-2.42-.82-.56-.19-.79.69-.24.88.81.27,1.61.55,2.42.82-.04-.28-.07-.55-.11-.83-1.01.54-1.93,1.22-2.74,2.02.25.07.51.13.76.2-.24-.92-.47-1.84-.71-2.76-.14-.57-1.02-.33-.88.24H.27Z"/>
      </g>
      <path class="cls-3" d="m183.67-16.2c1.02,6.81,5.63,12.77,12.04,15.34,4.16,1.67,8.74,2.58,13.16,3.21,4.03.57,8.14.56,12.06-.59,3.31-.97,6.35-2.87,8.5-5.57,2.27-2.86,3.08-6.53,3.5-10.07.54-4.49.62-9.08.66-13.6.02-2.78.24-6.42-2.5-8.06-.5-.3-.96.48-.46.78,2.91,1.75,2.07,6.8,2.01,9.63-.07,3.75-.23,7.52-.63,11.25-.4,3.66-1.39,7.29-3.82,10.13-2.15,2.52-5.27,4.04-8.41,4.88-3.85,1.03-7.96.77-11.85.16-3.7-.57-7.46-1.4-10.98-2.65-6.61-2.34-11.38-8.17-12.41-15.09-.09-.58-.96-.33-.88.24h0Z"/>
    </g>
  </g>
</svg>