<?xml version="1.0" encoding="UTF-8"?>
<svg id="Layer_2" data-name="Layer 2" xmlns="http://www.w3.org/2000/svg" xmlns:xlink="http://www.w3.org/1999/xlink" viewBox="0 0 100 35.09">
  <defs>
    <style>
      .cls-1, .cls-2 {
        fill: none;
        stroke: #babcbd;
        stroke-linecap: round;
        stroke-miterlimit: 10;
        stroke-width: .1px;
      }

      .cls-3, .cls-4, .cls-5 {
        fill: #fff;
      }

      .cls-2 {
        stroke-dasharray: 0 0 .2 .5;
      }

      .cls-6, .cls-4 {
        opacity: .5;
      }

      .cls-7 {
        fill: url(#radial-gradient);
      }

      .cls-5 {
        opacity: .75;
      }
    </style>
    <radialGradient id="radial-gradient" cx="50" cy="16.58" fx="50" fy="16.58" r="77.19" gradientUnits="userSpaceOnUse">
      <stop offset="0" stop-color="#f0b745"/>
      <stop offset="1" stop-color="#f09e40"/>
    </radialGradient>
  </defs>
  <g id="Layer_1-2" data-name="Layer 1">
    <path class="cls-7" d="m100,.03s-15.82,3.71-30.2,4.96c-18.18,1.58-18.7,1.65-34.62.38S5.71,1.35,0,0v25.57s5.73,2.48,13.32,2.7c3.91.08,8.71-1.05,11.19-2.55,1.5-.83,5.33-2.93,10.44-.6,6.23,2.18,16.52,7.36,21.18,7.81,5.18.45,7.21.45,11.94-1.8,2.55-1.35,14.52-7.66,31.93-5.71V.03Z"/>
    <g>
      <path class="cls-1" d="m99.94,27.24s-.07,0-.1-.01"/>
      <path class="cls-2" d="m99.35,27.17c-17.09-1.74-28.77,4.49-31.29,5.83-4.73,2.25-6.76,2.25-11.94,1.8-4.66-.45-14.95-5.63-21.18-7.81-5.11-2.33-8.94-.23-10.44.6-2.48,1.5-7.29,2.63-11.19,2.55-6.54-.19-11.62-2.08-12.91-2.6"/>
      <path class="cls-1" d="m.17,27.45c-.06-.02-.09-.04-.09-.04"/>
    </g>
    <g>
      <path class="cls-1" d="m99.94,26.27s-.07,0-.1-.01"/>
      <path class="cls-2" d="m99.35,26.2c-17.09-1.74-28.77,4.49-31.29,5.83-4.73,2.25-6.76,2.25-11.94,1.8-4.66-.45-14.95-5.63-21.18-7.81-5.11-2.33-8.94-.23-10.44.6-2.48,1.5-7.29,2.63-11.19,2.55-6.54-.19-11.62-2.08-12.91-2.6"/>
      <path class="cls-1" d="m.17,26.48c-.06-.02-.09-.04-.09-.04"/>
    </g>
    <path class="cls-4" d="m7.69,2.95c0,2.6-2.11,4.71-4.71,4.71-1.14,0-2.17-.42-2.98-1.09v1.24c.87.53,1.89.85,2.98.85,3.15,0,5.71-2.56,5.71-5.71,0-.4-.04-.79-.12-1.16-.37-.07-.75-.14-1.11-.21.13.44.23.89.23,1.37Z"/>
    <path class="cls-4" d="m29.45,16.44c-2.46,0-4.45,2-4.45,4.45,0,1.55.8,2.91,2,3.71.33-.11.68-.2,1.05-.29-1.34-.56-2.29-1.88-2.29-3.42,0-2.04,1.66-3.7,3.7-3.7s3.7,1.66,3.7,3.7c0,1.39-.77,2.58-1.9,3.22.35.03.71.08,1.07.16.96-.82,1.58-2.02,1.58-3.37,0-2.46-2-4.45-4.45-4.45Z"/>
    <path class="cls-4" d="m76.88,20.15c-4.27,0-7.74,3.47-7.74,7.74,0,.87.15,1.7.41,2.48.21-.1.44-.21.68-.32-.22-.68-.34-1.4-.34-2.15,0-3.85,3.13-6.99,6.99-6.99,3.16,0,5.84,2.11,6.7,5,.24-.04.49-.08.74-.12-.92-3.24-3.9-5.63-7.44-5.63Z"/>
    <path class="cls-4" d="m85.32,14.62c-2.43,0-4.4-1.97-4.4-4.4s1.97-4.4,4.4-4.4,4.4,1.97,4.4,4.4-1.97,4.4-4.4,4.4Zm0-8.05c-2.01,0-3.65,1.64-3.65,3.65s1.64,3.65,3.65,3.65,3.65-1.64,3.65-3.65-1.64-3.65-3.65-3.65Z"/>
    <g class="cls-6">
      <path class="cls-3" d="m23.12,15.16h-.1c-.07,0-.12-.06-.12-.12s.06-.12.12-.12h.1c.07,0,.12.06.12.12s-.06.12-.12.12Z"/>
      <path class="cls-3" d="m22.52,15.16h-.2c-.07,0-.12-.06-.12-.12s.06-.12.12-.12h.2c.07,0,.12.06.12.12s-.06.12-.12.12Zm-.7,0h-.2c-.07,0-.12-.06-.12-.12s.06-.12.12-.12h.2c.07,0,.12.06.12.12s-.06.12-.12.12Zm-.7,0h-.2c-.07,0-.12-.06-.12-.12s.06-.12.12-.12h.2c.07,0,.12.06.12.12s-.06.12-.12.12Zm-.7,0h-.2c-.07,0-.12-.06-.12-.12s.06-.12.12-.12h.2c.07,0,.12.06.12.12s-.06.12-.12.12Zm-.7,0h-.2c-.07,0-.12-.06-.12-.12s.06-.12.12-.12h.2c.07,0,.12.06.12.12s-.06.12-.12.12Zm-.7,0h-.2c-.07,0-.12-.06-.12-.12s.06-.12.12-.12h.2c.07,0,.12.06.12.12s-.06.12-.12.12Zm-.7,0h-.2c-.07,0-.12-.06-.12-.12s.06-.12.12-.12h.2c.07,0,.12.06.12.12s-.06.12-.12.12Zm-.7,0h-.2c-.07,0-.12-.06-.12-.12s.06-.12.12-.12h.2c.07,0,.12.06.12.12s-.06.12-.12.12Zm-.7,0h-.2c-.07,0-.12-.06-.12-.12s.06-.12.12-.12h.2c.07,0,.12.06.12.12s-.06.12-.12.12Zm-.7,0h-.2c-.07,0-.12-.06-.12-.12s.06-.12.12-.12h.2c.07,0,.12.06.12.12s-.06.12-.12.12Zm-.7,0h-.2c-.07,0-.12-.06-.12-.12s.06-.12.12-.12h.2c.07,0,.12.06.12.12s-.06.12-.12.12Z"/>
      <path class="cls-3" d="m14.78,15.16h-.1c-.07,0-.12-.06-.12-.12s.06-.12.12-.12h.1c.07,0,.12.06.12.12s-.06.12-.12.12Z"/>
    </g>
    <g class="cls-6">
      <path class="cls-3" d="m23.29,16.21h-.1c-.07,0-.12-.06-.12-.12s.06-.12.12-.12h.1c.07,0,.12.06.12.12s-.06.12-.12.12Z"/>
      <path class="cls-3" d="m22.68,16.21h-.2c-.07,0-.12-.06-.12-.12s.06-.12.12-.12h.2c.07,0,.12.06.12.12s-.06.12-.12.12Zm-.7,0h-.2c-.07,0-.12-.06-.12-.12s.06-.12.12-.12h.2c.07,0,.12.06.12.12s-.06.12-.12.12Zm-.7,0h-.2c-.07,0-.12-.06-.12-.12s.06-.12.12-.12h.2c.07,0,.12.06.12.12s-.06.12-.12.12Zm-.7,0h-.2c-.07,0-.12-.06-.12-.12s.06-.12.12-.12h.2c.07,0,.12.06.12.12s-.06.12-.12.12Zm-.7,0h-.2c-.07,0-.12-.06-.12-.12s.06-.12.12-.12h.2c.07,0,.12.06.12.12s-.06.12-.12.12Zm-.7,0h-.2c-.07,0-.12-.06-.12-.12s.06-.12.12-.12h.2c.07,0,.12.06.12.12s-.06.12-.12.12Zm-.7,0h-.2c-.07,0-.12-.06-.12-.12s.06-.12.12-.12h.2c.07,0,.12.06.12.12s-.06.12-.12.12Zm-.7,0h-.2c-.07,0-.12-.06-.12-.12s.06-.12.12-.12h.2c.07,0,.12.06.12.12s-.06.12-.12.12Zm-.7,0h-.2c-.07,0-.12-.06-.12-.12s.06-.12.12-.12h.2c.07,0,.12.06.12.12s-.06.12-.12.12Zm-.7,0h-.2c-.07,0-.12-.06-.12-.12s.06-.12.12-.12h.2c.07,0,.12.06.12.12s-.06.12-.12.12Zm-.7,0h-.2c-.07,0-.12-.06-.12-.12s.06-.12.12-.12h.2c.07,0,.12.06.12.12s-.06.12-.12.12Z"/>
      <path class="cls-3" d="m14.95,16.21h-.1c-.07,0-.12-.06-.12-.12s.06-.12.12-.12h.1c.07,0,.12.06.12.12s-.06.12-.12.12Z"/>
    </g>
    <g class="cls-6">
      <path class="cls-3" d="m22.25,17.26h-.1c-.07,0-.12-.06-.12-.12s.06-.12.12-.12h.1c.07,0,.12.06.12.12s-.06.12-.12.12Z"/>
      <path class="cls-3" d="m21.67,17.26h-.19c-.07,0-.12-.06-.12-.12s.06-.12.12-.12h.19c.07,0,.12.06.12.12s-.06.12-.12.12Zm-.68,0h-.19c-.07,0-.12-.06-.12-.12s.06-.12.12-.12h.19c.07,0,.12.06.12.12s-.06.12-.12.12Zm-.68,0h-.19c-.07,0-.12-.06-.12-.12s.06-.12.12-.12h.19c.07,0,.12.06.12.12s-.06.12-.12.12Zm-.68,0h-.19c-.07,0-.12-.06-.12-.12s.06-.12.12-.12h.19c.07,0,.12.06.12.12s-.06.12-.12.12Zm-.68,0h-.19c-.07,0-.12-.06-.12-.12s.06-.12.12-.12h.19c.07,0,.12.06.12.12s-.06.12-.12.12Zm-.68,0h-.19c-.07,0-.12-.06-.12-.12s.06-.12.12-.12h.19c.07,0,.12.06.12.12s-.06.12-.12.12Zm-.68,0h-.19c-.07,0-.12-.06-.12-.12s.06-.12.12-.12h.19c.07,0,.12.06.12.12s-.06.12-.12.12Zm-.68,0h-.19c-.07,0-.12-.06-.12-.12s.06-.12.12-.12h.19c.07,0,.12.06.12.12s-.06.12-.12.12Zm-.68,0h-.19c-.07,0-.12-.06-.12-.12s.06-.12.12-.12h.19c.07,0,.12.06.12.12s-.06.12-.12.12Z"/>
      <path class="cls-3" d="m15.59,17.26h-.1c-.07,0-.12-.06-.12-.12s.06-.12.12-.12h.1c.07,0,.12.06.12.12s-.06.12-.12.12Z"/>
    </g>
    <g class="cls-6">
      <path class="cls-3" d="m23.12,18.31h-.1c-.07,0-.12-.06-.12-.12s.06-.12.12-.12h.1c.07,0,.12.06.12.12s-.06.12-.12.12Z"/>
      <path class="cls-3" d="m22.52,18.31h-.2c-.07,0-.12-.06-.12-.12s.06-.12.12-.12h.2c.07,0,.12.06.12.12s-.06.12-.12.12Zm-.69,0h-.2c-.07,0-.12-.06-.12-.12s.06-.12.12-.12h.2c.07,0,.12.06.12.12s-.06.12-.12.12Zm-.69,0h-.2c-.07,0-.12-.06-.12-.12s.06-.12.12-.12h.2c.07,0,.12.06.12.12s-.06.12-.12.12Zm-.69,0h-.2c-.07,0-.12-.06-.12-.12s.06-.12.12-.12h.2c.07,0,.12.06.12.12s-.06.12-.12.12Zm-.69,0h-.2c-.07,0-.12-.06-.12-.12s.06-.12.12-.12h.2c.07,0,.12.06.12.12s-.06.12-.12.12Zm-.69,0h-.2c-.07,0-.12-.06-.12-.12s.06-.12.12-.12h.2c.07,0,.12.06.12.12s-.06.12-.12.12Zm-.69,0h-.2c-.07,0-.12-.06-.12-.12s.06-.12.12-.12h.2c.07,0,.12.06.12.12s-.06.12-.12.12Zm-.69,0h-.2c-.07,0-.12-.06-.12-.12s.06-.12.12-.12h.2c.07,0,.12.06.12.12s-.06.12-.12.12Zm-.69,0h-.2c-.07,0-.12-.06-.12-.12s.06-.12.12-.12h.2c.07,0,.12.06.12.12s-.06.12-.12.12Zm-.69,0h-.2c-.07,0-.12-.06-.12-.12s.06-.12.12-.12h.2c.07,0,.12.06.12.12s-.06.12-.12.12Zm-.69,0h-.2c-.07,0-.12-.06-.12-.12s.06-.12.12-.12h.2c.07,0,.12.06.12.12s-.06.12-.12.12Z"/>
      <path class="cls-3" d="m14.91,18.31h-.1c-.07,0-.12-.06-.12-.12s.06-.12.12-.12h.1c.07,0,.12.06.12.12s-.06.12-.12.12Z"/>
    </g>
    <g class="cls-6">
      <path class="cls-3" d="m22.55,19.41h-.1c-.07,0-.12-.06-.12-.12s.06-.12.12-.12h.1c.07,0,.12.06.12.12s-.06.12-.12.12Z"/>
      <path class="cls-3" d="m21.93,19.41h-.21c-.07,0-.12-.06-.12-.12s.06-.12.12-.12h.21c.07,0,.12.06.12.12s-.06.12-.12.12Zm-.73,0h-.21c-.07,0-.12-.06-.12-.12s.06-.12.12-.12h.21c.07,0,.12.06.12.12s-.06.12-.12.12Zm-.73,0h-.21c-.07,0-.12-.06-.12-.12s.06-.12.12-.12h.21c.07,0,.12.06.12.12s-.06.12-.12.12Zm-.72,0h-.21c-.07,0-.12-.06-.12-.12s.06-.12.12-.12h.21c.07,0,.12.06.12.12s-.06.12-.12.12Zm-.73,0h-.21c-.07,0-.12-.06-.12-.12s.06-.12.12-.12h.21c.07,0,.12.06.12.12s-.06.12-.12.12Zm-.73,0h-.21c-.07,0-.12-.06-.12-.12s.06-.12.12-.12h.21c.07,0,.12.06.12.12s-.06.12-.12.12Zm-.73,0h-.21c-.07,0-.12-.06-.12-.12s.06-.12.12-.12h.21c.07,0,.12.06.12.12s-.06.12-.12.12Zm-.73,0h-.21c-.07,0-.12-.06-.12-.12s.06-.12.12-.12h.21c.07,0,.12.06.12.12s-.06.12-.12.12Zm-.73,0h-.21c-.07,0-.12-.06-.12-.12s.06-.12.12-.12h.21c.07,0,.12.06.12.12s-.06.12-.12.12Z"/>
      <path class="cls-3" d="m15.41,19.41h-.1c-.07,0-.12-.06-.12-.12s.06-.12.12-.12h.1c.07,0,.12.06.12.12s-.06.12-.12.12Z"/>
    </g>
    <g class="cls-6">
      <path class="cls-3" d="m23.03,20.44h-.1c-.07,0-.12-.06-.12-.12s.06-.12.12-.12h.1c.07,0,.12.06.12.12s-.06.12-.12.12Z"/>
      <path class="cls-3" d="m22.44,20.44h-.2c-.07,0-.12-.06-.12-.12s.06-.12.12-.12h.2c.07,0,.12.06.12.12s-.06.12-.12.12Zm-.68,0h-.2c-.07,0-.12-.06-.12-.12s.06-.12.12-.12h.2c.07,0,.12.06.12.12s-.06.12-.12.12Zm-.68,0h-.2c-.07,0-.12-.06-.12-.12s.06-.12.12-.12h.2c.07,0,.12.06.12.12s-.06.12-.12.12Zm-.68,0h-.2c-.07,0-.12-.06-.12-.12s.06-.12.12-.12h.2c.07,0,.12.06.12.12s-.06.12-.12.12Zm-.68,0h-.2c-.07,0-.12-.06-.12-.12s.06-.12.12-.12h.2c.07,0,.12.06.12.12s-.06.12-.12.12Zm-.68,0h-.2c-.07,0-.12-.06-.12-.12s.06-.12.12-.12h.2c.07,0,.12.06.12.12s-.06.12-.12.12Zm-.68,0h-.2c-.07,0-.12-.06-.12-.12s.06-.12.12-.12h.2c.07,0,.12.06.12.12s-.06.12-.12.12Zm-.68,0h-.2c-.07,0-.12-.06-.12-.12s.06-.12.12-.12h.2c.07,0,.12.06.12.12s-.06.12-.12.12Zm-.68,0h-.2c-.07,0-.12-.06-.12-.12s.06-.12.12-.12h.2c.07,0,.12.06.12.12s-.06.12-.12.12Zm-.68,0h-.2c-.07,0-.12-.06-.12-.12s.06-.12.12-.12h.2c.07,0,.12.06.12.12s-.06.12-.12.12Zm-.68,0h-.2c-.07,0-.12-.06-.12-.12s.06-.12.12-.12h.2c.07,0,.12.06.12.12s-.06.12-.12.12Z"/>
      <path class="cls-3" d="m14.91,20.44h-.1c-.07,0-.12-.06-.12-.12s.06-.12.12-.12h.1c.07,0,.12.06.12.12s-.06.12-.12.12Z"/>
    </g>
    <g class="cls-6">
      <g>
        <path class="cls-3" d="m100,10.35s0,0,0,0h-.2c-.07,0-.12.06-.12.12s.06.12.12.12h.2s0,0,0,0v-.25Z"/>
        <path class="cls-3" d="m96.99,10.35c-.07,0-.12.06-.12.12s.06.12.12.12h.2c.07,0,.12-.06.12-.12s-.06-.12-.12-.12h-.2Z"/>
        <path class="cls-3" d="m98.39,10.35c-.07,0-.12.06-.12.12s.06.12.12.12h.2c.07,0,.12-.06.12-.12s-.06-.12-.12-.12h-.2Z"/>
        <path class="cls-3" d="m99.1,10.35c-.07,0-.12.06-.12.12s.06.12.12.12h.2c.07,0,.12-.06.12-.12s-.06-.12-.12-.12h-.2Z"/>
        <path class="cls-3" d="m93.8,10.47c0-.07-.06-.12-.12-.12h-.2c-.07,0-.12.06-.12.12s.06.12.12.12h.2c.07,0,.12-.06.12-.12Z"/>
        <path class="cls-3" d="m97.69,10.35c-.07,0-.12.06-.12.12s.06.12.12.12h.2c.07,0,.12-.06.12-.12s-.06-.12-.12-.12h-.2Z"/>
        <path class="cls-3" d="m94.88,10.35c-.07,0-.12.06-.12.12s.06.12.12.12h.2c.07,0,.12-.06.12-.12s-.06-.12-.12-.12h-.2Z"/>
        <path class="cls-3" d="m94.17,10.35c-.07,0-.12.06-.12.12s.06.12.12.12h.2c.07,0,.12-.06.12-.12s-.06-.12-.12-.12h-.2Z"/>
        <path class="cls-3" d="m95.58,10.35c-.07,0-.12.06-.12.12s.06.12.12.12h.2c.07,0,.12-.06.12-.12s-.06-.12-.12-.12h-.2Z"/>
        <path class="cls-3" d="m96.28,10.35c-.07,0-.12.06-.12.12s.06.12.12.12h.2c.07,0,.12-.06.12-.12s-.06-.12-.12-.12h-.2Z"/>
      </g>
      <path class="cls-3" d="m92.97,10.6h-.1c-.07,0-.12-.06-.12-.12s.06-.12.12-.12h.1c.07,0,.12.06.12.12s-.06.12-.12.12Z"/>
    </g>
    <g class="cls-6">
      <g>
        <path class="cls-3" d="m97.86,11.39c-.07,0-.12.06-.12.12s.06.12.12.12h.2c.07,0,.12-.06.12-.12s-.06-.12-.12-.12h-.2Z"/>
        <path class="cls-3" d="m97.15,11.39c-.07,0-.12.06-.12.12s.06.12.12.12h.2c.07,0,.12-.06.12-.12s-.06-.12-.12-.12h-.2Z"/>
        <path class="cls-3" d="m99.26,11.39c-.07,0-.12.06-.12.12s.06.12.12.12h.2c.07,0,.12-.06.12-.12s-.06-.12-.12-.12h-.2Z"/>
        <path class="cls-3" d="m93.96,11.52c0-.07-.06-.12-.12-.12h-.2c-.07,0-.12.06-.12.12s.06.12.12.12h.2c.07,0,.12-.06.12-.12Z"/>
        <path class="cls-3" d="m98.56,11.39c-.07,0-.12.06-.12.12s.06.12.12.12h.2c.07,0,.12-.06.12-.12s-.06-.12-.12-.12h-.2Z"/>
        <path class="cls-3" d="m96.45,11.39c-.07,0-.12.06-.12.12s.06.12.12.12h.2c.07,0,.12-.06.12-.12s-.06-.12-.12-.12h-.2Z"/>
        <path class="cls-3" d="m100,11.39h-.04c-.07,0-.12.06-.12.12s.06.12.12.12h.04v-.25Z"/>
        <path class="cls-3" d="m94.34,11.39c-.07,0-.12.06-.12.12s.06.12.12.12h.2c.07,0,.12-.06.12-.12s-.06-.12-.12-.12h-.2Z"/>
        <path class="cls-3" d="m95.75,11.39c-.07,0-.12.06-.12.12s.06.12.12.12h.2c.07,0,.12-.06.12-.12s-.06-.12-.12-.12h-.2Z"/>
        <path class="cls-3" d="m95.04,11.39c-.07,0-.12.06-.12.12s.06.12.12.12h.2c.07,0,.12-.06.12-.12s-.06-.12-.12-.12h-.2Z"/>
      </g>
      <path class="cls-3" d="m93.14,11.64h-.1c-.07,0-.12-.06-.12-.12s.06-.12.12-.12h.1c.07,0,.12.06.12.12s-.06.12-.12.12Z"/>
    </g>
    <g class="cls-6">
      <path class="cls-3" d="m99.86,12.69h-.19c-.07,0-.12-.06-.12-.12s.06-.12.12-.12h.19c.07,0,.12.06.12.12s-.06.12-.12.12Zm-.68,0h-.19c-.07,0-.12-.06-.12-.12s.06-.12.12-.12h.19c.07,0,.12.06.12.12s-.06.12-.12.12Zm-.68,0h-.19c-.07,0-.12-.06-.12-.12s.06-.12.12-.12h.19c.07,0,.12.06.12.12s-.06.12-.12.12Zm-.68,0h-.19c-.07,0-.12-.06-.12-.12s.06-.12.12-.12h.19c.07,0,.12.06.12.12s-.06.12-.12.12Zm-.68,0h-.19c-.07,0-.12-.06-.12-.12s.06-.12.12-.12h.19c.07,0,.12.06.12.12s-.06.12-.12.12Zm-.68,0h-.19c-.07,0-.12-.06-.12-.12s.06-.12.12-.12h.19c.07,0,.12.06.12.12s-.06.12-.12.12Zm-.68,0h-.19c-.07,0-.12-.06-.12-.12s.06-.12.12-.12h.19c.07,0,.12.06.12.12s-.06.12-.12.12Zm-.68,0h-.19c-.07,0-.12-.06-.12-.12s.06-.12.12-.12h.19c.07,0,.12.06.12.12s-.06.12-.12.12Zm-.68,0h-.19c-.07,0-.12-.06-.12-.12s.06-.12.12-.12h.19c.07,0,.12.06.12.12s-.06.12-.12.12Z"/>
      <path class="cls-3" d="m93.78,12.69h-.1c-.07,0-.12-.06-.12-.12s.06-.12.12-.12h.1c.07,0,.12.06.12.12s-.06.12-.12.12Z"/>
    </g>
    <g class="cls-6">
      <g>
        <path class="cls-3" d="m98.43,13.49c-.07,0-.12.06-.12.12s.06.12.12.12h.2c.07,0,.12-.06.12-.12s-.06-.12-.12-.12h-.2Z"/>
        <path class="cls-3" d="m97.05,13.49c-.07,0-.12.06-.12.12s.06.12.12.12h.2c.07,0,.12-.06.12-.12s-.06-.12-.12-.12h-.2Z"/>
        <path class="cls-3" d="m97.74,13.49c-.07,0-.12.06-.12.12s.06.12.12.12h.2c.07,0,.12-.06.12-.12s-.06-.12-.12-.12h-.2Z"/>
        <path class="cls-3" d="m99.13,13.49c-.07,0-.12.06-.12.12s.06.12.12.12h.2c.07,0,.12-.06.12-.12s-.06-.12-.12-.12h-.2Z"/>
        <path class="cls-3" d="m93.91,13.61c0-.07-.06-.12-.12-.12h-.2c-.07,0-.12.06-.12.12s.06.12.12.12h.2c.07,0,.12-.06.12-.12Z"/>
        <path class="cls-3" d="m95.67,13.49c-.07,0-.12.06-.12.12s.06.12.12.12h.2c.07,0,.12-.06.12-.12s-.06-.12-.12-.12h-.2Z"/>
        <path class="cls-3" d="m94.28,13.49c-.07,0-.12.06-.12.12s.06.12.12.12h.2c.07,0,.12-.06.12-.12s-.06-.12-.12-.12h-.2Z"/>
        <path class="cls-3" d="m100,13.49h-.18c-.07,0-.12.06-.12.12s.06.12.12.12h.18v-.25Z"/>
        <path class="cls-3" d="m94.97,13.49c-.07,0-.12.06-.12.12s.06.12.12.12h.2c.07,0,.12-.06.12-.12s-.06-.12-.12-.12h-.2Z"/>
        <path class="cls-3" d="m96.36,13.49c-.07,0-.12.06-.12.12s.06.12.12.12h.2c.07,0,.12-.06.12-.12s-.06-.12-.12-.12h-.2Z"/>
      </g>
      <path class="cls-3" d="m93.09,13.74h-.1c-.07,0-.12-.06-.12-.12s.06-.12.12-.12h.1c.07,0,.12.06.12.12s-.06.12-.12.12Z"/>
    </g>
    <g class="cls-6">
      <g>
        <path class="cls-3" d="m97.01,14.6c-.07,0-.12.06-.12.12s.06.12.12.12h.21c.07,0,.12-.06.12-.12s-.06-.12-.12-.12h-.21Z"/>
        <path class="cls-3" d="m97.74,14.6c-.07,0-.12.06-.12.12s.06.12.12.12h.21c.07,0,.12-.06.12-.12s-.06-.12-.12-.12h-.21Z"/>
        <path class="cls-3" d="m100,14.6h-.09c-.07,0-.12.06-.12.12s.06.12.12.12h.09v-.25Z"/>
        <path class="cls-3" d="m99.18,14.6c-.07,0-.12.06-.12.12s.06.12.12.12h.21c.07,0,.12-.06.12-.12s-.06-.12-.12-.12h-.21Z"/>
        <path class="cls-3" d="m98.46,14.6c-.07,0-.12.06-.12.12s.06.12.12.12h.21c.07,0,.12-.06.12-.12s-.06-.12-.12-.12h-.21Z"/>
        <path class="cls-3" d="m96.29,14.6c-.07,0-.12.06-.12.12s.06.12.12.12h.21c.07,0,.12-.06.12-.12s-.06-.12-.12-.12h-.21Z"/>
        <path class="cls-3" d="m94.83,14.6c-.07,0-.12.06-.12.12s.06.12.12.12h.21c.07,0,.12-.06.12-.12s-.06-.12-.12-.12h-.21Z"/>
        <path class="cls-3" d="m94.11,14.85h.21c.07,0,.12-.06.12-.12s-.06-.12-.12-.12h-.21c-.07,0-.12.06-.12.12s.06.12.12.12Z"/>
        <path class="cls-3" d="m95.56,14.6c-.07,0-.12.06-.12.12s.06.12.12.12h.21c.07,0,.12-.06.12-.12s-.06-.12-.12-.12h-.21Z"/>
      </g>
      <path class="cls-3" d="m93.59,14.85h-.1c-.07,0-.12-.06-.12-.12s.06-.12.12-.12h.1c.07,0,.12.06.12.12s-.06.12-.12.12Z"/>
    </g>
    <g class="cls-6">
      <g>
        <path class="cls-3" d="m97.69,15.63c-.07,0-.12.06-.12.12s.06.12.12.12h.2c.07,0,.12-.06.12-.12s-.06-.12-.12-.12h-.2Z"/>
        <path class="cls-3" d="m98.37,15.63c-.07,0-.12.06-.12.12s.06.12.12.12h.2c.07,0,.12-.06.12-.12s-.06-.12-.12-.12h-.2Z"/>
        <path class="cls-3" d="m97,15.63c-.07,0-.12.06-.12.12s.06.12.12.12h.2c.07,0,.12-.06.12-.12s-.06-.12-.12-.12h-.2Z"/>
        <path class="cls-3" d="m93.9,15.75c0-.07-.06-.12-.12-.12h-.2c-.07,0-.12.06-.12.12s.06.12.12.12h.2c.07,0,.12-.06.12-.12Z"/>
        <path class="cls-3" d="m99.06,15.63c-.07,0-.12.06-.12.12s.06.12.12.12h.2c.07,0,.12-.06.12-.12s-.06-.12-.12-.12h-.2Z"/>
        <path class="cls-3" d="m96.32,15.63c-.07,0-.12.06-.12.12s.06.12.12.12h.2c.07,0,.12-.06.12-.12s-.06-.12-.12-.12h-.2Z"/>
        <path class="cls-3" d="m94.27,15.63c-.07,0-.12.06-.12.12s.06.12.12.12h.2c.07,0,.12-.06.12-.12s-.06-.12-.12-.12h-.2Z"/>
        <path class="cls-3" d="m95.63,15.63c-.07,0-.12.06-.12.12s.06.12.12.12h.2c.07,0,.12-.06.12-.12s-.06-.12-.12-.12h-.2Z"/>
        <path class="cls-3" d="m100,15.65s-.04-.03-.06-.03h-.2c-.07,0-.12.06-.12.12s.06.12.12.12h.2s.04-.01.06-.03v-.2Z"/>
        <path class="cls-3" d="m94.95,15.63c-.07,0-.12.06-.12.12s.06.12.12.12h.2c.07,0,.12-.06.12-.12s-.06-.12-.12-.12h-.2Z"/>
      </g>
      <path class="cls-3" d="m93.09,15.88h-.1c-.07,0-.12-.06-.12-.12s.06-.12.12-.12h.1c.07,0,.12.06.12.12s-.06.12-.12.12Z"/>
    </g>
    <path class="cls-5" d="m50,24.05h0c-.34-.02-1.01-.67-1.14-.79-.05-.05-.05-.13,0-.18.05-.05.13-.05.18,0,.3.29.8.71.98.72h0c.11,0,.58-.36.95-.7.05-.05.13-.04.18,0,.05.05.04.13,0,.18-.19.18-.85.77-1.13.77Z"/>
    <path class="cls-5" d="m50.01,24.93c-.34-.02-1.01-.67-1.14-.79-.05-.05-.05-.13,0-.18.05-.05.13-.05.18,0,.3.29.8.71.98.72.11,0,.58-.36.95-.7.05-.05.13-.04.18,0,.05.05.04.13,0,.18-.19.18-.85.77-1.13.77Z"/>
  </g>
</svg>